<svg width="150" height="120" viewBox="0 0 150 120" fill="none" xmlns="http://www.w3.org/2000/svg">
<g clip-path="url(#clip0_4219_7186)">
<path d="M93.75 112.125C124.609 112.125 149.625 87.1089 149.625 56.25C149.625 25.3911 124.609 0.375 93.75 0.375C62.8911 0.375 37.875 25.3911 37.875 56.25C37.875 87.1089 62.8911 112.125 93.75 112.125Z" stroke="#C6FFC2" stroke-dasharray="3 3"/>
<path d="M44.25 112.125C68.4815 112.125 88.125 92.4815 88.125 68.25C88.125 44.0185 68.4815 24.375 44.25 24.375C20.0185 24.375 0.375 44.0185 0.375 68.25C0.375 92.4815 20.0185 112.125 44.25 112.125Z" stroke="#C6FFC2" stroke-dasharray="3 3"/>
<path d="M75 120C108.137 120 135 93.1371 135 60C135 26.8629 108.137 0 75 0C41.8629 0 15 26.8629 15 60C15 93.1371 41.8629 120 75 120Z" fill="#F3FFF2"/>
<path d="M75 108.03C101.526 108.03 123.03 86.5265 123.03 60.0002C123.03 33.474 101.526 11.9702 75 11.9702C48.4737 11.9702 26.97 33.474 26.97 60.0002C26.97 86.5265 48.4737 108.03 75 108.03Z" fill="#052C3C"/>
<path d="M119.872 91.9351C119.872 91.9351 120.457 92.2051 120.435 93.2176C120.412 94.2301 118.695 96.2176 118.695 96.2176L116.557 93.3301L119.872 91.9351Z" fill="black"/>
<path d="M121.343 98.1148L121.193 98.2873C117.235 103.055 112.568 107.186 107.355 110.535C106.793 110.895 106.23 111.247 105.653 111.585C104.048 112.545 102.39 113.43 100.68 114.24L100.508 114.315C100.451 114.348 100.39 114.376 100.328 114.397L99.54 114.765L99.3375 114.855C99.3375 114.675 99.39 114.577 99.39 114.577C99.39 114.577 99.7875 114.18 100.335 113.602C100.395 113.55 100.448 113.482 100.508 113.422L100.68 113.242C101.76 112.08 103.163 110.445 103.403 109.582C103.785 108.21 107.655 104.175 108.383 103.147L108.48 103.005C108.572 102.782 108.632 102.547 108.66 102.307C108.818 100.873 108.899 99.4306 108.9 97.9873C108.9 97.7323 108.9 97.5748 108.9 97.5748L109.313 97.3798L116.888 93.7573L117.48 93.4723L118.23 93.1123L118.358 93.2398C118.849 93.7376 119.303 94.2716 119.715 94.8373C120.474 95.808 121.028 96.9231 121.343 98.1148Z" fill="white"/>
<path d="M120.217 95.2499C120.09 95.0549 119.955 94.8674 119.827 94.6949C119.425 94.1511 118.987 93.6349 118.515 93.1499L118.387 93.0224L118.305 92.9399L118.207 92.9849L116.827 93.6449L109.5 97.0874L108.84 97.4024L108.75 97.4999V97.6424C108.75 97.8449 108.75 98.0699 108.75 98.2949C108.764 99.8015 108.654 101.307 108.42 102.795C108.409 102.855 108.389 102.914 108.36 102.967L108.277 103.095C108.052 103.402 107.527 104.025 106.912 104.715C105.487 106.35 103.537 108.592 103.267 109.582C103.042 110.385 101.767 111.9 100.71 113.032L100.537 113.22L100.365 113.4C99.765 114.037 99.3075 114.487 99.3 114.502V114.555C99.3 114.555 99.3 114.705 99.225 114.945L99.4125 114.862L99.615 114.772C99.6108 114.74 99.6108 114.707 99.615 114.675C99.72 114.57 100.012 114.277 100.365 113.88L100.537 113.7L100.71 113.512C101.812 112.327 103.335 110.58 103.597 109.635C103.86 108.69 105.847 106.425 107.175 104.91C107.827 104.16 108.322 103.59 108.555 103.26L108.615 103.185V103.117L108.652 103.042C108.72 102.84 108.768 102.632 108.795 102.42C108.795 102.285 108.84 102.142 108.855 101.985C109.02 100.575 109.05 98.3999 109.057 97.7549L116.76 94.0724L116.947 93.9824L117.495 93.7199L118.155 93.4049C118.656 93.9184 119.12 94.4673 119.542 95.0474C120.293 96.0251 120.829 97.1494 121.117 98.3474L121.267 98.1749L121.395 98.0099C121.169 97.0276 120.77 96.0932 120.217 95.2499ZM108.9 98.0024C108.898 99.4457 108.818 100.888 108.66 102.322C108.57 102.472 108.495 102.615 108.42 102.757C108.409 102.818 108.389 102.876 108.36 102.93L108.277 103.057C108.052 103.365 107.527 103.987 106.912 104.677C105.487 106.312 103.537 108.555 103.267 109.545C103.042 110.347 101.767 111.862 100.71 112.995L100.537 113.182V113.43C100.477 113.49 100.425 113.557 100.365 113.61V113.88L100.537 113.7L100.71 113.512C101.812 112.327 103.335 110.58 103.597 109.635C103.86 108.69 105.847 106.425 107.175 104.91C107.827 104.16 108.322 103.59 108.555 103.26L108.615 103.185V103.117L108.652 103.042C108.72 102.84 108.768 102.632 108.795 102.42C108.795 102.285 108.84 102.142 108.855 101.985C109.02 100.575 109.05 98.3999 109.057 97.7549L108.9 98.0024ZM116.977 93.8774L116.812 94.0049L117 93.9149L116.977 93.8774Z" fill="black"/>
<path d="M87.1125 50.34C87.1125 50.34 88.125 55.3049 87.3375 57.9599C87.3375 57.9599 88.8375 59.4225 87.87 60.2924C87.2714 60.6341 86.585 60.7906 85.8975 60.7424C85.8975 60.7424 84.9825 64.4924 81.165 64.7324C80.3526 64.8228 79.5302 64.7436 78.75 64.5C78.7384 64.4963 78.7262 64.4955 78.7143 64.4976C78.7024 64.4997 78.6912 64.5047 78.6817 64.512C78.6721 64.5194 78.6644 64.529 78.6594 64.5399C78.6543 64.5509 78.6519 64.5629 78.6525 64.5749L79.3125 69.57C79.3125 69.57 90.8175 72.2549 90.4875 74.5049C90.3225 75.6299 54.12 73.695 53.385 73.545C50.655 72.99 56.1525 69.8925 66.0525 67.155L70.965 57C70.965 57 67.2825 55.3425 67.6575 52.4025C68.0325 49.4625 70.5075 48.6525 71.5425 49.5C72.5775 50.3475 71.5425 45.9599 75.99 45.7049C80.4375 45.4499 87.1125 50.34 87.1125 50.34Z" fill="white"/>
<path d="M85.7475 75.0001H84.1275C80.985 75.0001 76.7775 74.8426 71.6175 74.6401C62.82 74.2876 53.715 73.7776 53.325 73.6951C52.7775 73.5826 52.5 73.3651 52.485 73.0426C52.485 72.2251 54.4725 71.1376 56.175 70.3651C59.338 69.003 62.5968 67.875 65.925 66.9901L70.7475 57.0826C70.1444 56.7713 69.5825 56.3858 69.075 55.9351C68.5386 55.5227 68.1136 54.983 67.8386 54.3648C67.5636 53.7466 67.4472 53.0696 67.5 52.3951C67.5382 51.7181 67.7593 51.0642 68.1396 50.5029C68.52 49.9416 69.0454 49.494 69.66 49.2076C69.9805 49.0566 70.3352 48.9931 70.6882 49.0234C71.0412 49.0537 71.3799 49.1767 71.67 49.3801C71.76 49.4476 71.79 49.4476 71.79 49.4476C71.897 49.2544 71.9681 49.0435 72 48.8251C72.33 47.7376 72.945 45.7201 75.9525 45.5551C77.835 45.4501 80.295 46.2001 83.2725 47.8051C84.624 48.5279 85.929 49.3345 87.18 50.2201L87.2325 50.2576V50.3251C87.27 50.5276 88.2225 55.2451 87.4875 57.9301C87.957 58.3773 88.2566 58.9739 88.335 59.6176C88.3322 59.7756 88.2952 59.9312 88.2266 60.0736C88.158 60.216 88.0594 60.3419 87.9375 60.4426C87.3523 60.8071 86.6681 60.9801 85.98 60.9376C85.7732 61.5933 85.4617 62.2113 85.0575 62.7676C84.6095 63.4001 84.0236 63.9226 83.3441 64.2955C82.6645 64.6684 81.9092 64.8819 81.135 64.9201C80.3459 65.0014 79.5488 64.943 78.78 64.7476L79.4025 69.4576C79.9725 69.5926 82.5225 70.2076 85.0125 71.0551C88.92 72.3676 90.7425 73.5151 90.5925 74.5576C90.5854 74.5931 90.5711 74.6267 90.5505 74.6564C90.5299 74.686 90.5033 74.7111 90.4725 74.7301C90.39 74.8051 90.06 75.0001 85.7475 75.0001ZM70.5675 49.3726C70.2893 49.3614 70.0116 49.4047 69.75 49.5001C69.1943 49.7662 68.7202 50.1766 68.3772 50.6885C68.0342 51.2004 67.8348 51.7949 67.8 52.4101C67.4475 55.1926 70.965 56.8126 71.0025 56.8276L71.1675 56.9026L71.0925 57.0601L66.15 67.3051H66.075C62.7466 68.1895 59.4878 69.3176 56.325 70.6801C52.9875 72.1801 52.8375 72.9301 52.8375 73.0276C52.8375 73.1251 53.19 73.3126 53.3925 73.3501C53.7525 73.4251 62.7675 73.9276 71.7 74.2876C76.8675 74.4976 81.0675 74.6176 84.2025 74.6476C89.1075 74.7001 90.105 74.5126 90.3 74.4151C90.3 73.9276 89.6175 72.9151 84.9525 71.3401C82.155 70.4026 79.2825 69.7276 79.26 69.7201H79.14L78.465 64.6051C78.4594 64.563 78.4648 64.5202 78.4806 64.4808C78.4963 64.4414 78.5219 64.4067 78.555 64.3801C78.5917 64.3597 78.633 64.349 78.675 64.349C78.717 64.349 78.7583 64.3597 78.795 64.3801C79.5593 64.6134 80.3639 64.685 81.1575 64.5901C81.8823 64.5601 82.5904 64.3631 83.2266 64.0145C83.8627 63.6658 84.4097 63.1749 84.825 62.5801C85.2331 62.0229 85.5403 61.3984 85.7325 60.7351V60.5926H85.875C86.5161 60.6376 87.1567 60.497 87.72 60.1876C87.8051 60.1186 87.874 60.0318 87.9219 59.9333C87.9699 59.8349 87.9957 59.7271 87.9975 59.6176C87.8971 59.0414 87.6098 58.5142 87.18 58.1176L87.105 58.0426V57.9376C87.855 55.5151 87 51.0676 86.8875 50.4376C86.2425 49.9801 80.0625 45.6676 75.9375 45.9001C73.1775 46.0576 72.63 47.8501 72.3 48.9001C72.1575 49.3726 72.06 49.6501 71.8125 49.7626C71.7333 49.7778 71.6516 49.7735 71.5745 49.75C71.4974 49.7264 71.4272 49.6844 71.37 49.6276C71.136 49.4601 70.8552 49.3709 70.5675 49.3726Z" fill="black"/>
<path d="M83.0325 59.8423C83.9276 60.3151 84.9007 60.6225 85.905 60.7498L83.0325 59.8423Z" fill="white"/>
<path d="M85.8974 60.9149C84.8673 60.7925 83.8683 60.4824 82.95 59.9999L83.115 59.6924C83.988 60.1487 84.9352 60.4458 85.9125 60.5699L85.8974 60.9149Z" fill="black"/>
<path d="M77.34 47.7375C77.34 47.7375 83.9625 54.015 91.095 48.4875C98.2275 42.96 83.1 34.5825 76.2 39.54C74.875 39.3632 73.5271 39.5688 72.315 40.1325C69.7875 41.3625 68.8125 44.6325 68.8125 45.9075C68.8125 49.0425 69.0825 49.7325 69.0825 49.7325C69.0825 49.7325 71.6175 47.9775 72.885 52.26C73.8 55.365 75.015 55.515 75.525 54.555C76.035 53.595 75.48 46.3875 77.34 47.7375Z" fill="black"/>
<path d="M70.8975 53.4748C70.8521 53.4738 70.809 53.4549 70.7775 53.4223C70.2687 52.9196 69.8613 52.3238 69.5775 51.6673C69.5682 51.6247 69.5753 51.5802 69.5975 51.5427C69.6197 51.5052 69.6553 51.4774 69.6971 51.4651C69.7389 51.4527 69.7839 51.4567 69.8229 51.4761C69.8619 51.4955 69.8921 51.529 69.9075 51.5698C70.1783 52.1689 70.5571 52.713 71.025 53.1748C71.0509 53.1985 71.0691 53.2295 71.0769 53.2638C71.0848 53.298 71.082 53.3338 71.069 53.3664C71.0559 53.3991 71.0332 53.4269 71.0039 53.4463C70.9746 53.4657 70.9401 53.4756 70.905 53.4748H70.8975Z" fill="black"/>
<path d="M69.2925 53.2498C69.2492 53.25 69.2075 53.2339 69.1755 53.2047C69.1436 53.1755 69.1237 53.1354 69.12 53.0923C69.0501 52.6003 69.1408 52.0988 69.3786 51.6624C69.6164 51.226 69.9886 50.8779 70.44 50.6698C70.605 50.6173 70.68 50.6698 70.71 50.7373C70.7277 50.7653 70.7369 50.7979 70.7366 50.831C70.7363 50.8641 70.7265 50.8964 70.7083 50.9241C70.6901 50.9518 70.6643 50.9737 70.634 50.9871C70.6037 51.0005 70.5702 51.0049 70.5375 50.9998C70.1632 51.1835 69.8573 51.4819 69.6643 51.8515C69.4714 52.2211 69.4016 52.6427 69.465 53.0548C69.467 53.0775 69.4646 53.1003 69.4578 53.1221C69.451 53.1438 69.4399 53.1639 69.4253 53.1814C69.4106 53.1988 69.3927 53.2132 69.3725 53.2236C69.3522 53.2341 69.3302 53.2404 69.3075 53.2423L69.2925 53.2498Z" fill="black"/>
<path d="M78.75 64.3052C77.8121 64.0933 76.8938 63.8022 76.005 63.4352C75.9389 63.4073 75.8655 63.4016 75.7959 63.4192C75.7262 63.4368 75.6643 63.4766 75.6193 63.5326C75.5744 63.5885 75.5489 63.6576 75.5468 63.7294C75.5446 63.8011 75.566 63.8716 75.6075 63.9302C76.5075 65.2202 78.0975 67.5302 79.275 69.5777L78.75 64.3052Z" fill="black"/>
<path d="M81.9603 56.301C82.2209 56.2332 82.356 55.8858 82.2622 55.525C82.1684 55.1642 81.881 54.9267 81.6205 54.9945C81.3599 55.0622 81.2248 55.4097 81.3186 55.7705C81.4124 56.1312 81.6997 56.3688 81.9603 56.301Z" fill="#191919"/>
<path d="M87.3092 56.1024C87.369 55.7345 87.202 55.4012 86.9363 55.358C86.6705 55.3148 86.4066 55.5781 86.3468 55.946C86.287 56.314 86.454 56.6473 86.7197 56.6905C86.9855 56.7337 87.2494 56.4704 87.3092 56.1024Z" fill="#191919"/>
<path d="M47.6176 116.647L47.7151 116.745L47.6176 116.647Z" fill="#FDF6EE"/>
<path d="M119.872 91.9352C119.752 92.0252 119.212 92.4002 118.417 92.9927L118.267 93.0977L117.577 93.6227L117.105 93.9827C114.45 96.0527 110.61 99.3602 108.855 102.368C108.727 102.578 108.622 102.788 108.517 102.99L108.375 102.885L107.002 101.888L106.845 101.775L105.945 101.115L105.84 101.04L100.29 97.0127C100.29 97.0127 100.425 101.288 100.5 106.763C100.5 106.838 100.5 106.913 100.5 106.988C100.5 108.945 100.545 111.038 100.545 113.153V114.293C100.488 114.326 100.428 114.354 100.365 114.375L99.5775 114.743L99.375 114.833L99.1875 114.915C89.4334 119.193 78.718 120.803 68.1375 119.58H67.875H67.635C62.6132 118.956 57.6912 117.696 52.9875 115.83C52.2375 115.545 51.555 115.253 50.8575 114.938L50.6625 115.043L50.85 114.93L50.655 114.848L50.4825 114.773H50.4L49.5525 114.383C48.7575 114.015 47.9625 113.633 47.19 113.213L46.785 112.995C44.2414 111.642 41.7999 110.106 39.48 108.398L39 108C38.49 107.618 37.98 107.25 37.5 106.815L37.32 106.673C37.245 104.76 37.2075 102.878 37.215 101.108C37.215 100.823 37.215 100.545 37.215 100.268C37.215 100.268 36.7875 97.7177 36.525 94.2302C36.525 94.1702 36.525 94.1177 36.525 94.0577C36.2025 89.5577 36.1575 83.4977 37.665 79.4477L37.7775 79.1177C38.2382 77.7969 39.0847 76.6447 40.2075 75.8102C45.4575 72.2852 54.9075 69.0602 59.8125 67.9577L60 67.9127C60.7168 67.7479 61.4432 67.6277 62.175 67.5527C62.175 67.5527 62.355 67.7027 62.6925 67.9502L62.865 68.0852L63.045 68.2052C65.9925 70.3427 75.795 76.5752 82.6875 70.6502L82.8375 70.5227L82.9875 70.3802L83.3475 70.0352C83.3475 70.0352 88.9049 70.2527 97.7999 74.9252L97.9799 75.0227C101.598 76.9525 105.052 79.1749 108.307 81.6677L108.442 81.7727C112.494 84.878 116.314 88.2745 119.872 91.9352Z" fill="#FDF6EE"/>
<path d="M37.6725 113.302V113.467C37.6759 113.412 37.6759 113.357 37.6725 113.302ZM120 91.8149C115.557 87.2289 110.693 83.0706 105.472 79.3949C101.83 76.8381 97.9434 74.6475 93.87 72.8549C87.39 70.0574 83.37 69.8549 83.37 69.8549H83.25L83.19 69.9074C83.055 70.0499 82.9125 70.1849 82.77 70.3124L82.6125 70.4549L82.455 70.5899C80.801 71.9936 78.7335 72.8179 76.5675 72.9374C74.2342 73.0247 71.9094 72.6104 69.75 71.7224C67.4366 70.8017 65.2452 69.6002 63.225 68.1449L63.0525 68.0249L62.865 67.8899C62.4825 67.6049 62.265 67.4324 62.2575 67.4249L62.25 67.3799H62.1825C60.45 67.4999 56.3925 68.5799 52.32 70.0049C49.38 71.0324 43.89 73.1399 40.125 75.6674C38.625 76.6574 37.56 78.5849 36.915 81.3899C36.3484 84.1019 36.0967 86.8702 36.165 89.6399C36.2162 93.2059 36.5119 96.7643 37.05 100.29C37.05 102.24 37.05 104.355 37.1475 106.522C37.2016 106.574 37.2592 106.622 37.32 106.665L37.5 106.807C37.4325 105.127 37.395 103.477 37.3875 101.91C37.3875 101.347 37.3875 100.8 37.3875 100.26C37.3875 100.087 36.96 97.6124 36.7125 94.2599C36.7125 94.1399 36.7125 94.0199 36.7125 93.8999C36.615 92.5649 36.5475 91.1099 36.54 89.6174C36.4763 86.8751 36.728 84.1347 37.29 81.4499C37.4407 80.7825 37.6362 80.126 37.875 79.4849C37.875 79.3724 37.95 79.2674 37.995 79.1624C38.4433 77.8759 39.2661 76.7528 40.3575 75.9374C44.1075 73.4324 49.5525 71.3399 52.47 70.3199C54.8756 69.4659 57.3239 68.7374 59.805 68.1374L60.195 68.0474C60.8483 67.9004 61.5093 67.7902 62.175 67.7174L62.5425 68.0024L62.7225 68.1299L62.8875 68.2574C64.9956 69.7854 67.2857 71.0451 69.705 72.0074C71.9101 72.922 74.2869 73.3493 76.6725 73.2599C78.9953 73.1326 81.2059 72.2203 82.9425 70.6724L83.0925 70.5449L83.235 70.4099L83.4675 70.1849C84.0375 70.1849 87.8325 70.5749 93.765 73.1324C95.07 73.6974 96.385 74.3249 97.71 75.0149L98.0475 75.1874C100.555 76.5289 102.982 78.0164 105.315 79.6424C106.285 80.3174 107.257 81.0224 108.232 81.7574L108.51 81.9749C112.452 85.007 116.174 88.3153 119.647 91.8749L119.19 92.1974L118.222 92.9474L117.54 93.4649L117.03 93.8549L116.865 93.9824C116.295 94.4249 115.672 94.9274 115.035 95.4824C112.696 97.331 110.639 99.5115 108.93 101.955C108.855 102.075 108.78 102.195 108.712 102.315C108.645 102.435 108.547 102.607 108.472 102.75L107.235 101.85L106.927 101.625L105.69 100.725L100.147 96.6899V97.0424C100.147 97.1474 100.282 101.347 100.357 106.725C100.357 106.867 100.357 107.01 100.357 107.152C100.357 109.132 100.402 111.247 100.402 113.377V113.895C100.402 114.067 100.402 114.247 100.402 114.42C100.465 114.399 100.525 114.371 100.582 114.337L100.755 114.262V113.01C100.755 105.93 100.552 99.0149 100.507 97.3874L108.322 103.072L108.457 103.17L108.6 103.275L108.637 103.185V103.117L108.675 103.042C110.25 99.9374 114.382 96.3674 117.187 94.1849L118.23 93.3824L118.365 93.2774L118.515 93.1724C119.385 92.5199 119.947 92.1374 119.97 92.1224H120.022L120.142 92.0399L120 91.8149ZM107.167 101.827L106.86 101.602L105.622 100.702L100.08 96.6674V97.0199C100.08 97.1249 100.215 101.325 100.29 106.702C100.29 106.845 100.29 106.987 100.29 107.13C100.29 109.11 100.335 111.225 100.335 113.355V113.602C100.395 113.55 100.447 113.482 100.507 113.422V113.175L100.68 112.987C100.68 105.907 100.477 98.9924 100.432 97.3649L108.247 103.05L108.33 102.922C108.359 102.868 108.379 102.81 108.39 102.75L107.167 101.827Z" fill="black"/>
<path d="M68.3775 84.3677C65.7975 84.3677 63.1175 84.2402 60.3375 83.9852C52.6433 83.266 45.0434 81.7581 37.6575 79.4852L37.77 79.1552C45.1334 81.4261 52.7107 82.934 60.3825 83.6552C66.9553 84.3483 73.5922 84.1363 80.1075 83.0252C87.36 81.6677 93.33 78.9377 97.86 74.9102L98.0925 75.1727C93.5175 79.2452 87.4875 81.9977 80.1675 83.3702C76.2765 84.0644 72.3298 84.3983 68.3775 84.3677Z" fill="#F2E5CD"/>
<path d="M62.7 96.93C53.881 96.9237 45.0856 96.019 36.45 94.23L36.5325 93.8925C45.1311 95.6738 53.8887 96.576 62.67 96.585H63.6525C71.6142 96.6125 79.5432 95.5656 87.225 93.4725C95.8725 90.99 102.975 87.015 108.3 81.6675L108.547 81.915C103.17 87.3075 96.0225 91.3125 87.3225 93.81C79.6092 95.913 71.6473 96.965 63.6525 96.9375L62.7 96.93Z" fill="#F2E5CD"/>
<path d="M37.6875 113.475V113.31C37.6909 113.365 37.6909 113.42 37.6875 113.475Z" fill="#F2E5CD"/>
<path d="M100.567 106.935L100.462 107.01L100.29 107.13C96.135 110.07 90.3225 112.238 83.04 113.573C80.31 114.068 77.3625 114.45 74.2275 114.72H73.9275H73.6275C70.1925 114.998 66.5325 115.133 62.67 115.133H62.25C59.1675 115.133 56.1975 115.028 53.4525 114.885C52.6275 114.885 51.8175 114.795 51.0375 114.743C50.9301 114.75 50.8224 114.75 50.715 114.743H50.445H50.4L49.5525 114.353C50.0025 114.353 50.4675 114.42 50.94 114.443C51.045 114.443 51.1575 114.443 51.27 114.443H51.6C52.275 114.488 52.9725 114.525 53.685 114.555C56.3625 114.698 59.25 114.788 62.2425 114.795C66.42 114.795 70.365 114.653 74.0475 114.338H74.34H74.6475C77.5925 114.073 80.3425 113.705 82.8975 113.235C90.2775 111.885 96.1125 109.688 100.23 106.71L100.305 106.658L100.402 106.793L100.567 106.935Z" fill="#F2E5CD"/>
<path d="M39.495 108.367L39 108C38.3539 106.001 37.8082 103.971 37.365 101.917C37.305 101.655 37.245 101.385 37.1925 101.107C37.14 100.83 37.08 100.575 37.0275 100.297H37.2H37.3725C37.9088 103.029 38.6177 105.725 39.495 108.367Z" fill="black"/>
<path d="M47.6176 116.647L47.7151 116.745L47.6176 116.647Z" fill="black"/>
<path d="M63.1725 105.233L63.1275 105.3C63.0825 105.375 62.0925 106.965 61.6275 107.55L61.56 107.633L61.4925 107.708L61.3575 107.865C61.02 108.233 60.6075 108.653 60.1725 109.095C60.0225 109.245 59.8725 109.395 59.7075 109.545L59.1975 110.01L58.6725 110.46C58.4325 110.663 58.1925 110.858 57.9225 111.053C57.7875 111.165 57.6525 111.263 57.51 111.368L57.1575 111.615C56.754 111.888 56.3359 112.138 55.905 112.365C55.4738 112.61 55.028 112.828 54.57 113.018C54.03 113.243 53.46 113.505 52.8825 113.768H52.83C52.56 113.903 52.29 114.038 52.02 114.188C51.915 114.24 51.81 114.293 51.7125 114.353L51.135 114.66L51.0375 114.713L50.91 114.78L50.715 114.698L50.5425 114.623H50.4L50.94 114.323C52.0385 113.713 53.1674 113.159 54.3225 112.665C55.2173 112.289 56.0695 111.819 56.865 111.263L57.2325 111.008L57.285 110.955C58.7298 109.886 60.0528 108.661 61.23 107.303L61.32 107.205C61.7325 106.68 62.5575 105.39 62.745 105.083L60.21 96.8327L60.105 96.4802L58.605 91.5902L58.935 91.4927L60.435 96.4877L60.5475 96.8327L63.1725 105.233Z" fill="black"/>
<path d="M90.5699 89.8499L91.8824 90.9524L96.9075 90.3299L95.4374 89.3999L90.5699 89.8499Z" fill="#FDF6EE"/>
<path d="M91.83 91.1327L90.1425 89.7227L95.4825 89.2202L97.41 90.4502L91.83 91.1327ZM91.005 89.9927L91.935 90.7427L96.435 90.1952L95.4225 89.5502L91.005 89.9927Z" fill="black"/>
<path d="M90.57 89.8501L88.4325 96.6151L87.6825 99.2101L89.745 97.9651L91.8825 90.9526L90.57 89.8501Z" fill="#FDF6EE"/>
<path d="M87.39 99.5848L88.26 96.5848L90.51 89.5723L92.1075 90.9073L89.9175 98.0923L87.39 99.5848ZM90.6525 90.1498L88.59 96.6673L87.9675 98.8273L89.5875 97.8448L91.6725 91.0048L90.6525 90.1498Z" fill="black"/>
<path d="M89.745 97.9651L91.8825 90.9526L96.9075 90.3301L95.49 97.0951L89.745 97.9651Z" fill="black"/>
<path d="M47.6176 116.647L47.7151 116.745L47.6176 116.647Z" fill="white"/>
<path d="M94.1251 101.745C93.3751 103.245 88.7775 103.807 86.1901 104.662C84.7651 105.135 79.7476 109.792 74.3551 114.36L73.8976 114.742C71.8651 116.467 69.7876 118.155 67.8376 119.572H67.5976C62.5758 118.948 57.6538 117.688 52.9501 115.822C52.2001 115.537 51.5176 115.245 50.8201 114.93L50.6251 115.035L50.8126 114.922L50.6176 114.84L50.7151 114.78L51.2851 114.472C52.2986 113.919 53.34 113.418 54.4051 112.972C55.3161 112.577 56.1854 112.092 57.0001 111.525L57.3751 111.262L57.6151 111.082C58.9791 110.032 60.2353 108.849 61.3651 107.55L61.4251 107.737L62.0551 109.815C62.0551 109.815 63.5551 109.065 69.3451 106.815H69.4426C71.0476 106.207 72.9751 105.48 75.2926 104.632C86.0851 100.672 85.1251 98.7523 85.1251 97.5448C85.1251 96.3373 87.5326 95.1148 87.5851 94.2073C87.596 94.0434 87.6186 93.8805 87.6526 93.7198C87.6799 93.5739 87.7332 93.4342 87.8101 93.3073C87.84 93.235 87.8926 93.1744 87.9601 93.1348L88.2376 93.1723C88.4217 93.2093 88.5972 93.2805 88.7551 93.3823C88.8994 93.4683 89.0246 93.5832 89.1226 93.7198C89.1688 93.782 89.2067 93.8501 89.2351 93.9223C89.2753 94.0067 89.3079 94.0945 89.3326 94.1848C89.6551 95.3248 89.01 97.0348 88.9426 97.6423C88.9426 97.8523 89.0701 97.9573 89.3401 97.9798C89.4474 97.9873 89.5552 97.9873 89.6626 97.9798H89.8576H90.015H90.0901C91.4131 97.6586 92.6628 97.0884 93.7726 96.2998C94.9126 95.4448 95.5051 95.3473 95.7751 95.3848C95.8418 95.3873 95.9067 95.4081 95.9626 95.4448C96.69 96.4048 94.8451 100.222 94.1251 101.745Z" fill="white"/>
<path d="M96.2025 95.2498C96.126 95.1931 96.0349 95.1593 95.94 95.1523C95.6175 95.0998 94.9725 95.2123 93.795 96.0973C92.9813 96.675 92.09 97.1346 91.1475 97.4623C90.7802 97.5933 90.4043 97.6985 90.0225 97.7773H89.835H89.6475C89.5133 97.7986 89.3759 97.783 89.25 97.7323C89.25 97.7323 89.1975 97.7323 89.205 97.6348C89.24 97.4098 89.2876 97.187 89.3475 96.9673C89.565 96.0748 89.8875 94.7773 89.5125 93.8848L89.4 93.6673L89.34 93.5773L89.2725 93.4948C89.2097 93.4132 89.1365 93.3401 89.055 93.2773C88.9228 93.1779 88.7761 93.0994 88.62 93.0448C88.4387 92.9796 88.2495 92.9393 88.0575 92.9248H88.005C87.857 93.0167 87.7456 93.1572 87.69 93.3223C87.6402 93.4536 87.6026 93.5892 87.5775 93.7273C87.553 93.8636 87.5379 94.0014 87.5325 94.1398C87.5325 94.4923 86.9925 94.9723 86.49 95.4448C85.7925 96.0973 85.0725 96.7648 85.0725 97.4923C85.0725 97.5898 85.0725 97.6798 85.0725 97.7773C85.0725 98.3623 85.1475 99.0898 83.9925 100.125C82.5675 101.4 79.74 102.802 75.345 104.415C66.2025 107.76 63.0225 109.177 62.28 109.522L61.6725 107.527L61.5 107.175L61.38 107.31L61.29 107.407C60.1127 108.766 58.7898 109.99 57.345 111.06L57.2925 111.112L56.925 111.367C56.1295 111.923 55.2772 112.394 54.3825 112.77C53.2274 113.264 52.0984 113.817 51 114.427L50.46 114.727H50.505L50.6775 114.802L50.8725 114.885L50.685 114.997L50.88 114.892L51 114.817L51.0975 114.765L51.675 114.457C51.7725 114.397 51.8775 114.345 51.9825 114.292L52.7925 113.872H52.845C53.4225 113.587 53.9925 113.325 54.5325 113.122C54.9904 112.932 55.4362 112.714 55.8675 112.47C56.2983 112.243 56.7164 111.992 57.12 111.72L57.4725 111.472C57.615 111.367 57.75 111.27 57.885 111.157C58.14 110.962 58.38 110.767 58.635 110.565L59.16 110.115L59.67 109.65C59.835 109.5 59.985 109.35 60.135 109.2C60.585 108.757 60.9825 108.337 61.32 107.97L61.965 110.077V110.137L62.1525 110.047C62.1525 110.047 63.6525 109.297 69.2175 107.167C70.875 106.53 72.9075 105.772 75.3675 104.872C79.8 103.245 82.6725 101.82 84.1275 100.507C84.5425 100.216 84.8724 99.8188 85.0833 99.3574C85.2941 98.8961 85.3784 98.387 85.3275 97.8823C85.3275 97.7923 85.3275 97.7023 85.3275 97.6198C85.3275 97.0423 86.025 96.3973 86.64 95.8273C87.255 95.2573 87.7575 94.7773 87.7875 94.2898C87.7978 94.1021 87.828 93.9161 87.8775 93.7348C87.9049 93.6086 87.9614 93.4904 88.0425 93.3898C88.2197 93.4057 88.3926 93.454 88.5525 93.5323C88.7374 93.6041 88.8967 93.7295 89.01 93.8923C89.0378 93.9357 89.0629 93.9808 89.085 94.0273C89.132 94.1042 89.1673 94.1876 89.19 94.2748C89.2272 94.3842 89.2524 94.4974 89.265 94.6123C89.3003 95.4166 89.1963 96.221 88.9575 96.9898C88.895 97.2245 88.8449 97.4623 88.8075 97.7023C88.793 97.7885 88.8062 97.8771 88.8453 97.9553C88.8844 98.0334 88.9473 98.0972 89.025 98.1373C89.0675 98.1606 89.1129 98.1782 89.16 98.1898C89.247 98.2028 89.3355 98.2028 89.4225 98.1898C89.537 98.2046 89.6529 98.2046 89.7675 98.1898C90.3049 98.1173 90.8314 97.9788 91.335 97.7773C92.2563 97.4385 93.1288 96.9795 93.93 96.4123C95.025 95.5873 95.5725 95.5123 95.79 95.5348H95.8875C96.3975 96.5248 94.6575 100.192 93.99 101.587L93.93 101.722C93.4575 102.72 90.975 103.305 88.785 103.83C87.8025 104.062 86.865 104.287 86.0925 104.542C85.035 104.887 82.1925 107.362 78.5925 110.497C77.1375 111.757 75.5925 113.1 74.0325 114.427L73.5675 114.817C71.535 116.527 69.48 118.192 67.5675 119.595H67.8075H68.07C70.0275 118.147 72.1125 116.445 74.1675 114.712L74.6325 114.322C76.0725 113.1 77.4825 111.87 78.8175 110.707C82.2525 107.707 85.2225 105.15 86.2125 104.82C86.9625 104.572 87.9 104.347 88.875 104.115C91.2525 103.552 93.7125 102.967 94.2525 101.812L94.3125 101.685C95.595 99.0598 96.795 96.2323 96.2025 95.2498ZM87.6975 93.6823C87.6635 93.843 87.6409 94.0059 87.63 94.1698C87.5775 95.0773 85.17 96.3073 85.17 97.5073C85.17 98.7073 86.13 100.635 75.3375 104.595C73.02 105.442 71.0925 106.17 69.4875 106.777H69.39C63.585 109.027 62.1 109.777 62.1 109.777L61.5 107.715L61.365 107.872L62.01 109.98V110.04L62.1975 109.95C62.1975 109.95 63.6975 109.2 69.2625 107.07C70.92 106.432 72.9525 105.675 75.4125 104.775C79.845 103.147 82.7175 101.722 84.1725 100.41C84.5875 100.118 84.9174 99.7213 85.1283 99.2599C85.3391 98.7986 85.4234 98.2895 85.3725 97.7848C85.3725 97.6948 85.3725 97.6048 85.3725 97.5223C85.3725 96.9448 86.07 96.2998 86.685 95.7298C87.3 95.1598 87.8025 94.6798 87.8325 94.1923C87.8428 94.0046 87.873 93.8186 87.9225 93.6373L87.6975 93.6823ZM90.18 97.8823H90.105H89.9475H89.7525C89.6451 97.8898 89.5373 97.8898 89.43 97.8823C89.16 97.8823 89.01 97.7548 89.0325 97.5448C89.1 96.9373 89.7825 95.2273 89.4225 94.0873C89.3979 93.9971 89.3652 93.9092 89.325 93.8248C89.2966 93.7526 89.2587 93.6845 89.2125 93.6223C89.1145 93.4857 88.9894 93.3708 88.845 93.2848L88.605 93.3598C88.7899 93.4316 88.9492 93.557 89.0625 93.7198C89.0903 93.7632 89.1154 93.8083 89.1375 93.8548C89.1845 93.9317 89.2198 94.0151 89.2425 94.1023C89.2797 94.2117 89.3049 94.3249 89.3175 94.4398C89.3528 95.2441 89.2488 96.0485 89.01 96.8173C88.9475 97.052 88.8974 97.2898 88.86 97.5298C88.8455 97.616 88.8587 97.7046 88.8978 97.7828C88.9369 97.861 88.9998 97.9247 89.0775 97.9648C89.12 97.988 89.1654 98.0057 89.2125 98.0173C89.2995 98.0304 89.388 98.0304 89.475 98.0173C89.5895 98.0321 89.7054 98.0321 89.82 98.0173C90.3574 97.9448 90.8839 97.8063 91.3875 97.6048L90.18 97.8823Z" fill="black"/>
<path d="M57.3825 111.413V111.27L57.3375 111.188L57.2625 111.113L57.315 111.06H58.155L57.465 111.39L57.4575 111.398L57.4424 111.353L57.3825 111.27V111.413Z" fill="black"/>
<path d="M57 111.525C56.715 111.735 56.3025 112.042 55.845 112.432C55.0655 113.067 54.3587 113.787 53.7375 114.577C53.6475 114.692 53.565 114.805 53.49 114.915C53.2986 115.193 53.1305 115.487 52.9875 115.792C52.2375 115.507 51.555 115.215 50.8575 114.9L50.6625 115.005L50.85 114.892L50.655 114.81L50.7525 114.75L51.3225 114.442C52.3361 113.889 53.3775 113.389 54.4425 112.942C55.3394 112.555 56.196 112.08 57 111.525Z" fill="black"/>
<path d="M100.072 96.7877L99.87 90.1727C99.87 90.1727 100.297 88.3577 101.902 93.1127C102.856 95.9579 104.201 98.6564 105.9 101.13L100.072 96.7877Z" fill="black"/>
<path d="M61.965 109.987C61.965 109.987 62.5275 112.365 65.1225 110.655C66.7422 109.567 68.21 108.268 69.4875 106.792L61.965 109.987Z" fill="black"/>
<path d="M60.24 104.61C57.84 108 53.0025 110.61 49.365 112.275C48.615 112.605 47.865 112.913 47.205 113.183L46.8 112.965C47.55 112.673 48.3825 112.328 49.2225 111.953C52.8225 110.348 57.6075 107.738 59.955 104.453L60.24 104.61Z" fill="black"/>
<path d="M107.137 101.932L106.792 101.872C107.093 100.571 107.619 99.3329 108.345 98.2124C110.261 95.2176 112.906 92.7583 116.032 91.0649L116.205 91.3649C113.128 93.0291 110.524 95.4472 108.637 98.3924C107.94 99.4785 107.432 100.676 107.137 101.932Z" fill="black"/>
<path d="M75.3825 76.2977H74.8275C70.575 76.1177 66.6825 73.8977 64.17 72.0677C62.5439 70.8955 61.0367 69.5666 59.67 68.1002L59.9325 67.8677C61.2785 69.3167 62.763 70.6305 64.365 71.7902C68.865 75.0527 72.5325 75.8552 74.8275 75.9527C78.405 76.1027 81.6975 74.7677 84.5775 71.9702L84.8175 72.2252C82.3352 74.7775 78.9425 76.242 75.3825 76.2977Z" fill="black"/>
<path d="M87.345 57.9524C86.4411 57.4789 85.7109 56.7304 85.26 55.8149L87.345 57.9524Z" fill="white"/>
<path d="M87.27 58.1098C86.3236 57.6134 85.5632 56.8241 85.1025 55.8598L85.4175 55.7173C85.8534 56.5951 86.5538 57.3139 87.42 57.7723L87.27 58.1098Z" fill="black"/>
<path d="M83.5649 62.5499C83.5369 62.5499 83.5092 62.5431 83.4844 62.53C83.4596 62.517 83.4383 62.498 83.4224 62.4749C82.4174 60.9749 79.8299 60.9749 79.7999 60.9749C79.7542 60.9749 79.7103 60.9567 79.678 60.9244C79.6456 60.892 79.6274 60.8481 79.6274 60.8024C79.6274 60.7566 79.6456 60.7128 79.678 60.6804C79.7103 60.6481 79.7542 60.6299 79.7999 60.6299C80.3051 60.6336 80.8083 60.6939 81.2999 60.8099C82.2607 60.9835 83.1176 61.5207 83.6924 62.3099C83.7102 62.3358 83.7205 62.3661 83.7223 62.3975C83.7242 62.4288 83.7174 62.4601 83.7027 62.4879C83.688 62.5157 83.666 62.539 83.6391 62.5552C83.6122 62.5714 83.5814 62.5799 83.5499 62.5799L83.5649 62.5499Z" fill="black"/>
<path d="M83.535 62.1527C83.5102 62.1389 83.4828 62.1304 83.4545 62.1279C83.4262 62.1253 83.3977 62.1288 83.3708 62.138C83.3439 62.1472 83.3193 62.1619 83.2984 62.1812C83.2776 62.2006 83.2611 62.2241 83.25 62.2502C83.25 62.2502 83.25 62.2502 83.25 62.2052C83.25 62.1602 83.25 62.2052 83.25 62.1527C83.2528 62.0883 83.2415 62.0241 83.2169 61.9645C83.1923 61.9049 83.155 61.8514 83.1075 61.8077C83.084 61.7782 83.0511 61.7576 83.0142 61.7494C82.9774 61.7412 82.9388 61.7459 82.905 61.7627V61.6652C82.8949 61.6346 82.8776 61.6068 82.8546 61.5842C82.8315 61.5616 82.8034 61.5449 82.7726 61.5353C82.7418 61.5258 82.7092 61.5238 82.6774 61.5294C82.6456 61.535 82.6157 61.5482 82.59 61.5677C82.5563 61.5031 82.5057 61.4488 82.4437 61.4105C82.3816 61.3722 82.3104 61.3514 82.2375 61.3502C82.2082 61.341 82.1768 61.341 82.1475 61.3502C82.1275 61.3096 82.1023 61.2718 82.0725 61.2377C82.0502 61.2333 82.0273 61.2333 82.005 61.2377C82.0143 61.2127 82.0184 61.186 82.017 61.1593C82.0155 61.1326 82.0086 61.1064 81.9967 61.0825C81.9847 61.0586 81.968 61.0374 81.9475 61.0202C81.927 61.0031 81.9031 60.9903 81.8775 60.9827C81.2325 60.7802 79.9125 60.2327 79.2825 60.7352C78.8025 61.0877 78.9825 61.7927 79.2825 62.1977C79.7908 62.6346 80.3984 62.9402 81.0521 63.0879C81.7058 63.2357 82.3858 63.221 83.0325 63.0452C83.1059 63.0346 83.1785 63.0196 83.25 63.0002C83.61 62.8202 83.94 62.4527 83.535 62.1527Z" fill="black"/>
<path d="M80.775 52.6502C81 52.1927 81.525 51.6452 81.9675 52.2227C82.1325 52.4252 82.41 52.1402 82.2525 51.9377C82.1371 51.7865 81.9785 51.6739 81.7976 51.615C81.6168 51.5561 81.4223 51.5535 81.24 51.6077C81.0564 51.6857 80.8902 51.7994 80.7511 51.9424C80.612 52.0853 80.5029 52.2546 80.43 52.4402C80.3175 52.6727 80.6625 52.8752 80.775 52.6427V52.6502Z" fill="black"/>
<path d="M86.8124 52.6949C87.1049 52.4699 87.5624 52.2449 87.7424 52.7549C87.8249 53.0024 88.2149 52.8974 88.1324 52.6499C88.0889 52.4964 88.0033 52.3582 87.8854 52.2509C87.7674 52.1435 87.6218 52.0713 87.465 52.0424C87.2912 52.0359 87.1179 52.066 86.9565 52.1306C86.795 52.1951 86.6489 52.2928 86.5275 52.4174C86.325 52.5749 86.6099 52.8599 86.8124 52.7024V52.6949Z" fill="black"/>
<path d="M40.5 27.8998C50.07 25.7623 59.4975 31.4773 61.5525 40.6498C62.0552 42.9262 62.076 45.2827 61.6136 47.5676C61.1512 49.8526 60.2158 52.0155 58.8675 53.9173L60.42 55.7323C60.42 55.7323 61.77 57.2323 57.5025 55.6348C54.9885 58.4315 51.6681 60.3786 48 61.2073C38.43 63.3448 29.0025 57.6298 26.9475 48.4573C24.8925 39.2848 30.9525 30.0448 40.5 27.8998Z" fill="white"/>
<path d="M34.5 59.2499C32.5358 58.0777 30.8315 56.5171 29.4912 54.6636C28.151 52.81 27.203 50.7025 26.7052 48.47C26.2075 46.2375 26.1704 43.9269 26.5964 41.6796C27.0223 39.4323 27.9023 37.2955 29.1825 35.3999C31.8237 31.4753 35.8688 28.7125 40.4854 27.6801C45.1019 26.6477 49.9386 27.4242 54 29.8499C55.9626 31.0231 57.6657 32.5838 59.0054 34.4367C60.3451 36.2896 61.2934 38.396 61.7924 40.6274C62.3176 42.9591 62.3329 45.3767 61.8374 47.7149C61.3657 49.9408 60.4583 52.0513 59.1674 53.9249L60.6075 55.6124C60.6749 55.6874 61.005 56.0924 60.795 56.4074C60.5849 56.7224 60.045 56.8424 57.5925 55.9124C55.0386 58.6921 51.6883 60.6148 48 61.4174C46.6509 61.7206 45.2726 61.874 43.89 61.8749C40.5785 61.8773 37.3301 60.9693 34.5 59.2499ZM57.6 55.4624C59.91 56.3399 60.3525 56.2124 60.4275 56.1674C60.3984 56.0695 60.3471 55.9796 60.2775 55.9049L58.62 53.9624L58.7175 53.8274C60.024 51.9682 60.94 49.8632 61.41 47.6399C61.8929 45.3611 61.8776 43.0048 61.365 40.7324C60.876 38.5569 59.9488 36.5038 58.64 34.6985C57.3312 32.8932 55.6681 31.3736 53.7525 30.2324C49.8009 27.8441 45.0755 27.0856 40.575 28.1174C36.0666 29.0935 32.1136 31.7826 29.55 35.6174C28.3009 37.4656 27.4424 39.5494 27.0273 41.7411C26.6121 43.9328 26.649 46.1862 27.1357 48.3631C27.6223 50.54 28.5485 52.5946 29.8574 54.4009C31.1663 56.2072 32.8303 57.7271 34.7475 58.8674C38.3277 60.9965 42.5333 61.8243 46.6534 61.2107C50.7735 60.5971 54.5554 58.5799 57.36 55.4999L57.4575 55.3874L57.6 55.4624Z" fill="black"/>
<path d="M44.25 34.2598C42.2134 34.2598 40.2224 34.8637 38.529 35.9952C36.8356 37.1267 35.5158 38.735 34.7364 40.6166C33.957 42.4982 33.7531 44.5687 34.1504 46.5662C34.5477 48.5637 35.5285 50.3986 36.9686 51.8387C38.4087 53.2788 40.2436 54.2596 42.2411 54.6569C44.2386 55.0542 46.3091 54.8503 48.1907 54.0709C50.0723 53.2915 51.6806 51.9717 52.8121 50.2782C53.9436 48.5848 54.5475 46.5939 54.5475 44.5573C54.5455 41.8268 53.46 39.2088 51.5293 37.278C49.5985 35.3473 46.9805 34.2618 44.25 34.2598ZM44.25 53.9548C42.3914 53.9548 40.5745 53.4036 39.029 52.371C37.4836 51.3384 36.2791 49.8707 35.5679 48.1535C34.8566 46.4364 34.6705 44.5468 35.0331 42.7239C35.3957 40.901 36.2907 39.2265 37.605 37.9122C38.9192 36.598 40.5937 35.7029 42.4167 35.3403C44.2396 34.9777 46.1291 35.1638 47.8463 35.8751C49.5635 36.5864 51.0311 37.7909 52.0638 39.3363C53.0964 40.8817 53.6475 42.6986 53.6475 44.5573C53.6435 47.0484 52.6522 49.4364 50.8907 51.1979C49.1292 52.9594 46.7412 53.9508 44.25 53.9548Z" fill="black"/>
<path d="M44.25 37.8374C44.1307 37.8374 44.0162 37.8848 43.9319 37.9692C43.8475 38.0536 43.8 38.1681 43.8 38.2874V43.6574C43.8141 43.7658 43.8672 43.8654 43.9493 43.9375C44.0314 44.0096 44.137 44.0494 44.2463 44.0494C44.3556 44.0494 44.4612 44.0096 44.5433 43.9375C44.6254 43.8654 44.6785 43.7658 44.6925 43.6574V38.2874C44.6926 38.1693 44.6462 38.056 44.5634 37.9718C44.4806 37.8876 44.3681 37.8394 44.25 37.8374Z" fill="black"/>
<path d="M54.0975 44.1073H53.205C53.1415 44.099 53.0771 44.1044 53.0158 44.1231C52.9546 44.1417 52.8981 44.1732 52.85 44.2154C52.8019 44.2577 52.7634 44.3097 52.7371 44.368C52.7107 44.4263 52.697 44.4895 52.697 44.5535C52.697 44.6175 52.7107 44.6808 52.7371 44.7391C52.7634 44.7974 52.8019 44.8494 52.85 44.8916C52.8981 44.9338 52.9546 44.9653 53.0158 44.984C53.0771 45.0026 53.1415 45.008 53.205 44.9998H54.0975C54.1609 45.008 54.2254 45.0026 54.2866 44.984C54.3479 44.9653 54.4044 44.9338 54.4525 44.8916C54.5005 44.8494 54.539 44.7974 54.5654 44.7391C54.5918 44.6808 54.6055 44.6175 54.6055 44.5535C54.6055 44.4895 54.5918 44.4263 54.5654 44.368C54.539 44.3097 54.5005 44.2577 54.4525 44.2154C54.4044 44.1732 54.3479 44.1417 54.2866 44.1231C54.2254 44.1044 54.1609 44.099 54.0975 44.1073Z" fill="black"/>
<path d="M44.25 34.2598C44.1307 34.2598 44.0162 34.3072 43.9319 34.3916C43.8475 34.476 43.8 34.5904 43.8 34.7098V35.6023C43.8141 35.7107 43.8672 35.8102 43.9493 35.8824C44.0314 35.9545 44.137 35.9943 44.2463 35.9943C44.3556 35.9943 44.4612 35.9545 44.5433 35.8824C44.6254 35.8102 44.6785 35.7107 44.6925 35.6023V34.7098C44.6926 34.5917 44.6462 34.4784 44.5634 34.3942C44.4806 34.31 44.3681 34.2617 44.25 34.2598Z" fill="black"/>
<path d="M35.3025 44.1073H34.4025C34.339 44.099 34.2746 44.1044 34.2133 44.1231C34.1521 44.1417 34.0956 44.1732 34.0475 44.2154C33.9995 44.2577 33.9609 44.3097 33.9346 44.368C33.9082 44.4263 33.8945 44.4895 33.8945 44.5535C33.8945 44.6175 33.9082 44.6808 33.9346 44.7391C33.9609 44.7974 33.9995 44.8494 34.0475 44.8916C34.0956 44.9338 34.1521 44.9653 34.2133 44.984C34.2746 45.0026 34.339 45.008 34.4025 44.9998H35.295C35.3585 45.008 35.4229 45.0026 35.4842 44.984C35.5454 44.9653 35.6019 44.9338 35.65 44.8916C35.698 44.8494 35.7366 44.7974 35.7629 44.7391C35.7893 44.6808 35.803 44.6175 35.803 44.5535C35.803 44.4895 35.7893 44.4263 35.7629 44.368C35.7366 44.3097 35.698 44.2577 35.65 44.2154C35.6019 44.1732 35.5454 44.1417 35.4842 44.1231C35.4229 44.1044 35.3585 44.099 35.295 44.1073H35.3025Z" fill="black"/>
<path d="M44.25 53.0552C44.1307 53.0552 44.0162 53.1026 43.9319 53.187C43.8475 53.2714 43.8 53.3858 43.8 53.5052V54.3977C43.8141 54.5061 43.8672 54.6056 43.9493 54.6778C44.0314 54.7499 44.137 54.7897 44.2463 54.7897C44.3556 54.7897 44.4612 54.7499 44.5433 54.6778C44.6254 54.6056 44.6785 54.5061 44.6925 54.3977V53.5052C44.6926 53.3871 44.6462 53.2738 44.5634 53.1896C44.4806 53.1054 44.3681 53.0571 44.25 53.0552Z" fill="black"/>
<path d="M44.25 43.2148C43.9844 43.2148 43.7249 43.2936 43.5041 43.4411C43.2833 43.5886 43.1113 43.7983 43.0097 44.0436C42.9081 44.2889 42.8815 44.5588 42.9333 44.8193C42.9851 45.0797 43.1129 45.3189 43.3007 45.5066C43.4884 45.6944 43.7276 45.8222 43.9881 45.874C44.2485 45.9258 44.5184 45.8993 44.7637 45.7977C45.009 45.696 45.2187 45.524 45.3662 45.3032C45.5137 45.0824 45.5925 44.8229 45.5925 44.5573C45.5925 44.2013 45.451 43.8598 45.1993 43.6081C44.9475 43.3563 44.606 43.2148 44.25 43.2148ZM44.25 44.9998C44.161 44.9998 44.074 44.9735 44 44.924C43.926 44.8746 43.8683 44.8043 43.8342 44.7221C43.8002 44.6398 43.7913 44.5493 43.8086 44.4621C43.826 44.3748 43.8688 44.2946 43.9318 44.2316C43.9947 44.1687 44.0749 44.1259 44.1622 44.1085C44.2495 44.0911 44.3399 44.1 44.4222 44.1341C44.5044 44.1682 44.5747 44.2258 44.6241 44.2998C44.6736 44.3738 44.7 44.4608 44.7 44.5498C44.7 44.6692 44.6526 44.7837 44.5682 44.868C44.4838 44.9524 44.3693 44.9998 44.25 44.9998Z" fill="black"/>
<path d="M48.15 47.8199L45.465 45.1349C45.3783 45.0699 45.2711 45.0384 45.1631 45.0461C45.055 45.0537 44.9534 45.1001 44.8768 45.1767C44.8002 45.2533 44.7538 45.355 44.7461 45.463C44.7384 45.5711 44.77 45.6783 44.835 45.7649L47.52 48.4499C47.5587 48.5015 47.608 48.5442 47.6646 48.575C47.7212 48.6059 47.7838 48.6242 47.8481 48.6288C47.9124 48.6334 47.9769 48.6241 48.0374 48.6015C48.0978 48.579 48.1526 48.5437 48.1982 48.4981C48.2438 48.4525 48.279 48.3977 48.3016 48.3373C48.3241 48.2769 48.3334 48.2123 48.3289 48.148C48.3243 48.0837 48.306 48.0211 48.2751 47.9645C48.2442 47.9079 48.2016 47.8586 48.15 47.8199Z" fill="black"/>
</g>
<defs>
<clipPath id="clip0_4219_7186">
<rect width="150" height="120" fill="white"/>
</clipPath>
</defs>
</svg>
