<svg width="200" height="160" viewBox="0 0 200 160" fill="none" xmlns="http://www.w3.org/2000/svg">
<path fill-rule="evenodd" clip-rule="evenodd" d="M173.125 131.401C186.06 119.774 185.519 101.119 179.366 81.8545C174.396 66.2909 171.604 62.0886 174.916 45.5092C177.674 31.7031 171.576 22.6912 161.538 17.4861C143.646 8.20729 125.097 11.0148 110.014 20.2901C97.4123 28.0393 83.0512 38.7308 71.4432 30.3035C65.8707 26.2582 59.3746 16.9404 51.1469 13.1739C34.974 5.77303 22.8948 24.7015 17.7687 37.1091C6.36149 64.7141 1.26853 105.482 13.5875 121.908C30.2649 144.147 39.1161 144.6 64.7674 136.372C81.1305 131.123 105.467 136.415 116.836 139.455C136.448 144.701 153.602 148.951 173.125 131.401L173.125 131.401Z" fill="#F6EEDA"/>
<path fill-rule="evenodd" clip-rule="evenodd" d="M68.6355 56.0473C78.2639 53.8883 87.7825 51.7398 97.1794 49.6316C106.481 47.5433 115.672 45.4776 124.744 43.4355C128.175 42.7445 132.563 44.1063 134.602 46.5288C140.954 54.0643 147.451 61.7769 154.095 69.6597C160.897 77.7338 167.861 86.0075 174.993 94.4701C177.395 97.3249 176.399 100.454 172.752 101.44C154.887 106.287 136.547 111.251 117.784 116.336C98.5721 121.541 78.8215 126.894 58.6185 132.37C54.3806 133.52 49.2546 131.797 47.2019 128.553C40.5427 118.01 34.0608 107.761 27.7678 97.8044C21.6438 88.1158 15.6756 78.6692 9.87164 69.4896C8.14721 66.7636 9.95313 63.8262 13.9063 62.9522C21.019 61.3778 28.0596 59.8151 35.0518 58.2679C41.9826 56.7348 48.8543 55.2135 55.6776 53.7017C60.6323 52.6044 62.9757 53.0048 67.5076 55.4497C67.882 55.6493 68.2529 55.849 68.6355 56.0474L68.6355 56.0473Z" fill="#052C3C"/>
<path fill-rule="evenodd" clip-rule="evenodd" d="M21.0368 119.976C18.0013 120.382 14.7804 117.043 16.0525 111.681C16.9856 107.739 18.8305 104.279 21.5104 101.525C21.2612 101.418 21.032 101.307 20.8289 101.191C17.5891 99.3327 18.6864 94.2988 22.2049 93.3444C29.9164 91.2527 37.4082 90.322 44.5941 86.4479L45.7067 85.8479L46.8724 86.3392C52.5477 88.731 55.9091 91.555 58.4142 97.4275L59.7383 100.536L56.4028 101.071C49.361 102.202 40.5712 109.006 37.0845 115.056C35.2148 118.301 30.9404 120.504 27.4065 121.391C25.3266 121.913 22.7683 121.384 21.0368 119.976L21.0368 119.976Z" fill="#052C3C"/>
<path fill-rule="evenodd" clip-rule="evenodd" d="M45.8461 88.7714C38.1086 92.9442 29.9247 93.986 22.8935 95.8923C21.5223 96.2643 21.0545 98.2781 22.1412 98.9018C23.4522 99.647 26.8526 100.197 28.2227 99.8254C22.603 102.712 19.7518 107.512 18.6226 112.287C17.4652 117.163 20.6069 118.179 21.7833 116.596C22.3514 118.69 25.3963 119.173 26.7641 118.828C29.4712 118.153 33.2873 116.357 34.7909 113.738C37.7354 108.636 46.667 99.9612 55.9848 98.4588C52.954 91.3568 47.9957 89.682 45.8461 88.7714L45.8461 88.7714ZM38.7771 97.625C33.7173 99.3931 30.7727 103.461 30.168 106.797C31.6503 104.896 35.5054 100.397 39.8259 98.6313C40.2807 97.5789 39.2425 97.4466 38.7771 97.625L38.7771 97.625Z" fill="#FFF2DE"/>
<path fill-rule="evenodd" clip-rule="evenodd" d="M190.48 80.2306C192.898 79.7558 194.488 76.3813 192.135 72.6254C190.407 69.8628 188.107 67.7049 185.355 66.2982C185.518 66.1541 185.664 66.01 185.788 65.8682C187.776 63.6159 185.64 60.0654 182.714 60.2473C176.3 60.6454 170.353 61.8702 163.88 60.7753L162.878 60.6052L162.117 61.2808C158.412 64.5678 156.58 67.5868 156.189 72.7069L155.982 75.4152L158.661 74.9628C164.318 74.0049 172.768 76.9175 176.987 80.625C179.249 82.6152 183.074 83.1892 185.993 82.953C187.713 82.8136 189.525 81.7495 190.48 80.2306L190.48 80.2306Z" fill="#052C3C"/>
<path fill-rule="evenodd" clip-rule="evenodd" d="M163.526 62.8682C170.498 64.0481 177 62.7288 182.847 62.3662C183.988 62.2953 184.864 63.708 184.198 64.4627C183.393 65.3698 180.944 66.6666 179.804 66.7375C184.83 67.484 188.241 70.4049 190.334 73.751C192.474 77.1656 190.345 78.7506 189.039 77.8483C189.147 79.5892 186.952 80.7443 185.821 80.8341C183.585 81.0184 180.215 80.6369 178.393 79.0306C174.833 75.9041 165.79 71.6026 158.306 72.8651C158.781 66.6726 162.126 64.1166 163.526 62.8682L163.526 62.8682ZM171.198 67.7863C175.507 67.8265 178.802 70.1651 180.122 72.551C178.503 71.4844 174.404 69.0525 170.658 68.8234C170.04 68.1395 170.796 67.7698 171.198 67.7863V67.7863Z" fill="#FFF2DE"/>
<path fill-rule="evenodd" clip-rule="evenodd" d="M33.1845 40.473C41.7334 39.1903 50.2811 37.9077 58.83 36.6262C66.8485 35.4238 74.8683 34.2226 82.8881 33.0178C87.3102 32.3564 88.4287 32.8241 91.4818 36.0143C91.9602 36.5151 92.4456 37.01 92.9275 37.5096C93.6208 38.2313 94.5846 38.2797 95.5165 38.1309C105.271 36.5789 115.025 35.0198 124.78 33.4619C133.786 32.0269 142.792 30.5907 151.8 29.1521C152.945 28.9714 154.111 28.7848 155.301 28.5958C157.547 28.3194 159.724 29.8194 160.314 31.9962C163.213 42.7065 166.115 53.4156 169.015 64.1247C171.918 74.8456 174.821 85.5666 177.723 96.2876C178.347 98.5967 177.02 101.064 174.69 101.685C156.789 106.474 138.89 111.269 120.991 116.062C99.9068 121.708 78.8227 127.36 57.7386 133.008C55.1555 133.699 52.3232 132.353 51.6109 129.701C47.8704 115.772 44.1274 101.844 40.3904 87.9137C36.6545 73.9954 32.9139 60.0772 29.1792 46.1578C28.4387 43.394 30.4596 40.883 33.1844 40.4731L33.1845 40.473Z" fill="#052C3C"/>
<path fill-rule="evenodd" clip-rule="evenodd" d="M33.5553 42.9454C42.2754 41.6367 50.8326 40.3528 59.2008 39.0985C67.3895 37.8701 75.4068 36.669 83.2577 35.4902C86.8802 34.9481 87.2262 35.1831 89.6759 37.7426C90.1518 38.2398 90.6456 38.7442 91.1274 39.2438C92.6842 40.8619 94.7192 40.7887 95.9086 40.5997C105.933 39.004 115.687 37.445 125.173 35.9308C134.412 34.4579 143.424 33.0205 152.191 31.6209C153.34 31.439 154.478 31.2571 155.628 31.074C156.625 30.9512 157.631 31.6516 157.902 32.6496C160.801 43.3635 163.702 54.0668 166.603 64.7781C169.505 75.4979 172.408 86.2188 175.31 96.9399C175.584 97.9545 175.006 99.0151 174.045 99.2714C157.072 103.81 139.188 108.602 120.345 113.648C100.445 118.976 79.3766 124.625 57.0924 130.595C55.7235 130.961 54.3486 130.259 54.025 129.053C50.2856 115.129 46.538 101.182 42.8044 87.2667C39.0698 73.352 35.3268 59.4279 31.5933 45.5109C31.2709 44.3073 32.1461 43.1569 33.5551 42.9455L33.5553 42.9454Z" fill="#6746B9"/>
<path fill-rule="evenodd" clip-rule="evenodd" d="M69.5889 71.2683C65.9853 76.3045 72.4661 80.0132 76.496 75.3821C78.1578 73.4734 80.8909 70.7793 84.5524 68.9592C89.806 66.3478 85.6957 60.5272 81.3433 62.4926C77.2141 64.3564 71.5649 68.5068 69.5889 71.2683L69.5889 71.2683ZM140.832 57.4233C145.656 60.3701 142.571 65.5245 137.53 63.0784C135.404 62.0473 132.064 60.715 128.353 60.4127C122.87 59.9662 123.45 53.5882 127.868 53.8646C131.963 54.122 138.148 55.7839 140.832 57.4232L140.832 57.4233Z" fill="#052C3C"/>
<path fill-rule="evenodd" clip-rule="evenodd" d="M116.471 72.9337C119.35 74.6604 122.229 76.3766 125.073 78.0703C123.354 80.8613 121.624 83.6617 119.871 86.4904C122.856 88.2349 125.812 89.9688 128.746 91.6814C127.097 94.4192 125.423 97.1736 123.766 99.9362C120.778 98.233 117.773 96.5121 114.75 94.7783C112.962 97.6826 111.149 100.596 109.34 103.532C106.335 101.87 103.341 100.196 100.314 98.5012C102.189 95.5531 104.039 92.6192 105.88 89.703C102.776 87.9231 99.6551 86.1396 96.5015 84.3361C98.3016 81.5404 100.106 78.7541 101.902 75.9844C105.003 77.801 108.074 79.6033 111.139 81.3845C112.931 78.5545 114.712 75.7352 116.471 72.9336L116.471 72.9337Z" fill="#052C3C"/>
</svg>
