<svg width="232" height="252" viewBox="0 0 232 252" fill="none" xmlns="http://www.w3.org/2000/svg">
<path d="M57.6915 249.003C9.33491 241.527 -0.879942 234.985 0.0572004 232.649C163.12 216.762 222.629 233.038 232 243.162C194.046 248.224 106.048 256.479 57.6915 249.003Z" fill="#EFEFEF"/>
<path d="M120.995 63.4497L110.379 102.268L114.163 97.9064C112.64 98.6917 111.018 99.2702 109.342 99.6266C107.433 100.036 105.494 100.285 103.543 100.37C101.496 100.476 99.3617 100.455 97.1811 100.37C95.0004 100.284 92.7688 100.114 90.5056 99.9219H90.4937C88.929 99.7894 87.3739 100.269 86.1552 101.259C84.9366 102.249 84.1493 103.673 83.9589 105.232C83.7684 106.791 84.1897 108.363 85.134 109.617C86.0784 110.872 87.4723 111.711 89.0229 111.96C91.3576 112.332 93.7314 112.684 96.1665 112.966C98.6016 113.247 101.098 113.458 103.684 113.517C106.368 113.593 109.054 113.445 111.714 113.075C114.615 112.672 117.449 111.888 120.145 110.745C120.997 110.378 121.763 109.836 122.391 109.154C123.02 108.472 123.498 107.665 123.794 106.785L123.929 106.382L136.665 68.2067C137.335 66.1507 137.165 63.9131 136.192 61.9821C135.218 60.051 133.521 58.5832 131.47 57.8988C129.418 57.2144 127.18 57.3688 125.242 58.3285C123.304 59.2882 121.824 60.9752 121.125 63.0216C121.081 63.1535 121.033 63.3144 120.995 63.4497Z" fill="#EA9B7A"/>
<path d="M116.909 204.18C117.071 204.179 117.232 204.15 117.385 204.095L173.002 184.043C173.339 183.907 173.61 183.646 173.759 183.314C173.907 182.982 173.921 182.606 173.798 182.264C173.674 181.923 173.423 181.642 173.097 181.482C172.771 181.321 172.396 181.293 172.05 181.404L116.432 201.457C116.121 201.568 115.858 201.786 115.692 202.072C115.525 202.358 115.465 202.693 115.522 203.019C115.579 203.345 115.749 203.64 116.003 203.853C116.257 204.065 116.577 204.181 116.908 204.181L116.909 204.18Z" fill="#C77E2E"/>
<path d="M174.836 204.18C175.167 204.18 175.487 204.064 175.74 203.851C175.993 203.639 176.163 203.344 176.22 203.019C176.277 202.693 176.217 202.358 176.052 202.072C175.886 201.786 175.625 201.568 175.314 201.456L119.037 181.074C118.689 180.957 118.31 180.981 117.979 181.14C117.649 181.299 117.394 181.581 117.269 181.926C117.144 182.271 117.159 182.651 117.311 182.985C117.463 183.318 117.739 183.58 118.081 183.712L174.359 204.095C174.512 204.15 174.674 204.179 174.836 204.18Z" fill="#C77E2E"/>
<path d="M111.963 240.014C112.544 240.013 113.105 239.802 113.542 239.419C113.979 239.036 114.262 238.507 114.339 237.932L124.383 162.925H166.42L176.309 237.927C176.4 238.552 176.733 239.115 177.237 239.496C177.74 239.877 178.373 240.044 178.999 239.961C179.625 239.879 180.193 239.553 180.58 239.055C180.968 238.557 181.143 237.926 181.069 237.299L170.905 160.211C170.829 159.633 170.545 159.102 170.106 158.718C169.668 158.334 169.105 158.123 168.522 158.124H122.279C121.697 158.123 121.135 158.333 120.696 158.716C120.258 159.099 119.973 159.629 119.896 160.206L109.572 237.295C109.526 237.635 109.554 237.98 109.653 238.308C109.752 238.636 109.92 238.94 110.146 239.197C110.371 239.455 110.649 239.662 110.962 239.804C111.274 239.945 111.612 240.019 111.955 240.019L111.963 240.014Z" fill="#FAAF3A"/>
<path d="M135.677 160.525H165.711C175.225 160.525 185.414 155.317 186.876 145.916C188.715 134.037 189.349 122.004 188.767 109.998C188.466 103.753 186.831 97.645 183.97 92.0858C181.109 86.5266 177.09 81.6454 172.183 77.771V77.771C172.183 77.771 166.184 103.915 173.727 140C170.845 153.704 135.677 160.525 135.677 160.525Z" fill="#FAAF3A"/>
<path d="M141.936 7.18682C141.936 7.18682 145.51 -1.41735 154.958 0.203217C161.564 1.33608 164.378 9.56576 163.989 22.275C163.423 40.7719 169.679 51.9176 169.679 51.9176L161.375 53.8054C161.375 53.8054 140.237 22.0962 141.936 7.18682Z" fill="#39393B"/>
<path d="M66.1953 207.874H79.6093C79.6093 207.874 82.7134 192.985 83.7552 184.638C84.797 176.29 85.3374 156.494 85.3374 156.494C85.3374 156.494 96.0286 159.966 118.406 158.656C167.989 155.763 149.188 119.334 149.188 119.334C147.513 121.647 137.252 120.043 130.238 121.148C108.71 123.214 90.0408 131.663 78.8364 136.497C76.3514 137.551 73.946 138.785 71.6392 140.187C68.9377 141.852 67.2473 146.903 66.2294 153.55C63.1687 173.517 66.1953 207.874 66.1953 207.874Z" fill="#39393B"/>
<path d="M77.9444 200.699C78.0551 200.699 78.1624 200.661 78.248 200.59C78.3336 200.52 78.3923 200.422 78.4142 200.314C80.3489 190.735 80.9983 178.813 81.5209 169.235C81.9541 161.292 82.3627 153.789 83.3832 152.887C84.2097 152.156 87.6389 152.727 91.9857 153.448C100.627 154.882 113.69 157.05 128.089 153.703C135.934 151.878 141.701 148.067 145.23 142.377C151.316 132.564 148.541 120.399 148.513 120.276C148.499 120.215 148.472 120.157 148.435 120.105C148.399 120.054 148.352 120.011 148.298 119.977C148.244 119.944 148.185 119.922 148.122 119.912C148.06 119.901 147.996 119.904 147.935 119.918C147.873 119.933 147.815 119.959 147.764 119.996C147.713 120.033 147.669 120.08 147.636 120.133C147.603 120.187 147.581 120.247 147.57 120.309C147.56 120.371 147.563 120.435 147.577 120.497C147.604 120.615 150.286 132.408 144.408 141.877C141.018 147.338 135.453 151.002 127.87 152.767C113.656 156.074 100.708 153.926 92.1414 152.504C87.0107 151.652 83.9143 151.138 82.7457 152.171C81.4834 153.286 81.1285 158.772 80.56 169.185C80.0399 178.733 79.3922 190.617 77.4712 200.127C77.4569 200.196 77.4583 200.268 77.4754 200.338C77.4924 200.407 77.5246 200.471 77.5697 200.526C77.6148 200.581 77.6716 200.626 77.736 200.656C77.8003 200.686 77.8707 200.702 77.9419 200.702L77.9444 200.699Z" fill="#585859"/>
<path d="M65.9383 200.952H65.9494L80.8664 200.632C80.9295 200.631 80.9916 200.617 81.0494 200.592C81.1071 200.566 81.1593 200.53 81.2029 200.484C81.2466 200.439 81.2808 200.385 81.3037 200.326C81.3266 200.268 81.3376 200.205 81.3363 200.142C81.3356 200.079 81.3224 200.016 81.2972 199.958C81.2721 199.9 81.2356 199.848 81.19 199.804C81.1443 199.76 81.0904 199.726 81.0313 199.703C80.9722 199.681 80.9092 199.67 80.846 199.672L65.9289 199.992C65.8016 199.994 65.6801 200.045 65.591 200.136C65.5019 200.227 65.4527 200.35 65.454 200.477C65.4554 200.605 65.5072 200.726 65.5982 200.815C65.6892 200.904 65.8118 200.954 65.9392 200.952H65.9383Z" fill="#585859"/>
<path d="M66.5638 225.061H76.0319L77.8551 213.952L78.8534 207.874H67.0907L66.9043 213.952L66.5638 225.061Z" fill="#EA9B7A"/>
<path d="M66.5638 225.06H76.0319L77.3937 216.79L77.8593 213.952H66.9043L66.8132 216.894L66.5638 225.06Z" fill="#FAAF3A"/>
<path d="M66.8133 216.894L77.3904 216.79L77.856 213.952H66.9035L66.8133 216.894Z" fill="#C77E2E"/>
<path d="M43.1975 240.016H79.0109C79.3027 239.392 79.463 238.715 79.4816 238.027C79.7055 234.998 78.7403 230.163 78.267 227.115C78.2092 226.759 78.1598 226.427 78.1215 226.126C78.0617 225.713 78.0262 225.297 78.0151 224.88C78.0603 224.587 78.0331 224.286 77.936 224.006C77.8389 223.725 77.6748 223.472 77.4579 223.269C77.2409 223.066 76.9778 222.919 76.6912 222.841C76.4046 222.762 76.1032 222.755 75.8132 222.82C72.1882 226.374 68.0857 221.045 65.6898 222.793C65.6898 222.793 65.5927 222.864 65.3723 223.035C65.1714 223.194 64.8616 223.44 64.442 223.796C63.8309 224.307 62.9746 225.047 61.8145 226.09C58.9726 228.647 54.1372 230.336 50.0194 232.057C49.4946 232.277 49.0066 232.496 48.5555 232.714C48.215 232.88 47.891 233.046 47.5835 233.211C44.2189 235.028 43.1473 236.765 42.9022 238.027C42.7505 238.704 42.8557 239.413 43.1975 240.016V240.016Z" fill="#7659C0"/>
<path d="M47.5826 233.21C48.5052 233.945 50.5573 235.413 52.2017 235.413C52.2741 235.413 52.3473 235.413 52.4179 235.405C53.5797 235.308 57.8482 233.21 61.32 231.303C63.3108 230.208 65.1271 229.133 66.4345 228.27C68.5776 226.857 68.9496 226.317 69.0339 225.943C69.3471 224.53 67.0107 223.544 65.374 223.034C65.1731 223.193 64.8633 223.439 64.4437 223.795C66.4787 224.349 68.1504 225.22 68.0729 225.714C67.8738 226.134 65.7536 227.75 60.6859 230.523C56.8192 232.639 53.1524 234.353 52.3379 234.419C51.2314 234.504 49.6143 233.505 48.5571 232.717C48.2127 232.88 47.8879 233.045 47.5826 233.21Z" fill="#6746B9"/>
<path d="M43.1984 240.015H79.0101C79.3024 239.392 79.463 238.715 79.4816 238.026H42.9047C42.7524 238.703 42.8571 239.412 43.1984 240.015V240.015Z" fill="#6746B9"/>
<path d="M75.3561 240.015H76.4201C75.7364 239.234 75.2143 238.325 74.884 237.341C74.5537 236.357 74.4217 235.317 74.4956 234.281C74.5953 232.891 74.9818 231.537 75.6307 230.303C76.2796 229.07 77.177 227.984 78.2662 227.115C78.2092 226.758 78.1598 226.426 78.1206 226.125C76.8275 227.069 75.7566 228.284 74.9831 229.686C74.2095 231.087 73.7521 232.641 73.6428 234.239C73.5067 236.307 74.1144 238.356 75.3561 240.015V240.015Z" fill="#6746B9"/>
<path d="M62.4214 228.201C62.5652 228.2 62.7038 228.147 62.8113 228.051C62.9187 227.955 62.9875 227.824 63.0049 227.681C63.0222 227.538 62.9868 227.394 62.9054 227.276C62.824 227.157 62.7021 227.072 62.5627 227.037L60.3259 226.482C60.175 226.447 60.0163 226.473 59.8842 226.554C59.752 226.634 59.657 226.764 59.6197 226.914C59.5823 227.065 59.6057 227.224 59.6846 227.357C59.7636 227.491 59.8918 227.587 60.0416 227.627L62.2784 228.183C62.3252 228.194 62.3732 228.2 62.4214 228.201V228.201Z" fill="white"/>
<path d="M64.6437 226.338C64.7879 226.339 64.9274 226.286 65.0355 226.191C65.1437 226.095 65.2131 225.963 65.2306 225.82C65.2481 225.677 65.2125 225.532 65.1305 225.413C65.0486 225.295 64.9259 225.21 64.7858 225.176L62.549 224.62C62.4726 224.598 62.3924 224.591 62.3134 224.6C62.2343 224.61 62.158 224.635 62.0889 224.675C62.0199 224.714 61.9596 224.768 61.9116 224.831C61.8637 224.895 61.8291 224.967 61.8099 225.045C61.7908 225.122 61.7874 225.202 61.8001 225.281C61.8127 225.359 61.8412 225.435 61.8836 225.502C61.9261 225.569 61.9818 225.627 62.0473 225.673C62.1127 225.718 62.1867 225.75 62.2647 225.766L64.5015 226.32C64.5479 226.332 64.5957 226.339 64.6437 226.338Z" fill="white"/>
<path d="M60.1846 229.501C60.3284 229.5 60.467 229.447 60.5744 229.352C60.6819 229.256 60.7507 229.124 60.768 228.982C60.7854 228.839 60.75 228.695 60.6686 228.576C60.5872 228.458 60.4653 228.373 60.3258 228.338L58.089 227.783C57.9381 227.748 57.7795 227.773 57.6473 227.854C57.5152 227.935 57.4202 228.065 57.3829 228.215C57.3455 228.365 57.3688 228.524 57.4478 228.658C57.5267 228.791 57.655 228.888 57.8048 228.927L60.0416 229.483C60.0883 229.495 60.1363 229.501 60.1846 229.501V229.501Z" fill="white"/>
<path d="M57.9469 230.751C58.0907 230.751 58.2294 230.698 58.3368 230.602C58.4442 230.506 58.5131 230.375 58.5304 230.232C58.5477 230.089 58.5124 229.945 58.431 229.826C58.3496 229.708 58.2277 229.623 58.0882 229.588L55.8514 229.033C55.7755 229.012 55.6963 229.007 55.6184 229.017C55.5404 229.028 55.4653 229.054 55.3975 229.093C55.3297 229.133 55.2705 229.186 55.2235 229.249C55.1764 229.312 55.1424 229.384 55.1235 229.46C55.1047 229.537 55.1012 229.616 55.1134 229.694C55.1256 229.771 55.1533 229.846 55.1947 229.913C55.2361 229.979 55.2904 230.037 55.3545 230.083C55.4186 230.128 55.4912 230.161 55.568 230.178L57.8048 230.733C57.8512 230.745 57.8989 230.751 57.9469 230.751V230.751Z" fill="white"/>
<path d="M55.5075 231.907C55.6514 231.907 55.79 231.854 55.8974 231.758C56.0049 231.662 56.0737 231.531 56.091 231.388C56.1084 231.245 56.073 231.101 55.9916 230.982C55.9102 230.864 55.7883 230.779 55.6488 230.744L53.412 230.189C53.2611 230.154 53.1025 230.179 52.9703 230.26C52.8382 230.341 52.7432 230.471 52.7059 230.621C52.6685 230.772 52.6918 230.931 52.7708 231.064C52.8497 231.197 52.978 231.294 53.1278 231.334L55.3646 231.89C55.4113 231.901 55.4593 231.907 55.5075 231.907V231.907Z" fill="white"/>
<path d="M52.8621 232.894C53.007 232.895 53.1471 232.843 53.2559 232.747C53.3646 232.651 53.4344 232.519 53.4519 232.375C53.4693 232.231 53.4333 232.086 53.3506 231.967C53.2679 231.848 53.1443 231.764 53.0034 231.73L50.7666 231.175C50.691 231.155 50.6122 231.151 50.5348 231.162C50.4573 231.172 50.3828 231.198 50.3155 231.238C50.2483 231.278 50.1896 231.331 50.1429 231.394C50.0962 231.456 50.0625 231.528 50.0436 231.604C50.0248 231.679 50.0212 231.758 50.0331 231.836C50.045 231.913 50.0722 231.987 50.113 232.054C50.1539 232.12 50.2075 232.178 50.2709 232.224C50.3343 232.27 50.4062 232.302 50.4824 232.32L52.7192 232.875C52.7658 232.887 52.8139 232.894 52.8621 232.894Z" fill="white"/>
<path d="M174.019 107.783C174.019 107.783 174.445 110.677 170.567 111.489L130.166 112.835C129.347 112.371 128.693 111.664 128.292 110.813C127.891 109.961 127.764 109.006 127.928 108.079C127.928 108.079 144.986 98.4996 174.019 107.783Z" fill="#6746B9"/>
<path d="M129.612 121.146C150.584 132.681 173.482 123.393 173.482 123.393C172.38 120.252 171.527 117.029 170.929 113.755C170.23 110.107 169.838 106.886 169.659 105.192C160.738 104.703 138.872 103.772 130.303 105.805L130.238 109.239L129.612 121.146Z" fill="#EA9B7A"/>
<path d="M145.104 115.613C145.259 116.694 145.746 117.518 146.194 117.455C146.642 117.391 146.875 116.461 146.723 115.38C146.572 114.299 146.08 113.474 145.633 113.538C145.186 113.603 144.949 114.532 145.104 115.613Z" fill="#D96C63"/>
<path d="M130.238 109.239C139.168 108.696 156.74 108.508 170.931 113.756C170.232 110.108 169.84 106.888 169.661 105.194C160.74 104.704 138.873 103.774 130.305 105.807L130.238 109.239Z" fill="#D96C63"/>
<path d="M120.273 92.6455C120.355 92.8957 120.456 93.1393 120.575 93.374C120.617 93.4592 120.66 93.5443 120.709 93.6294C121.842 95.5878 123.303 97.3375 125.027 98.8026C125.33 99.0682 125.623 99.3133 125.889 99.5312C126.428 99.9678 126.884 100.307 127.197 100.531C127.486 100.738 127.655 100.844 127.655 100.844C127.655 100.864 127.655 100.884 127.66 100.907C127.677 101.062 127.689 101.226 127.703 101.399C127.753 102.058 127.797 102.846 127.829 103.742C127.858 104.464 127.878 105.255 127.897 106.105C127.908 106.736 127.92 107.395 127.928 108.081C139.779 102.787 164.186 106.123 174.018 107.783C173.838 106.932 173.673 106.101 173.522 105.29C172.887 101.938 172.473 98.5481 172.282 95.1419C172.131 89.0369 172.504 82.9303 173.397 76.8892C173.459 76.4347 173.522 75.9844 173.588 75.5274C173.631 75.2312 173.673 74.9375 173.723 74.6413C174.059 72.4479 174.448 70.2503 174.894 68.119C176.832 58.8195 175.472 49.0535 166.042 47.9028C165.361 47.8176 164.68 47.7427 164.028 47.6729C159.583 47.1989 155.927 47.0363 154.911 46.9971L154.63 46.9861L136.402 52.2802L134.668 52.7832C133.671 53.1041 132.751 53.4139 131.899 53.7194C131.536 53.8514 131.183 53.9799 130.844 54.1059C129.96 54.4378 129.158 54.7621 128.431 55.083C127.193 55.6054 126.01 56.2501 124.9 57.0074C120.9 59.846 121.521 63.0505 121.623 69.3881C121.623 69.417 121.623 69.4451 121.623 69.4732C121.623 69.5541 121.623 69.6332 121.623 69.7175C121.623 69.7532 121.623 69.7898 121.623 69.8256C121.623 70.0809 121.623 70.3431 121.623 70.6009C121.618 71.4186 121.59 72.234 121.538 73.0471C121.47 74.243 121.364 75.4303 121.233 76.5972C121.182 77.0645 121.128 77.5292 121.071 77.9888C121.018 78.4221 120.962 78.8527 120.906 79.2792C120.187 84.8252 119.284 89.6852 120.273 92.6455Z" fill="#7659C0"/>
<path d="M121.628 69.4733C121.628 69.5542 121.628 69.6333 121.628 69.7176C121.628 69.7533 121.628 69.7899 121.628 69.8257C121.628 70.081 121.628 70.3432 121.628 70.6011L125.458 73.0047C125.518 73.0445 125.585 73.072 125.655 73.0855C125.725 73.099 125.797 73.0983 125.867 73.0834C125.937 73.0685 126.003 73.0397 126.062 72.9988C126.121 72.9578 126.17 72.9055 126.208 72.845C126.247 72.7845 126.272 72.7169 126.284 72.6463C126.295 72.5757 126.292 72.5036 126.275 72.4341C126.258 72.3646 126.228 72.2993 126.185 72.2419C126.142 72.1845 126.089 72.1362 126.027 72.0999L121.965 69.5516C121.865 69.4889 121.746 69.4614 121.628 69.4733V69.4733Z" fill="#6746B9"/>
<path d="M146.883 89.9899C146.991 89.9905 147.098 89.9578 147.188 89.8963C147.278 89.8347 147.347 89.7473 147.385 89.6455C147.424 89.5438 147.431 89.4327 147.405 89.3269C147.379 89.2212 147.322 89.1258 147.24 89.0537L143.676 85.8466C143.623 85.7996 143.562 85.7634 143.496 85.74C143.43 85.7166 143.36 85.7065 143.29 85.7102C143.22 85.7139 143.151 85.7314 143.088 85.7617C143.024 85.7919 142.967 85.8344 142.921 85.8866C142.874 85.9388 142.837 85.9997 142.814 86.0659C142.791 86.1321 142.78 86.2022 142.784 86.2724C142.788 86.3425 142.805 86.4111 142.836 86.4745C142.866 86.5378 142.908 86.5946 142.961 86.6415L146.524 89.8486C146.622 89.9388 146.75 89.9892 146.883 89.9899V89.9899Z" fill="#6746B9"/>
<path d="M120.918 79.2758L123.359 81.4734C123.464 81.5684 123.603 81.6175 123.745 81.6101C123.886 81.6027 124.019 81.5393 124.114 81.4339C124.209 81.3284 124.258 81.1896 124.251 81.048C124.243 80.9063 124.18 80.7734 124.075 80.6785L121.083 77.9855C121.03 78.4247 120.975 78.8502 120.918 79.2758Z" fill="#6746B9"/>
<path d="M154.11 77.0926C154.172 77.0038 154.205 76.8984 154.206 76.7903C154.206 76.6823 154.174 76.5766 154.113 76.4873C154.052 76.398 153.966 76.3292 153.865 76.29C153.764 76.2508 153.654 76.2431 153.549 76.2679L148.881 77.3675C148.813 77.3836 148.748 77.413 148.691 77.4541C148.634 77.4951 148.586 77.5469 148.549 77.6066C148.512 77.6664 148.487 77.7328 148.476 77.8021C148.465 77.8714 148.467 77.9422 148.483 78.0106C148.499 78.0789 148.529 78.1434 148.57 78.2004C148.611 78.2574 148.663 78.3058 148.722 78.3427C148.782 78.3797 148.848 78.4045 148.918 78.4158C148.987 78.4271 149.058 78.4246 149.126 78.4085L153.794 77.3088C153.922 77.2783 154.035 77.2013 154.11 77.0926V77.0926Z" fill="#6746B9"/>
<path d="M170.76 86.2475C170.869 86.2475 170.974 86.2147 171.063 86.1535C171.152 86.0922 171.221 86.0054 171.26 85.9044C171.298 85.8034 171.306 85.6931 171.28 85.588C171.255 85.4828 171.198 85.3878 171.118 85.3155L167.553 82.1076C167.448 82.0128 167.309 81.9637 167.168 81.9712C167.026 81.9787 166.893 82.0421 166.798 82.1476C166.704 82.253 166.655 82.3918 166.662 82.5333C166.67 82.6749 166.733 82.8077 166.838 82.9025L170.402 86.1096C170.5 86.1985 170.628 86.2477 170.76 86.2475V86.2475Z" fill="#6746B9"/>
<path d="M129.279 85.4848C129.245 85.3824 129.18 85.2927 129.094 85.2277C129.008 85.1627 128.904 85.1253 128.796 85.1205C128.688 85.1157 128.581 85.1437 128.49 85.2009C128.398 85.258 128.326 85.3416 128.283 85.4406L126.368 89.8367C126.314 89.9662 126.313 90.1117 126.366 90.2417C126.418 90.3717 126.52 90.4758 126.648 90.5317C126.777 90.5875 126.923 90.5906 127.053 90.5402C127.184 90.4898 127.29 90.39 127.348 90.2623L129.262 85.8661C129.315 85.7455 129.321 85.6097 129.279 85.4848V85.4848Z" fill="#6746B9"/>
<path d="M120.27 92.6455C120.352 92.8958 120.452 93.1393 120.571 93.3741C120.614 93.4592 120.656 93.5443 120.706 93.6295L123.309 92.8081C123.444 92.7652 123.556 92.6708 123.622 92.5453C123.687 92.4198 123.7 92.2735 123.658 92.1383C123.616 92.003 123.521 91.8902 123.395 91.8246C123.27 91.759 123.123 91.746 122.988 91.7884L120.27 92.6455Z" fill="#6746B9"/>
<path d="M134.99 93.0284C134.882 93.0174 134.773 93.0392 134.679 93.0911C134.584 93.143 134.507 93.2225 134.458 93.3191C134.409 93.4157 134.391 93.5248 134.405 93.632C134.42 93.7392 134.467 93.8395 134.539 93.9196L137.761 97.4705C137.808 97.5226 137.865 97.5648 137.928 97.5948C137.992 97.6248 138.061 97.6421 138.131 97.6455C138.201 97.6489 138.271 97.6385 138.337 97.6148C138.403 97.5912 138.464 97.5547 138.516 97.5076C138.568 97.4604 138.61 97.4034 138.641 97.34C138.671 97.2765 138.688 97.2077 138.691 97.1375C138.695 97.0674 138.684 96.9973 138.661 96.9311C138.637 96.865 138.6 96.8042 138.553 96.7522L135.331 93.2012C135.242 93.1034 135.121 93.0419 134.99 93.0284V93.0284Z" fill="#6746B9"/>
<path d="M136.887 84.8439C136.993 84.8256 137.092 84.7753 137.169 84.6997C137.247 84.6241 137.3 84.5268 137.321 84.4206C137.341 84.3144 137.33 84.2044 137.287 84.105C137.244 84.0057 137.172 83.9217 137.08 83.8643L133.018 81.3108C132.959 81.2735 132.893 81.2483 132.823 81.2365C132.754 81.2248 132.683 81.2268 132.615 81.2425C132.547 81.2581 132.482 81.2871 132.425 81.3277C132.367 81.3684 132.319 81.4199 132.281 81.4794C132.244 81.5388 132.219 81.6051 132.207 81.6743C132.195 81.7435 132.197 81.8144 132.213 81.8828C132.229 81.9513 132.258 82.0159 132.298 82.0732C132.339 82.1304 132.39 82.1791 132.45 82.2165L136.511 84.7699C136.623 84.8404 136.757 84.8668 136.887 84.8439V84.8439Z" fill="#6746B9"/>
<path d="M134.3 69.4C134.228 69.4805 134.182 69.5811 134.168 69.6883C134.155 69.7956 134.174 69.9045 134.223 70.0006C134.273 70.0968 134.35 70.1757 134.445 70.227C134.54 70.2782 134.649 70.2994 134.756 70.2877L139.523 69.7685C139.664 69.7531 139.793 69.6824 139.882 69.5719C139.971 69.4613 140.012 69.32 139.996 69.1791C139.981 69.0381 139.91 68.909 139.8 68.8202C139.689 68.7314 139.548 68.6901 139.407 68.7054L134.641 69.2246C134.509 69.2386 134.388 69.3011 134.3 69.4V69.4Z" fill="#6746B9"/>
<path d="M141.23 59.0621C141.205 58.9568 141.148 58.8618 141.067 58.7895C140.987 58.7173 140.886 58.6713 140.779 58.6576C140.671 58.6439 140.562 58.6632 140.466 58.713C140.37 58.7627 140.291 58.8406 140.24 58.9361L137.971 63.1603C137.938 63.2222 137.917 63.29 137.91 63.3599C137.903 63.4297 137.91 63.5003 137.93 63.5675C137.951 63.6347 137.984 63.6973 138.028 63.7516C138.073 63.806 138.127 63.851 138.189 63.8842C138.251 63.9174 138.319 63.9381 138.389 63.9451C138.459 63.9521 138.529 63.9453 138.596 63.925C138.664 63.9047 138.726 63.8714 138.781 63.827C138.835 63.7825 138.88 63.7278 138.913 63.6659L141.182 59.4417C141.245 59.3254 141.262 59.1902 141.23 59.0621V59.0621Z" fill="#6746B9"/>
<path d="M125.027 98.8017C125.33 99.0673 125.623 99.3124 125.889 99.5303L126.516 97.9336C126.542 97.8683 126.555 97.7986 126.554 97.7284C126.553 97.6583 126.538 97.589 126.51 97.5246C126.482 97.4603 126.441 97.4021 126.391 97.3534C126.34 97.3047 126.28 97.2664 126.215 97.2407C126.15 97.2149 126.08 97.2023 126.01 97.2034C125.94 97.2046 125.87 97.2196 125.806 97.2476C125.741 97.2756 125.683 97.316 125.634 97.3665C125.586 97.4171 125.547 97.4767 125.521 97.5421L125.027 98.8017Z" fill="#6746B9"/>
<path d="M168.855 90.6785C168.906 90.5833 168.927 90.4747 168.915 90.3672C168.903 90.2597 168.859 90.1584 168.789 90.0765C168.718 89.9946 168.624 89.9361 168.52 89.9086C168.415 89.8812 168.304 89.8861 168.203 89.9227L163.692 91.5458C163.626 91.5696 163.565 91.6061 163.513 91.6534C163.461 91.7006 163.419 91.7576 163.389 91.8211C163.329 91.9493 163.322 92.0963 163.37 92.2297C163.418 92.3631 163.517 92.472 163.645 92.5324C163.773 92.5929 163.92 92.5998 164.053 92.5519L168.564 90.9288C168.689 90.8843 168.792 90.7951 168.855 90.6785V90.6785Z" fill="#6746B9"/>
<path d="M166.646 96.7761C166.538 96.7767 166.432 96.8102 166.343 96.8723C166.254 96.9343 166.186 97.022 166.148 97.1235C166.11 97.2251 166.104 97.3359 166.13 97.441C166.157 97.5462 166.215 97.6408 166.296 97.7124L169.887 100.89C169.993 100.984 170.133 101.031 170.274 101.023C170.416 101.014 170.548 100.949 170.642 100.843C170.736 100.737 170.783 100.598 170.775 100.456C170.766 100.315 170.702 100.183 170.595 100.089L167.004 96.9115C166.906 96.8237 166.778 96.7755 166.646 96.7761Z" fill="#6746B9"/>
<path d="M160.138 101.822C160.071 101.907 160.031 102.011 160.024 102.119C160.016 102.227 160.042 102.335 160.097 102.428C160.153 102.521 160.235 102.595 160.334 102.64C160.432 102.686 160.542 102.7 160.649 102.681L165.376 101.876C165.516 101.852 165.641 101.774 165.723 101.658C165.805 101.542 165.837 101.399 165.814 101.259C165.79 101.119 165.711 100.995 165.596 100.912C165.48 100.83 165.336 100.798 165.196 100.822L160.465 101.63C160.336 101.652 160.22 101.721 160.138 101.822Z" fill="#6746B9"/>
<path d="M156.185 56.9334C156.213 56.829 156.209 56.7185 156.173 56.6164C156.137 56.5144 156.071 56.4256 155.984 56.3617C155.897 56.2979 155.792 56.2621 155.684 56.259C155.576 56.2559 155.469 56.2857 155.379 56.3444L151.35 58.9438C151.289 58.9811 151.237 59.0301 151.195 59.088C151.154 59.1459 151.125 59.2114 151.109 59.2808C151.093 59.3503 151.091 59.4221 151.104 59.4922C151.116 59.5623 151.142 59.6292 151.181 59.689C151.22 59.7488 151.27 59.8003 151.329 59.8404C151.387 59.8806 151.453 59.9086 151.523 59.9228C151.593 59.9371 151.665 59.9372 151.735 59.9233C151.804 59.9094 151.871 59.8817 151.93 59.8418L155.958 57.2424C156.069 57.1708 156.15 57.0608 156.185 56.9334Z" fill="#6746B9"/>
<path d="M128.694 59.9958C128.599 59.9445 128.491 59.9232 128.384 59.9347C128.276 59.9461 128.175 59.9898 128.093 60.0599C128.011 60.1301 127.952 60.2235 127.923 60.3278C127.895 60.4321 127.899 60.5424 127.935 60.6443L129.539 65.1639C129.589 65.2931 129.688 65.3975 129.815 65.4552C129.941 65.5128 130.085 65.519 130.215 65.4726C130.346 65.4262 130.454 65.3307 130.515 65.2064C130.577 65.0821 130.588 64.9386 130.546 64.8064L128.943 60.2877C128.899 60.163 128.811 60.0589 128.694 59.9958V59.9958Z" fill="#6746B9"/>
<path d="M130.846 54.1093L133.323 57.2849C133.366 57.3403 133.42 57.3867 133.481 57.4213C133.542 57.456 133.609 57.4783 133.679 57.4869C133.749 57.4956 133.819 57.4904 133.887 57.4717C133.955 57.4531 134.018 57.4213 134.073 57.3781C134.129 57.335 134.175 57.2813 134.21 57.2203C134.244 57.1592 134.267 57.092 134.275 57.0223C134.284 56.9526 134.279 56.8819 134.26 56.8142C134.241 56.7466 134.21 56.6832 134.166 56.6278L131.902 53.7229C131.538 53.854 131.185 53.9799 130.846 54.1093Z" fill="#6746B9"/>
<path d="M155.062 97.9625C155.025 98.0717 154.946 98.1619 154.843 98.2137C154.74 98.2654 154.62 98.2745 154.51 98.2391C149.229 96.7721 143.613 97.0682 138.516 99.0826C135.108 100.584 131.43 101.372 127.706 101.399C127.693 101.228 127.68 101.058 127.665 100.907L127.659 100.845C127.659 100.845 127.489 100.737 127.202 100.531C130.982 100.586 134.728 99.8165 138.181 98.2766C143.466 96.1497 149.309 95.8454 154.786 97.4118C154.896 97.4483 154.986 97.5269 155.038 97.6301C155.09 97.7334 155.098 97.8529 155.062 97.9625Z" fill="#6746B9"/>
<path d="M136.406 52.2836C137.427 53.8667 139.535 55.6609 143.801 55.3477C149.687 54.9221 153.561 49.3046 154.913 46.9963C154.729 46.9886 154.633 46.9869 154.633 46.9869L136.406 52.2836Z" fill="#6746B9"/>
<path d="M142.666 62.7024C142.494 62.7377 142.321 62.7624 142.146 62.7764C141.429 62.8715 140.699 62.7938 140.018 62.5498C139.337 62.3058 138.724 61.9026 138.231 61.3738C135.401 58.2807 136.562 51.2324 136.614 50.9328C136.633 50.8188 136.697 50.7172 136.791 50.6503C136.886 50.5835 137.003 50.5568 137.117 50.5762C137.231 50.5956 137.332 50.6595 137.399 50.7538C137.466 50.8482 137.493 50.9652 137.473 51.0792C137.461 51.1482 136.331 58.0075 138.874 60.7822C139.278 61.2136 139.78 61.5409 140.338 61.7363C140.896 61.9316 141.493 61.9891 142.078 61.904C147.78 61.4444 154.173 46.958 154.236 46.8116C154.285 46.709 154.371 46.6293 154.478 46.5895C154.584 46.5496 154.702 46.5527 154.806 46.5981C154.91 46.6434 154.992 46.7275 155.035 46.8325C155.078 46.9376 155.079 47.0552 155.036 47.1606C154.773 47.764 148.712 61.4759 142.666 62.7024Z" fill="white"/>
<path d="M124.904 57.0074C125.208 62.5558 124.052 68.0869 121.553 73.0497C121.616 71.979 121.645 70.9049 121.638 69.8273C121.638 69.7916 121.638 69.7541 121.638 69.7184C121.638 69.6077 121.633 69.4988 121.632 69.3907C121.524 63.0548 120.904 59.8451 124.904 57.0074Z" fill="#EA9B7A"/>
<path d="M158.432 64.3655C160.523 72.4343 168.169 78.909 173.397 76.8892C173.458 76.4355 173.523 75.9844 173.59 75.5274C173.632 75.232 173.675 74.9384 173.724 74.6413C174.058 72.4479 174.45 70.2512 174.896 68.1191C176.833 58.8195 175.472 49.0586 166.044 47.9028C165.363 47.8177 164.682 47.7428 164.029 47.673C159.309 49.6868 156.028 55.0745 158.432 64.3655Z" fill="#EA9B7A"/>
<path d="M157.354 58.2119L145.098 103.012L149.466 97.978C147.708 98.8839 145.837 99.5516 143.903 99.9637C141.7 100.436 139.461 100.723 137.21 100.822C134.847 100.944 132.384 100.923 129.867 100.822C127.351 100.72 124.776 100.528 122.164 100.305H122.15C120.345 100.153 118.551 100.707 117.146 101.849C115.74 102.992 114.832 104.635 114.612 106.433C114.393 108.232 114.878 110.045 115.967 111.493C117.057 112.94 118.664 113.909 120.453 114.196C123.147 114.622 125.887 115.032 128.697 115.357C131.508 115.683 134.389 115.926 137.372 115.994C140.47 116.081 143.57 115.91 146.64 115.483C149.987 115.018 153.258 114.114 156.369 112.795C157.353 112.372 158.237 111.746 158.962 110.959C159.688 110.171 160.24 109.24 160.582 108.225L160.737 107.76L175.436 63.7009C176.229 61.3226 176.045 58.7267 174.924 56.484C173.804 54.2413 171.838 52.5357 169.46 51.7424C167.082 50.949 164.486 51.1329 162.243 52.2536C160 53.3743 158.295 55.34 157.501 57.7182C157.454 57.8697 157.397 58.0553 157.354 58.2119Z" fill="#EA9B7A"/>
<path d="M151.871 101.578C151.952 101.579 152.031 101.553 152.095 101.504C152.159 101.455 152.205 101.386 152.226 101.308C152.247 101.23 152.241 101.147 152.209 101.073C152.178 100.998 152.122 100.937 152.051 100.897C150.319 99.9433 148.419 99.334 146.455 99.103C146.408 99.0993 146.36 99.1051 146.315 99.1198C146.269 99.1346 146.227 99.1581 146.191 99.1891C146.155 99.2201 146.125 99.2579 146.104 99.3004C146.082 99.3428 146.069 99.3892 146.065 99.4367C146.062 99.4842 146.067 99.5319 146.082 99.5772C146.097 99.6225 146.121 99.6645 146.152 99.7007C146.182 99.7369 146.22 99.7666 146.263 99.7882C146.305 99.8098 146.352 99.8228 146.399 99.8265C148.255 100.055 150.05 100.633 151.691 101.529C151.746 101.56 151.808 101.577 151.871 101.578V101.578Z" fill="#D96C63"/>
<path d="M147.42 99.9619C147.486 99.9619 147.551 99.9437 147.608 99.9092C148.764 99.2589 150.043 98.8562 151.363 98.7269C151.41 98.7236 151.457 98.7109 151.499 98.6896C151.542 98.6684 151.58 98.6389 151.611 98.6029C151.642 98.567 151.666 98.5252 151.681 98.48C151.696 98.4349 151.702 98.3872 151.699 98.3397C151.696 98.2922 151.683 98.2458 151.662 98.2032C151.64 98.1606 151.611 98.1226 151.575 98.0914C151.539 98.0601 151.497 98.0363 151.452 98.0212C151.407 98.0061 151.359 98.0001 151.312 98.0035C149.876 98.1374 148.484 98.5756 147.231 99.2887C147.163 99.33 147.111 99.3923 147.082 99.4659C147.053 99.5395 147.049 99.6206 147.071 99.6967C147.092 99.7729 147.138 99.84 147.201 99.8878C147.264 99.9357 147.34 99.9617 147.42 99.9619V99.9619Z" fill="#D96C63"/>
<path d="M136.494 76.3478C131.072 77.4466 128.7 71.8368 128.676 71.7832C128.632 71.6762 128.632 71.5561 128.677 71.4493C128.721 71.3425 128.806 71.2578 128.913 71.2137C129.02 71.1697 129.14 71.17 129.247 71.2145C129.354 71.2591 129.439 71.3442 129.483 71.4512C129.568 71.6631 131.61 76.4465 136.321 75.4924C141.257 74.4915 150.474 64.7681 150.567 64.6736C150.648 64.5993 150.754 64.5585 150.865 64.5592C150.975 64.5599 151.08 64.6022 151.16 64.6774C151.241 64.7527 151.29 64.8555 151.297 64.9653C151.305 65.075 151.271 65.1836 151.202 65.2694C150.816 65.6805 141.702 75.2933 136.494 76.3478Z" fill="#6746B9"/>
<path d="M145.018 41.0622C145.018 41.0622 153.719 39.4246 156.173 30.6434C158.508 22.2826 156.711 17.9461 154.281 13.4291C152.451 10.0245 146.649 5.42836 138.51 7.07957C130.293 8.74525 124.151 12.9618 123.244 19.7173C121.545 32.3593 131.745 47.7836 145.018 41.0622Z" fill="#39393B"/>
<path d="M155.759 31.9968C155.839 31.9968 155.918 31.9757 155.987 31.9355C156.056 31.8952 156.114 31.8374 156.153 31.7678C157.33 29.3683 158.005 26.7546 158.14 24.0856C158.274 21.4167 157.863 18.7484 156.934 16.243C156.282 14.2207 155.186 12.3703 153.724 10.8281C152.263 9.28583 150.475 8.09099 148.49 7.33158C146.678 6.62128 144.746 6.26448 142.799 6.28042C142.739 6.28327 142.681 6.29781 142.627 6.32323C142.573 6.34864 142.525 6.38441 142.485 6.42851C142.404 6.51758 142.361 6.63515 142.367 6.75535C142.373 6.87556 142.426 6.98855 142.515 7.06948C142.604 7.15041 142.722 7.19264 142.842 7.18688C144.674 7.18312 146.491 7.52381 148.198 8.19122C150.056 8.89964 151.73 10.019 153.095 11.4657C154.459 12.9123 155.479 14.6488 156.078 16.5452C156.945 18.9319 157.329 21.4673 157.207 24.0038C157.084 26.5402 156.459 29.027 155.366 31.3192C155.307 31.4238 155.291 31.5476 155.323 31.6634C155.355 31.7793 155.432 31.8777 155.536 31.9372C155.604 31.9763 155.681 31.9968 155.759 31.9968V31.9968Z" fill="#FAAF3A"/>
<path d="M128.142 32.1397C128.142 32.1397 125.31 29.9029 124.567 32.864C123.824 35.8251 125.923 41.0877 129.219 39.4893L128.142 32.1397Z" fill="#D96C63"/>
<path d="M130.907 37.5803C131.639 37.8236 132.297 38.2514 132.816 38.8225C133.336 39.3935 133.7 40.0887 133.873 40.841C134.026 41.5963 133.971 42.379 133.715 43.1059C133.459 43.8327 133.01 44.4765 132.417 44.9688C131.824 45.4612 131.109 45.7836 130.348 45.9018C129.586 46.02 128.807 45.9296 128.092 45.6402C127.378 45.3508 126.756 44.8732 126.291 44.2583C125.826 43.6433 125.537 42.9139 125.454 42.1477C125.371 41.3815 125.497 40.6071 125.819 39.9069C126.141 39.2066 126.647 38.6067 127.282 38.1709C127.754 37.8464 128.286 37.6211 128.847 37.5088L128.888 37.5011C128.934 37.6185 128.947 37.746 128.926 37.8701C128.905 37.9943 128.851 38.1106 128.77 38.2067C128.316 38.3263 127.891 38.5342 127.517 38.8187C127.004 39.2073 126.604 39.7263 126.36 40.3219C126.115 40.9174 126.035 41.5676 126.127 42.2047C126.219 42.8419 126.48 43.4427 126.883 43.9447C127.286 44.4466 127.817 44.8314 128.419 45.0588C129.021 45.2862 129.673 45.348 130.308 45.2378C130.942 45.1276 131.535 44.8493 132.025 44.432C132.515 44.0148 132.885 43.4737 133.095 42.8652C133.305 42.2566 133.348 41.6029 133.22 40.972C133.09 40.3082 132.77 39.6964 132.3 39.2107C131.829 38.725 131.227 38.3863 130.568 38.2356L130.907 37.5803Z" fill="#FAAF3A"/>
<path d="M136.721 44.8302L137.906 52.2428C137.906 52.2428 143.456 57.9071 153.593 47.7454C150.869 45.718 149.833 41.0214 150.151 37.9845C149.429 38.4555 148.749 38.9892 148.121 39.5795C147.85 39.7961 147.566 39.9951 147.27 40.1753C144.59 41.9917 140.485 44.3621 136.721 44.8302Z" fill="#EA9B7A"/>
<path d="M136.721 44.8259L137.283 48.3402C140.324 46.9852 145.699 44.0845 148.121 39.5735C147.857 39.7624 147.573 39.961 147.27 40.1693C144.59 41.9916 140.485 44.362 136.721 44.8259Z" fill="#39393B"/>
<path d="M125.401 30.3523C125.558 31.1365 125.71 31.8832 125.856 32.5925C126.013 33.3631 126.168 34.0897 126.319 34.7723C127.441 39.903 128.367 42.6504 129.863 43.6795C137.431 48.8833 149.747 38.3462 150.143 38.0066L150.153 37.9964C150.164 37.393 150.164 36.7937 150.153 36.209C150.075 31.5805 149.303 26.99 147.862 22.5908C147.545 20.3805 146.528 18.3299 144.961 16.7393C143.394 15.1487 141.359 14.1017 139.153 13.7517C134.465 13.0461 130.939 15.7595 128.734 16.9596C125.401 18.7683 124.097 23.8105 125.401 30.3523Z" fill="#EA9B7A"/>
<path d="M147.6 17.9299C147.6 17.9299 142.304 7.74434 131.738 10.5863C121.172 13.4283 120.611 18.3359 120.425 20.7898C120.238 23.2436 125.896 18.8968 125.896 18.8968C125.896 18.8968 126.091 23.8045 127.975 22.292C130.288 20.4382 132.876 16.4362 132.876 16.4362C132.876 16.4362 139.169 22.6206 145.149 20.9523C148.545 20.0059 147.6 17.9299 147.6 17.9299Z" fill="#39393B"/>
<path d="M134.62 40.3438C135.504 40.3165 136.346 39.9608 136.981 39.3463C137.016 39.3108 137.043 39.2688 137.061 39.2228C137.08 39.1768 137.089 39.1276 137.088 39.078C137.088 39.0285 137.077 38.9795 137.058 38.934C137.038 38.8884 137.01 38.8472 136.974 38.8126C136.939 38.778 136.897 38.7507 136.851 38.7323C136.805 38.714 136.756 38.7048 136.706 38.7055C136.657 38.7061 136.608 38.7165 136.562 38.736C136.517 38.7556 136.475 38.7839 136.441 38.8194C136.108 39.1468 135.693 39.379 135.24 39.4917C134.786 39.6044 134.311 39.5936 133.863 39.4603C133.817 39.4443 133.767 39.4377 133.718 39.4409C133.668 39.4441 133.62 39.457 133.575 39.4788C133.486 39.523 133.417 39.6009 133.385 39.6956C133.352 39.7903 133.359 39.894 133.403 39.9838C133.447 40.0736 133.525 40.1421 133.62 40.1744C133.942 40.2858 134.28 40.343 134.62 40.3438Z" fill="#D96C63"/>
<path d="M137.783 34.1757C137.783 34.1757 132.687 35.6856 130.045 35.6856C130.045 35.6856 131.366 39.4604 135.141 38.1394C135.959 37.8662 136.663 37.3282 137.141 36.6104C137.62 35.8926 137.846 35.036 137.783 34.1757Z" fill="white"/>
<path d="M128.325 23.5704C128.325 23.5704 129.649 23.4351 129.432 24.7177C129.214 26.0004 126.347 25.2165 124.927 27.7818C124.931 27.7861 123.56 25.0922 128.325 23.5704Z" fill="#39393B"/>
<path d="M134.207 22.378C134.207 22.378 132.935 22.7695 133.633 23.8667C134.331 24.9638 136.668 23.1253 138.975 24.9391C138.975 24.9391 139.19 21.9252 134.207 22.378Z" fill="#39393B"/>
<path d="M136.505 31.5729C136.627 32.1789 137.974 32.4172 139.513 32.1057C141.051 31.7942 142.199 31.0503 142.076 30.4443C141.954 29.8382 140.607 29.5999 139.068 29.9123C137.529 30.2247 136.382 30.9677 136.505 31.5729Z" fill="#D96C63"/>
<path d="M121.471 31.9711L125.586 31.2698C125.612 31.4436 125.646 31.616 125.689 31.7864C125.695 31.8158 125.705 31.8444 125.718 31.8715L121.574 32.578C121.494 32.5915 121.411 32.5727 121.345 32.5257C121.278 32.4786 121.233 32.4071 121.22 32.3269C121.212 32.2869 121.212 32.2457 121.22 32.2058C121.228 32.1658 121.245 32.128 121.268 32.0947C121.292 32.0614 121.322 32.0332 121.357 32.0119C121.392 31.9907 121.43 31.9768 121.471 31.9711V31.9711Z" fill="white"/>
<path d="M132.556 29.4833V29.4969C132.847 30.8303 133.653 31.9949 134.798 32.7382C135.942 33.4815 137.334 33.7434 138.67 33.4671C140.007 33.1908 141.181 32.3986 141.937 31.2624C142.693 30.1261 142.971 28.7376 142.709 27.398C142.672 27.2176 142.625 27.0394 142.568 26.8643C142.507 26.6677 142.433 26.4754 142.346 26.289C141.856 25.2235 141.02 24.3552 139.974 23.8256C138.927 23.2959 137.732 23.1361 136.584 23.3721C136.566 23.3751 136.549 23.3791 136.532 23.384C135.514 23.603 134.587 24.126 133.874 24.8837C133.108 25.6917 132.621 26.7243 132.486 27.8295C132.46 28.0373 132.448 28.2466 132.45 28.456C132.45 28.8011 132.486 29.1453 132.556 29.4833V29.4833ZM133.16 29.3735C133.003 28.6137 133.042 27.8266 133.274 27.0862C133.506 26.3459 133.922 25.6767 134.484 25.1416C134.937 24.707 135.476 24.3708 136.066 24.1542C136.655 23.9375 137.284 23.8451 137.911 23.8828C138.785 23.9366 139.626 24.2401 140.333 24.7575C141.04 25.2748 141.584 25.9842 141.9 26.8014C141.905 26.815 141.909 26.8286 141.916 26.8431C142.145 27.4546 142.239 28.108 142.194 28.7593C142.149 29.4106 141.965 30.0446 141.654 30.6188C141.344 31.1929 140.913 31.6939 140.393 32.0879C139.872 32.482 139.274 32.76 138.637 32.9032C138.611 32.9108 138.587 32.9151 138.561 32.9202C137.375 33.165 136.139 32.9292 135.127 32.2644C134.114 31.5996 133.407 30.5602 133.16 29.3743V29.3735Z" fill="white"/>
<path d="M120.569 31.9762C120.766 32.924 121.224 33.7979 121.891 34.499C122.559 35.2002 123.409 35.7008 124.346 35.9443C124.553 35.9986 124.764 36.0398 124.977 36.0677C125.053 36.0779 125.132 36.0864 125.21 36.0907C125.706 36.1346 126.206 36.106 126.694 36.0055C126.744 35.9953 126.794 35.9851 126.841 35.9706C126.937 35.9502 127.034 35.9238 127.128 35.8957C127.739 35.7147 128.311 35.4215 128.814 35.031C129.582 34.4366 130.168 33.6389 130.505 32.7283C130.842 31.8178 130.917 30.831 130.722 29.8799C130.663 29.5852 130.577 29.2963 130.467 29.0168C130.464 29.0054 130.46 28.9943 130.455 28.9836C130.371 28.7751 130.272 28.5728 130.159 28.3785C129.753 27.6603 129.181 27.0494 128.491 26.5964C127.801 26.1435 127.013 25.8616 126.192 25.774C125.904 25.7427 125.614 25.7364 125.325 25.7553C125.081 25.7704 124.838 25.8028 124.599 25.8523C124.467 25.8804 124.338 25.9119 124.211 25.9502C124.027 26.0014 123.847 26.0634 123.67 26.1357C123.521 26.1987 123.378 26.2651 123.238 26.34C122.242 26.8636 121.444 27.6963 120.963 28.7127C120.481 29.7292 120.343 30.8744 120.569 31.9762V31.9762ZM123.339 26.9809C123.472 26.9022 123.61 26.8312 123.751 26.7681C123.93 26.6858 124.114 26.6156 124.302 26.5579C124.437 26.5162 124.578 26.4813 124.721 26.4515C124.915 26.4101 125.111 26.3817 125.309 26.3664C125.423 26.3587 125.532 26.3536 125.641 26.3528C126.539 26.3517 127.417 26.6151 128.166 27.1099C128.915 27.6048 129.501 28.3092 129.852 29.1353C130.204 29.9614 130.304 30.8726 130.14 31.7552C129.976 32.6378 129.557 33.4527 128.933 34.0981C128.86 34.1747 128.783 34.2479 128.705 34.3177C128.16 34.8132 127.503 35.1687 126.79 35.3536C126.762 35.3587 126.734 35.3655 126.705 35.3731L126.568 35.4029C126.082 35.5038 125.581 35.5239 125.088 35.4625C125.022 35.4557 124.958 35.4463 124.892 35.4353C124.666 35.3978 124.443 35.3432 124.225 35.2719C123.88 35.1573 123.549 35.0027 123.24 34.8114C122.382 34.2838 121.723 33.4867 121.367 32.5448C121.315 32.413 121.271 32.2783 121.235 32.1414C121.207 32.0469 121.184 31.9499 121.164 31.8511C120.972 30.9138 121.078 29.9399 121.469 29.0664C121.859 28.1928 122.513 27.4635 123.339 26.9809V26.9809Z" fill="white"/>
<path d="M148.904 27.2218C148.941 27.2147 148.976 27.2005 149.007 27.1801C149.041 27.1585 149.071 27.1302 149.094 27.0971C149.117 27.0639 149.134 27.0264 149.143 26.9869C149.151 26.9473 149.152 26.9064 149.145 26.8665C149.138 26.8266 149.123 26.7885 149.101 26.7545C147.04 23.5338 142.086 26.4251 142.036 26.4549C141.966 26.4965 141.915 26.5641 141.895 26.6429C141.875 26.7218 141.887 26.8054 141.929 26.8754C141.97 26.9454 142.038 26.996 142.117 27.0161C142.196 27.0362 142.279 27.0242 142.349 26.9826C142.394 26.9554 146.841 24.3637 148.582 27.0856C148.616 27.1382 148.664 27.1794 148.722 27.2037C148.779 27.228 148.843 27.2343 148.904 27.2218Z" fill="white"/>
<path d="M130.224 29.1591C130.264 29.1507 130.301 29.1346 130.335 29.1117C130.368 29.0887 130.397 29.0594 130.419 29.0254C131.078 28.0041 132.488 28.4637 132.502 28.4688C132.579 28.4946 132.663 28.4887 132.736 28.4524C132.809 28.4161 132.864 28.3523 132.89 28.2751C132.916 28.1979 132.91 28.1136 132.874 28.0408C132.838 27.9679 132.774 27.9124 132.697 27.8866C132.207 27.7021 131.67 27.6808 131.167 27.8257C130.664 27.9706 130.221 28.2741 129.904 28.6909C129.871 28.7417 129.853 28.8012 129.854 28.8618C129.855 28.9225 129.873 28.9815 129.908 29.0316C129.942 29.0816 129.99 29.1204 130.047 29.1429C130.103 29.1654 130.165 29.1708 130.224 29.1582V29.1591Z" fill="white"/>
<path opacity="0.8" d="M125.859 32.5925C126.016 33.363 126.171 34.0896 126.322 34.7722C127.722 34.4318 128.73 33.7406 128.614 33.1704C128.499 32.6001 127.285 32.3558 125.859 32.5925Z" fill="#D96C63"/>
<path d="M135.423 28.5309C135.593 29.3625 136.104 29.9608 136.571 29.8664C137.038 29.7719 137.277 29.0212 137.109 28.1896C136.94 27.358 136.428 26.7597 135.961 26.8542C135.493 26.9487 135.254 27.6994 135.423 28.5309Z" fill="#39393B"/>
<path d="M127.195 30.1974C127.365 31.0298 127.876 31.6273 128.343 31.5337C128.81 31.4401 129.049 30.6885 128.88 29.857C128.712 29.0254 128.199 28.4271 127.732 28.5215C127.265 28.616 127.026 29.3659 127.195 30.1974Z" fill="#39393B"/>
<path d="M131.442 32.4308C131.21 32.4804 130.973 32.503 130.735 32.498C130.687 32.4954 130.64 32.4828 130.597 32.461C130.554 32.4392 130.515 32.4088 130.485 32.3715C130.454 32.3342 130.431 32.291 130.418 32.2445C130.405 32.198 130.401 32.1493 130.408 32.1014L130.939 28.2176C130.952 28.1259 131 28.0429 131.074 27.9869C131.148 27.931 131.241 27.9066 131.333 27.9193C131.424 27.9319 131.507 27.9805 131.563 28.0543C131.619 28.1282 131.643 28.2212 131.631 28.3129L131.158 31.7703C131.649 31.6997 132.112 31.4974 132.498 31.1847C132.569 31.1255 132.661 31.0971 132.753 31.1057C132.846 31.1142 132.931 31.159 132.99 31.2302C133.049 31.3014 133.077 31.3932 133.069 31.4854C133.06 31.5776 133.015 31.6626 132.944 31.7217C132.51 32.0785 131.994 32.3221 131.442 32.4308Z" fill="#39393B"/>
<path d="M146.752 35.1851C146.81 35.2702 148.418 37.5844 150.141 38.0108L150.148 38.0006C150.16 37.3955 150.158 36.7971 150.148 36.2081C148.943 36.1889 147.767 35.8346 146.752 35.1851Z" fill="#39393B"/>
<path d="M147.105 29.096C147.105 29.096 149.525 23.9551 152.673 26.9681C155.267 29.4543 152.999 37.7615 148.502 35.9834L147.105 29.096Z" fill="#EA9B7A"/>
<path d="M153.062 33.527C153.794 33.7704 154.452 34.1982 154.972 34.7692C155.491 35.3403 155.855 36.0354 156.028 36.7878C156.195 37.6141 156.114 38.4715 155.794 39.2516C155.474 40.0316 154.93 40.6992 154.23 41.1699C153.531 41.6407 152.707 41.8934 151.864 41.8961C151.021 41.8989 150.196 41.6515 149.494 41.1854C148.791 40.7192 148.242 40.0552 147.917 39.2772C147.592 38.4993 147.505 37.6424 147.667 36.815C147.829 35.9876 148.233 35.2267 148.827 34.6287C149.421 34.0308 150.18 33.6225 151.006 33.4555L151.048 33.4487C151.094 33.5659 151.107 33.6933 151.086 33.8174C151.065 33.9415 151.011 34.0576 150.93 34.1535C150.476 34.2732 150.05 34.4815 149.677 34.7663C149.164 35.1549 148.764 35.674 148.519 36.2695C148.275 36.865 148.194 37.5152 148.286 38.1524C148.378 38.7895 148.64 39.3904 149.043 39.8923C149.446 40.3943 149.976 40.779 150.578 41.0064C151.181 41.2338 151.833 41.2956 152.467 41.1854C153.101 41.0752 153.695 40.797 154.185 40.3797C154.675 39.9624 155.044 39.4213 155.254 38.8128C155.465 38.2043 155.508 37.5505 155.379 36.9197C155.25 36.2559 154.93 35.6441 154.459 35.1582C153.989 34.6724 153.387 34.3334 152.728 34.1824L153.062 33.527Z" fill="#FAAF3A"/>
<path d="M148.684 34.5501C148.636 34.5592 148.587 34.5583 148.539 34.5473C148.491 34.5363 148.447 34.5156 148.407 34.4864C148.368 34.4572 148.335 34.4202 148.311 34.3777C148.287 34.3352 148.272 34.2881 148.266 34.2395C148.159 33.1013 148.351 31.9548 148.825 30.9145C149.299 29.8742 150.038 28.9766 150.968 28.3113C151.045 28.2625 151.139 28.2461 151.228 28.2656C151.318 28.285 151.396 28.3389 151.446 28.4154C151.496 28.492 151.514 28.5852 151.496 28.6749C151.478 28.7646 151.426 28.8437 151.35 28.8952V28.8952C150.527 29.4905 149.873 30.2906 149.454 31.2162C149.036 32.1418 148.866 33.1608 148.962 34.1722C148.971 34.2584 148.947 34.3447 148.896 34.4145C148.845 34.4843 148.769 34.5327 148.684 34.5501V34.5501Z" fill="#39393B"/>
<path d="M151.456 31.8281C151.377 31.8445 151.295 31.8331 151.224 31.7958C150.643 31.4553 149.956 31.3414 149.296 31.4758C149.213 31.5137 149.119 31.5177 149.033 31.4868C148.947 31.4559 148.877 31.3926 148.837 31.3104C148.797 31.2282 148.791 31.1338 148.82 31.0473C148.849 30.9608 148.911 30.8891 148.992 30.8476C149.968 30.3761 151.39 31.0945 151.546 31.1779C151.61 31.2113 151.662 31.2637 151.694 31.3279C151.727 31.3921 151.74 31.4648 151.729 31.5362C151.719 31.6075 151.687 31.674 151.638 31.7264C151.588 31.7789 151.524 31.8147 151.453 31.829L151.456 31.8281Z" fill="#39393B"/>
<path d="M143.983 20.3795C143.983 20.3795 147.239 29.2254 147.417 31.0069C147.66 33.436 150.872 25.111 147.639 17.9963L143.983 20.3795Z" fill="#39393B"/>
<path d="M89.5489 207.92H102.963C102.963 207.92 106.067 193.031 107.109 184.684C108.151 176.338 108.691 156.541 108.691 156.541C108.691 156.541 119.382 160.012 141.76 158.704C191.343 155.81 172.543 119.381 172.543 119.381C170.867 121.696 158.301 124.884 151.288 125.99C129.76 128.055 113.395 131.711 102.191 136.544C99.7055 137.599 97.2999 138.832 94.9928 140.234C92.2913 141.899 90.6009 146.951 89.5829 153.597C86.5222 173.562 89.5489 207.92 89.5489 207.92Z" fill="#39393B"/>
<path d="M101.298 200.745C101.409 200.745 101.516 200.707 101.602 200.636C101.687 200.566 101.746 200.468 101.768 200.36C103.703 190.781 104.353 178.859 104.875 169.28C105.308 161.338 105.716 153.835 106.737 152.933C107.563 152.202 110.993 152.772 115.339 153.493C123.981 154.928 137.043 157.096 151.443 153.749C159.288 151.923 165.054 148.113 168.584 142.423C174.67 132.61 171.896 120.444 171.867 120.322C171.852 120.26 171.826 120.202 171.789 120.151C171.752 120.1 171.706 120.056 171.652 120.023C171.598 119.99 171.539 119.967 171.476 119.957C171.414 119.947 171.35 119.949 171.289 119.964C171.227 119.978 171.169 120.004 171.118 120.041C171.067 120.078 171.023 120.125 170.99 120.178C170.957 120.232 170.934 120.292 170.924 120.354C170.914 120.416 170.916 120.48 170.931 120.542C170.958 120.66 173.64 132.453 167.762 141.922C164.372 147.384 158.808 151.048 151.224 152.817C137.01 156.124 124.063 153.975 115.495 152.553C110.364 151.702 107.268 151.191 106.099 152.22C104.837 153.336 104.482 158.822 103.914 169.235C103.394 178.783 102.746 190.667 100.826 200.177C100.812 200.246 100.814 200.318 100.832 200.387C100.849 200.456 100.881 200.52 100.926 200.575C100.971 200.63 101.027 200.674 101.091 200.705C101.155 200.735 101.225 200.752 101.296 200.752L101.298 200.745Z" fill="#585859"/>
<path d="M89.2919 200.999H89.3021L104.219 200.679C104.282 200.678 104.344 200.664 104.402 200.639C104.46 200.613 104.512 200.577 104.556 200.532C104.599 200.486 104.633 200.433 104.656 200.374C104.679 200.315 104.69 200.252 104.689 200.189C104.688 200.126 104.675 200.064 104.65 200.006C104.625 199.948 104.589 199.895 104.543 199.851C104.498 199.808 104.444 199.773 104.385 199.751C104.326 199.728 104.263 199.718 104.2 199.72L89.2825 200.04C89.1551 200.041 89.0334 200.093 88.9443 200.184C88.8551 200.275 88.8058 200.398 88.8072 200.525C88.8085 200.653 88.8604 200.774 88.9515 200.863C89.0425 200.953 89.1653 201.002 89.2927 201.001L89.2919 200.999Z" fill="#585859"/>
<path d="M89.9174 225.107H99.3889L101.213 213.999L102.211 207.921H90.4434L90.257 213.999L89.9174 225.107Z" fill="#EA9B7A"/>
<path d="M89.9174 225.107H99.3889L100.751 216.838L101.216 213.999H90.257L90.166 216.942L89.9174 225.107Z" fill="#FAAF3A"/>
<path d="M90.1668 216.942L100.744 216.838L101.209 213.999H90.2579L90.1668 216.942Z" fill="#C77E2E"/>
<path d="M66.5519 240.062H102.365C102.657 239.438 102.817 238.761 102.835 238.073C103.059 235.043 102.095 230.209 101.621 227.161C101.563 226.804 101.513 226.473 101.475 226.172C101.415 225.759 101.379 225.343 101.368 224.926C101.413 224.633 101.386 224.332 101.289 224.051C101.192 223.77 101.028 223.517 100.811 223.314C100.594 223.111 100.331 222.964 100.044 222.886C99.7574 222.807 99.456 222.8 99.1659 222.865C95.5417 226.42 91.4392 221.09 89.0424 222.838C89.0424 222.838 88.9454 222.909 88.7258 223.081C88.5241 223.239 88.2151 223.485 87.7946 223.842C87.1835 224.353 86.3273 225.092 85.1672 226.136C82.3252 228.693 77.4899 230.382 73.3721 232.103C72.8469 232.322 72.3601 232.542 71.9081 232.76C71.5677 232.925 71.2408 233.092 70.9361 233.257C67.5707 235.074 66.4991 236.81 66.2548 238.073C66.1036 238.75 66.2094 239.459 66.5519 240.062Z" fill="#7659C0"/>
<path d="M70.937 233.257C71.8596 233.992 73.9109 235.46 75.5561 235.46C75.6285 235.46 75.7017 235.46 75.7715 235.451C76.9341 235.354 81.2018 233.257 84.6736 231.349C86.6644 230.254 88.4807 229.179 89.7881 228.315C91.9321 226.903 92.3032 226.364 92.3874 225.988C92.7015 224.576 90.3643 223.591 88.7275 223.081C88.5258 223.239 88.2168 223.485 87.7964 223.842C89.8315 224.396 91.5031 225.266 91.4257 225.761C91.2265 226.18 89.1071 227.796 84.0386 230.57C80.1727 232.686 76.5052 234.4 75.6915 234.465C74.585 234.55 72.9678 233.551 71.9099 232.763C71.5652 232.924 71.2417 233.095 70.937 233.257Z" fill="#6746B9"/>
<path d="M66.5519 240.062H102.364C102.657 239.439 102.817 238.761 102.835 238.073H66.2583C66.1065 238.75 66.2112 239.458 66.5519 240.062V240.062Z" fill="#6746B9"/>
<path d="M98.7105 240.062H99.7744C99.0907 239.281 98.5686 238.371 98.2381 237.387C97.9077 236.403 97.7755 235.363 97.8492 234.327C97.9493 232.937 98.336 231.583 98.9851 230.349C99.6342 229.116 100.531 228.03 101.621 227.16C101.563 226.805 101.514 226.472 101.475 226.171C100.182 227.115 99.1107 228.331 98.337 229.732C97.5633 231.134 97.1057 232.688 96.9963 234.285C96.8606 236.354 97.4686 238.402 98.7105 240.062V240.062Z" fill="#6746B9"/>
<path d="M85.7749 228.246C85.9188 228.245 86.0574 228.192 86.1648 228.096C86.2722 228.001 86.3411 227.869 86.3584 227.726C86.3758 227.584 86.3404 227.439 86.259 227.321C86.1776 227.202 86.0557 227.117 85.9162 227.082L83.6794 226.527C83.6038 226.507 83.525 226.503 83.4476 226.513C83.3701 226.524 83.2956 226.55 83.2283 226.59C83.161 226.63 83.1024 226.683 83.0557 226.746C83.009 226.808 82.9753 226.88 82.9564 226.955C82.9376 227.031 82.934 227.11 82.9459 227.188C82.9578 227.265 82.985 227.339 83.0258 227.406C83.0666 227.472 83.1203 227.53 83.1837 227.576C83.2471 227.622 83.319 227.654 83.3951 227.672L85.6319 228.227C85.6786 228.239 85.7267 228.246 85.7749 228.246V228.246Z" fill="white"/>
<path d="M87.9981 226.385C88.1419 226.384 88.2806 226.331 88.388 226.236C88.4954 226.14 88.5642 226.008 88.5816 225.866C88.5989 225.723 88.5636 225.579 88.4822 225.46C88.4007 225.341 88.2789 225.257 88.1394 225.222L85.9026 224.667C85.7517 224.631 85.593 224.657 85.4609 224.738C85.3288 224.819 85.2337 224.949 85.1964 225.099C85.1591 225.249 85.1824 225.408 85.2613 225.542C85.3403 225.675 85.4685 225.772 85.6183 225.811L87.8551 226.367C87.9019 226.379 87.9499 226.385 87.9981 226.385V226.385Z" fill="white"/>
<path d="M83.5373 229.552C83.6812 229.552 83.8199 229.499 83.9275 229.403C84.0351 229.308 84.1041 229.176 84.1215 229.033C84.139 228.89 84.1037 228.746 84.0223 228.627C83.9409 228.509 83.8189 228.424 83.6794 228.389L81.4426 227.834C81.367 227.814 81.2882 227.809 81.2107 227.82C81.1333 227.831 81.0588 227.857 80.9915 227.897C80.9242 227.936 80.8655 227.989 80.8189 228.052C80.7722 228.115 80.7384 228.186 80.7196 228.262C80.7007 228.338 80.6972 228.417 80.7091 228.494C80.721 228.571 80.7482 228.645 80.789 228.712C80.8298 228.779 80.8835 228.837 80.9469 228.882C81.0103 228.928 81.0822 228.961 81.1583 228.979L83.3951 229.533C83.4415 229.546 83.4893 229.552 83.5373 229.552V229.552Z" fill="white"/>
<path d="M81.3014 230.797C81.4457 230.798 81.5851 230.745 81.6932 230.65C81.8014 230.554 81.8708 230.422 81.8883 230.279C81.9058 230.136 81.8702 229.991 81.7882 229.873C81.7063 229.754 81.5836 229.669 81.4435 229.635L79.2067 229.079C79.0574 229.048 78.902 229.077 78.773 229.158C78.6441 229.239 78.5516 229.367 78.5149 229.515C78.4782 229.663 78.5001 229.82 78.576 229.952C78.652 230.084 78.7761 230.182 78.9224 230.225L81.1592 230.78C81.2057 230.791 81.2534 230.797 81.3014 230.797Z" fill="white"/>
<path d="M78.8619 231.953C79.0062 231.953 79.1454 231.901 79.2534 231.805C79.3614 231.71 79.4307 231.578 79.4481 231.435C79.4655 231.291 79.4298 231.147 79.3479 231.028C79.2659 230.91 79.1433 230.825 79.0032 230.791L76.7664 230.236C76.6906 230.215 76.6113 230.21 76.5334 230.22C76.4554 230.23 76.3803 230.256 76.3125 230.296C76.2447 230.336 76.1855 230.389 76.1385 230.452C76.0915 230.515 76.0575 230.587 76.0386 230.663C76.0197 230.739 76.0162 230.819 76.0285 230.896C76.0407 230.974 76.0683 231.048 76.1097 231.115C76.1511 231.182 76.2055 231.24 76.2696 231.286C76.3337 231.331 76.4063 231.363 76.483 231.38L78.7198 231.935C78.7662 231.947 78.814 231.953 78.8619 231.953Z" fill="white"/>
<path d="M76.2166 232.94C76.3605 232.939 76.4991 232.886 76.6065 232.79C76.7139 232.694 76.7828 232.563 76.8001 232.42C76.8175 232.277 76.7821 232.133 76.7007 232.015C76.6193 231.896 76.4974 231.811 76.3579 231.776L74.1211 231.221C74.0455 231.201 73.9667 231.197 73.8893 231.207C73.8118 231.218 73.7373 231.244 73.67 231.284C73.6028 231.324 73.5441 231.377 73.4974 231.439C73.4507 231.502 73.417 231.573 73.3981 231.649C73.3793 231.725 73.3757 231.804 73.3876 231.881C73.3995 231.959 73.4267 232.033 73.4675 232.099C73.5083 232.166 73.562 232.224 73.6254 232.27C73.6888 232.316 73.7607 232.348 73.8368 232.366L76.0736 232.922C76.1204 232.933 76.1684 232.939 76.2166 232.94V232.94Z" fill="white"/>
<path d="M40.1317 118.843V121.817C40.1317 123.527 41.1658 124.915 42.4426 124.915H203.146C204.423 124.915 205.455 123.528 205.455 121.817V118.843C205.455 117.132 204.422 115.746 203.146 115.746H42.4426C41.1658 115.746 40.1317 117.132 40.1317 118.843Z" fill="#262626"/>
<path d="M205.456 119.785H40.1317V121.146H205.456V119.785Z" fill="black"/>
<path d="M44.9602 132.557H196.022C196.347 132.557 196.658 132.428 196.888 132.199C197.117 131.969 197.246 131.658 197.246 131.333V124.878H43.7363V131.333C43.7365 131.658 43.8655 131.969 44.095 132.198C44.3245 132.428 44.6357 132.557 44.9602 132.557Z" fill="black"/>
<path d="M186.838 170.469H51.7464V175.734H186.838V170.469Z" fill="black"/>
<path d="M196.579 241L170.424 132.558H179.61L205.764 240.999L196.579 241Z" fill="#262626"/>
<path d="M42.1855 241L68.3402 132.559H59.1547L33 241H42.1855Z" fill="#262626"/>
<path d="M187.502 112.195L190.338 112.629L193.614 91.2488L190.778 90.8142L187.502 112.195Z" fill="#FAAF3A"/>
<path d="M190.777 90.8138L193.613 91.2479L192.99 89.0818L192.666 87.9608L192.022 88.9337L190.777 90.8138Z" fill="#EA9B7A"/>
<path d="M187.502 112.195L190.338 112.629L190.576 111.076L187.74 110.642L187.502 112.195Z" fill="#39393B"/>
<path d="M187.501 113.463L189.959 113.839C190.009 113.846 190.06 113.834 190.101 113.804C190.142 113.774 190.169 113.73 190.177 113.68L190.337 112.629L187.501 112.195L187.341 113.245C187.338 113.27 187.339 113.295 187.345 113.319C187.351 113.344 187.361 113.367 187.376 113.387C187.391 113.407 187.41 113.424 187.431 113.437C187.453 113.45 187.477 113.459 187.501 113.463Z" fill="#DF615C"/>
<path d="M192.022 88.9337L192.99 89.0818L192.666 87.9608L192.022 88.9337Z" fill="#39393B"/>
<path d="M187.911 109.527L187.74 110.641L190.577 111.076L190.747 109.962L187.911 109.527Z" fill="#C77E2E"/>
<path d="M192.749 92.1943L190.323 108.025C190.319 108.054 190.309 108.081 190.294 108.106C190.279 108.13 190.26 108.152 190.236 108.169C190.213 108.186 190.187 108.198 190.159 108.205C190.131 108.212 190.102 108.213 190.074 108.208V108.208C190.045 108.204 190.018 108.194 189.993 108.18C189.968 108.165 189.947 108.145 189.93 108.122C189.913 108.099 189.9 108.072 189.894 108.045C189.887 108.017 189.885 107.988 189.89 107.959L192.315 92.1279C192.324 92.0706 192.356 92.0191 192.402 91.9848C192.449 91.9505 192.508 91.9361 192.565 91.9449V91.9449C192.593 91.9492 192.621 91.959 192.645 91.9739C192.67 91.9887 192.691 92.0083 192.709 92.0315C192.726 92.0546 192.738 92.0809 192.745 92.1089C192.752 92.1368 192.753 92.1658 192.749 92.1943V92.1943Z" fill="#C77E2E"/>
<path d="M191.638 92.0224L189.213 107.854C189.204 107.911 189.173 107.963 189.126 107.997C189.079 108.031 189.021 108.046 188.964 108.037V108.037C188.935 108.033 188.908 108.023 188.883 108.009C188.858 107.994 188.837 107.974 188.82 107.951C188.803 107.928 188.79 107.901 188.784 107.874C188.777 107.846 188.775 107.817 188.78 107.788L191.205 91.9569C191.214 91.8994 191.245 91.8479 191.292 91.8134C191.339 91.779 191.397 91.7645 191.455 91.773C191.512 91.7821 191.563 91.8133 191.598 91.86C191.632 91.9068 191.646 91.9651 191.638 92.0224Z" fill="#C77E2E"/>
<path d="M185.65 90.9126L185.579 112.542L188.449 112.552L188.52 90.922L185.65 90.9126Z" fill="#262626"/>
<path d="M185.652 90.9125L188.521 90.9218L187.585 88.8723L187.099 87.8118L186.606 88.8689L185.652 90.9125Z" fill="#EA9B7A"/>
<path d="M185.58 112.543L188.449 112.552L188.454 110.981L185.585 110.971L185.58 112.543Z" fill="#39393B"/>
<path d="M185.766 113.795L188.254 113.803C188.279 113.803 188.304 113.798 188.327 113.789C188.35 113.779 188.371 113.766 188.389 113.748C188.407 113.73 188.421 113.709 188.431 113.686C188.44 113.663 188.445 113.638 188.445 113.613V112.552L185.576 112.543V113.604C185.576 113.629 185.581 113.654 185.59 113.677C185.6 113.7 185.614 113.721 185.631 113.739C185.649 113.757 185.67 113.771 185.693 113.781C185.716 113.79 185.741 113.795 185.766 113.795V113.795Z" fill="#DF615C"/>
<path d="M186.602 88.8698H187.581L187.095 87.8093L186.602 88.8698Z" fill="#39393B"/>
<path d="M185.588 109.844L185.585 110.97L188.454 110.98L188.458 109.853L185.588 109.844Z" fill="black"/>
<path d="M187.802 91.9859L187.75 108.003C187.75 108.062 187.727 108.117 187.685 108.158C187.644 108.199 187.588 108.222 187.53 108.222C187.472 108.222 187.417 108.199 187.376 108.158C187.335 108.116 187.312 108.061 187.312 108.003L187.364 91.985C187.364 91.927 187.387 91.8715 187.428 91.8305C187.47 91.7896 187.525 91.7665 187.583 91.7662C187.641 91.7665 187.697 91.7897 187.738 91.8309C187.779 91.872 187.802 91.9278 187.802 91.9859V91.9859Z" fill="black"/>
<path d="M186.68 91.9798L186.628 107.997C186.628 108.056 186.605 108.111 186.563 108.152C186.522 108.193 186.467 108.216 186.408 108.216C186.38 108.216 186.351 108.21 186.325 108.199C186.298 108.188 186.274 108.172 186.253 108.152C186.233 108.131 186.217 108.107 186.206 108.081C186.195 108.054 186.19 108.025 186.19 107.997L186.242 91.979C186.242 91.9502 186.247 91.9217 186.258 91.8951C186.269 91.8685 186.286 91.8443 186.306 91.824C186.326 91.8037 186.351 91.7876 186.377 91.7767C186.404 91.7657 186.432 91.7601 186.461 91.7603V91.7603C186.519 91.7605 186.575 91.7837 186.616 91.8249C186.657 91.866 186.68 91.9218 186.68 91.9798V91.9798Z" fill="black"/>
<path d="M183.541 90.8138L180.7 91.2173L183.742 112.632L186.583 112.229L183.541 90.8138Z" fill="#7659C0"/>
<path d="M180.7 91.2183L183.541 90.8149L182.318 88.9219L181.684 87.9423L181.348 89.0598L180.7 91.2183Z" fill="#EA9B7A"/>
<path d="M183.742 112.633L186.583 112.229L186.362 110.674L183.521 111.077L183.742 112.633Z" fill="#39393B"/>
<path d="M184.109 113.847L186.572 113.497C186.597 113.493 186.621 113.485 186.642 113.472C186.664 113.459 186.683 113.442 186.698 113.422C186.713 113.402 186.724 113.379 186.73 113.355C186.736 113.331 186.737 113.305 186.734 113.281L186.585 112.23L183.744 112.634L183.893 113.685C183.901 113.735 183.928 113.78 183.968 113.81C184.008 113.84 184.059 113.853 184.109 113.847V113.847Z" fill="#DF615C"/>
<path d="M181.348 89.0588L182.317 88.9209L181.683 87.9413L181.348 89.0588Z" fill="#39393B"/>
<path d="M186.203 109.557L183.362 109.961L183.521 111.077L186.362 110.673L186.203 109.557Z" fill="#6746B9"/>
<path d="M182.984 91.9696L185.237 107.829C185.245 107.886 185.23 107.945 185.195 107.992C185.16 108.038 185.108 108.069 185.051 108.077V108.077C184.993 108.085 184.935 108.07 184.888 108.035C184.842 108.001 184.811 107.949 184.802 107.891L182.549 92.0318C182.541 91.9742 182.557 91.9158 182.592 91.8694C182.626 91.823 182.678 91.7923 182.736 91.7841V91.7841C182.793 91.7758 182.852 91.7907 182.898 91.8255C182.945 91.8603 182.976 91.9121 182.984 91.9696Z" fill="#6746B9"/>
<path d="M181.869 92.1263L184.122 107.986C184.13 108.043 184.115 108.102 184.08 108.148C184.046 108.195 183.994 108.226 183.936 108.234C183.878 108.242 183.82 108.227 183.774 108.192C183.727 108.157 183.697 108.105 183.688 108.048L181.44 92.185C181.432 92.1275 181.447 92.0691 181.482 92.0227C181.517 91.9763 181.568 91.9456 181.626 91.9374V91.9374C181.654 91.9338 181.683 91.9358 181.711 91.9434C181.738 91.951 181.764 91.9639 181.787 91.9814C181.809 91.999 181.828 92.0208 181.843 92.0457C181.857 92.0705 181.866 92.0979 181.869 92.1263V92.1263Z" fill="#6746B9"/>
<path d="M179.769 99.4683L179.918 100.628L180.054 101.681L180.261 103.282L180.394 104.323L180.603 105.94L180.737 106.968L180.946 108.595L181.077 109.609L181.289 111.249L181.417 112.251L181.631 113.904L181.76 114.893L181.869 115.744H193.144L193.254 114.893L193.383 113.904L193.596 112.251L193.725 111.249L193.937 109.609L194.068 108.595L194.277 106.968L194.411 105.94L194.619 104.323L194.753 103.282L194.96 101.681L195.096 100.628L195.245 99.4683H179.769Z" fill="#DF615C"/>
<path d="M179.919 100.628L180.055 101.681H194.962L195.098 100.628H179.919Z" fill="#B11722"/>
<path d="M180.261 103.282L180.394 104.323H194.619L194.753 103.282H180.261Z" fill="#B11722"/>
<path d="M180.603 105.934L180.737 106.963H194.278L194.412 105.934H180.603Z" fill="#B11722"/>
<path d="M180.946 108.592L181.077 109.606H193.938L194.069 108.592H180.946Z" fill="#B11722"/>
<path d="M181.289 111.246L181.417 112.248H193.596L193.725 111.246H181.289Z" fill="#B11722"/>
<path d="M181.631 113.901L181.76 114.89H193.255L193.384 113.901H181.631Z" fill="#B11722"/>
<path d="M41.0679 58.2375L50.6858 98.8999L50.9411 99.9689L51.588 102.708C51.7234 103.283 52.0493 103.796 52.5128 104.163C52.9763 104.53 53.5502 104.73 54.1414 104.73H118.914C119.31 104.73 119.702 104.64 120.058 104.467C120.415 104.293 120.728 104.042 120.973 103.731C121.219 103.42 121.391 103.057 121.476 102.67C121.562 102.283 121.559 101.882 121.467 101.496L110.952 57.0255C110.816 56.4503 110.49 55.9378 110.026 55.571C109.563 55.2043 108.989 55.0048 108.398 55.0049H43.6264C43.2297 55.0043 42.838 55.0936 42.4807 55.2662C42.1234 55.4387 41.8099 55.69 41.5637 56.0011C41.3174 56.3122 41.1449 56.675 41.0591 57.0624C40.9732 57.4497 40.9762 57.8515 41.0679 58.2375Z" fill="#39393B"/>
<path d="M50.679 98.8962L50.9344 99.9653H118.191V98.8962H50.679Z" fill="#585859"/>
<path d="M92.8079 65.0703C93.1105 66.5062 93.8843 67.7997 95.0064 68.7454C96.1284 69.691 97.5344 70.2345 99.0007 70.2895C99.6526 70.3137 100.301 70.1862 100.895 69.917C101.489 69.6478 102.013 69.2443 102.424 68.7382C102.836 68.2322 103.124 67.6375 103.267 67.001C103.409 66.3644 103.402 65.7035 103.245 65.0703C102.943 63.6346 102.169 62.3413 101.047 61.3958C99.9246 60.4503 98.5187 59.907 97.0525 59.852C96.4008 59.8278 95.7523 59.9554 95.1583 60.2245C94.5643 60.4937 94.0409 60.8971 93.6293 61.4031C93.2178 61.909 92.9294 62.5036 92.7868 63.14C92.6443 63.7764 92.6515 64.4372 92.8079 65.0703Z" fill="#FAAF3A"/>
<path d="M98.702 64.0754C98.8101 64.6524 99.1003 65.1197 99.3506 65.1197C99.6008 65.1197 99.7174 64.6524 99.6059 64.0754C99.4944 63.4983 99.2084 63.0319 98.9573 63.0319C98.7063 63.0319 98.5948 63.4957 98.702 64.0754Z" fill="#39393B"/>
<path d="M95.9792 64.0754C96.0865 64.6524 96.3776 65.1197 96.6278 65.1197C96.878 65.1197 96.9946 64.6524 96.8831 64.0754C96.7716 63.4983 96.4857 63.0319 96.2346 63.0319C95.9835 63.0319 95.872 63.4957 95.9792 64.0754Z" fill="#39393B"/>
<path d="M98.456 67.6119C99.0662 67.619 99.6545 67.3848 100.093 66.9603C100.531 66.5358 100.784 65.9554 100.797 65.3453C100.795 65.2817 100.772 65.2206 100.731 65.1716C100.691 65.1227 100.635 65.0888 100.573 65.0755C100.546 65.0674 100.517 65.0656 100.489 65.0703C100.462 65.0749 100.435 65.0859 100.412 65.1023C100.389 65.1188 100.371 65.1402 100.357 65.1651C100.344 65.1899 100.336 65.2175 100.335 65.2457C100.333 65.5004 100.281 65.7522 100.181 65.9865C100.08 66.2207 99.9349 66.4327 99.7522 66.6103C99.5696 66.7879 99.3535 66.9274 99.1166 67.0209C98.8796 67.1144 98.6265 67.1599 98.3718 67.1548C97.7913 67.1208 97.2323 66.9236 96.759 66.5858C96.2858 66.2481 95.9175 65.7835 95.6966 65.2457C95.673 65.1873 95.6302 65.1387 95.5753 65.1078C95.5204 65.0769 95.4567 65.0655 95.3945 65.0755C95.3668 65.0821 95.3409 65.095 95.3189 65.1131C95.2969 65.1312 95.2793 65.154 95.2674 65.1799C95.2555 65.2059 95.2497 65.2341 95.2503 65.2626C95.2509 65.2911 95.258 65.3191 95.2711 65.3444C95.5392 65.9807 95.9792 66.5298 96.5417 66.9303C97.1042 67.3307 97.767 67.5667 98.456 67.6119Z" fill="#39393B"/>
<path d="M62.8656 89.4341C62.8086 92.1339 58.2363 95.5138 58.2363 95.5138C58.2363 95.5138 52.9243 92.1339 52.2783 89.4341C51.5778 86.5078 54.9168 85.6107 57.3945 87.8169C59.3887 85.6099 62.932 86.507 62.8656 89.4341Z" fill="#DF615C"/>
<path d="M72.5414 81.607C72.7175 82.9854 73.3822 84.2549 74.4147 85.1848C75.4472 86.1147 76.7791 86.6434 78.1683 86.6747C78.8134 86.6895 79.4541 86.5638 80.0459 86.3063C80.6376 86.0489 81.1664 85.6659 81.5955 85.1839C82.0246 84.7019 82.3437 84.1323 82.5309 83.5147C82.718 82.8971 82.7687 82.2462 82.6793 81.607C82.5032 80.2287 81.8385 78.9593 80.806 78.0293C79.7735 77.0994 78.4416 76.5707 77.0524 76.5394C76.4072 76.5246 75.7666 76.6503 75.1748 76.9078C74.583 77.1652 74.0543 77.5482 73.6252 78.0302C73.1961 78.5122 72.8769 79.0818 72.6898 79.6994C72.5026 80.317 72.452 80.9679 72.5414 81.607Z" fill="#585859"/>
<path d="M105.829 55.0073L117.024 104.73H118.911C119.307 104.73 119.698 104.64 120.055 104.467C120.412 104.294 120.725 104.042 120.97 103.731C121.216 103.42 121.388 103.057 121.473 102.67C121.559 102.283 121.556 101.881 121.464 101.496L110.95 57.0254C110.814 56.4503 110.488 55.938 110.024 55.5711C109.561 55.2043 108.987 55.0045 108.396 55.0039L105.829 55.0073Z" fill="#585859"/>
<path d="M87.0686 104.73L89.0339 115.779H82.5439L80.5761 104.73H87.0686Z" fill="white"/>
<path d="M98.7479 113.879L97.4193 112.011C97.1854 111.683 96.8764 111.415 96.518 111.23C96.1595 111.045 95.762 110.948 95.3587 110.948H77.5647C77.1029 110.948 76.65 111.075 76.2549 111.314C75.8599 111.553 75.5378 111.896 75.3237 112.305L74.4274 114.019C74.3316 114.203 74.2846 114.408 74.2911 114.615C74.2976 114.821 74.3574 115.023 74.4646 115.2C74.5718 115.377 74.7229 115.524 74.9032 115.625C75.0835 115.727 75.287 115.78 75.4939 115.78H97.7665C97.9876 115.78 98.2044 115.72 98.3932 115.605C98.582 115.49 98.7355 115.325 98.8369 115.129C98.9383 114.932 98.9836 114.712 98.9679 114.491C98.9522 114.271 98.8761 114.059 98.7479 113.879V113.879Z" fill="white"/>
<path d="M135.82 115.775H82.3686L81.7882 113.758C81.7032 113.463 81.6881 113.152 81.744 112.849C81.7999 112.547 81.9253 112.262 82.1102 112.016C82.2952 111.771 82.5347 111.571 82.8098 111.434C83.0849 111.297 83.3882 111.226 83.6956 111.226H133.017C133.448 111.226 133.867 111.366 134.211 111.625C134.555 111.884 134.806 112.247 134.925 112.661L135.82 115.775Z" fill="white"/>
<path d="M66.0217 41.7326L89.0884 41.7164C90.1639 41.7157 91.0352 40.8432 91.0345 39.7677L91.0247 25.8167C91.024 24.7411 90.1515 23.8699 89.076 23.8706L66.0092 23.8867C64.9337 23.8875 64.0624 24.76 64.0632 25.8355L64.0729 39.7865C64.0737 40.862 64.9462 41.7333 66.0217 41.7326Z" fill="#DF615C"/>
<path d="M67.1426 39.0519L69.3003 47.193L73.0683 39.5413L67.1426 39.0519Z" fill="#DF615C"/>
<path d="M71.5779 31.4827C72.0597 34.5331 77.7529 38.3505 77.7529 38.3505C77.7529 38.3505 83.2334 34.5263 83.5407 31.475C83.8811 28.1675 79.9659 27.1555 77.5061 29.651C74.9152 27.1589 71.0553 28.176 71.5779 31.4827Z" fill="white"/>
</svg>
