<svg width="254" height="242" viewBox="0 0 254 242" fill="none" xmlns="http://www.w3.org/2000/svg">
<path d="M209.065 7.39648H43.4178V142.514H209.065V7.39648Z" fill="#368075"/>
<path d="M204.924 10.7742H47.5592V139.136H204.924V10.7742Z" fill="white"/>
<path d="M209.276 142.142H43.1896V146.717H209.276V142.142Z" fill="#054E45"/>
<path d="M218.885 3.05017H34.4962V16.319H218.885V3.05017Z" fill="#D5D5D5"/>
<path d="M218.885 3.05017H34.4962V12.3617H218.885V3.05017Z" fill="#C0C0C0"/>
<path opacity="0.34" d="M173.702 5.10925H40.5583C39.8632 5.10925 39.2997 5.67255 39.2997 6.36741C39.2997 7.06227 39.8632 7.62556 40.5583 7.62556H173.702C174.397 7.62556 174.961 7.06227 174.961 6.36741C174.961 5.67255 174.397 5.10925 173.702 5.10925Z" fill="white"/>
<path d="M39.5288 2.89783H37.0882V16.1667H39.5288V2.89783Z" fill="#D5D5D5"/>
<path d="M215.53 2.89783H213.09V16.1667H215.53V2.89783Z" fill="#D5D5D5"/>
<path d="M223.309 4.24528V14.3619C223.346 14.9052 223.27 15.4502 223.087 15.9631C222.904 16.476 222.618 16.9458 222.246 17.3435C221.874 17.7412 221.424 18.0582 220.925 18.275C220.425 18.4917 219.887 18.6036 219.342 18.6036C218.798 18.6036 218.259 18.4917 217.759 18.275C217.26 18.0582 216.81 17.7412 216.438 17.3435C216.066 16.9458 215.78 16.476 215.597 15.9631C215.414 15.4502 215.339 14.9052 215.375 14.3619V4.24528C215.34 3.15675 215.737 2.09862 216.481 1.30283C217.224 0.507047 218.253 0.0385353 219.342 0C219.87 0.00226261 220.392 0.113941 220.874 0.327991C221.357 0.542042 221.791 0.853821 222.147 1.24366C222.9 2.06087 223.316 3.13364 223.309 4.24528V4.24528Z" fill="#1E1E1E"/>
<path d="M223.309 4.24528V9.30314C223.346 9.84644 223.27 10.3914 223.087 10.9043C222.904 11.4172 222.618 11.887 222.246 12.2847C221.874 12.6824 221.424 12.9994 220.925 13.2162C220.425 13.4329 219.887 13.5448 219.342 13.5448C218.798 13.5448 218.259 13.4329 217.759 13.2162C217.26 12.9994 216.81 12.6824 216.438 12.2847C216.066 11.887 215.78 11.4172 215.597 10.9043C215.414 10.3914 215.339 9.84644 215.375 9.30314V4.24528C215.34 3.15675 215.737 2.09862 216.481 1.30283C217.224 0.507047 218.253 0.0385353 219.342 0C219.87 0.00226261 220.392 0.113941 220.874 0.327991C221.357 0.542042 221.791 0.853821 222.147 1.24366C222.9 2.06087 223.316 3.13364 223.309 4.24528V4.24528Z" fill="#054E45"/>
<path d="M38.0055 4.24528V14.3619C38.0419 14.9052 37.9663 15.4502 37.7834 15.9631C37.6005 16.476 37.3142 16.9458 36.9423 17.3435C36.5703 17.7412 36.1206 18.0582 35.6211 18.275C35.1216 18.4917 34.5829 18.6036 34.0384 18.6036C33.4939 18.6036 32.9552 18.4917 32.4557 18.275C31.9562 18.0582 31.5065 17.7412 31.1346 17.3435C30.7626 16.9458 30.4763 16.476 30.2935 15.9631C30.1106 15.4502 30.0349 14.9052 30.0713 14.3619V4.24528C30.036 3.15675 30.4337 2.09862 31.1772 1.30283C31.9208 0.507047 32.9495 0.0385353 34.038 0C34.5661 0.00226261 35.088 0.113941 35.5708 0.327991C36.0537 0.542042 36.4869 0.853821 36.8432 1.24366C37.5968 2.06087 38.0122 3.13364 38.0055 4.24528V4.24528Z" fill="#1E1E1E"/>
<path d="M38.0055 4.24528V9.30314C38.0419 9.84644 37.9663 10.3914 37.7834 10.9043C37.6005 11.4172 37.3142 11.887 36.9423 12.2847C36.5703 12.6824 36.1206 12.9994 35.6211 13.2162C35.1216 13.4329 34.5829 13.5448 34.0384 13.5448C33.4939 13.5448 32.9552 13.4329 32.4557 13.2162C31.9562 12.9994 31.5065 12.6824 31.1346 12.2847C30.7626 11.887 30.4763 11.4172 30.2935 10.9043C30.1106 10.3914 30.0349 9.84644 30.0713 9.30314V4.24528C30.036 3.15675 30.4337 2.09862 31.1772 1.30283C31.9208 0.507047 32.9495 0.0385353 34.038 0C34.5661 0.00226261 35.088 0.113941 35.5708 0.327991C36.0537 0.542042 36.4869 0.853821 36.8432 1.24366C37.5968 2.06087 38.0122 3.13364 38.0055 4.24528V4.24528Z" fill="#054E45"/>
<path d="M58.9486 122.315L66.6294 116.827C68.0015 115.796 69.6644 115.224 71.3807 115.194C73.097 115.164 74.7791 115.676 76.1869 116.658V116.658C77.5196 117.589 79.1008 118.099 80.7264 118.123C82.3519 118.146 83.9471 117.681 85.3058 116.788L94.0526 111.178C95.7863 110.042 97.8882 109.609 99.9296 109.97L103.296 110.576C109.877 111.744 116.66 110.571 122.465 107.258L126.614 104.93V122.317H58.9486V122.315Z" fill="#D93838"/>
<path d="M58.2903 122.315H128.447V103.438" stroke="#054E45" stroke-width="2.421" stroke-miterlimit="10" stroke-linecap="round"/>
<path d="M58.9486 97.7359L66.6294 92.2479C68.0014 91.2163 69.6642 90.6444 71.3805 90.6138C73.0968 90.5833 74.779 91.0956 76.1869 92.0777C77.5196 93.0087 79.1008 93.5188 80.7264 93.542C82.3519 93.5651 83.9471 93.1004 85.3058 92.2076L94.0526 86.5971C95.7863 85.4609 97.8882 85.0288 99.9296 85.389L103.296 85.9949C109.877 87.1638 116.66 85.9899 122.465 82.6773L126.614 80.3499V97.7377H58.9486V97.7359Z" fill="#368075"/>
<path d="M58.2903 97.735H128.447V78.8575" stroke="#054E45" stroke-width="2.421" stroke-miterlimit="10" stroke-linecap="round"/>
<path d="M65.3923 37.3108H59.9547V61.6576H65.3923V37.3108Z" fill="#9995A7"/>
<path d="M74.9367 26.7874H69.4991V61.6566H74.9367V26.7874Z" fill="#9995A7"/>
<path d="M84.482 42.262H79.0445V61.6565H84.482V42.262Z" fill="#9995A7"/>
<path d="M84.482 39.5867H79.0445V42.2619H84.482V39.5867Z" fill="#368075"/>
<path d="M65.3923 31.2654H59.9547V37.3107H65.3923V31.2654Z" fill="#368075"/>
<path d="M94.0264 22.8674H88.5889V61.6575H94.0264V22.8674Z" fill="#9995A7"/>
<path d="M103.648 37.3108H98.2109V61.6576H103.648V37.3108Z" fill="#9995A7"/>
<path d="M113.193 49.4836H107.755V61.6575H113.193V49.4836Z" fill="#9995A7"/>
<path d="M63.3865 64.8677H61.9605C60.8527 64.8677 59.9547 65.7657 59.9547 66.8734C59.9547 67.9812 60.8527 68.8792 61.9605 68.8792H63.3865C64.4942 68.8792 65.3923 67.9812 65.3923 66.8734C65.3923 65.7657 64.4942 64.8677 63.3865 64.8677Z" fill="#054E45"/>
<path d="M72.9309 64.8677H71.5049C70.3972 64.8677 69.4991 65.7657 69.4991 66.8734C69.4991 67.9812 70.3972 68.8792 71.5049 68.8792H72.9309C74.0386 68.8792 74.9367 67.9812 74.9367 66.8734C74.9367 65.7657 74.0386 64.8677 72.9309 64.8677Z" fill="#054E45"/>
<path d="M82.4763 64.8677H81.0502C79.9425 64.8677 79.0445 65.7657 79.0445 66.8734C79.0445 67.9812 79.9425 68.8792 81.0502 68.8792H82.4763C83.584 68.8792 84.482 67.9812 84.482 66.8734C84.482 65.7657 83.584 64.8677 82.4763 64.8677Z" fill="#054E45"/>
<path d="M92.0206 64.8677H90.5946C89.4869 64.8677 88.5889 65.7657 88.5889 66.8734C88.5889 67.9812 89.4869 68.8792 90.5946 68.8792H92.0206C93.1284 68.8792 94.0264 67.9812 94.0264 66.8734C94.0264 65.7657 93.1284 64.8677 92.0206 64.8677Z" fill="#054E45"/>
<path d="M101.643 64.8677H100.217C99.1089 64.8677 98.2109 65.7657 98.2109 66.8734C98.2109 67.9812 99.1089 68.8792 100.217 68.8792H101.643C102.75 68.8792 103.648 67.9812 103.648 66.8734C103.648 65.7657 102.75 64.8677 101.643 64.8677Z" fill="#054E45"/>
<path d="M111.187 64.8677H109.761C108.653 64.8677 107.755 65.7657 107.755 66.8734C107.755 67.9812 108.653 68.8792 109.761 68.8792H111.187C112.295 68.8792 113.193 67.9812 113.193 66.8734C113.193 65.7657 112.295 64.8677 111.187 64.8677Z" fill="#054E45"/>
<path d="M113.193 46.8083H107.755V53.6176H113.193V46.8083Z" fill="#368075"/>
<path d="M160.39 43.3795H178.61C178.61 46.6769 177.716 49.9126 176.022 52.7414C174.327 55.5703 171.897 57.8864 168.99 59.4429C166.083 60.9993 162.809 61.7376 159.515 61.5792C156.221 61.4208 153.032 60.3716 150.288 58.5434C147.544 56.7152 145.348 54.1766 143.933 51.1981C142.518 48.2197 141.938 44.9132 142.254 41.631C142.571 38.3489 143.772 35.2141 145.73 32.561C147.688 29.9079 150.329 27.8358 153.372 26.5658L160.39 43.3795Z" fill="#EAA64F"/>
<path d="M178.472 64.9126H144.24C143.859 64.9126 143.55 65.2216 143.55 65.6027C143.55 65.9838 143.859 66.2928 144.24 66.2928H178.472C178.853 66.2928 179.162 65.9838 179.162 65.6027C179.162 65.2216 178.853 64.9126 178.472 64.9126Z" fill="#054E45"/>
<path d="M165.993 67.673H144.24C143.859 67.673 143.55 67.9819 143.55 68.3631C143.55 68.7442 143.859 69.0532 144.24 69.0532H165.993C166.374 69.0532 166.683 68.7442 166.683 68.3631C166.683 67.9819 166.374 67.673 165.993 67.673Z" fill="#054E45"/>
<path d="M171.751 80.8314H141.865V82.6614H171.751V80.8314Z" fill="#368075"/>
<path d="M188.534 84.9496H141.865V86.7795H188.534V84.9496Z" fill="#368075"/>
<path d="M173.304 89.0667H141.865V90.8966H173.304V89.0667Z" fill="#368075"/>
<path d="M139.959 81.7469C139.983 82.0472 139.917 82.3481 139.768 82.61C139.619 82.872 139.394 83.0828 139.124 83.215C138.853 83.3471 138.548 83.3944 138.25 83.3506C137.952 83.3068 137.674 83.174 137.453 82.9696C137.231 82.7652 137.077 82.4986 137.009 82.2049C136.942 81.9112 136.965 81.604 137.075 81.3235C137.185 81.043 137.377 80.8023 137.627 80.6329C137.876 80.4635 138.17 80.3734 138.472 80.3742C138.851 80.3598 139.22 80.4961 139.499 80.7534C139.777 81.0107 139.943 81.3679 139.959 81.7469V81.7469Z" fill="#054E45"/>
<path d="M139.959 86.3222C139.983 86.6226 139.917 86.9234 139.768 87.1853C139.619 87.4473 139.394 87.6581 139.124 87.7903C138.853 87.9224 138.548 87.9697 138.25 87.9259C137.952 87.8821 137.674 87.7493 137.453 87.5449C137.231 87.3405 137.077 87.074 137.009 86.7803C136.942 86.4865 136.965 86.1793 137.075 85.8988C137.185 85.6183 137.377 85.3776 137.627 85.2082C137.876 85.0389 138.17 84.9487 138.472 84.9495C138.851 84.9351 139.22 85.0715 139.499 85.3287C139.777 85.586 139.943 85.9433 139.959 86.3222V86.3222Z" fill="#054E45"/>
<path d="M139.959 90.4404C139.983 90.7407 139.917 91.0415 139.768 91.3035C139.619 91.5654 139.394 91.7763 139.124 91.9084C138.853 92.0406 138.548 92.0879 138.25 92.0441C137.952 92.0003 137.674 91.8675 137.453 91.6631C137.231 91.4586 137.077 91.1921 137.009 90.8984C136.942 90.6047 136.965 90.2975 137.075 90.017C137.185 89.7365 137.377 89.4958 137.627 89.3264C137.876 89.157 138.17 89.0668 138.472 89.0677C138.851 89.0533 139.22 89.1896 139.499 89.4469C139.777 89.7042 139.943 90.0614 139.959 90.4404V90.4404Z" fill="#054E45"/>
<path d="M138.358 98.2184H174.961" stroke="#054E45" stroke-width="1.289" stroke-miterlimit="10" stroke-linecap="round"/>
<path d="M138.358 106.149H188.23" stroke="#054E45" stroke-width="1.289" stroke-miterlimit="10" stroke-linecap="round"/>
<path d="M138.358 100.862H165.124" stroke="#054E45" stroke-width="1.289" stroke-miterlimit="10" stroke-linecap="round"/>
<path d="M138.358 103.505H188.916" stroke="#054E45" stroke-width="1.289" stroke-miterlimit="10" stroke-linecap="round"/>
<path d="M138.358 109.2H174.961" stroke="#054E45" stroke-width="1.289" stroke-miterlimit="10" stroke-linecap="round"/>
<path d="M138.358 117.13H188.23" stroke="#054E45" stroke-width="1.289" stroke-miterlimit="10" stroke-linecap="round"/>
<path d="M138.358 111.844H165.124" stroke="#054E45" stroke-width="1.289" stroke-miterlimit="10" stroke-linecap="round"/>
<path d="M138.358 114.487H188.916" stroke="#054E45" stroke-width="1.289" stroke-miterlimit="10" stroke-linecap="round"/>
<path opacity="0.39" d="M205.158 16.3191H46.8495V21.3966H205.158V16.3191Z" fill="#C0C0C0"/>
<path opacity="0.7" d="M201.093 241.915H248.983C251.074 241.915 252.77 240.22 252.77 238.128V238.127C252.77 236.036 251.074 234.34 248.983 234.34H201.093C199.002 234.34 197.306 236.036 197.306 238.127V238.128C197.306 240.22 199.002 241.915 201.093 241.915Z" fill="#9995A7"/>
<path opacity="0.7" d="M9.93156 241.526L124.91 241.526C127.002 241.526 128.697 239.83 128.697 237.739V237.738C128.697 235.646 127.002 233.951 124.91 233.951H9.93156C7.84 233.951 6.14446 235.646 6.14446 237.738V237.739C6.14446 239.83 7.84 241.526 9.93156 241.526Z" fill="#9995A7"/>
<path d="M114.718 238.555H121.847L121.847 161.321H114.718L114.718 238.555Z" fill="#8C8C8C"/>
<path d="M46.6925 238.555H53.8215L53.8215 161.321H46.6925L46.6925 238.555Z" fill="#8C8C8C"/>
<path d="M33.9753 154.306H121.004C123.004 154.306 124.921 155.1 126.334 156.513C127.748 157.927 128.542 159.844 128.542 161.843V163.937H26.4376V161.843C26.4376 159.844 27.2318 157.927 28.6454 156.513C30.059 155.1 31.9762 154.306 33.9753 154.306V154.306Z" fill="#232323"/>
<path d="M50.7114 180.144H15.0651V187.273H50.7114V180.144Z" fill="#8C8C8C"/>
<path d="M120.795 180.144H82.3481V187.273H120.795V180.144Z" fill="#8C8C8C"/>
<path d="M79.9627 238.555H87.0918L87.0918 161.321H79.9627L79.9627 238.555Z" fill="#C6C6C6"/>
<path d="M11.9373 238.555H19.0664L19.0664 161.321H11.9373L11.9373 238.555Z" fill="#C6C6C6"/>
<path d="M7.53771 154.306H85.6536C87.6528 154.306 89.57 155.1 90.9836 156.513C92.3972 157.927 93.1914 159.844 93.1914 161.843V163.937H0V161.843C0 159.844 0.794149 157.927 2.20774 156.513C3.62134 155.1 5.53858 154.306 7.53771 154.306V154.306Z" fill="#E48867"/>
<path d="M176.23 83.9545L179.716 88.9853C179.814 89.1139 179.886 89.2606 179.927 89.4171C179.969 89.5736 179.979 89.7367 179.958 89.8972C179.936 90.0576 179.883 90.2122 179.801 90.3521C179.72 90.492 179.612 90.6144 179.483 90.7124L179.389 90.7788C179.107 90.9478 178.771 90.9999 178.451 90.9239C178.131 90.8479 177.854 90.6498 177.678 90.372L174.192 85.3413C174.094 85.2127 174.022 85.0659 173.98 84.9094C173.939 84.753 173.928 84.5898 173.95 84.4294C173.972 84.269 174.025 84.1144 174.106 83.9745C174.188 83.8346 174.296 83.7121 174.425 83.6142L174.518 83.5478C174.8 83.3787 175.137 83.3266 175.457 83.4027C175.777 83.4787 176.054 83.6767 176.23 83.9545V83.9545Z" fill="#F4A891"/>
<path d="M175.564 95.5225C175.564 95.5225 172.153 93.2876 171.151 92.6686C169.214 91.4698 168.51 90.3991 169.07 89.0844L170.933 86.8112C172.156 85.7219 172.79 85.2693 174.099 85.8481L178.406 87.7529C179.037 88.036 179.533 88.5545 179.787 89.1978C180.041 89.841 180.033 90.558 179.766 91.1959L178.644 93.8216C178.088 95.1363 176.873 96.1013 175.564 95.5225Z" fill="#F4A891"/>
<path d="M172.203 87.2817L167.831 84.1566C167.11 83.6732 166.769 82.8933 167.075 82.422C167.381 81.9545 168.221 81.961 168.945 82.4445L173.318 85.5695C174.039 86.0529 174.379 86.8328 174.073 87.3041C173.764 87.7763 172.923 87.767 172.203 87.2817Z" fill="#F4A891"/>
<path d="M169.877 88.6403L165.504 85.5152C164.783 85.0318 164.443 84.252 164.749 83.7807C165.054 83.3131 165.894 83.3206 166.619 83.8031L170.991 86.9282C171.712 87.4116 172.053 88.1924 171.747 88.6627C171.436 89.1331 170.596 89.1228 169.877 88.6403Z" fill="#F4A891"/>
<path d="M169.692 91.5214L165.32 88.3963C164.599 87.9129 164.259 87.133 164.564 86.6618C164.87 86.1942 165.71 86.2008 166.435 86.6842L170.807 89.8092C171.529 90.2917 171.868 91.0726 171.563 91.5438C171.254 92.0151 170.413 92.0048 169.692 91.5214Z" fill="#F4A891"/>
<path d="M194.21 104.243C192.118 103.87 190.073 103.269 188.111 102.451C187.059 102.013 186.036 101.509 185.048 100.942L174.287 94.7539C173.686 94.4182 173.21 93.8974 172.929 93.269C172.686 92.6603 172.618 91.9964 172.73 91.3511C172.843 90.7058 173.132 90.1044 173.566 89.6137C175.007 87.8305 176.698 88.6291 178.535 89.6866L188.988 94.9643C191.14 96.0004 193.427 96.7312 195.781 97.1355C201.711 98.0838 207.787 97.0845 213.101 94.2873L221.974 89.739C224.101 88.6478 226.605 89.1929 227.565 90.9546C228.524 92.7163 227.582 95.0297 225.455 96.1191L216.58 100.67C209.712 104.267 201.857 105.521 194.21 104.243V104.243Z" fill="#F4A891"/>
<path d="M197.242 97.4328L195.673 104.539C193.582 104.24 191.531 103.712 189.555 102.965L193.127 96.538L197.242 97.4328Z" fill="#F4A891"/>
<path d="M198.528 96.4893L197.189 100.646L194.196 101.351L196.658 103.25L195.958 105.593L191.687 104.593L194.662 95.4813L198.528 96.4893Z" fill="#1E1E1E"/>
<path d="M247.786 49.6803C251.218 46.4419 251.375 41.0345 248.136 37.6025C244.898 34.1706 239.49 34.0137 236.059 37.2521C232.627 40.4905 232.47 45.8979 235.708 49.3298C238.946 52.7618 244.354 52.9187 247.786 49.6803Z" fill="#232323"/>
<path d="M238.856 72.3352C238.764 71.3071 238.745 70.2737 238.799 69.2429C238.822 63.9335 238.846 53.5868 237.339 52.7985C233.2 50.6347 216.393 62.4448 215.359 57.8049C215.111 56.7013 214.982 55.5744 214.973 54.4433C214.973 54.2039 214.973 53.9645 214.983 53.7289C215.097 50.4051 216.245 47.1996 218.267 44.5595V44.5539C219.822 42.5186 221.842 40.8859 224.158 39.7927C226.473 38.6994 229.018 38.1776 231.577 38.271C231.822 38.2785 232.063 38.2944 232.307 38.3112C235.43 38.5238 238.428 39.6151 240.956 41.4592C243.484 43.3032 245.439 45.8248 246.596 48.7327C247.353 50.6739 247.758 52.7348 247.791 54.8183C248.066 68.1357 240.427 69.9591 238.856 72.3352Z" fill="#DB734C"/>
<path d="M238.858 72.3352C238.766 71.3071 238.747 70.2737 238.801 69.2429L238.92 68.8165C242.358 66.3007 244.788 62.643 245.774 58.4988C246.636 55.32 246.917 52.0115 246.602 48.7328C247.36 50.6739 247.764 52.7348 247.797 54.8183C248.065 68.1367 240.431 69.9601 238.858 72.3352Z" fill="#232323"/>
<path d="M231.953 94.1464C230.786 94.0221 229.717 93.4394 228.98 92.5266C228.243 91.6138 227.899 90.4456 228.023 89.2792L230.079 70.0019C230.204 68.8361 230.787 67.7678 231.7 67.0318C232.613 66.2957 233.78 65.952 234.946 66.0764V66.0764C236.112 66.2007 237.181 66.7828 237.917 67.6948C238.654 68.6068 238.999 69.774 238.876 70.9399L236.82 90.2172C236.695 91.3837 236.113 92.453 235.2 93.1899C234.287 93.9268 233.119 94.2708 231.953 94.1464V94.1464Z" fill="#F4A891"/>
<path d="M240.217 64.5759C240.204 64.7274 240.186 64.8714 240.164 65.022C240.159 65.0678 240.151 65.1155 240.143 65.1622C239.877 66.9731 239.242 68.71 238.278 70.2659C238.232 70.3417 238.184 70.4146 238.136 70.4904C236.628 72.8359 234.404 74.6331 231.794 75.6155C231.788 75.6212 231.784 75.6212 231.784 75.6212C230.767 75.9987 229.703 76.2362 228.622 76.3271C228.221 76.3589 227.82 76.3786 227.416 76.3795C227.28 76.3795 227.146 76.372 227.007 76.3636C226.979 76.3651 226.951 76.3651 226.923 76.3636C226.34 76.3337 225.76 76.2587 225.189 76.1392C225.025 76.1146 224.864 76.0809 224.704 76.0382C222.088 75.3696 219.75 73.8913 218.024 71.8145C216.298 69.7377 215.272 67.1685 215.093 64.474C215.045 63.8646 215.039 63.2525 215.074 62.6422L215.13 61.7024L215.488 55.4374C215.53 54.5184 215.65 53.6046 215.847 52.706C215.993 52.027 216.208 51.3649 216.49 50.7302C217.17 49.0961 218.179 47.6191 219.453 46.3904C220.678 45.2413 222.122 44.3504 223.698 43.7709C225.275 43.1915 226.952 42.9353 228.63 43.0176C231.151 43.1514 233.57 44.0558 235.561 45.6087C235.841 45.8285 236.116 46.0604 236.38 46.3025C237.711 47.5267 238.773 49.0153 239.496 50.6731C239.497 50.6772 239.497 50.6813 239.496 50.6853C239.693 51.1274 239.863 51.5807 240.005 52.043C240.03 52.1272 240.057 52.2039 240.078 52.2964C240.254 52.8632 240.394 53.4403 240.498 54.0245C240.521 54.1544 240.545 54.2872 240.564 54.42C240.683 55.1483 240.726 55.8868 240.694 56.624L240.69 56.7577L240.661 57.2645L240.63 57.8256L240.591 58.5372V58.5802L240.585 58.7008L240.566 59.0253V59.0318L240.365 62.414L240.305 63.5361L240.279 63.9597L240.27 64.0532C240.27 64.0841 240.27 64.1121 240.263 64.1467C240.255 64.2905 240.24 64.4337 240.217 64.5759V64.5759Z" fill="#FFC7B0"/>
<path d="M241.124 64.1252C241.012 64.1426 240.899 64.1526 240.785 64.1552C240.728 64.1617 240.671 64.1617 240.614 64.1552L240.258 64.1355L239.819 64.114L239.908 62.4309L239.929 62.0568L240.099 59.001L240.566 59.0253L240.903 59.0459C240.973 59.0473 241.043 59.0548 241.112 59.0683V59.0683C241.213 59.0798 241.313 59.0976 241.411 59.1216V59.1216C241.899 59.2293 242.342 59.485 242.679 59.8538C242.903 60.0966 243.076 60.3817 243.188 60.6924C243.301 61.0032 243.35 61.3332 243.333 61.6631C243.296 62.2623 243.058 62.8313 242.657 63.2781C242.256 63.725 241.716 64.0234 241.124 64.1252V64.1252Z" fill="#FFC4BC"/>
<path d="M221.457 64.3075C221.457 64.3075 221.508 65.2669 222.845 65.3641C224.022 65.4502 224.227 64.6413 224.227 64.6413L221.457 64.3075Z" fill="#F4A891"/>
<path d="M239.864 53.3586C239.864 53.3586 217.504 47.8818 215.406 52.4235C215.406 52.4235 215.02 47.5424 222.109 43.3167C229.197 39.0911 240.365 44.4285 241.079 46.6382C241.505 47.8683 241.649 49.1786 241.5 50.472L239.864 53.3586Z" fill="#DB734C"/>
<path d="M226.536 57.4179C227.416 57.1404 228.351 57.0853 229.257 57.2576C230.164 57.43 231.013 57.8243 231.73 58.4053" stroke="#B95241" stroke-width="1.307" stroke-miterlimit="10" stroke-linecap="round"/>
<path d="M216.617 56.177C217.489 55.8881 218.417 55.8101 219.325 55.9494C220.233 56.0887 221.096 56.4413 221.841 56.9784" stroke="#B95241" stroke-width="1.307" stroke-miterlimit="10" stroke-linecap="round"/>
<path d="M228.236 61.8605L228.237 61.8606C228.56 61.8951 228.85 61.6607 228.885 61.3372L229 60.2521C229.035 59.9285 228.8 59.6384 228.477 59.6039L228.476 59.6038C228.152 59.5694 227.862 59.8037 227.828 60.1272L227.712 61.2124C227.678 61.5359 227.912 61.8261 228.236 61.8605Z" fill="#1E1E1E"/>
<path d="M219.17 60.8965L219.171 60.8966C219.495 60.9311 219.785 60.6967 219.819 60.3732L219.935 59.2881C219.969 58.9646 219.735 58.6744 219.411 58.6399L219.41 58.6398C219.087 58.6054 218.797 58.8397 218.762 59.1633L218.647 60.2484C218.612 60.5719 218.847 60.8621 219.17 60.8965Z" fill="#1E1E1E"/>
<path d="M220.222 67.1389L225.431 67.9001C225.124 68.3564 224.694 68.7167 224.19 68.9393C223.687 69.1618 223.132 69.2377 222.587 69.1582C222.043 69.0786 221.532 68.8469 221.114 68.4896C220.695 68.1323 220.386 67.6641 220.222 67.1389V67.1389Z" fill="#D93838"/>
<path d="M241.124 64.1242C241.012 64.1415 240.899 64.1515 240.785 64.1541C240.728 64.1606 240.671 64.1606 240.614 64.1541L240.258 64.1344C240.252 64.2819 240.239 64.4289 240.217 64.5749C240.204 64.7264 240.186 64.8704 240.164 65.0209C240.159 65.0667 240.151 65.1144 240.143 65.1612C239.877 66.972 239.242 68.709 238.278 70.2649C238.232 70.3406 238.184 70.4136 238.136 70.4893C236.628 72.8348 234.404 74.632 231.794 75.6145C231.788 75.6201 231.784 75.6201 231.784 75.6201C230.767 75.9976 229.703 76.2351 228.622 76.3261C228.221 76.3579 227.82 76.3775 227.416 76.3784C227.28 76.3784 227.146 76.3709 227.007 76.3625C227.65 76.3775 231.402 75.9231 234.367 71.6488C237.583 67.0117 238.762 57.8292 238.762 57.8292C238.762 57.8292 238.718 53.857 238.949 53.8822C239.023 53.8897 239.684 54.1122 240.56 54.4171C240.678 55.1453 240.722 55.8839 240.69 56.621L240.685 56.7548L240.656 57.2616L240.625 57.8226L240.587 58.5342V58.5773L240.58 58.6979L240.561 59.0224L240.898 59.0429C240.968 59.0444 241.038 59.0519 241.108 59.0654V59.0654C241.208 59.0769 241.308 59.0947 241.407 59.1187V59.1187C241.894 59.2264 242.337 59.4821 242.674 59.8508C242.898 60.0937 243.071 60.3788 243.184 60.6895C243.296 61.0002 243.345 61.3302 243.328 61.6602C243.292 62.259 243.054 62.828 242.654 63.2751C242.254 63.7222 241.715 64.0213 241.124 64.1242Z" fill="#F4A891"/>
<path d="M218.425 51.4407C218.893 49.7094 217.869 47.9263 216.138 47.458C214.407 46.9898 212.623 48.0137 212.155 49.745C211.687 51.4763 212.711 53.2594 214.442 53.7276C216.173 54.1959 217.957 53.172 218.425 51.4407Z" fill="#DB734C"/>
<path d="M224.189 50.9525C224.512 49.1877 223.343 47.4952 221.578 47.1722C219.814 46.8492 218.121 48.018 217.798 49.7828C217.475 51.5475 218.644 53.24 220.409 53.563C222.173 53.886 223.866 52.7172 224.189 50.9525Z" fill="#DB734C"/>
<path d="M230.174 51.9939C230.867 50.3389 230.087 48.4358 228.432 47.7432C226.777 47.0506 224.873 47.8308 224.181 49.4858C223.488 51.1408 224.268 53.0439 225.923 53.7365C227.578 54.4291 229.482 53.6489 230.174 51.9939Z" fill="#DB734C"/>
<path d="M236.81 52.3338C236.742 52.973 236.486 53.5776 236.075 54.0714C235.663 54.5651 235.115 54.9258 234.498 55.1077C233.882 55.2896 233.225 55.2846 232.612 55.0934C231.998 54.9021 231.455 54.5332 231.051 54.0332C230.647 53.5333 230.401 52.9248 230.342 52.2847C230.284 51.6446 230.417 51.0017 230.725 50.4372C231.032 49.8728 231.5 49.4121 232.069 49.1136C232.638 48.815 233.283 48.6919 233.922 48.7599C234.779 48.8511 235.565 49.2788 236.106 49.949C236.648 50.6192 236.901 51.477 236.81 52.3338V52.3338Z" fill="#DB734C"/>
<path d="M236.349 50.0812L238.867 61.4416C238.901 61.5916 238.981 61.7271 239.097 61.8284C239.212 61.9297 239.357 61.9916 239.51 62.005C239.663 62.0185 239.817 61.9828 239.948 61.9032C240.08 61.8236 240.183 61.7041 240.242 61.5622L243.822 52.9501C243.822 52.9501 241.149 43.9536 236.349 50.0812Z" fill="#DB734C"/>
<path d="M224.404 152.981L235.966 153.86C241.074 154.248 245.481 151.905 245.762 148.454L245.694 142.112L216.291 141.598L215.917 146.186C215.636 149.637 219.297 152.592 224.404 152.981Z" fill="#1E1E1E"/>
<path d="M223.745 236.537H222.997C222.89 236.537 222.785 236.516 222.686 236.475C222.588 236.434 222.498 236.375 222.423 236.299C222.348 236.224 222.288 236.134 222.247 236.036C222.206 235.937 222.185 235.832 222.185 235.725V224.4L225.575 225.11L224.55 235.802C224.531 236.003 224.438 236.189 224.289 236.325C224.14 236.461 223.946 236.536 223.745 236.537V236.537Z" fill="#1E1E1E"/>
<path d="M215.512 223.704L211.468 230.883C211.132 231.436 210.665 231.898 210.108 232.226C209.551 232.555 208.921 232.742 208.275 232.768V232.768C207.769 232.789 207.289 232.997 206.928 233.352C206.567 233.707 206.351 234.184 206.322 234.689V234.694C206.305 234.973 206.346 235.254 206.442 235.517C206.538 235.78 206.687 236.021 206.88 236.223C207.073 236.426 207.306 236.587 207.564 236.696C207.822 236.805 208.1 236.86 208.38 236.857H211.652C213.354 236.854 214.991 236.206 216.234 235.044L225.091 226.776C225.513 226.214 225.707 225.516 225.638 224.817V224.817C225.601 224.444 225.489 224.081 225.308 223.752C225.127 223.423 224.881 223.134 224.585 222.903C224.289 222.673 223.949 222.504 223.586 222.409C223.222 222.314 222.844 222.294 222.472 222.35L215.512 223.704Z" fill="#1E1E1E"/>
<path d="M215.306 222.788L211.262 229.968C210.927 230.521 210.459 230.982 209.902 231.311C209.345 231.64 208.715 231.826 208.069 231.853C207.563 231.873 207.083 232.081 206.722 232.436C206.361 232.791 206.145 233.268 206.117 233.774V233.774C206.099 234.053 206.14 234.334 206.236 234.597C206.331 234.86 206.481 235.101 206.674 235.304C206.867 235.507 207.1 235.668 207.358 235.777C207.616 235.885 207.894 235.94 208.174 235.937H210.521C212.821 235.932 215.033 235.057 216.713 233.487L224.888 225.854C225.31 225.293 225.505 224.594 225.435 223.896V223.896C225.398 223.523 225.286 223.16 225.105 222.831C224.924 222.502 224.678 222.213 224.382 221.982C224.086 221.752 223.746 221.583 223.383 221.488C223.019 221.393 222.641 221.373 222.269 221.429L215.306 222.788Z" fill="#232323"/>
<path d="M212.189 228.135L214.015 229.248" stroke="#07113D" stroke-width="1.419" stroke-miterlimit="10" stroke-linecap="round"/>
<path d="M212.933 226.699L214.76 227.811" stroke="#07113D" stroke-width="1.419" stroke-miterlimit="10" stroke-linecap="round"/>
<path d="M213.669 225.325L215.496 226.437" stroke="#07113D" stroke-width="1.419" stroke-miterlimit="10" stroke-linecap="round"/>
<path d="M215.626 222.677L224.483 222.864L221.677 191.484C221.509 190.383 221.489 189.265 221.616 188.159L228.7 146.547L216.064 145.089L210.118 184.944C209.853 187.256 209.896 189.594 210.246 191.895L215.626 222.677Z" fill="black"/>
<path d="M225.221 220.791H214.723V223.005H225.221V220.791Z" fill="#9995A7"/>
<path d="M244.247 237.193H243.499C243.283 237.193 243.077 237.108 242.925 236.955C242.772 236.803 242.687 236.597 242.687 236.382V225.056L246.077 225.766L245.054 236.458C245.035 236.659 244.941 236.846 244.792 236.982C244.643 237.117 244.448 237.193 244.247 237.193V237.193Z" fill="#1E1E1E"/>
<path d="M236.012 224.361L231.969 231.541C231.633 232.094 231.166 232.556 230.609 232.884C230.052 233.213 229.422 233.399 228.776 233.426C228.27 233.446 227.79 233.654 227.429 234.009C227.068 234.364 226.852 234.841 226.823 235.346V235.351C226.806 235.631 226.847 235.911 226.942 236.174C227.038 236.437 227.187 236.678 227.381 236.881C227.574 237.084 227.806 237.245 228.064 237.354C228.323 237.463 228.6 237.517 228.88 237.514H232.153C233.855 237.511 235.492 236.863 236.735 235.701L245.593 227.43C246.014 226.869 246.209 226.17 246.139 225.472V225.472C246.103 225.098 245.991 224.736 245.81 224.407C245.629 224.078 245.383 223.789 245.087 223.558C244.791 223.327 244.451 223.159 244.087 223.064C243.724 222.969 243.345 222.949 242.974 223.005L236.012 224.361Z" fill="#1E1E1E"/>
<path d="M235.807 223.446L231.763 230.625C231.428 231.178 230.961 231.64 230.403 231.969C229.846 232.298 229.216 232.484 228.57 232.51C228.064 232.531 227.584 232.739 227.223 233.094C226.862 233.449 226.646 233.925 226.617 234.431V234.436C226.6 234.715 226.641 234.995 226.736 235.259C226.832 235.522 226.981 235.763 227.174 235.966C227.368 236.169 227.6 236.33 227.859 236.438C228.117 236.547 228.395 236.602 228.675 236.598H231.021C233.32 236.595 235.533 235.72 237.213 234.149L245.388 226.517C245.808 225.954 246.001 225.254 245.928 224.556V224.556C245.891 224.182 245.779 223.819 245.598 223.491C245.417 223.162 245.171 222.873 244.875 222.642C244.579 222.411 244.239 222.243 243.876 222.148C243.513 222.053 243.134 222.033 242.763 222.089L235.807 223.446Z" fill="#232323"/>
<path d="M232.691 228.792L234.517 229.904" stroke="#07113D" stroke-width="1.419" stroke-miterlimit="10" stroke-linecap="round"/>
<path d="M233.434 227.356L235.26 228.468" stroke="#07113D" stroke-width="1.419" stroke-miterlimit="10" stroke-linecap="round"/>
<path d="M234.171 225.982L235.997 227.094" stroke="#07113D" stroke-width="1.419" stroke-miterlimit="10" stroke-linecap="round"/>
<path d="M236.209 223.251L245.039 223.305L245.586 145.609L230.889 144.854L236.209 223.251Z" fill="black"/>
<path d="M245.64 221.201H235.717V223.498H245.64V221.201Z" fill="#9995A7"/>
<path d="M245.978 140.433H217.822V143.372H245.978V140.433Z" fill="#054E45"/>
<path opacity="0.37" d="M247.901 106.982L245.928 140.123L237.316 140.591C237.316 140.591 237.006 122.8 236.848 117.385C236.69 111.97 243.346 96.3453 243.346 96.3453C245.087 99.7912 246.609 103.344 247.901 106.982V106.982Z" fill="#591239"/>
<path d="M223.185 139.025L228.951 136.968C229.101 136.907 229.262 136.876 229.424 136.876C229.585 136.877 229.745 136.91 229.895 136.972C230.044 137.035 230.179 137.127 230.293 137.242C230.407 137.357 230.497 137.493 230.558 137.643L230.596 137.756C230.686 138.072 230.648 138.411 230.49 138.7C230.333 138.989 230.069 139.205 229.755 139.301L223.988 141.358C223.838 141.42 223.678 141.451 223.516 141.451C223.354 141.45 223.194 141.417 223.045 141.355C222.895 141.292 222.76 141.2 222.646 141.085C222.532 140.97 222.442 140.833 222.382 140.683L222.343 140.571C222.254 140.255 222.292 139.916 222.449 139.627C222.606 139.338 222.87 139.122 223.185 139.025V139.025Z" fill="#FFC7B0"/>
<path d="M231.989 155.378C231.75 155.765 231.431 156.095 231.053 156.347L220.917 163.182C220.569 163.417 220.178 163.581 219.767 163.665C219.356 163.749 218.932 163.751 218.52 163.671C218.108 163.59 217.715 163.43 217.365 163.198C217.015 162.966 216.715 162.668 216.48 162.319L204.766 144.954C204.531 144.606 204.367 144.215 204.283 143.804C204.2 143.392 204.198 142.969 204.278 142.556C204.358 142.144 204.519 141.752 204.751 141.402C204.982 141.052 205.281 140.751 205.629 140.517L205.743 140.438L215.765 133.681C216.467 133.207 217.329 133.032 218.161 133.193C218.993 133.354 219.727 133.839 220.202 134.541L224.698 141.204L229.186 147.855L231.918 151.912C232.261 152.422 232.449 153.02 232.462 153.635C232.474 154.249 232.31 154.854 231.989 155.378V155.378Z" fill="#C0C0C0"/>
<path d="M216.228 143.67C216.323 143.896 216.352 144.144 216.312 144.386C216.272 144.627 216.165 144.853 216.002 145.036C215.839 145.219 215.628 145.352 215.392 145.42C215.157 145.488 214.907 145.488 214.672 145.42C214.436 145.352 214.225 145.218 214.062 145.035C213.9 144.851 213.793 144.626 213.753 144.384C213.713 144.142 213.743 143.894 213.839 143.668C213.934 143.443 214.092 143.249 214.293 143.109C214.625 142.93 215.013 142.889 215.375 142.994C215.737 143.099 216.043 143.342 216.228 143.67V143.67Z" fill="white"/>
<path opacity="0.6" d="M229.184 147.855L224.911 151.555C224.208 152.203 223.302 152.344 222.9 151.871C222.766 151.707 222.697 151.5 222.704 151.289C222.725 151.008 222.801 150.735 222.928 150.484C223.056 150.233 223.232 150.01 223.447 149.828L226.416 147.258L226.154 146.875L221.97 150.504C221.267 151.144 220.361 151.289 219.959 150.812C219.825 150.648 219.756 150.442 219.763 150.231C219.784 149.951 219.86 149.678 219.988 149.427C220.115 149.177 220.291 148.955 220.506 148.774L224.876 144.985L224.841 144.926C224.782 144.797 224.724 144.676 224.669 144.558L221.22 147.551C220.513 148.199 219.603 148.34 219.2 147.863C219.071 147.697 219.005 147.491 219.013 147.281C219.035 147.001 219.111 146.729 219.239 146.478C219.366 146.228 219.542 146.006 219.756 145.824L224.228 141.949C224.249 141.929 224.271 141.911 224.295 141.895C224.401 141.649 224.539 141.418 224.705 141.208L229.184 147.855Z" fill="#054E45"/>
<path d="M234.178 142.685C234.178 142.685 231.131 145.397 230.272 146.2C228.61 147.758 227.392 148.158 226.269 147.275L224.56 144.882C223.828 143.417 223.556 142.687 224.456 141.575L227.418 137.914C227.856 137.378 228.485 137.035 229.173 136.958C229.86 136.88 230.55 137.074 231.097 137.498L233.341 139.264C234.463 140.148 235.077 141.573 234.178 142.685Z" fill="#FFC7B0"/>
<path d="M225.348 143.78L221.19 147.187C220.536 147.757 219.694 147.882 219.32 147.467C218.946 147.049 219.174 146.241 219.829 145.671L223.986 142.265C224.641 141.695 225.482 141.571 225.856 141.985C226.231 142.402 226.002 143.21 225.348 143.78Z" fill="#FFC7B0"/>
<path d="M226.051 146.381L221.893 149.787C221.239 150.358 220.397 150.482 220.023 150.068C219.649 149.65 219.877 148.842 220.532 148.271L224.689 144.866C225.344 144.296 226.185 144.171 226.56 144.585C226.934 145.002 226.705 145.81 226.051 146.381Z" fill="#FFC7B0"/>
<path d="M228.785 147.308L224.628 150.714C223.973 151.284 223.132 151.409 222.757 150.995C222.383 150.577 222.612 149.769 223.266 149.198L227.424 145.792C228.078 145.221 228.92 145.097 229.294 145.511C229.669 145.93 229.44 146.738 228.785 147.308Z" fill="#FFC7B0"/>
<path d="M247.46 126.956C246.555 128.88 245.441 130.698 244.14 132.38C243.444 133.281 242.691 134.138 241.885 134.944L233.099 143.718C232.619 144.21 231.991 144.534 231.312 144.641C230.66 144.717 230.001 144.611 229.406 144.334C228.812 144.057 228.306 143.621 227.945 143.073C226.6 141.217 227.812 139.794 229.311 138.297L237.132 129.582C238.694 127.774 239.996 125.757 241 123.59C243.462 118.113 244.082 111.985 242.767 106.126L240.691 96.3743C240.192 94.0366 241.371 91.7606 243.323 91.295C245.274 90.8293 247.261 92.3404 247.758 94.6781L249.837 104.433C251.52 111.999 250.685 119.908 247.46 126.956V126.956Z" fill="#FFC7B0"/>
<path d="M241.676 122.251L248.128 125.617C247.293 127.557 246.248 129.4 245.011 131.113L239.739 125.988L241.676 122.251Z" fill="#F4A891"/>
<path d="M242.487 116.509C242.53 116.216 243.576 114.628 242.189 108.39C240.803 102.152 239.12 95.6169 240.308 92.5479C241.496 89.479 245.061 87.6958 247.437 91.7559C249.813 95.816 251.795 110.863 251.497 115.819C251.2 120.775 247.834 128.097 247.834 128.097L239.912 123.146C241.165 121.108 242.037 118.859 242.487 116.509V116.509Z" fill="#D93838"/>
<path d="M209.066 7.39648H43.4187V142.514H209.066V7.39648Z" fill="#8C8C8C"/>
<path d="M204.925 10.7742H47.5602V139.136H204.925V10.7742Z" fill="white"/>
<path d="M209.277 142.532H43.1906V147.107H209.277V142.532Z" fill="#C0C0C0"/>
<path d="M218.886 3.05017H34.4971V16.319H218.886V3.05017Z" fill="#D5D5D5"/>
<path d="M218.886 3.05017H34.4971V12.3617H218.886V3.05017Z" fill="#C0C0C0"/>
<path opacity="0.92" d="M74.1568 5.10925H40.5593C39.8641 5.10925 39.3006 5.67255 39.3006 6.36741C39.3006 7.06227 39.8641 7.62556 40.5593 7.62556H74.1568C74.8519 7.62556 75.4154 7.06227 75.4154 6.36741C75.4154 5.67255 74.8519 5.10925 74.1568 5.10925Z" fill="white"/>
<path opacity="0.92" d="M89.3482 5.10925H83.0214C82.3263 5.10925 81.7628 5.67255 81.7628 6.36741C81.7628 7.06227 82.3263 7.62556 83.0214 7.62556H89.3482C90.0433 7.62556 90.6068 7.06227 90.6068 6.36741C90.6068 5.67255 90.0433 5.10925 89.3482 5.10925Z" fill="white"/>
<path d="M39.5297 2.89783H37.0891V16.1667H39.5297V2.89783Z" fill="#D5D5D5"/>
<path d="M215.531 2.89783H213.091V16.1667H215.531V2.89783Z" fill="#D5D5D5"/>
<path d="M223.31 4.24528V14.3619C223.346 14.9052 223.271 15.4502 223.088 15.9631C222.905 16.476 222.619 16.9458 222.247 17.3435C221.875 17.7412 221.425 18.0582 220.926 18.275C220.426 18.4917 219.887 18.6036 219.343 18.6036C218.798 18.6036 218.26 18.4917 217.76 18.275C217.261 18.0582 216.811 17.7412 216.439 17.3435C216.067 16.9458 215.781 16.476 215.598 15.9631C215.415 15.4502 215.34 14.9052 215.376 14.3619V4.24528C215.341 3.15675 215.738 2.09862 216.482 1.30283C217.225 0.507047 218.254 0.0385353 219.343 0C219.871 0.00226261 220.393 0.113941 220.875 0.327991C221.358 0.542042 221.791 0.853821 222.148 1.24366C222.901 2.06087 223.317 3.13364 223.31 4.24528V4.24528Z" fill="#1E1E1E"/>
<path d="M223.31 4.24528V9.30314C223.346 9.84644 223.271 10.3914 223.088 10.9043C222.905 11.4172 222.619 11.887 222.247 12.2847C221.875 12.6824 221.425 12.9994 220.926 13.2162C220.426 13.4329 219.887 13.5448 219.343 13.5448C218.798 13.5448 218.26 13.4329 217.76 13.2162C217.261 12.9994 216.811 12.6824 216.439 12.2847C216.067 11.887 215.781 11.4172 215.598 10.9043C215.415 10.3914 215.34 9.84644 215.376 9.30314V4.24528C215.341 3.15675 215.738 2.09862 216.482 1.30283C217.225 0.507047 218.254 0.0385353 219.343 0C219.871 0.00226261 220.393 0.113941 220.875 0.327991C221.358 0.542042 221.791 0.853821 222.148 1.24366C222.901 2.06087 223.317 3.13364 223.31 4.24528V4.24528Z" fill="#6746B9"/>
<path d="M38.0065 4.24528V14.3619C38.0428 14.9052 37.9672 15.4502 37.7843 15.9631C37.6014 16.476 37.3151 16.9458 36.9432 17.3435C36.5713 17.7412 36.1216 18.0582 35.6221 18.275C35.1226 18.4917 34.5839 18.6036 34.0394 18.6036C33.4949 18.6036 32.9562 18.4917 32.4566 18.275C31.9571 18.0582 31.5075 17.7412 31.1355 17.3435C30.7636 16.9458 30.4773 16.476 30.2944 15.9631C30.1115 15.4502 30.0359 14.9052 30.0723 14.3619V4.24528C30.0369 3.15675 30.4346 2.09862 31.1782 1.30283C31.9217 0.507047 32.9505 0.0385353 34.0389 0C34.567 0.00226261 35.089 0.113941 35.5718 0.327991C36.0546 0.542042 36.4878 0.853821 36.8441 1.24366C37.5978 2.06087 38.0132 3.13364 38.0065 4.24528V4.24528Z" fill="#1E1E1E"/>
<path d="M38.0065 4.24528V9.30314C38.0428 9.84644 37.9672 10.3914 37.7843 10.9043C37.6014 11.4172 37.3151 11.887 36.9432 12.2847C36.5713 12.6824 36.1216 12.9994 35.6221 13.2162C35.1226 13.4329 34.5839 13.5448 34.0394 13.5448C33.4949 13.5448 32.9562 13.4329 32.4566 13.2162C31.9571 12.9994 31.5075 12.6824 31.1355 12.2847C30.7636 11.887 30.4773 11.4172 30.2944 10.9043C30.1115 10.3914 30.0359 9.84644 30.0723 9.30314V4.24528C30.0369 3.15675 30.4346 2.09862 31.1782 1.30283C31.9217 0.507047 32.9505 0.0385353 34.0389 0C34.567 0.00226261 35.089 0.113941 35.5718 0.327991C36.0546 0.542042 36.4878 0.853821 36.8441 1.24366C37.5978 2.06087 38.0132 3.13364 38.0065 4.24528V4.24528Z" fill="#6746B9"/>
<path d="M58.9495 122.315L66.6303 116.827C68.0024 115.796 69.6653 115.224 71.3816 115.194C73.0979 115.164 74.78 115.676 76.1878 116.658V116.658C77.5205 117.589 79.1017 118.099 80.7273 118.123C82.3529 118.146 83.948 117.681 85.3067 116.788L94.0535 111.178C95.7873 110.042 97.8891 109.609 99.9305 109.97L103.297 110.576C109.878 111.744 116.661 110.571 122.466 107.258L126.615 104.93V122.317H58.9495V122.315Z" fill="#7659C0"/>
<path d="M58.2913 122.315H128.448V103.438" stroke="#6746B9" stroke-width="2.421" stroke-miterlimit="10" stroke-linecap="round"/>
<path d="M58.9495 97.7359L66.6303 92.2479C68.0023 91.2163 69.6651 90.6444 71.3815 90.6138C73.0978 90.5833 74.7799 91.0956 76.1878 92.0777C77.5205 93.0087 79.1017 93.5188 80.7273 93.542C82.3529 93.5651 83.948 93.1004 85.3067 92.2076L94.0535 86.5971C95.7872 85.4609 97.8891 85.0288 99.9305 85.389L103.297 85.9949C109.878 87.1638 116.661 85.9899 122.466 82.6773L126.615 80.3499V97.7377H58.9495V97.7359Z" fill="#856BC7"/>
<path d="M58.2913 97.735H128.448V78.8575" stroke="#6746B9" stroke-width="2.421" stroke-miterlimit="10" stroke-linecap="round"/>
<path d="M65.3932 37.3108H59.9557V61.6576H65.3932V37.3108Z" fill="#856BC7"/>
<path d="M74.9376 26.7874H69.5001V61.6566H74.9376V26.7874Z" fill="#856BC7"/>
<path d="M84.4829 42.262H79.0454V61.6565H84.4829V42.262Z" fill="#856BC7"/>
<path d="M84.4829 39.5867H79.0454V42.2619H84.4829V39.5867Z" fill="#C7E223"/>
<path d="M65.3932 31.2654H59.9557V37.3107H65.3932V31.2654Z" fill="#C7E223"/>
<path d="M94.0273 22.8674H88.5898V61.6575H94.0273V22.8674Z" fill="#856BC7"/>
<path d="M103.649 37.3108H98.2118V61.6576H103.649V37.3108Z" fill="#856BC7"/>
<path d="M113.194 49.4836H107.756V61.6575H113.194V49.4836Z" fill="#856BC7"/>
<path d="M63.3874 64.8677H61.9614C60.8537 64.8677 59.9557 65.7657 59.9557 66.8734C59.9557 67.9812 60.8537 68.8792 61.9614 68.8792H63.3874C64.4952 68.8792 65.3932 67.9812 65.3932 66.8734C65.3932 65.7657 64.4952 64.8677 63.3874 64.8677Z" fill="#6746B9"/>
<path d="M72.9318 64.8677H71.5058C70.3981 64.8677 69.5001 65.7657 69.5001 66.8734C69.5001 67.9812 70.3981 68.8792 71.5058 68.8792H72.9318C74.0396 68.8792 74.9376 67.9812 74.9376 66.8734C74.9376 65.7657 74.0396 64.8677 72.9318 64.8677Z" fill="#6746B9"/>
<path d="M82.4772 64.8677H81.0512C79.9434 64.8677 79.0454 65.7657 79.0454 66.8734C79.0454 67.9812 79.9434 68.8792 81.0512 68.8792H82.4772C83.5849 68.8792 84.4829 67.9812 84.4829 66.8734C84.4829 65.7657 83.5849 64.8677 82.4772 64.8677Z" fill="#6746B9"/>
<path d="M92.0215 64.8677H90.5955C89.4878 64.8677 88.5898 65.7657 88.5898 66.8734C88.5898 67.9812 89.4878 68.8792 90.5955 68.8792H92.0215C93.1293 68.8792 94.0273 67.9812 94.0273 66.8734C94.0273 65.7657 93.1293 64.8677 92.0215 64.8677Z" fill="#6746B9"/>
<path d="M101.644 64.8677H100.218C99.1098 64.8677 98.2118 65.7657 98.2118 66.8734C98.2118 67.9812 99.1098 68.8792 100.218 68.8792H101.644C102.751 68.8792 103.649 67.9812 103.649 66.8734C103.649 65.7657 102.751 64.8677 101.644 64.8677Z" fill="#6746B9"/>
<path d="M111.188 64.8677H109.762C108.654 64.8677 107.756 65.7657 107.756 66.8734C107.756 67.9812 108.654 68.8792 109.762 68.8792H111.188C112.296 68.8792 113.194 67.9812 113.194 66.8734C113.194 65.7657 112.296 64.8677 111.188 64.8677Z" fill="#6746B9"/>
<path d="M113.194 46.8083H107.756V53.6176H113.194V46.8083Z" fill="#C7E223"/>
<path d="M160.391 43.3795H178.611C178.611 46.6769 177.717 49.9126 176.022 52.7414C174.328 55.5703 171.898 57.8864 168.991 59.4429C166.084 60.9993 162.809 61.7376 159.516 61.5792C156.222 61.4208 153.033 60.3716 150.289 58.5434C147.545 56.7152 145.348 54.1766 143.934 51.1981C142.519 48.2197 141.939 44.9132 142.255 41.631C142.572 38.3489 143.773 35.2141 145.731 32.561C147.689 29.9079 150.33 27.8358 153.373 26.5658L160.391 43.3795Z" fill="#FFB339"/>
<path d="M178.473 64.9126H144.241C143.86 64.9126 143.551 65.2216 143.551 65.6027C143.551 65.9838 143.86 66.2928 144.241 66.2928H178.473C178.854 66.2928 179.163 65.9838 179.163 65.6027C179.163 65.2216 178.854 64.9126 178.473 64.9126Z" fill="#6746B9"/>
<path d="M165.994 67.673H144.241C143.86 67.673 143.551 67.9819 143.551 68.3631C143.551 68.7442 143.86 69.0532 144.241 69.0532H165.994C166.375 69.0532 166.684 68.7442 166.684 68.3631C166.684 67.9819 166.375 67.673 165.994 67.673Z" fill="#6746B9"/>
<path d="M171.751 80.8314H141.866V82.6614H171.751V80.8314Z" fill="#856BC7"/>
<path d="M188.535 84.9496H141.866V86.7795H188.535V84.9496Z" fill="#856BC7"/>
<path d="M173.305 89.0667H141.866V90.8966H173.305V89.0667Z" fill="#856BC7"/>
<path d="M139.96 81.7469C139.984 82.0472 139.918 82.3481 139.769 82.61C139.62 82.872 139.395 83.0828 139.125 83.215C138.854 83.3471 138.549 83.3944 138.251 83.3506C137.953 83.3068 137.675 83.174 137.454 82.9696C137.232 82.7652 137.078 82.4986 137.01 82.2049C136.943 81.9112 136.966 81.604 137.076 81.3235C137.186 81.043 137.378 80.8023 137.628 80.6329C137.877 80.4635 138.171 80.3734 138.473 80.3742C138.852 80.3598 139.221 80.4961 139.5 80.7534C139.778 81.0107 139.944 81.3679 139.96 81.7469V81.7469Z" fill="#6746B9"/>
<path d="M139.96 86.3222C139.984 86.6226 139.918 86.9234 139.769 87.1853C139.62 87.4473 139.395 87.6581 139.125 87.7903C138.854 87.9224 138.549 87.9697 138.251 87.9259C137.953 87.8821 137.675 87.7493 137.454 87.5449C137.232 87.3405 137.078 87.074 137.01 86.7803C136.943 86.4865 136.966 86.1793 137.076 85.8988C137.186 85.6183 137.378 85.3776 137.628 85.2082C137.877 85.0389 138.171 84.9487 138.473 84.9495C138.852 84.9351 139.221 85.0715 139.5 85.3287C139.778 85.586 139.944 85.9433 139.96 86.3222V86.3222Z" fill="#6746B9"/>
<path d="M139.96 90.4404C139.984 90.7407 139.918 91.0415 139.769 91.3035C139.62 91.5654 139.395 91.7763 139.125 91.9084C138.854 92.0406 138.549 92.0879 138.251 92.0441C137.953 92.0003 137.675 91.8675 137.454 91.6631C137.232 91.4586 137.078 91.1921 137.01 90.8984C136.943 90.6047 136.966 90.2975 137.076 90.017C137.186 89.7365 137.378 89.4958 137.628 89.3264C137.877 89.157 138.171 89.0668 138.473 89.0677C138.852 89.0533 139.221 89.1896 139.5 89.4469C139.778 89.7042 139.944 90.0614 139.96 90.4404V90.4404Z" fill="#6746B9"/>
<path d="M138.359 98.2184H174.962" stroke="#6746B9" stroke-width="1.289" stroke-miterlimit="10" stroke-linecap="round"/>
<path d="M138.359 106.149H188.23" stroke="#6746B9" stroke-width="1.289" stroke-miterlimit="10" stroke-linecap="round"/>
<path d="M138.359 100.862H165.125" stroke="#6746B9" stroke-width="1.289" stroke-miterlimit="10" stroke-linecap="round"/>
<path d="M138.359 103.505H188.917" stroke="#6746B9" stroke-width="1.289" stroke-miterlimit="10" stroke-linecap="round"/>
<path d="M138.359 109.2H174.962" stroke="#6746B9" stroke-width="1.289" stroke-miterlimit="10" stroke-linecap="round"/>
<path d="M138.359 117.13H188.23" stroke="#6746B9" stroke-width="1.289" stroke-miterlimit="10" stroke-linecap="round"/>
<path d="M138.359 111.844H165.125" stroke="#6746B9" stroke-width="1.289" stroke-miterlimit="10" stroke-linecap="round"/>
<path d="M138.359 114.487H188.917" stroke="#6746B9" stroke-width="1.289" stroke-miterlimit="10" stroke-linecap="round"/>
<g style="mix-blend-mode:multiply" opacity="0.7">
<path d="M209.055 16.3191H43.3439V19.8387H209.055V16.3191Z" fill="#6746B9"/>
</g>
<path opacity="0.7" d="M201.093 241.915H248.983C251.074 241.915 252.77 240.219 252.77 238.127C252.77 236.036 251.074 234.34 248.983 234.34H201.093C199.002 234.34 197.306 236.037 197.306 238.128C197.306 240.22 199.002 241.915 201.093 241.915Z" fill="white"/>
<path opacity="0.7" d="M9.9315 241.525L124.91 241.525C127.002 241.525 128.697 239.83 128.697 237.738V237.737C128.697 235.646 127.002 233.95 124.91 233.95H9.9315C7.83994 233.95 6.1444 235.646 6.1444 237.737V237.738C6.1444 239.83 7.83994 241.525 9.9315 241.525Z" fill="white"/>
<path d="M114.718 238.555H121.847L121.847 161.32H114.718L114.718 238.555Z" fill="#8C8C8C"/>
<path d="M46.6925 238.555H53.8215L53.8215 161.32H46.6925L46.6925 238.555Z" fill="#8C8C8C"/>
<path d="M50.7124 180.143H15.0661V187.272H50.7124V180.143Z" fill="#8C8C8C"/>
<path d="M120.796 180.143H82.3491V187.272H120.796V180.143Z" fill="#8C8C8C"/>
<path d="M79.9627 238.555H87.0918L87.0918 161.32H79.9627L79.9627 238.555Z" fill="#C6C6C6"/>
<path d="M11.9373 238.555H19.0663L19.0663 161.32H11.9373L11.9373 238.555Z" fill="#C6C6C6"/>
<path d="M176.23 83.9545L179.716 88.9853C179.814 89.1139 179.886 89.2606 179.927 89.4171C179.969 89.5736 179.979 89.7367 179.958 89.8972C179.936 90.0576 179.883 90.2122 179.801 90.3521C179.72 90.492 179.612 90.6144 179.483 90.7124L179.389 90.7788C179.107 90.9478 178.771 90.9999 178.451 90.9239C178.131 90.8479 177.854 90.6498 177.678 90.372L174.192 85.3413C174.094 85.2127 174.022 85.0659 173.98 84.9094C173.939 84.753 173.928 84.5898 173.95 84.4294C173.972 84.269 174.025 84.1144 174.106 83.9745C174.188 83.8346 174.296 83.7121 174.425 83.6142L174.518 83.5478C174.8 83.3787 175.137 83.3266 175.457 83.4027C175.777 83.4787 176.054 83.6767 176.23 83.9545V83.9545Z" fill="#F4A891"/>
<path d="M175.564 95.5225C175.564 95.5225 172.153 93.2876 171.151 92.6686C169.214 91.4698 168.51 90.3991 169.07 89.0844L170.933 86.8112C172.156 85.7219 172.79 85.2693 174.099 85.8481L178.406 87.7529C179.037 88.036 179.533 88.5545 179.787 89.1978C180.041 89.841 180.033 90.558 179.766 91.1959L178.644 93.8216C178.088 95.1363 176.873 96.1013 175.564 95.5225Z" fill="#F4A891"/>
<path d="M172.203 87.2817L167.831 84.1566C167.11 83.6732 166.769 82.8933 167.075 82.422C167.381 81.9545 168.221 81.961 168.945 82.4445L173.318 85.5695C174.039 86.0529 174.379 86.8328 174.073 87.3041C173.764 87.7763 172.923 87.767 172.203 87.2817Z" fill="#F4A891"/>
<path d="M169.877 88.6403L165.504 85.5152C164.783 85.0318 164.443 84.252 164.749 83.7807C165.054 83.3131 165.894 83.3206 166.619 83.8031L170.991 86.9282C171.712 87.4116 172.053 88.1924 171.747 88.6627C171.436 89.1331 170.596 89.1228 169.877 88.6403Z" fill="#F4A891"/>
<path d="M169.692 91.5214L165.32 88.3963C164.599 87.9129 164.259 87.133 164.564 86.6618C164.87 86.1942 165.71 86.2008 166.435 86.6842L170.807 89.8092C171.529 90.2917 171.868 91.0726 171.563 91.5438C171.254 92.0151 170.413 92.0048 169.692 91.5214Z" fill="#F4A891"/>
<path d="M194.21 104.243C192.118 103.87 190.073 103.269 188.111 102.451C187.059 102.013 186.036 101.509 185.048 100.942L174.287 94.7539C173.686 94.4182 173.21 93.8974 172.929 93.269C172.686 92.6603 172.618 91.9964 172.73 91.3511C172.843 90.7058 173.132 90.1044 173.566 89.6137C175.007 87.8305 176.698 88.6291 178.535 89.6866L188.988 94.9643C191.14 96.0004 193.427 96.7312 195.781 97.1355C201.711 98.0838 207.787 97.0845 213.101 94.2873L221.974 89.739C224.101 88.6478 226.605 89.1929 227.565 90.9546C228.524 92.7163 227.582 95.0297 225.455 96.1191L216.58 100.67C209.712 104.267 201.857 105.521 194.21 104.243V104.243Z" fill="#F4A891"/>
<path d="M197.242 97.4328L195.673 104.539C193.582 104.24 191.531 103.712 189.555 102.965L193.127 96.538L197.242 97.4328Z" fill="#F4A891"/>
<path d="M202.998 96.7184C203.293 96.6829 204.922 96.9148 210.759 94.3143C215.896 92.0659 220.83 89.3797 225.507 86.2857C230.045 83.1915 231.075 92.0093 227.776 95.3616C224.477 98.7139 210.875 104.232 206.019 105.236C201.162 106.24 193.208 104.901 193.208 104.901L195.92 95.9628C198.214 96.6409 200.612 96.8969 202.998 96.7184Z" fill="#7659C0"/>
<path d="M198.528 96.4893L197.189 100.646L194.196 101.351L196.658 103.25L195.958 105.593L191.687 104.593L194.662 95.4813L198.528 96.4893Z" fill="#F3FFFD"/>
<path d="M238.856 72.3362C238.764 71.308 238.745 70.2747 238.799 69.2438C238.822 63.9344 238.846 53.5877 237.339 52.7995C233.2 50.6357 216.393 62.4458 215.359 57.8059C215.111 56.7022 214.982 55.5753 214.973 54.4443C214.973 54.2049 214.973 53.9655 214.983 53.7299C215.097 50.4061 216.245 47.2006 218.267 44.5604V44.5548C219.822 42.5196 221.842 40.8868 224.158 39.7936C226.473 38.7004 229.018 38.1786 231.577 38.272C231.822 38.2795 232.063 38.2954 232.307 38.3122C235.43 38.5248 238.428 39.6161 240.956 41.4601C243.484 43.3042 245.439 45.8258 246.596 48.7337C247.353 50.6749 247.758 52.7358 247.791 54.8192C248.066 68.1367 240.427 69.9601 238.856 72.3362Z" fill="#DB734C"/>
<path d="M238.485 72.6755C238.66 71.5389 238.766 70.3925 238.801 69.2429L238.92 68.8165C242.358 66.3006 244.788 62.643 245.774 58.4988C246.636 55.3196 246.916 52.0107 246.6 48.7318C247.76 50.9108 248.404 53.3267 248.483 55.7935C248.754 69.1129 240.054 70.3004 238.485 72.6755Z" fill="#232323"/>
<path d="M231.95 94.1479C233.116 94.2682 234.283 93.9223 235.195 93.1855C236.107 92.4488 236.69 91.3812 236.817 90.2159L239.001 68.5846C239.258 66.1646 237.353 66.3198 234.934 66.0598C233.769 65.9392 232.603 66.2845 231.691 67.0202C230.779 67.756 230.195 68.8226 230.067 69.9872L228.016 89.2724C227.893 90.4402 228.239 91.6091 228.976 92.523C229.713 93.4369 230.783 94.0212 231.95 94.1479Z" fill="#F4A891"/>
<path d="M240.217 64.5759C240.204 64.7274 240.186 64.8714 240.164 65.022C240.159 65.0678 240.151 65.1155 240.143 65.1622C239.877 66.9731 239.242 68.71 238.278 70.2659C238.232 70.3417 238.184 70.4146 238.136 70.4904C236.628 72.8359 234.404 74.6331 231.794 75.6155C231.788 75.6212 231.784 75.6212 231.784 75.6212C230.767 75.9987 229.703 76.2362 228.622 76.3271C228.221 76.3589 227.82 76.3786 227.416 76.3795C227.28 76.3795 227.146 76.372 227.007 76.3636C226.979 76.3651 226.951 76.3651 226.923 76.3636C226.34 76.3337 225.76 76.2587 225.189 76.1392C225.025 76.1146 224.864 76.0809 224.704 76.0382C222.088 75.3696 219.75 73.8913 218.024 71.8145C216.298 69.7377 215.272 67.1685 215.093 64.474C215.045 63.8646 215.039 63.2525 215.074 62.6422L215.13 61.7024L215.488 55.4374C215.53 54.5184 215.65 53.6046 215.847 52.706C215.993 52.027 216.208 51.3649 216.49 50.7302C217.17 49.0961 218.179 47.6191 219.453 46.3904C220.678 45.2413 222.122 44.3504 223.698 43.7709C225.275 43.1915 226.952 42.9353 228.63 43.0176C231.151 43.1514 233.57 44.0558 235.561 45.6087C235.841 45.8285 236.116 46.0604 236.38 46.3025C237.711 47.5267 238.773 49.0153 239.496 50.6731C239.497 50.6772 239.497 50.6813 239.496 50.6853C239.693 51.1274 239.863 51.5807 240.005 52.043C240.03 52.1272 240.057 52.2039 240.078 52.2964C240.254 52.8632 240.394 53.4403 240.498 54.0245C240.521 54.1544 240.545 54.2872 240.564 54.42C240.683 55.1483 240.726 55.8868 240.694 56.624L240.69 56.7577L240.661 57.2645L240.63 57.8256L240.591 58.5372V58.5802L240.585 58.7008L240.566 59.0253V59.0318L240.365 62.414L240.305 63.5361L240.279 63.9597L240.27 64.0532C240.27 64.0841 240.27 64.1121 240.263 64.1467C240.255 64.2905 240.24 64.4337 240.217 64.5759V64.5759Z" fill="#FFC7B0"/>
<path d="M241.124 64.1252C241.012 64.1426 240.899 64.1526 240.785 64.1552C240.728 64.1617 240.671 64.1617 240.614 64.1552L240.258 64.1355L239.819 64.114L239.908 62.4309L239.929 62.0568L240.099 59.001L240.566 59.0253L240.903 59.0459C240.973 59.0473 241.043 59.0548 241.112 59.0683V59.0683C241.213 59.0798 241.313 59.0976 241.411 59.1216V59.1216C241.899 59.2293 242.342 59.485 242.679 59.8538C242.903 60.0966 243.076 60.3817 243.188 60.6924C243.301 61.0032 243.35 61.3332 243.333 61.6631C243.296 62.2623 243.058 62.8313 242.657 63.2781C242.256 63.725 241.716 64.0234 241.124 64.1252V64.1252Z" fill="#FFC4BC"/>
<path d="M221.457 64.3075C221.457 64.3075 221.508 65.2669 222.845 65.3641C224.022 65.4502 224.227 64.6413 224.227 64.6413L221.457 64.3075Z" fill="#F4A891"/>
<path d="M239.864 53.3596C239.864 53.3596 217.504 47.8828 215.406 52.4245C215.406 52.4245 215.02 47.5434 222.109 43.3177C229.197 39.0921 240.365 44.4295 241.079 46.6391C241.505 47.8693 241.649 49.1796 241.5 50.473L239.864 53.3596Z" fill="#DB734C"/>
<path d="M226.536 57.4179C227.416 57.1404 228.351 57.0853 229.257 57.2576C230.164 57.43 231.013 57.8243 231.73 58.4053" stroke="#B95241" stroke-width="1.307" stroke-miterlimit="10" stroke-linecap="round"/>
<path d="M216.617 56.177C217.489 55.8881 218.417 55.8101 219.325 55.9494C220.233 56.0887 221.096 56.4413 221.841 56.9784" stroke="#B95241" stroke-width="1.307" stroke-miterlimit="10" stroke-linecap="round"/>
<path d="M228.236 61.8606L228.237 61.8607C228.56 61.8952 228.85 61.6608 228.885 61.3373L229 60.2522C229.035 59.9287 228.8 59.6385 228.477 59.604L228.476 59.6039C228.152 59.5695 227.862 59.8038 227.828 60.1274L227.712 61.2125C227.678 61.536 227.912 61.8262 228.236 61.8606Z" fill="#1E1E1E"/>
<path d="M219.17 60.8966L219.171 60.8967C219.495 60.9312 219.785 60.6968 219.819 60.3733L219.935 59.2882C219.969 58.9647 219.735 58.6745 219.411 58.64L219.41 58.6399C219.087 58.6055 218.797 58.8399 218.762 59.1634L218.647 60.2485C218.612 60.572 218.847 60.8622 219.17 60.8966Z" fill="#1E1E1E"/>
<path d="M248.181 102.258L247.901 106.983L245.868 141.145L245.788 142.503H245.75L237.545 142.151L217.956 141.309L219.679 120.783L218.154 101.936C218.124 101.648 218.116 101.359 218.133 101.069C218.787 90.7471 222.621 82.9822 229.928 80.7473L229.216 93.7113C230.098 93.7113 236.663 80.8277 237.496 80.9699C238.743 81.1873 239.927 81.6729 240.967 82.3931C245.601 85.5611 247.937 93.2167 248.181 102.258Z" fill="#957ECE"/>
<path d="M220.222 67.14L225.431 67.9012C225.124 68.3575 224.694 68.7178 224.19 68.9404C223.687 69.1629 223.132 69.2388 222.587 69.1593C222.043 69.0797 221.532 68.848 221.114 68.4907C220.695 68.1334 220.386 67.6652 220.222 67.14V67.14Z" fill="#D93838"/>
<path d="M241.124 64.1253C241.012 64.1426 240.899 64.1526 240.785 64.1552C240.728 64.1617 240.671 64.1617 240.614 64.1552L240.258 64.1355C240.252 64.283 240.239 64.43 240.217 64.576C240.204 64.7275 240.186 64.8715 240.164 65.022C240.159 65.0678 240.151 65.1155 240.143 65.1623C239.877 66.9731 239.242 68.7101 238.278 70.266C238.232 70.3417 238.184 70.4146 238.136 70.4904C236.628 72.8359 234.404 74.6331 231.794 75.6156C231.788 75.6212 231.784 75.6212 231.784 75.6212C230.767 75.9987 229.703 76.2362 228.622 76.3272C228.221 76.359 227.82 76.3786 227.416 76.3795C227.28 76.3795 227.146 76.372 227.007 76.3636C227.65 76.3786 231.402 75.9242 234.367 71.6499C237.583 67.0128 238.762 57.8303 238.762 57.8303C238.762 57.8303 238.718 53.8581 238.949 53.8833C239.023 53.8908 239.684 54.1133 240.56 54.4182C240.678 55.1464 240.722 55.885 240.69 56.6221L240.685 56.7559L240.656 57.2627L240.625 57.8237L240.587 58.5353V58.5783L240.58 58.699L240.561 59.0235L240.898 59.044C240.968 59.0455 241.038 59.053 241.108 59.0665V59.0665C241.208 59.078 241.308 59.0958 241.407 59.1198V59.1198C241.894 59.2275 242.337 59.4832 242.674 59.8519C242.898 60.0948 243.071 60.3799 243.184 60.6906C243.296 61.0013 243.345 61.3313 243.328 61.6613C243.292 62.2601 243.054 62.829 242.654 63.2762C242.254 63.7233 241.715 64.0224 241.124 64.1253Z" fill="#F4A891"/>
<path d="M218.425 51.4408C218.893 49.7095 217.869 47.9264 216.138 47.4582C214.407 46.9899 212.623 48.0138 212.155 49.7451C211.687 51.4764 212.711 53.2595 214.442 53.7277C216.173 54.196 217.957 53.1721 218.425 51.4408Z" fill="#DB734C"/>
<path d="M224.189 50.9525C224.512 49.1877 223.343 47.4952 221.578 47.1722C219.814 46.8492 218.121 48.018 217.798 49.7828C217.475 51.5475 218.644 53.24 220.409 53.563C222.173 53.886 223.866 52.7172 224.189 50.9525Z" fill="#DB734C"/>
<path d="M230.174 51.9939C230.867 50.3389 230.087 48.4358 228.432 47.7432C226.777 47.0506 224.873 47.8308 224.181 49.4858C223.488 51.1408 224.268 53.0439 225.923 53.7365C227.578 54.4291 229.482 53.6489 230.174 51.9939Z" fill="#DB734C"/>
<path d="M236.81 52.3347C236.742 52.9738 236.486 53.5785 236.075 54.0722C235.663 54.566 235.115 54.9266 234.498 55.1085C233.882 55.2904 233.225 55.2855 232.612 55.0942C231.998 54.903 231.455 54.534 231.051 54.0341C230.647 53.5342 230.401 52.9257 230.342 52.2856C230.284 51.6455 230.417 51.0026 230.725 50.4381C231.032 49.8736 231.5 49.413 232.069 49.1144C232.638 48.8159 233.283 48.6928 233.922 48.7608C234.779 48.8519 235.565 49.2796 236.106 49.9498C236.648 50.62 236.901 51.4779 236.81 52.3347V52.3347Z" fill="#DB734C"/>
<path d="M236.349 50.0821L238.867 61.4424C238.901 61.5925 238.981 61.728 239.097 61.8293C239.212 61.9306 239.357 61.9924 239.51 62.0059C239.663 62.0193 239.817 61.9837 239.948 61.904C240.08 61.8244 240.183 61.705 240.242 61.563L243.822 52.9509C243.822 52.9509 241.149 43.9545 236.349 50.0821Z" fill="#DB734C"/>
<path d="M238.553 80.8707L238.707 77.6222H233.241L230.559 86.2858L229.94 77.7251L227.877 77.6222L227.26 100.826L238.553 80.8707Z" fill="#F3FFFD"/>
<path d="M224.404 152.982L235.966 153.861C241.074 154.249 245.481 151.906 245.762 148.455L245.694 142.113L216.291 141.599L215.917 146.187C215.636 149.638 219.297 152.593 224.404 152.982Z" fill="#1E1E1E"/>
<path d="M223.745 236.538H222.997C222.89 236.538 222.785 236.517 222.686 236.476C222.588 236.435 222.498 236.375 222.423 236.3C222.348 236.225 222.288 236.135 222.247 236.037C222.206 235.938 222.185 235.833 222.185 235.726V224.4L225.575 225.111L224.55 235.803C224.531 236.003 224.438 236.19 224.289 236.326C224.14 236.461 223.946 236.537 223.745 236.538V236.538Z" fill="#1E1E1E"/>
<path d="M215.512 223.705L211.468 230.884C211.132 231.437 210.665 231.899 210.108 232.227C209.551 232.556 208.921 232.743 208.275 232.769V232.769C207.769 232.79 207.289 232.998 206.928 233.353C206.567 233.708 206.351 234.185 206.322 234.69V234.695C206.305 234.974 206.346 235.254 206.442 235.518C206.538 235.781 206.687 236.021 206.88 236.224C207.073 236.427 207.306 236.588 207.564 236.697C207.822 236.806 208.1 236.861 208.38 236.858H211.652C213.354 236.855 214.991 236.207 216.234 235.044L225.091 226.776C225.513 226.215 225.707 225.517 225.638 224.818V224.818C225.601 224.445 225.489 224.082 225.308 223.753C225.127 223.424 224.881 223.135 224.585 222.904C224.289 222.674 223.949 222.505 223.586 222.41C223.222 222.315 222.844 222.295 222.472 222.351L215.512 223.705Z" fill="#1E1E1E"/>
<path d="M215.306 222.789L211.262 229.969C210.927 230.522 210.459 230.983 209.902 231.312C209.345 231.641 208.715 231.827 208.069 231.854C207.563 231.874 207.083 232.082 206.722 232.437C206.361 232.792 206.145 233.269 206.117 233.775V233.775C206.099 234.054 206.14 234.334 206.236 234.598C206.331 234.861 206.481 235.102 206.674 235.305C206.867 235.508 207.1 235.668 207.358 235.777C207.616 235.886 207.894 235.941 208.174 235.937H210.521C212.821 235.933 215.033 235.058 216.713 233.487L224.888 225.855C225.31 225.294 225.505 224.595 225.435 223.897V223.897C225.398 223.523 225.286 223.161 225.105 222.832C224.924 222.503 224.678 222.214 224.382 221.983C224.086 221.752 223.746 221.584 223.383 221.489C223.019 221.394 222.641 221.374 222.269 221.43L215.306 222.789Z" fill="#232323"/>
<path d="M212.189 228.136L214.015 229.249" stroke="#07113D" stroke-width="1.419" stroke-miterlimit="10" stroke-linecap="round"/>
<path d="M212.933 226.7L214.76 227.812" stroke="#07113D" stroke-width="1.419" stroke-miterlimit="10" stroke-linecap="round"/>
<path d="M213.669 225.326L215.496 226.438" stroke="#07113D" stroke-width="1.419" stroke-miterlimit="10" stroke-linecap="round"/>
<path d="M225.221 220.792H214.723V223.006H225.221V220.792Z" fill="#D15B4B"/>
<path d="M244.247 237.194H243.499C243.283 237.194 243.077 237.109 242.925 236.956C242.772 236.804 242.687 236.598 242.687 236.382V225.057L246.077 225.767L245.054 236.459C245.035 236.66 244.941 236.847 244.792 236.983C244.643 237.118 244.448 237.194 244.247 237.194V237.194Z" fill="#1E1E1E"/>
<path d="M236.012 224.362L231.969 231.542C231.633 232.095 231.166 232.556 230.609 232.885C230.052 233.214 229.422 233.4 228.776 233.427C228.27 233.447 227.79 233.655 227.429 234.01C227.068 234.365 226.852 234.842 226.823 235.347V235.352C226.806 235.632 226.847 235.912 226.942 236.175C227.038 236.438 227.187 236.679 227.381 236.882C227.574 237.085 227.806 237.246 228.064 237.355C228.323 237.464 228.6 237.518 228.88 237.515H232.153C233.855 237.512 235.492 236.864 236.735 235.702L245.593 227.431C246.014 226.87 246.209 226.171 246.139 225.473V225.473C246.103 225.099 245.991 224.737 245.81 224.408C245.629 224.079 245.383 223.79 245.087 223.559C244.791 223.328 244.451 223.16 244.087 223.065C243.724 222.97 243.345 222.95 242.974 223.006L236.012 224.362Z" fill="#1E1E1E"/>
<path d="M235.807 223.447L231.763 230.626C231.428 231.179 230.961 231.641 230.403 231.97C229.846 232.299 229.216 232.485 228.57 232.511C228.064 232.532 227.584 232.74 227.223 233.095C226.862 233.45 226.646 233.926 226.617 234.432V234.437C226.6 234.716 226.641 234.996 226.736 235.26C226.832 235.523 226.981 235.764 227.174 235.967C227.368 236.17 227.6 236.331 227.859 236.439C228.117 236.548 228.395 236.603 228.675 236.599H231.021C233.32 236.596 235.533 235.721 237.213 234.15L245.388 226.518C245.808 225.955 246.001 225.255 245.928 224.556V224.556C245.891 224.183 245.779 223.82 245.598 223.492C245.417 223.163 245.171 222.874 244.875 222.643C244.579 222.412 244.239 222.244 243.876 222.149C243.513 222.054 243.134 222.034 242.763 222.09L235.807 223.447Z" fill="#232323"/>
<path d="M232.691 228.793L234.517 229.905" stroke="#07113D" stroke-width="1.419" stroke-miterlimit="10" stroke-linecap="round"/>
<path d="M233.434 227.357L235.26 228.469" stroke="#07113D" stroke-width="1.419" stroke-miterlimit="10" stroke-linecap="round"/>
<path d="M234.171 225.983L235.997 227.095" stroke="#07113D" stroke-width="1.419" stroke-miterlimit="10" stroke-linecap="round"/>
<path d="M245.64 221.202H235.717V223.499H245.64V221.202Z" fill="#D15B4B"/>
<path d="M245.978 140.433H217.822V143.372H245.978V140.433Z" fill="#6746B9"/>
<path opacity="0.37" d="M247.901 106.983L245.928 140.124L237.316 140.592C237.316 140.592 237.006 122.801 236.848 117.386C236.69 111.971 243.346 96.3463 243.346 96.3463C245.087 99.7922 246.609 103.345 247.901 106.983V106.983Z" fill="#591239"/>
<path d="M223.185 139.025L228.951 136.968C229.101 136.907 229.262 136.876 229.424 136.876C229.585 136.877 229.745 136.91 229.895 136.972C230.044 137.035 230.179 137.127 230.293 137.242C230.407 137.357 230.497 137.493 230.558 137.643L230.596 137.756C230.686 138.072 230.648 138.411 230.49 138.7C230.333 138.989 230.069 139.205 229.755 139.301L223.988 141.358C223.838 141.42 223.678 141.451 223.516 141.451C223.354 141.45 223.194 141.417 223.045 141.355C222.895 141.292 222.76 141.2 222.646 141.085C222.532 140.97 222.442 140.833 222.382 140.683L222.343 140.571C222.254 140.255 222.292 139.916 222.449 139.627C222.606 139.338 222.87 139.122 223.185 139.025V139.025Z" fill="#FFC7B0"/>
<path d="M231.989 155.378C231.75 155.765 231.431 156.095 231.053 156.347L220.917 163.182C220.569 163.417 220.178 163.581 219.767 163.665C219.356 163.749 218.932 163.751 218.52 163.671C218.108 163.59 217.715 163.43 217.365 163.198C217.015 162.966 216.715 162.668 216.48 162.319L204.766 144.954C204.531 144.606 204.367 144.215 204.283 143.804C204.2 143.392 204.198 142.969 204.278 142.556C204.358 142.144 204.519 141.752 204.751 141.402C204.982 141.052 205.281 140.751 205.629 140.517L205.743 140.438L215.765 133.681C216.467 133.207 217.329 133.032 218.161 133.193C218.993 133.354 219.727 133.839 220.202 134.541L224.698 141.204L229.186 147.855L231.918 151.912C232.261 152.422 232.449 153.02 232.462 153.635C232.474 154.249 232.31 154.854 231.989 155.378V155.378Z" fill="#C0C0C0"/>
<path d="M216.228 143.67C216.323 143.896 216.352 144.144 216.312 144.386C216.272 144.627 216.165 144.853 216.002 145.036C215.839 145.219 215.628 145.352 215.392 145.42C215.157 145.488 214.907 145.488 214.672 145.42C214.436 145.352 214.225 145.218 214.062 145.035C213.9 144.851 213.793 144.626 213.753 144.384C213.713 144.142 213.743 143.894 213.839 143.668C213.934 143.443 214.092 143.249 214.293 143.109C214.625 142.93 215.013 142.889 215.375 142.994C215.737 143.099 216.043 143.342 216.228 143.67V143.67Z" fill="white"/>
<path opacity="0.6" d="M229.184 147.855L224.911 151.555C224.208 152.203 223.302 152.344 222.9 151.871C222.766 151.707 222.697 151.5 222.704 151.289C222.725 151.008 222.801 150.735 222.928 150.484C223.056 150.233 223.232 150.01 223.447 149.828L226.416 147.258L226.154 146.875L221.97 150.504C221.267 151.144 220.361 151.289 219.959 150.812C219.825 150.648 219.756 150.442 219.763 150.231C219.784 149.951 219.86 149.678 219.988 149.427C220.115 149.177 220.291 148.955 220.506 148.774L224.876 144.985L224.841 144.926C224.782 144.797 224.724 144.676 224.669 144.558L221.22 147.551C220.513 148.199 219.603 148.34 219.2 147.863C219.071 147.697 219.005 147.491 219.013 147.281C219.035 147.001 219.111 146.729 219.239 146.478C219.366 146.228 219.542 146.006 219.756 145.824L224.228 141.949C224.249 141.929 224.271 141.911 224.295 141.895C224.401 141.649 224.539 141.418 224.705 141.208L229.184 147.855Z" fill="#6746B9"/>
<path d="M234.178 142.685C234.178 142.685 231.131 145.397 230.272 146.2C228.61 147.758 227.392 148.158 226.269 147.275L224.56 144.882C223.828 143.417 223.556 142.687 224.456 141.575L227.418 137.914C227.856 137.378 228.485 137.035 229.173 136.958C229.86 136.88 230.55 137.074 231.097 137.498L233.341 139.264C234.463 140.148 235.077 141.573 234.178 142.685Z" fill="#FFC7B0"/>
<path d="M225.348 143.78L221.19 147.187C220.536 147.757 219.694 147.882 219.32 147.467C218.946 147.049 219.174 146.241 219.829 145.671L223.986 142.265C224.641 141.695 225.482 141.571 225.856 141.985C226.231 142.402 226.002 143.21 225.348 143.78Z" fill="#FFC7B0"/>
<path d="M226.051 146.381L221.893 149.787C221.239 150.358 220.397 150.482 220.023 150.068C219.649 149.65 219.877 148.842 220.532 148.271L224.689 144.866C225.344 144.296 226.185 144.171 226.56 144.585C226.934 145.002 226.705 145.81 226.051 146.381Z" fill="#FFC7B0"/>
<path d="M228.785 147.308L224.628 150.714C223.973 151.284 223.132 151.409 222.757 150.995C222.383 150.577 222.612 149.769 223.266 149.198L227.424 145.792C228.078 145.221 228.92 145.097 229.294 145.511C229.669 145.93 229.44 146.738 228.785 147.308Z" fill="#FFC7B0"/>
<path d="M247.46 126.956C246.555 128.88 245.441 130.698 244.14 132.38C243.444 133.281 242.691 134.138 241.885 134.944L233.099 143.718C232.619 144.21 231.991 144.534 231.312 144.641C230.66 144.717 230.001 144.611 229.406 144.334C228.812 144.057 228.306 143.621 227.945 143.073C226.6 141.217 227.812 139.794 229.311 138.297L237.132 129.582C238.694 127.774 239.996 125.757 241 123.59C243.462 118.113 244.082 111.985 242.767 106.126L240.691 96.3743C240.192 94.0366 241.371 91.7606 243.323 91.295C245.274 90.8293 247.261 92.3404 247.758 94.6781L249.837 104.433C251.52 111.999 250.685 119.908 247.46 126.956V126.956Z" fill="#FFC7B0"/>
<path d="M241.676 122.251L248.128 125.617C247.293 127.557 246.248 129.4 245.011 131.113L239.739 125.989L241.676 122.251Z" fill="#F4A891"/>
<path d="M242.487 116.51C242.53 116.217 243.576 114.629 242.189 108.391C240.803 102.153 239.12 95.6178 240.308 92.5489C241.496 89.48 241.056 81.6954 243.873 85.4657C252.053 96.4389 251.794 110.866 251.497 115.818C251.201 120.769 247.834 128.095 247.834 128.095L239.912 123.144C241.165 121.107 242.037 118.859 242.487 116.51V116.51Z" fill="#856BC7"/>
<path d="M241.101 120.768L244.765 123.144L244.666 126.214L247.141 124.332L249.22 125.62L247.141 129.482L239.12 124.234L241.101 120.768Z" fill="#F3FFFD"/>
</svg>
