<svg width="414" height="401" viewBox="0 0 414 401" fill="none" xmlns="http://www.w3.org/2000/svg">
<path d="M206.634 400.329C321.698 400.329 414.975 394.883 414.975 388.165C414.975 381.447 321.698 376.001 206.634 376.001C91.5699 376.001 -1.70776 381.447 -1.70776 388.165C-1.70776 394.883 91.5699 400.329 206.634 400.329Z" fill="#F5F5F5"/>
<path d="M80.612 207.041H213.081L221.355 215.638V163.512C221.355 160.463 220.143 157.538 217.987 155.382C215.831 153.226 212.906 152.014 209.857 152.014H80.612C79.1003 152.012 77.6029 152.307 76.2055 152.883C74.8081 153.46 73.5381 154.306 72.4682 155.374C71.3982 156.442 70.5494 157.711 69.9703 159.107C69.3911 160.503 69.093 162 69.093 163.512V195.565C69.0958 197.075 69.396 198.57 69.9764 199.964C70.5568 201.357 71.4061 202.623 72.4758 203.689C73.5454 204.755 74.8145 205.599 76.2105 206.174C77.6065 206.75 79.1022 207.044 80.612 207.041Z" fill="#6566E5"/>
<path opacity="0.4" d="M80.612 207.041H213.081L221.355 215.638V163.512C221.355 160.463 220.143 157.538 217.987 155.382C215.831 153.226 212.906 152.014 209.857 152.014H80.612C79.1003 152.012 77.6029 152.307 76.2055 152.883C74.8081 153.46 73.5381 154.306 72.4682 155.374C71.3982 156.442 70.5494 157.711 69.9703 159.107C69.3911 160.503 69.093 162 69.093 163.512V195.565C69.0958 197.075 69.396 198.57 69.9764 199.964C70.5568 201.357 71.4061 202.623 72.4758 203.689C73.5454 204.755 74.8145 205.599 76.2105 206.174C77.6065 206.75 79.1022 207.044 80.612 207.041Z" fill="white"/>
<path d="M205.559 165.479H86.2856" stroke="#6566E5" stroke-width="2" stroke-linecap="round" stroke-linejoin="round"/>
<path d="M205.559 178.373H86.2856" stroke="#6566E5" stroke-width="2" stroke-linecap="round" stroke-linejoin="round"/>
<path d="M181.919 191.267H86.2856" stroke="#6566E5" stroke-width="2" stroke-linecap="round" stroke-linejoin="round"/>
<path opacity="0.3" d="M80.612 207.041H213.081L221.355 215.638V163.512C221.355 160.463 220.143 157.538 217.987 155.382C215.831 153.226 212.906 152.014 209.857 152.014H80.612C79.1003 152.012 77.6029 152.307 76.2055 152.883C74.8081 153.46 73.5381 154.306 72.4682 155.374C71.3982 156.442 70.5494 157.711 69.9703 159.107C69.3911 160.503 69.093 162 69.093 163.512V195.565C69.0958 197.075 69.396 198.57 69.9764 199.964C70.5568 201.357 71.4061 202.623 72.4758 203.689C73.5454 204.755 74.8145 205.599 76.2105 206.174C77.6065 206.75 79.1022 207.044 80.612 207.041Z" fill="white"/>
<path d="M175.472 135.048H43.0142L34.7402 143.644V91.5183C34.7402 88.4708 35.9501 85.548 38.104 83.3921C40.2579 81.2362 43.1795 80.0236 46.227 80.0208H175.472C178.52 80.0236 181.441 81.2362 183.595 83.3921C185.749 85.548 186.959 88.4708 186.959 91.5183V123.572C186.953 126.615 185.741 129.533 183.587 131.684C181.434 133.835 178.516 135.045 175.472 135.048Z" fill="#5152B7"/>
<path d="M85.2112 93.4846H170.099" stroke="white" stroke-width="2" stroke-linecap="round" stroke-linejoin="round"/>
<path d="M85.2112 106.379H170.099" stroke="white" stroke-width="2" stroke-linecap="round" stroke-linejoin="round"/>
<path d="M85.2112 119.273H146.46" stroke="white" stroke-width="2" stroke-linecap="round" stroke-linejoin="round"/>
<path d="M127.892 63.0538H213.081L221.355 71.6501V30.2697C221.352 27.2223 220.139 24.3006 217.983 22.1467C215.827 19.9928 212.905 18.783 209.857 18.783H127.892C126.381 18.7802 124.884 19.0751 123.488 19.651C122.091 20.2268 120.821 21.0723 119.751 22.1391C118.682 23.2059 117.833 24.4731 117.253 25.8682C116.673 27.2633 116.374 28.759 116.373 30.2697V51.5778C116.375 53.0877 116.676 54.5822 117.256 55.9761C117.836 57.3699 118.686 58.6358 119.755 59.7015C120.825 60.7671 122.094 61.6116 123.49 62.1868C124.886 62.762 126.382 63.0566 127.892 63.0538Z" fill="#6566E5"/>
<path opacity="0.4" d="M127.892 63.0538H213.081L221.355 71.6501V30.2697C221.352 27.2223 220.139 24.3006 217.983 22.1467C215.827 19.9928 212.905 18.783 209.857 18.783H127.892C126.381 18.7802 124.884 19.0751 123.488 19.651C122.091 20.2268 120.821 21.0723 119.751 22.1391C118.682 23.2059 117.833 24.4731 117.253 25.8682C116.673 27.2633 116.374 28.759 116.373 30.2697V51.5778C116.375 53.0877 116.676 54.5822 117.256 55.9761C117.836 57.3699 118.686 58.6358 119.755 59.7015C120.825 60.7671 122.094 61.6116 123.49 62.1868C124.886 62.762 126.382 63.0566 127.892 63.0538Z" fill="white"/>
<path d="M205.559 34.3853H133.565" stroke="#6566E5" stroke-width="2" stroke-linecap="round" stroke-linejoin="round"/>
<path d="M181.919 47.2795H133.565" stroke="#6566E5" stroke-width="2" stroke-linecap="round" stroke-linejoin="round"/>
<path opacity="0.3" d="M127.892 63.0538H213.081L221.355 71.6501V30.2697C221.352 27.2223 220.139 24.3006 217.983 22.1467C215.827 19.9928 212.905 18.783 209.857 18.783H127.892C126.381 18.7802 124.884 19.0751 123.488 19.651C122.091 20.2268 120.821 21.0723 119.751 22.1391C118.682 23.2059 117.833 24.4731 117.253 25.8682C116.673 27.2633 116.374 28.759 116.373 30.2697V51.5778C116.375 53.0877 116.676 54.5822 117.256 55.9761C117.836 57.3699 118.686 58.6358 119.755 59.7015C120.825 60.7671 122.094 61.6116 123.49 62.1868C124.886 62.762 126.382 63.0566 127.892 63.0538Z" fill="white"/>
<path d="M74.9064 97.7829C74.9064 103.096 73.3309 108.29 70.3791 112.707C67.4274 117.125 63.2319 120.568 58.3232 122.601C53.4146 124.635 48.0133 125.167 42.8023 124.13C37.5913 123.094 32.8047 120.535 29.0478 116.778C25.2909 113.021 22.7324 108.235 21.6959 103.024C20.6593 97.8127 21.1913 92.4113 23.2246 87.5027C25.2578 82.5941 28.7009 78.3986 33.1186 75.4468C37.5362 72.495 42.73 70.9195 48.0431 70.9195C51.5772 70.8967 55.0807 71.5759 58.3502 72.9178C61.6197 74.2598 64.5902 76.2376 67.0892 78.7367C69.5883 81.2357 71.5662 84.2062 72.9081 87.4757C74.25 90.7453 74.9293 94.2487 74.9064 97.7829Z" fill="#6566E5"/>
<path opacity="0.5" d="M74.9064 97.7829C74.9064 103.096 73.3309 108.29 70.3791 112.707C67.4274 117.125 63.2319 120.568 58.3232 122.601C53.4146 124.635 48.0133 125.167 42.8023 124.13C37.5913 123.094 32.8047 120.535 29.0478 116.778C25.2909 113.021 22.7324 108.235 21.6959 103.024C20.6593 97.8127 21.1913 92.4113 23.2246 87.5027C25.2578 82.5941 28.7009 78.3986 33.1186 75.4468C37.5362 72.495 42.73 70.9195 48.0431 70.9195C51.5772 70.8967 55.0807 71.5759 58.3502 72.9178C61.6197 74.2598 64.5902 76.2376 67.0892 78.7367C69.5883 81.2357 71.5662 84.2062 72.9081 87.4757C74.25 90.7453 74.9293 94.2487 74.9064 97.7829Z" fill="white"/>
<path d="M67.5888 116.179C65.1093 118.807 62.1241 120.907 58.8125 122.353C55.5009 123.798 51.9313 124.559 48.3181 124.591C44.705 124.622 41.1228 123.922 37.7868 122.534C34.4508 121.146 31.4299 119.097 28.9055 116.512C30.1627 116.276 31.5274 116.028 32.9243 115.814C34.1063 115.62 35.3312 115.437 36.5347 115.298C42.8935 114.483 49.2941 114.038 55.7044 113.965C56.4888 113.965 57.2625 114.051 58.0362 114.051C60.0348 114.169 61.9367 114.374 63.5808 114.578C65.0326 114.756 66.4135 115.308 67.5888 116.179Z" fill="#2E353A"/>
<path d="M61.6253 77.8178C61.6253 77.8178 63.0544 87.3919 56.8758 91.8727C50.6973 96.3535 50.6973 74.6802 50.6973 74.6802L61.6253 77.8178Z" fill="#2E353A"/>
<path d="M36.5024 115.244C40.6179 118.983 50.697 117.597 50.697 117.597C50.697 117.597 56.9938 115.878 55.6721 113.912C51.965 113.299 50.1705 111.569 49.4291 109.356C49.0231 107.983 48.8952 106.544 49.053 105.122C49.1146 104.329 49.2186 103.54 49.3646 102.758L36.857 93.4846C38.5333 99.6202 40.5319 110.828 36.5024 115.244Z" fill="#FFC3BD"/>
<path opacity="0.2" d="M39.7798 99.3945C40.2741 106.916 46.4204 108.936 49.4506 109.355C49.0446 107.983 48.9167 106.544 49.0745 105.122L39.7798 99.3945Z" fill="black"/>
<path d="M38.9419 101.125C40.2368 103.041 42.125 104.48 44.3166 105.219C46.5082 105.959 48.8819 105.959 51.0734 105.219C53.9234 104.311 56.3232 102.356 57.7892 99.7492C57.9934 99.4006 58.1799 99.042 58.348 98.6747C61.3889 91.5612 62.356 79.1181 54.8342 74.4546C53.1803 73.4159 51.2882 72.8173 49.3377 72.7157C47.3872 72.6141 45.4432 73.013 43.6903 73.8744C41.9374 74.7357 40.4338 76.031 39.3225 77.6372C38.2112 79.2433 37.529 81.1069 37.3408 83.0509C36.4167 91.3356 35.4819 96.2032 38.9419 101.125Z" fill="#FFC3BD"/>
<path d="M49.4616 87.4888C49.3004 88.1443 49.612 88.7567 50.0525 88.832C50.4931 88.9072 50.9444 88.4236 51.0626 87.7574C51.1808 87.0912 50.9014 86.4895 50.4716 86.4143C50.0418 86.339 49.5905 86.8011 49.4616 87.4888Z" fill="#2E353A"/>
<path d="M57.0585 88.778C56.8973 89.4335 57.2089 90.0568 57.6495 90.132C58.09 90.2072 58.5306 89.7129 58.6488 89.0574C58.767 88.402 58.4984 87.7787 58.0578 87.7035C57.6172 87.6283 57.1659 88.1118 57.0585 88.778Z" fill="#2E353A"/>
<path d="M54.587 88.7029C55.0398 90.8894 55.7881 93.0042 56.8113 94.9889C56.2901 95.2334 55.7214 95.3601 55.1457 95.3601C54.5701 95.3601 54.0014 95.2334 53.4802 94.9889L54.587 88.7029Z" fill="#DE5753"/>
<path d="M47.5273 84.6198C47.5968 84.6435 47.6715 84.6481 47.7433 84.6329C47.8152 84.6178 47.8816 84.5836 47.9357 84.5339C48.2931 84.1813 48.7279 83.917 49.2055 83.7622C49.683 83.6073 50.1902 83.5662 50.6865 83.642C50.7373 83.6547 50.7901 83.6573 50.8419 83.6496C50.8937 83.6418 50.9434 83.624 50.9883 83.5971C51.0332 83.5701 51.0724 83.5346 51.1036 83.4925C51.1347 83.4505 51.1573 83.4027 51.17 83.3519C51.1827 83.3011 51.1853 83.2483 51.1776 83.1965C51.1699 83.1447 51.152 83.0949 51.1251 83.05C51.0982 83.0051 51.0626 82.966 51.0206 82.9348C50.9785 82.9036 50.9307 82.881 50.8799 82.8683C50.256 82.7561 49.6142 82.7951 49.0084 82.982C48.4026 83.169 47.8505 83.4985 47.3984 83.9429C47.3249 84.0173 47.2837 84.1177 47.2837 84.2223C47.2837 84.3268 47.3249 84.4272 47.3984 84.5016C47.4337 84.5487 47.4774 84.5888 47.5273 84.6198Z" fill="#2E353A"/>
<path d="M51.8038 98.3307C50.8173 98.3159 49.8491 98.0618 48.9825 97.5901C48.1159 97.1184 47.3768 96.4434 46.8287 95.6229C46.8135 95.5992 46.8034 95.5726 46.7989 95.5448C46.7945 95.517 46.7959 95.4886 46.8029 95.4614C46.81 95.4342 46.8226 95.4087 46.84 95.3865C46.8574 95.3644 46.8791 95.3461 46.9039 95.3328C46.9496 95.3047 47.0046 95.2957 47.0568 95.3077C47.1091 95.3198 47.1546 95.3519 47.1833 95.3972C47.7074 96.1451 48.3992 96.76 49.2033 97.1929C50.0075 97.6257 50.9017 97.8645 51.8146 97.8902C51.8679 97.8928 51.9183 97.9151 51.956 97.9529C51.9938 97.9906 52.0161 98.041 52.0187 98.0943C52.0187 98.1485 51.9972 98.2004 51.9589 98.2387C51.9206 98.277 51.8687 98.2985 51.8146 98.2985L51.8038 98.3307Z" fill="#2E353A"/>
<path d="M60.7656 86.7149C60.8332 86.7575 60.9115 86.7798 60.9913 86.7794C61.0424 86.7658 61.0902 86.7421 61.132 86.7097C61.1738 86.6773 61.2088 86.637 61.2348 86.5909C61.2608 86.5449 61.2774 86.4942 61.2835 86.4416C61.2897 86.3891 61.2853 86.3359 61.2707 86.2851C61.1066 85.6713 60.7975 85.1059 60.3692 84.6365C59.941 84.1671 59.4062 83.8075 58.81 83.588C58.7599 83.5716 58.7071 83.5657 58.6546 83.5704C58.6021 83.5752 58.5512 83.5906 58.5049 83.6158C58.4587 83.6409 58.418 83.6753 58.3855 83.7167C58.3529 83.7581 58.3292 83.8057 58.3157 83.8567C58.3009 83.9068 58.296 83.9593 58.3015 84.0112C58.307 84.0632 58.3226 84.1136 58.3476 84.1595C58.3725 84.2054 58.4063 84.2459 58.4469 84.2788C58.4875 84.3117 58.5342 84.3362 58.5843 84.351C59.0478 84.5366 59.4618 84.8274 59.7937 85.2003C60.1256 85.5732 60.3664 86.0182 60.497 86.5C60.5215 86.5546 60.5586 86.6026 60.6053 86.64C60.652 86.6774 60.707 86.7031 60.7656 86.7149Z" fill="#2E353A"/>
<path d="M38.3399 110.494L50.2565 115.867L50.955 111.569L55.3283 113.105C56.0944 113.371 56.7477 113.889 57.1811 114.574C57.6145 115.259 57.8023 116.071 57.7138 116.877L57.2195 121.605L51.1806 118.296L48.1719 122.594L33.8591 115.706L38.3399 110.494Z" fill="#6566E5"/>
<path d="M48.0754 76.8293C50.1558 78.674 52.5506 80.1298 55.1458 81.1275L52.8463 76.8293C52.8463 76.8293 58.219 81.5573 63.7206 83.5559C63.7206 83.5559 66.1383 71.5963 52.0297 66.8899C40.0809 62.9141 37.9318 70.9194 37.9318 70.9194C30.4101 68.6414 21.9212 90.1321 38.2756 100.125C38.2756 100.125 36.9647 91.7546 38.9741 90.1321C40.9835 88.5095 48.8061 83.4162 48.0754 76.8293Z" fill="#2E353A"/>
<path d="M32.5589 89.1865C33.1599 91.2083 34.5346 92.9113 36.3842 93.9252C38.8449 95.2469 40.6824 93.1838 40.5105 90.5511C40.3385 88.1979 38.8879 84.609 36.2123 84.4048C33.5367 84.2006 31.8819 86.6936 32.5589 89.1865Z" fill="#FFC3BD"/>
<path d="M214.155 297.646V386.833H220.602V310.541H322.683V386.833H330.205V297.646H214.155Z" fill="#6566E5"/>
<path opacity="0.3" d="M214.155 297.646V386.833H220.602V310.541H322.683V386.833H330.205V297.646H214.155Z" fill="black"/>
<path opacity="0.6" d="M214.155 297.646V386.833H220.602V310.541H322.683V386.833H330.205V297.646H214.155Z" fill="white"/>
<path d="M273.255 297.646V386.833H279.702V310.541H381.783V386.833H389.304V297.646H273.255Z" fill="#6566E5"/>
<path opacity="0.6" d="M273.255 297.646V386.833H279.702V310.541H381.783V386.833H389.304V297.646H273.255Z" fill="white"/>
<path d="M314.216 250.796C312.776 248.432 310.412 250.496 310.412 250.496C310.745 245.95 306.576 242.856 306.576 242.856C306.576 242.856 311.422 242.856 312.099 238.224C312.776 233.593 310.412 235.753 308.188 235.721C305.964 235.689 303.643 242.168 306.576 245.821C309.509 249.475 308.725 255.707 301.955 261.692C300.335 263.206 299.12 265.101 298.42 267.205C298.936 261.703 299.226 253.945 297.604 248.776C294.853 239.976 300.097 237.612 301.612 233.217C303.127 228.822 297.604 225.094 297.604 225.094C297.604 225.094 302.794 222.73 300.258 220.022C297.722 217.314 292.478 217.679 292.478 221.225C292.478 224.771 296.035 226.114 296.035 226.114C296.035 226.114 300.097 230.337 300.097 232.562C300.097 234.786 296.035 239.492 296.035 239.492C296.035 239.492 297.894 235.441 294.176 235.269C290.458 235.098 289.265 239.997 290.791 242.2C292.317 244.403 294.853 242.533 294.853 242.533C295.008 245.099 295.397 247.646 296.013 250.141C296.389 251.409 296.217 256.373 295.895 261.531C295.188 259.668 294.059 257.995 292.596 256.642C285.837 250.657 285.075 244.424 287.976 240.771C290.877 237.118 288.588 230.638 286.364 230.67C284.14 230.703 281.776 228.521 282.453 233.174C283.13 237.827 287.976 237.805 287.976 237.805C287.976 237.805 283.807 240.9 284.14 245.445C284.14 245.445 281.776 243.382 280.336 245.746C277.768 249.98 283.721 252.602 284.72 250.517C284.72 250.517 297.335 259.446 294.294 272.298L295.003 273.372C294.907 274.447 294.853 275.038 294.853 275.038L295.841 274.619L296.916 276.274C296.878 278.141 296.975 280.008 297.206 281.861L300.215 277.402C297.174 264.508 309.789 255.621 309.789 255.621C310.863 257.652 316.784 255.03 314.216 250.796Z" fill="#6566E5"/>
<path opacity="0.2" d="M314.216 250.796C312.776 248.432 310.412 250.496 310.412 250.496C310.745 245.95 306.576 242.856 306.576 242.856C306.576 242.856 311.422 242.856 312.099 238.224C312.776 233.593 310.412 235.753 308.188 235.721C305.964 235.689 303.643 242.168 306.576 245.821C309.509 249.475 308.725 255.707 301.955 261.692C300.335 263.206 299.12 265.101 298.42 267.205C298.936 261.703 299.226 253.945 297.604 248.776C294.853 239.976 300.097 237.612 301.612 233.217C303.127 228.822 297.604 225.094 297.604 225.094C297.604 225.094 302.794 222.73 300.258 220.022C297.722 217.314 292.478 217.679 292.478 221.225C292.478 224.771 296.035 226.114 296.035 226.114C296.035 226.114 300.097 230.337 300.097 232.562C300.097 234.786 296.035 239.492 296.035 239.492C296.035 239.492 297.894 235.441 294.176 235.269C290.458 235.098 289.265 239.997 290.791 242.2C292.317 244.403 294.853 242.533 294.853 242.533C295.008 245.099 295.397 247.646 296.013 250.141C296.389 251.409 296.217 256.373 295.895 261.531C295.188 259.668 294.059 257.995 292.596 256.642C285.837 250.657 285.075 244.424 287.976 240.771C290.877 237.118 288.588 230.638 286.364 230.67C284.14 230.703 281.776 228.521 282.453 233.174C283.13 237.827 287.976 237.805 287.976 237.805C287.976 237.805 283.807 240.9 284.14 245.445C284.14 245.445 281.776 243.382 280.336 245.746C277.768 249.98 283.721 252.602 284.72 250.517C284.72 250.517 297.335 259.446 294.294 272.298L295.003 273.372C294.907 274.447 294.853 275.038 294.853 275.038L295.841 274.619L296.916 276.274C296.878 278.141 296.975 280.008 297.206 281.861L300.215 277.402C297.174 264.508 309.789 255.621 309.789 255.621C310.863 257.652 316.784 255.03 314.216 250.796Z" fill="black"/>
<path d="M306.576 297.646L302.504 274.339L303.653 267.559H290.834L291.984 274.339L287.922 297.646H306.576Z" fill="#6566E5"/>
<path opacity="0.2" d="M306.576 297.646L302.504 274.339L303.653 267.559H290.834L291.984 274.339L287.922 297.646H306.576Z" fill="white"/>
<path d="M279.627 275.801H259.887V297.646H279.627V275.801Z" fill="#6566E5"/>
<path opacity="0.3" d="M279.627 275.801H259.887V297.646H279.627V275.801Z" fill="white"/>
<path d="M280.648 272.932H258.888V279.132H280.648V272.932Z" fill="#6566E5"/>
<path opacity="0.1" d="M280.648 272.932H258.888V279.132H280.648V272.932Z" fill="white"/>
<path d="M65.4719 378.086L65.805 385.35L75.9701 386.08L85.2971 386.736L86.3072 378.053L75.2824 378.064L65.4719 378.086Z" fill="#FFC3BD"/>
<path d="M66.3424 386.832C67.1375 386.779 66.063 376.979 66.063 376.979C66.063 376.979 59.6158 371.209 57.9932 365.385C56.3707 359.561 52.9644 363.021 53.2653 369.586C53.5662 376.152 53.7811 381.17 53.996 385.833C54.2109 390.497 58.0577 387.445 66.3424 386.832Z" fill="#2E353A"/>
<path d="M64.9776 376.087H64.795C64.795 376.087 64.795 376.087 64.795 376.012C64.4619 375.367 62.8071 372.133 63.5807 371.112C63.7072 370.958 63.8788 370.847 64.0715 370.795C64.2642 370.743 64.4683 370.752 64.6553 370.822C64.7983 370.855 64.9331 370.916 65.0514 371.003C65.1697 371.09 65.2689 371.2 65.343 371.327C65.6531 371.998 65.7721 372.742 65.6868 373.476C66.0737 372.649 66.5679 371.929 67.0837 371.875C67.4168 371.875 67.707 372.047 67.9326 372.487C68.0432 372.678 68.1094 372.891 68.1261 373.11C68.1429 373.33 68.1098 373.55 68.0293 373.755C67.535 375.109 65.3 376.023 65.1818 376.076L64.9776 376.087ZM67.0407 372.864C66.6002 372.864 65.891 374.121 65.4075 375.604C66.2689 375.197 66.9825 374.532 67.4491 373.702C67.5001 373.593 67.5211 373.473 67.5097 373.354C67.4984 373.235 67.4552 373.121 67.3846 373.025C67.3485 372.968 67.2969 372.923 67.2361 372.894C67.1752 372.866 67.1074 372.855 67.0407 372.864ZM64.2147 371.273C64.1603 371.267 64.1051 371.274 64.0543 371.295C64.0036 371.315 63.9589 371.349 63.9246 371.391C63.57 371.875 64.1932 373.648 64.8702 375.066C65.0636 373.992 65.2355 372.262 64.8057 371.563C64.7649 371.498 64.7116 371.442 64.6489 371.398C64.5862 371.354 64.5153 371.322 64.4404 371.305L64.2147 371.273Z" fill="#6566E5"/>
<path opacity="0.2" d="M75.0569 378.075L75.7661 386.091L85.2005 386.746L86.2535 378.053L75.0569 378.075Z" fill="black"/>
<path d="M53.6306 375.926L55.9301 382.814L65.9125 380.761L75.0676 378.849L73.6707 370.22L63.065 373.24L53.6306 375.926Z" fill="#FFC3BD"/>
<path d="M56.865 384.146C57.6171 383.877 53.91 374.733 53.91 374.733C53.91 374.733 46.1626 370.929 42.9927 365.782C39.8228 360.635 37.5018 364.88 39.5757 371.155C41.6495 377.43 43.2399 382.158 44.712 386.596C46.1841 391.034 49.0423 386.951 56.865 384.146Z" fill="#2E353A"/>
<path d="M52.5453 374.078C52.5453 374.078 52.5453 374.078 52.4808 374.078C52.4468 374.07 52.4164 374.051 52.3949 374.024C51.8898 373.508 49.4184 370.854 49.8697 369.661C49.947 369.484 50.0774 369.335 50.2429 369.235C50.4084 369.135 50.6009 369.089 50.7938 369.103C50.9391 369.095 51.0845 369.116 51.2212 369.166C51.3578 369.216 51.483 369.293 51.589 369.393C52.0827 369.965 52.4032 370.665 52.5131 371.413C52.6742 370.521 52.9429 369.694 53.4264 369.5C53.738 369.371 54.0711 369.5 54.415 369.855C54.5697 370.01 54.6884 370.197 54.7627 370.403C54.837 370.609 54.865 370.829 54.8448 371.047C54.7373 372.487 52.8247 374.002 52.6957 374.067H52.9751V373.938H52.8247C52.8247 373.938 52.599 374.078 52.5453 374.078ZM53.6198 370.027C53.2115 370.188 52.9321 371.767 52.8677 373.325C53.586 372.745 54.1015 371.951 54.3398 371.058C54.3492 370.911 54.3284 370.764 54.2785 370.625C54.2286 370.486 54.1507 370.36 54.0496 370.252C53.91 370.166 53.7595 370.027 53.6306 370.027H53.6198ZM50.826 369.64C50.4285 369.64 50.3747 369.812 50.3532 369.865C50.1383 370.424 51.2236 371.961 52.2659 373.143C52.1477 372.015 51.8576 370.338 51.1914 369.79C51.092 369.697 50.9621 369.644 50.826 369.64Z" fill="#6566E5"/>
<path opacity="0.2" d="M62.8501 373.304L65.7191 380.815L74.9708 378.881L73.6277 370.242L62.8501 373.304Z" fill="black"/>
<path d="M214.553 386.951C189.441 386.951 161.417 371.746 149.006 367.276C147.393 366.572 145.67 366.154 143.913 366.04C138.465 366.298 98.1701 375.614 79.1401 380.074H79.0541L69.2329 382.395L66.0093 370.811C66.0093 370.811 138.583 333.106 148.609 335.104C156.216 336.63 177.621 342.325 187.55 344.979L192.665 346.355L199.112 335.255L234.572 337.973C234.572 337.973 244.242 386.951 214.553 386.951Z" fill="#2E353A"/>
<path d="M77.8076 373.809L80.6551 387.649L147.534 386.746C147.534 386.746 195.963 386.95 214.553 386.95C233.142 386.95 215.574 353.522 215.574 353.522L77.8076 373.809Z" fill="#2E353A"/>
<path opacity="0.2" d="M199.112 335.255L198.274 358.26L149.049 367.287L79.2046 380.084L153.616 355.37L192.514 356.907C192.271 352.481 190.528 348.271 187.571 344.968L192.686 346.344L199.112 335.255Z" fill="black"/>
<path d="M234.571 332.762V337.963L199.112 335.244V329.098L234.571 332.762Z" fill="#6566E5"/>
<path opacity="0.4" d="M234.571 332.762V337.963L199.112 335.244V329.098L234.571 332.762Z" fill="black"/>
<path d="M222.389 339.557L224.148 339.646L224.606 330.686L222.846 330.596L222.389 339.557Z" fill="#2E353A"/>
<path d="M207.001 336.233L214.75 336.928L215.276 331.052L207.528 330.358L207.001 336.233Z" fill="#6566E5"/>
<path d="M200.749 337.165L202.509 337.255L202.966 328.294L201.206 328.204L200.749 337.165Z" fill="#2E353A"/>
<path opacity="0.6" d="M207.001 336.233L214.75 336.928L215.276 331.052L207.528 330.358L207.001 336.233Z" fill="white"/>
<path d="M179.91 279.11C179.91 279.11 175.397 279.379 175.3 280.185C175.203 280.991 176.009 287.556 176.686 288.437C177.409 289.226 178.221 289.929 179.104 290.533L176.547 300.601L182.328 302.987L183.939 292.091C183.939 292.091 186.486 289.189 185.412 285.826C184.337 282.463 179.91 279.11 179.91 279.11Z" fill="#FFC3BD"/>
<path opacity="0.2" d="M179.91 279.11C179.91 279.11 175.397 279.379 175.3 280.185C175.203 280.991 176.009 287.556 176.686 288.437C177.409 289.226 178.221 289.929 179.104 290.533L176.547 300.601L182.328 302.987L183.939 292.091C183.939 292.091 186.486 289.189 185.412 285.826C184.337 282.463 179.91 279.11 179.91 279.11Z" fill="black"/>
<path d="M234.572 244.811C234.572 244.811 243.168 260.134 232.927 280.872" stroke="#2E353A" stroke-width="0.5" stroke-linecap="round" stroke-linejoin="round"/>
<path d="M207.149 289.05L204.162 304.308L203.27 305.275C200.369 308.37 190.988 318.008 183.22 321.619C179.824 323.198 176.772 323.617 174.623 321.823C166.811 315.107 176.772 292.091 176.772 292.091L185.68 295.497L184.96 305.092L194.631 283.677L207.149 289.05Z" fill="#6566E5"/>
<path opacity="0.2" d="M203.27 305.275C200.369 308.37 190.988 318.008 183.219 321.619C195.158 314.839 198.263 299.978 198.263 299.978L203.27 305.275Z" fill="black"/>
<path d="M226.706 234.968C233.013 236.183 239.6 248.024 236.538 263.433C234.452 273.354 231.15 282.979 226.706 292.091L207.149 289.05C207.149 289.05 203.41 230.488 226.706 234.968Z" fill="#2E353A"/>
<path d="M199.166 329.721L234.625 332.783C235.463 319.599 236.312 311.099 244.113 287.599L245.295 284.075C245.429 283.679 245.481 283.261 245.449 282.844C245.416 282.428 245.299 282.023 245.105 281.653C244.912 281.284 244.645 280.957 244.321 280.694C243.997 280.43 243.623 280.235 243.222 280.12C239.405 279.036 235.53 278.164 231.617 277.509C226.355 276.576 221.033 276.016 215.692 275.833C208.783 275.779 200.863 276.553 200.863 276.553C200.863 276.553 199.789 276.822 199.026 284.139C198.37 291.005 197.737 304.738 199.166 329.721Z" fill="#6566E5"/>
<path d="M222.827 275.822C228.829 276.621 234.773 277.809 240.621 279.379C240.621 279.379 218.69 290.898 193.535 286.009C193.535 286.009 196.694 276.993 200.863 276.521C207.955 275.747 217.379 275.253 222.827 275.822Z" fill="#FFC3BD"/>
<path d="M226.641 237.773C226.641 237.773 228.114 231.025 217.282 230.133C206.451 229.241 194.631 240.792 197.683 256.996C200.734 273.2 205.333 277.713 201.852 286.858C198.37 296.002 202.282 298.495 205.441 299.935C205.441 299.935 203.292 297.958 204.162 295.637C205.033 293.316 212.855 292.209 212.608 283.623C212.361 275.038 222.279 274.683 222.279 274.683L226.641 237.773Z" fill="#2E353A"/>
<path d="M229.983 278.809C229.983 278.809 227.351 282.602 218.615 283.677C218.615 283.677 214.317 280.83 216.122 277.37C216.122 277.37 218.013 276.779 218.421 273.77C218.613 271.648 218.338 269.51 217.615 267.505C217.519 267.183 217.4 266.839 217.282 266.495L228.328 259.586C228.328 259.586 224.439 273.576 229.983 278.809Z" fill="#FFC3BD"/>
<path opacity="0.2" d="M225.846 263.583C225.846 263.583 225.255 271.481 218.421 273.759C218.613 271.637 218.338 269.499 217.615 267.495C221.677 265.41 225.846 263.583 225.846 263.583Z" fill="black"/>
<path d="M214.553 237.708C205.527 239.245 203.442 244.575 204.366 253.998C205.527 265.764 209.513 273.587 220.377 269.171C235.141 263.186 229.543 235.151 214.553 237.708Z" fill="#FFC3BD"/>
<path d="M210.115 252.516C209.622 253.987 208.955 255.394 208.127 256.706C208.456 257.033 208.869 257.264 209.32 257.372C209.771 257.48 210.243 257.461 210.685 257.319L210.115 252.516Z" fill="#DE5753"/>
<path d="M215.52 250.807C215.627 251.559 216.122 252.097 216.595 252.032C217.067 251.968 217.4 251.291 217.293 250.549C217.186 249.808 216.691 249.26 216.218 249.335C215.746 249.41 215.413 250.066 215.52 250.807Z" fill="#2E353A"/>
<path d="M216.433 249.292L214.725 248.894C214.725 248.894 215.724 250.184 216.433 249.292Z" fill="#2E353A"/>
<path d="M206.236 252.011C206.354 252.763 206.838 253.3 207.311 253.235C207.783 253.171 208.127 252.494 208.02 251.753C207.912 251.011 207.418 250.463 206.945 250.538C206.472 250.614 206.129 251.269 206.236 252.011Z" fill="#2E353A"/>
<path d="M207.149 250.538L205.441 250.141C205.441 250.141 206.451 251.441 207.149 250.538Z" fill="#2E353A"/>
<path d="M214.542 244.564C215.241 244.355 215.978 244.309 216.697 244.43C217.417 244.551 218.098 244.836 218.69 245.263" stroke="#2E353A" stroke-width="0.72468" stroke-linecap="round" stroke-linejoin="round"/>
<path d="M207.923 245.306C207.278 245.255 206.63 245.35 206.028 245.584C205.425 245.819 204.883 246.186 204.442 246.659" stroke="#2E353A" stroke-width="0.72468" stroke-linecap="round" stroke-linejoin="round"/>
<path d="M212.608 260.628C213.194 261.575 213.711 262.562 214.155 263.583L214.725 263.433C217.304 262.713 218.271 261.531 218.55 260.435C218.686 259.899 218.686 259.338 218.55 258.802C218.483 258.495 218.375 258.198 218.228 257.92C216.835 259.075 215.207 259.911 213.457 260.37C212.952 260.542 212.608 260.628 212.608 260.628Z" fill="#2E353A"/>
<path d="M213.489 260.37L213.973 261.23C216.412 260.553 218.024 259.747 218.583 258.802C218.516 258.495 218.407 258.198 218.26 257.92C216.867 259.075 215.239 259.911 213.489 260.37Z" fill="white"/>
<path d="M214.768 263.433C217.347 262.713 218.314 261.531 218.593 260.435C217.617 260.727 216.701 261.189 215.885 261.799C215.354 262.217 214.964 262.787 214.768 263.433Z" fill="#DE5753"/>
<path d="M227.05 251.237C227.05 251.237 221.559 244.543 221.226 238.708C221.226 238.708 202.088 234.41 204.302 252.763C204.302 252.763 199.8 236.935 215.262 233.926C230.725 230.917 234.529 253.633 227.673 261.767C227.641 261.767 230.424 255.438 227.05 251.237Z" fill="#2E353A"/>
<path d="M225.868 253.397C225.778 252.338 226.111 251.286 226.793 250.471C227.475 249.656 228.452 249.143 229.511 249.045C232.369 248.873 234.679 254.418 227.952 256.964C226.985 257.33 226.255 256.448 225.868 253.397Z" fill="#FFC3BD"/>
<path d="M210.685 232.099C210.685 232.099 190.795 240.696 197.189 265.055C203.582 289.415 199.112 288.695 199.112 288.695" stroke="#2E353A" stroke-width="0.5" stroke-linecap="round" stroke-linejoin="round"/>
<path d="M189.334 285.912C189.349 286.037 189.337 286.164 189.299 286.285C189.261 286.405 189.198 286.516 189.113 286.61C189.029 286.704 188.925 286.778 188.809 286.828C188.693 286.878 188.568 286.903 188.442 286.901H178.62C178.353 286.89 178.099 286.785 177.902 286.604C177.705 286.423 177.579 286.177 177.546 285.912L175.343 266.57C175.322 266.31 175.404 266.052 175.57 265.852C175.737 265.651 175.975 265.523 176.235 265.496H186.056C186.327 265.535 186.579 265.661 186.772 265.854C186.966 266.048 187.092 266.299 187.131 266.57L189.334 285.912Z" fill="#2E353A"/>
<path opacity="0.5" d="M186.046 266.398L188.27 285.977C188.299 286.091 188.301 286.21 188.275 286.325C188.249 286.44 188.196 286.547 188.12 286.637C188.045 286.728 187.949 286.799 187.84 286.844C187.732 286.89 187.614 286.909 187.496 286.901H179.169C178.61 286.901 177.589 286.589 177.525 286.041L175.3 266.398C175.236 265.85 176.192 265.41 176.751 265.41H185.078C185.335 265.421 185.578 265.529 185.758 265.713C185.937 265.896 186.04 266.142 186.046 266.398Z" fill="white"/>
<path d="M198.306 294.294L193.245 288.695C193.245 288.695 191.59 279.648 191.096 278.713C190.601 277.778 183.176 278.713 182.371 278.713C181.565 278.713 182.371 287.803 183.262 288.695C184.154 289.587 187.206 290.124 187.206 290.124L193.288 298.592L198.306 294.294Z" fill="#FFC3BD"/>
<path d="M245.252 282.141C250.69 297.915 227.319 324.886 216.036 325.122C204.753 325.358 188.635 295.25 188.635 295.25L196.017 290.683C196.017 290.683 214.768 307.876 217.282 308.144C218.701 308.295 232.326 286.707 239.547 282.022C243.576 279.379 245.252 282.141 245.252 282.141Z" fill="#6566E5"/>
<path opacity="0.1" d="M245.252 282.141C250.69 297.915 227.319 324.886 216.036 325.122C204.753 325.358 188.635 295.25 188.635 295.25L196.017 290.683C196.017 290.683 214.768 307.876 217.282 308.144C218.701 308.295 232.326 286.707 239.547 282.022C243.576 279.379 245.252 282.141 245.252 282.141Z" fill="black"/>
<path d="M250.034 361.85H227.061V389.078H250.034V361.85Z" fill="#6566E5"/>
<path opacity="0.2" d="M250.034 361.85H227.061V389.078H250.034V361.85Z" fill="white"/>
<path d="M251.033 358.98H226.051V365.181H251.033V358.98Z" fill="#5152B7"/>
</svg>
