<svg width="286" height="175" viewBox="0 0 286 175" fill="none" xmlns="http://www.w3.org/2000/svg">
<path opacity="0.1" d="M198.75 175C219.14 175 235.67 173.821 235.67 172.367C235.67 170.914 219.14 169.735 198.75 169.735C178.36 169.735 161.83 170.914 161.83 172.367C161.83 173.821 178.36 175 198.75 175Z" fill="#957ECE"/>
<path d="M239.5 34.7022V154.842C239.5 156.066 239.015 157.24 238.152 158.106C237.289 158.972 236.118 159.458 234.898 159.458H51.1025C50.6728 159.458 50.2452 159.398 49.8325 159.277C48.8717 159.002 48.0266 158.42 47.4252 157.62C46.8239 156.819 46.4991 155.844 46.5 154.842V101.228C46.5 100.955 46.5 100.684 46.5 100.413V49.2815C46.6075 49.2815 46.7125 49.2815 46.82 49.2966C50.94 42.2539 56.4475 35.7828 63.07 30.0864H234.898C236.118 30.0864 237.289 30.5727 238.152 31.4383C239.015 32.304 239.5 33.478 239.5 34.7022Z" fill="white"/>
<path opacity="0.7" d="M65 156.572H228" stroke="#1F1F1F" stroke-miterlimit="10" stroke-linecap="round"/>
<path d="M115.838 144.187H76.1625C74.692 144.187 73.5 145.382 73.5 146.857V146.859C73.5 148.334 74.692 149.529 76.1625 149.529H115.838C117.308 149.529 118.5 148.334 118.5 146.859V146.857C118.5 145.382 117.308 144.187 115.838 144.187Z" fill="#957ECE"/>
<path d="M208.005 134.837H182.538C180.055 134.837 178.043 136.855 178.043 139.345C178.043 141.835 180.055 143.853 182.538 143.853H208.005C210.488 143.853 212.5 141.835 212.5 139.345C212.5 136.855 210.488 134.837 208.005 134.837Z" fill="#1F1F1F"/>
<path opacity="0.1" d="M207.26 136.346H183.28C181.627 136.346 180.287 137.69 180.287 139.346C180.287 141.003 181.627 142.346 183.28 142.346H207.26C208.913 142.346 210.252 141.003 210.252 139.346C210.252 137.69 208.913 136.346 207.26 136.346Z" fill="black"/>
<path d="M206.84 136.675H201.345C199.875 136.675 198.682 137.87 198.682 139.345V139.348C198.682 140.822 199.875 142.018 201.345 142.018H206.84C208.31 142.018 209.502 140.822 209.502 139.348V139.345C209.502 137.87 208.31 136.675 206.84 136.675Z" fill="#957ECE"/>
<path d="M204.01 141.015C204.93 141.015 205.675 140.267 205.675 139.345C205.675 138.423 204.93 137.675 204.01 137.675C203.09 137.675 202.345 138.423 202.345 139.345C202.345 140.267 203.09 141.015 204.01 141.015Z" fill="white"/>
<path d="M126.77 136.675H76.1625C74.692 136.675 73.5 137.87 73.5 139.345V139.348C73.5 140.822 74.692 142.018 76.1625 142.018H126.77C128.24 142.018 129.432 140.822 129.432 139.348V139.345C129.432 137.87 128.24 136.675 126.77 136.675Z" fill="#957ECE"/>
<path d="M90.98 129.161H76.1625C74.692 129.161 73.5 130.356 73.5 131.831V131.834C73.5 133.308 74.692 134.504 76.1625 134.504H90.98C92.4505 134.504 93.6425 133.308 93.6425 131.834V131.831C93.6425 130.356 92.4505 129.161 90.98 129.161Z" fill="#957ECE"/>
<path opacity="0.7" d="M65 125.608H228" stroke="#1F1F1F" stroke-miterlimit="10" stroke-linecap="round"/>
<path d="M105.588 114.471H76.1625C74.692 114.471 73.5 115.667 73.5 117.141V117.144C73.5 118.619 74.692 119.814 76.1625 119.814H105.588C107.058 119.814 108.25 118.619 108.25 117.144V117.141C108.25 115.667 107.058 114.471 105.588 114.471Z" fill="#957ECE"/>
<path d="M208.005 105.122H182.538C180.055 105.122 178.043 107.14 178.043 109.63C178.043 112.119 180.055 114.138 182.538 114.138H208.005C210.488 114.138 212.5 112.119 212.5 109.63C212.5 107.14 210.488 105.122 208.005 105.122Z" fill="#1F1F1F"/>
<path opacity="0.1" d="M207.26 106.629H183.28C181.627 106.629 180.287 107.972 180.287 109.629C180.287 111.285 181.627 112.628 183.28 112.628H207.26C208.913 112.628 210.252 111.285 210.252 109.629C210.252 107.972 208.913 106.629 207.26 106.629Z" fill="black"/>
<path d="M206.84 106.957H201.345C199.875 106.957 198.682 108.153 198.682 109.627V109.63C198.682 111.105 199.875 112.3 201.345 112.3H206.84C208.31 112.3 209.502 111.105 209.502 109.63V109.627C209.502 108.153 208.31 106.957 206.84 106.957Z" fill="#957ECE"/>
<path d="M204.01 111.3C204.93 111.3 205.675 110.552 205.675 109.63C205.675 108.708 204.93 107.96 204.01 107.96C203.09 107.96 202.345 108.708 202.345 109.63C202.345 110.552 203.09 111.3 204.01 111.3Z" fill="white"/>
<path d="M126.77 106.957H76.1625C74.692 106.957 73.5 108.153 73.5 109.627V109.63C73.5 111.105 74.692 112.3 76.1625 112.3H126.77C128.24 112.3 129.432 111.105 129.432 109.63V109.627C129.432 108.153 128.24 106.957 126.77 106.957Z" fill="#957ECE"/>
<path d="M90.98 99.4456H76.1625C74.692 99.4456 73.5 100.641 73.5 102.116V102.118C73.5 103.593 74.692 104.788 76.1625 104.788H90.98C92.4505 104.788 93.6425 103.593 93.6425 102.118V102.116C93.6425 100.641 92.4505 99.4456 90.98 99.4456Z" fill="#957ECE"/>
<path opacity="0.7" d="M65 95.3964H228" stroke="#1F1F1F" stroke-miterlimit="10" stroke-linecap="round"/>
<path d="M208.005 75.4041H182.538C180.055 75.4041 178.043 77.4223 178.043 79.912C178.043 82.4017 180.055 84.4199 182.538 84.4199H208.005C210.488 84.4199 212.5 82.4017 212.5 79.912C212.5 77.4223 210.488 75.4041 208.005 75.4041Z" fill="#1F1F1F"/>
<path opacity="0.1" d="M207.26 76.9133H183.28C181.627 76.9133 180.287 78.2564 180.287 79.9132C180.287 81.57 181.627 82.9131 183.28 82.9131H207.26C208.913 82.9131 210.252 81.57 210.252 79.9132C210.252 78.2564 208.913 76.9133 207.26 76.9133Z" fill="black"/>
<path d="M181.292 165.726C181.685 165.668 182.077 165.588 182.462 165.498C182.412 165.884 182.301 166.26 182.132 166.611C181.75 167.338 181.002 167.777 180.315 168.223C180.22 168.134 180.098 168.081 179.968 168.072C179.839 168.064 179.711 168.1 179.605 168.175C178.777 168.677 178.117 169.384 177.24 169.815C176.932 169.966 176.612 170.086 176.312 170.254C175.585 170.699 174.982 171.323 174.562 172.067C174.312 172.455 174.11 172.967 174.355 173.353C174.449 173.483 174.57 173.592 174.71 173.671C175.066 173.921 175.493 174.048 175.927 174.035C176.177 174.012 176.427 173.917 176.7 173.874C177.042 173.814 177.392 173.844 177.737 173.814C178.238 173.749 178.728 173.622 179.197 173.436L180.915 172.834C181.4 172.677 181.872 172.482 182.327 172.252C182.6 172.104 182.857 171.931 183.135 171.796C183.447 171.657 183.77 171.543 184.1 171.455L185.075 171.169C185.215 171.115 185.366 171.095 185.515 171.111C185.65 171.136 185.765 171.222 185.902 171.257C186.112 171.294 186.328 171.273 186.527 171.197L187.657 170.876C187.896 170.821 188.124 170.726 188.33 170.595C188.847 170.226 188.94 169.494 188.937 168.855C188.935 167.886 188.826 166.921 188.612 165.977C188.468 166.036 188.341 166.131 188.245 166.255C188.13 166.092 188.005 165.935 187.872 165.786C187.352 165.179 186.967 164.467 186.745 163.698C187.153 163.393 187.494 163.008 187.745 162.564C187.147 160.28 186.535 157.961 185.32 155.945C184.922 155.288 184.467 154.672 184.07 154.025C182.887 152.144 182.645 149.763 181.292 148.007C181.164 147.83 181.095 147.615 181.095 147.396C181.095 147.176 181.164 146.962 181.292 146.784C181.447 146.578 181.697 146.385 181.65 146.13C181.615 145.947 181.425 145.779 181.497 145.608C181.532 145.525 181.617 145.48 181.682 145.42C181.912 145.204 181.882 144.841 181.905 144.525C181.955 143.728 182.427 143.021 182.882 142.379C182.975 142.225 183.097 142.092 183.242 141.988C183.365 141.912 183.51 141.877 183.632 141.802C184.062 141.529 184.032 140.895 184.237 140.423C184.507 139.801 185.187 139.488 185.632 138.984C186.2 138.342 186.345 137.45 186.942 136.891C187.004 136.832 187.07 136.778 187.14 136.73C186.881 137.681 186.762 138.665 186.787 139.651C186.73 143.043 187.57 146.553 187.177 149.931C186.867 152.603 188.495 155.268 190.802 156.605C191.706 157.088 192.651 157.49 193.625 157.806C195.07 158.325 196.51 158.859 197.927 159.455C198.927 159.877 199.914 160.329 200.887 160.812C202.089 161.4 203.257 162.054 204.387 162.77C205.777 163.665 207.17 164.573 208.157 165.909C208.762 165.878 209.342 165.664 209.822 165.295C210.202 165.595 210.662 165.824 211.02 166.157C211.514 166.673 211.844 167.324 211.97 168.027H211.82C211.837 168.361 211.852 168.694 211.87 169.03C211.883 169.116 211.87 169.203 211.832 169.281C211.796 169.331 211.75 169.373 211.697 169.404L210.927 169.928C210.367 170.307 209.75 170.785 209.72 171.465C209.704 171.663 209.764 171.859 209.887 172.014C210.076 172.19 210.316 172.299 210.572 172.325C211.912 172.608 213.285 172.884 214.642 172.701C215.287 172.613 215.955 172.4 216.375 171.899C216.76 171.442 216.875 170.823 216.98 170.234C217.147 169.231 217.287 168.205 217.397 167.188C217.431 166.496 217.571 165.813 217.812 165.164C217.831 165.108 217.869 165.06 217.92 165.029C217.977 165.004 218.045 165.029 218.105 165.004C218.165 164.979 218.205 164.886 218.225 164.811C218.472 163.821 218.593 162.803 218.582 161.782C218.594 161.517 218.554 161.252 218.465 161.002C218.359 160.793 218.208 160.61 218.023 160.467C217.838 160.324 217.623 160.224 217.395 160.175C216.939 160.082 216.477 160.027 216.012 160.009C215.625 159.972 215.241 159.902 214.865 159.799C214.713 159.741 214.549 159.72 214.387 159.736C214.307 159.747 214.233 159.787 214.18 159.848C214.127 159.91 214.097 159.988 214.097 160.07C214.106 160.127 214.127 160.183 214.157 160.233L213.767 160.155C213.452 160.097 213.017 159.959 212.545 159.844C212.545 159.764 212.55 159.68 212.56 159.593C212.561 159.504 212.537 159.415 212.49 159.339C212.443 159.263 212.375 159.201 212.295 159.162L205.69 155.622L204.455 154.96C201.75 153.508 198.955 152.167 196.242 150.715C196.062 150.77 195.912 150.562 195.86 150.377C195.807 150.191 195.77 149.971 195.597 149.888C195.512 149.848 195.4 149.85 195.347 149.778C195.303 149.712 195.286 149.632 195.3 149.554C195.387 148.233 196.33 147.015 196.142 145.706C196.062 145.147 195.775 144.595 195.892 144.046C195.98 143.668 196.25 143.359 196.392 142.998C196.717 142.191 196.392 141.22 196.747 140.431C196.984 139.912 197.145 139.361 197.225 138.796C197.392 137.67 197.73 136.576 198.225 135.552C198.464 135.035 198.778 134.556 199.155 134.13C199.352 133.915 199.575 133.721 199.765 133.498C200.34 132.809 200.552 131.891 200.715 130.991C201.01 129.384 201.215 127.717 200.845 126.122C200.72 125.581 200.53 125.042 200.537 124.485C200.537 123.818 200.805 123.053 200.482 122.519C200.815 122.252 201.036 121.87 201.105 121.449C201.11 121.297 201.139 121.147 201.192 121.005C201.302 120.85 201.445 120.722 201.61 120.629C201.868 120.431 202.065 120.165 202.179 119.861C202.293 119.556 202.32 119.225 202.255 118.906C202.597 119.062 202.957 118.713 203.12 118.37C203.282 118.026 203.405 117.618 203.752 117.462C203.987 117.362 204.252 117.422 204.502 117.357C204.9 117.254 205.142 116.856 205.422 116.562C205.992 115.945 206.8 115.627 207.547 115.248C209.762 114.118 211.567 112.33 213.335 110.57C214.257 109.712 215.094 108.766 215.835 107.747C216.032 107.454 216.212 107.15 216.382 106.839L216.427 106.817L216.442 106.872C216.47 106.982 216.502 107.092 216.535 107.2C216.615 107.451 216.705 107.719 216.785 107.975C217.055 108.727 217.347 109.529 217.897 110.099C218.066 110.272 218.258 110.422 218.467 110.542C218.922 110.787 219.421 110.937 219.935 110.984C220.13 111.009 220.327 111.024 220.525 111.034C220.722 111.044 220.92 111.051 221.115 111.056L225.16 111.164C223.77 109.143 223.66 106.516 223.752 104.056C223.985 97.7381 225.212 91.3623 224.072 85.1445C223.935 84.3923 223.752 83.6402 223.295 83.0359C222.695 82.2462 221.71 81.8651 220.75 81.6419C219.79 81.4188 218.792 81.311 217.895 80.9073C217.145 80.5638 216.455 80.0122 215.645 79.8317C215.048 79.7314 214.438 79.7416 213.845 79.8618C213.115 79.9705 212.389 80.0992 211.667 80.2479L211.492 80.2855H211.5L211.38 80.3131H211.347L211.24 80.3382H211.2L211.1 80.3658L211.055 80.3783L210.962 80.4084L210.91 80.4259L210.825 80.4535L210.77 80.4761L210.69 80.5062L210.63 80.5312L210.557 80.5638L210.497 80.5939L210.43 80.6265L210.37 80.6616L210.307 80.6967L210.247 80.7368L210.19 80.7744L210.13 80.817L210.08 80.8572L210.022 80.9073L209.975 80.9499C209.955 80.9679 209.937 80.9872 209.92 81.0076L209.877 81.0502C209.858 81.0725 209.839 81.0959 209.822 81.1204C209.822 81.133 209.8 81.1455 209.79 81.1605C209.78 81.1756 209.745 81.2257 209.722 81.2633V81.2784C209.666 81.3726 209.62 81.4726 209.585 81.5767C209.567 81.6294 209.55 81.682 209.537 81.7347C209.512 81.8419 209.493 81.9508 209.482 82.0606C209.482 82.1158 209.482 82.1734 209.47 82.2286C209.47 82.3389 209.47 82.4517 209.47 82.5621C209.48 82.7503 209.501 82.9378 209.532 83.1237C208.646 83.6492 207.906 84.3915 207.383 85.2814C206.861 86.1712 206.571 87.1795 206.542 88.212C206.513 89.2445 206.746 90.2675 207.218 91.1854C207.69 92.1033 208.387 92.8862 209.242 93.4609C209.255 93.5599 209.261 93.6595 209.262 93.7592V93.8244C209.248 94.1791 209.212 94.5325 209.152 94.8824C208.164 94.69 207.159 94.6001 206.152 94.6142C205.552 94.6142 204.947 94.6693 204.342 94.717C203.694 93.9324 203.09 93.1121 202.532 92.2599L201.197 90.2968C200.739 89.6553 200.321 88.9854 199.947 88.291C199.62 87.6542 199.365 86.9772 199 86.3605C198.25 85.0893 197.025 84.0087 196.872 82.537L196.52 82.6097C196.327 82.2938 196.085 81.9603 195.995 81.7773C195.512 80.7328 195.14 79.6404 194.885 78.518C194.762 77.9363 194.67 77.3295 194.352 76.8281C194.136 76.5148 193.874 76.2359 193.575 76.0007C193.093 75.5455 192.527 75.1879 191.91 74.9477C191.634 74.8472 191.341 74.8043 191.048 74.8215C190.756 74.8388 190.469 74.9158 190.207 75.048C190.126 75.0101 190.043 74.9766 189.957 74.9477C189.648 74.8296 189.315 74.788 188.986 74.8264C188.657 74.8648 188.342 74.9821 188.067 75.1683C187.542 75.572 187.317 76.264 187.237 76.9234C187.099 77.8358 187.255 78.7687 187.682 79.586C188.182 80.4836 189.077 81.0903 189.817 81.8024C190.332 82.3027 190.783 82.8653 191.16 83.4772C191.276 84.8315 191.242 86.1946 191.057 87.5414C190.962 88.118 190.807 88.6846 190.762 89.2663C190.58 91.3673 191.67 93.4684 191.28 95.5343C191.216 95.8449 191.249 96.1679 191.376 96.4585C191.503 96.7491 191.716 96.9931 191.987 97.1565C192.547 97.4598 193.202 97.5 193.817 97.6579C195.025 97.9688 196.067 98.7435 197.287 99.0319C197.85 99.1672 198.435 99.1923 198.995 99.3427L199.082 99.3703C198.651 99.86 198.343 100.446 198.185 101.08C197.935 102.133 198.17 103.259 197.92 104.312C197.715 105.18 197.2 105.937 196.692 106.671C195.716 108.089 194.737 109.509 193.757 110.934C193.103 111.932 192.38 112.885 191.595 113.784C190.247 115.261 187.922 116.432 187.237 118.207C187.222 118.164 187.202 118.122 187.187 118.079C186.217 118.794 185.855 120.125 185.082 121.05C184.705 121.499 184.24 121.862 183.832 122.279C183.328 122.816 182.865 123.392 182.45 124.001C181.3 125.601 180.142 127.208 179.32 129C178.89 129.933 178.557 130.903 178.215 131.869C176.87 135.672 174.675 139.28 173.762 143.214C173.54 144.174 172.957 145.041 172.87 146.024C172.772 147.072 173.25 148.08 173.745 149.005C174.495 150.419 175.33 151.793 175.995 153.248C176.387 154.095 176.727 154.97 177.165 155.797C177.642 156.7 178.227 157.537 178.727 158.427C179.945 160.711 180.645 163.236 181.292 165.726ZM197.832 93.8821L197.712 93.8219C197.264 93.6274 196.854 93.3549 196.5 93.0171C195.422 91.8638 194.96 90.1263 194.622 88.5743C194.582 88.3888 194.547 88.2058 194.515 88.0202C195.822 89.8831 197.057 91.8086 197.832 93.8871V93.8821Z" fill="url(#paint0_linear_5_0)"/>
<path d="M186.75 163.336C186.97 164.123 187.361 164.852 187.895 165.47C188.22 165.846 188.627 166.302 188.457 166.769C188.386 166.927 188.281 167.068 188.15 167.182C185.735 169.549 182.357 170.693 179.007 171.124C178.954 171.138 178.898 171.138 178.845 171.124C178.747 171.081 178.722 170.956 178.712 170.848C178.657 170.498 178.657 170.142 178.712 169.792C178.875 168.973 179.592 168.393 180.295 167.94C180.997 167.486 181.765 167.05 182.155 166.31C182.642 165.392 182.437 164.196 183.017 163.336C183.487 162.637 184.362 162.334 185.195 162.208C185.482 162.163 186.095 161.847 186.34 161.993C186.585 162.138 186.665 163.048 186.75 163.336Z" fill="#EA9B7A"/>
<path d="M180.527 169.191C180.415 169.379 180.237 169.524 180.132 169.717C180.073 169.809 180.049 169.92 180.064 170.028C180.08 170.136 180.134 170.235 180.217 170.307C180.33 170.356 180.455 170.368 180.575 170.342C182.99 170.039 185.256 169.009 187.075 167.388C187.377 167.133 187.646 166.838 187.872 166.513C188.085 166.19 188.265 165.794 188.622 165.658C188.84 166.6 188.952 167.563 188.957 168.529C188.957 169.166 188.867 169.89 188.35 170.259C188.142 170.389 187.914 170.482 187.675 170.535L186.545 170.856C186.345 170.931 186.128 170.952 185.917 170.916C185.785 170.881 185.667 170.795 185.53 170.77C185.381 170.755 185.23 170.774 185.09 170.828L184.112 171.114C183.782 171.2 183.459 171.313 183.147 171.452C182.867 171.585 182.61 171.756 182.337 171.904C181.882 172.133 181.408 172.326 180.922 172.48L179.205 173.08C178.734 173.264 178.243 173.39 177.742 173.456C177.397 173.486 177.045 173.456 176.702 173.513C176.452 173.558 176.202 173.654 175.927 173.674C175.493 173.687 175.067 173.561 174.71 173.313C174.571 173.234 174.45 173.126 174.355 172.997C174.105 172.613 174.322 172.107 174.562 171.718C174.985 170.98 175.587 170.361 176.312 169.918C176.612 169.752 176.935 169.632 177.242 169.482C178.12 169.055 178.782 168.343 179.61 167.857C180.392 167.398 180.895 168.584 180.527 169.191Z" fill="#957ECE"/>
<path d="M213.828 159.877C214.235 159.927 214.631 160.051 214.995 160.243C215.47 160.581 215.825 161.062 216.01 161.617C216.555 162.965 216.668 164.45 216.693 165.906C216.713 167.082 216.673 168.286 216.253 169.384C216.138 169.73 215.939 170.043 215.675 170.294C215.441 170.478 215.17 170.61 214.88 170.68C214.253 170.853 213.528 170.851 213.015 170.449C212.445 170.003 212.303 169.213 212.183 168.499C212.02 167.536 211.79 166.511 211.075 165.846C210.545 165.345 209.785 165.094 209.4 164.487C208.94 163.758 209.183 162.805 209.475 161.993C209.725 161.288 210.103 159.862 210.838 159.501C211.573 159.139 213.065 159.739 213.828 159.877Z" fill="#EA9B7A"/>
<path d="M214.157 159.791C214.157 159.71 214.187 159.632 214.24 159.571C214.294 159.51 214.367 159.471 214.447 159.46C214.609 159.444 214.772 159.465 214.925 159.521C215.3 159.625 215.684 159.697 216.072 159.734C216.538 159.75 217.001 159.805 217.457 159.897C217.686 159.945 217.901 160.043 218.086 160.185C218.272 160.327 218.423 160.508 218.53 160.717C218.619 160.966 218.659 161.23 218.647 161.494C218.658 162.508 218.538 163.519 218.29 164.502C218.27 164.578 218.24 164.665 218.167 164.693C218.095 164.721 218.042 164.693 217.985 164.721C217.959 164.735 217.936 164.754 217.918 164.778C217.899 164.801 217.886 164.827 217.877 164.856C217.635 165.499 217.495 166.175 217.46 166.862C217.35 167.865 217.21 168.883 217.042 169.885C216.945 170.472 216.822 171.089 216.437 171.54C216.015 172.042 215.347 172.25 214.702 172.337C213.342 172.518 211.97 172.245 210.627 171.964C210.371 171.938 210.13 171.83 209.94 171.655C209.817 171.501 209.757 171.306 209.772 171.109C209.802 170.434 210.422 169.958 210.98 169.582L211.752 169.063C211.806 169.033 211.853 168.991 211.887 168.94C211.926 168.862 211.939 168.775 211.925 168.689L211.875 167.687C212.387 167.696 212.886 167.844 213.321 168.115C213.755 168.386 214.108 168.77 214.342 169.226C214.447 169.439 214.55 169.687 214.77 169.77C214.913 169.803 215.063 169.779 215.189 169.702C215.314 169.626 215.405 169.504 215.442 169.361C215.509 169.074 215.501 168.775 215.42 168.491C214.967 166.067 215.075 163.575 214.8 161.125C214.782 160.849 214.696 160.582 214.55 160.348C214.432 160.18 214.185 160.017 214.157 159.791Z" fill="#957ECE"/>
<path d="M192.92 78.8263C192.798 78.2472 192.708 77.6454 192.39 77.149C192.173 76.8373 191.91 76.5601 191.61 76.3266C191.125 75.8744 190.558 75.5195 189.94 75.2811C189.63 75.1645 189.297 75.1235 188.969 75.1614C188.64 75.1993 188.325 75.3152 188.05 75.4993C187.523 75.9004 187.3 76.5874 187.218 77.2543C187.079 78.161 187.235 79.0883 187.663 79.8994C188.175 80.792 189.06 81.3887 189.803 82.1007C190.342 82.6223 190.811 83.2123 191.198 83.8557C191.374 84.1894 191.587 84.5022 191.833 84.7884C191.957 84.9286 192.112 85.0381 192.285 85.1081C192.459 85.1781 192.646 85.2069 192.833 85.1921C193.144 85.1094 193.427 84.9419 193.65 84.7082C193.955 84.4399 194.775 83.956 194.8 83.5373C194.82 83.1938 194.18 82.4166 194.023 82.0932C193.542 81.0461 193.172 79.9511 192.92 78.8263Z" fill="#EA9B7A"/>
<path opacity="0.1" d="M192.92 78.8263C192.798 78.2472 192.708 77.6454 192.39 77.149C192.173 76.8373 191.91 76.5601 191.61 76.3266C191.125 75.8744 190.558 75.5195 189.94 75.2811C189.63 75.1645 189.297 75.1235 188.969 75.1614C188.64 75.1993 188.325 75.3152 188.05 75.4993C187.523 75.9004 187.3 76.5874 187.218 77.2543C187.079 78.161 187.235 79.0883 187.663 79.8994C188.175 80.792 189.06 81.3887 189.803 82.1007C190.342 82.6223 190.811 83.2123 191.198 83.8557C191.374 84.1894 191.587 84.5022 191.833 84.7884C191.957 84.9286 192.112 85.0381 192.285 85.1081C192.459 85.1781 192.646 85.2069 192.833 85.1921C193.144 85.1094 193.427 84.9419 193.65 84.7082C193.955 84.4399 194.775 83.956 194.8 83.5373C194.82 83.1938 194.18 82.4166 194.023 82.0932C193.542 81.0461 193.172 79.9511 192.92 78.8263Z" fill="black"/>
<path d="M210.212 95.3312C208.894 94.9768 207.532 94.808 206.167 94.8298C203.89 94.8624 201.545 95.4165 199.375 94.7145C198.817 94.5238 198.274 94.2917 197.75 94.02C197.301 93.8272 196.89 93.5564 196.535 93.2202C195.455 92.0744 194.99 90.3469 194.655 88.8075C194.359 87.2585 194.188 85.6881 194.142 84.1115C193.58 84.3748 192.985 84.633 192.367 84.5804C191.75 84.5277 191.117 84.0514 191.117 83.4296C191.21 84.8888 191.277 86.3655 191.035 87.8046C190.94 88.3763 190.785 88.9404 190.742 89.517C190.557 91.6055 191.65 93.6915 191.26 95.7499C191.195 96.0587 191.228 96.3804 191.355 96.6693C191.482 96.9581 191.696 97.1996 191.967 97.3595C192.527 97.6629 193.185 97.7005 193.8 97.861C195.007 98.1694 196.05 98.9391 197.275 99.2274C197.837 99.3603 198.425 99.3854 198.985 99.5358C199.782 99.7489 200.51 100.208 201.325 100.351C201.935 100.461 202.575 100.386 203.182 100.438C203.72 100.484 204.245 100.624 204.785 100.639C206.105 100.672 207.35 99.9244 208.225 98.9316C209.1 97.9387 209.657 96.5272 210.212 95.3312Z" fill="#957ECE"/>
<path opacity="0.1" d="M210.212 95.3312C208.894 94.9768 207.532 94.808 206.167 94.8298C203.89 94.8624 201.545 95.4165 199.375 94.7145C198.817 94.5238 198.274 94.2917 197.75 94.02C197.301 93.8272 196.89 93.5564 196.535 93.2202C195.455 92.0744 194.99 90.3469 194.655 88.8075C194.359 87.2585 194.188 85.6881 194.142 84.1115C193.58 84.3748 192.985 84.633 192.367 84.5804C191.75 84.5277 191.117 84.0514 191.117 83.4296C191.21 84.8888 191.277 86.3655 191.035 87.8046C190.94 88.3763 190.785 88.9404 190.742 89.517C190.557 91.6055 191.65 93.6915 191.26 95.7499C191.195 96.0587 191.228 96.3804 191.355 96.6693C191.482 96.9581 191.696 97.1996 191.967 97.3595C192.527 97.6629 193.185 97.7005 193.8 97.861C195.007 98.1694 196.05 98.9391 197.275 99.2274C197.837 99.3603 198.425 99.3854 198.985 99.5358C199.782 99.7489 200.51 100.208 201.325 100.351C201.935 100.461 202.575 100.386 203.182 100.438C203.72 100.484 204.245 100.624 204.785 100.639C206.105 100.672 207.35 99.9244 208.225 98.9316C209.1 97.9387 209.657 96.5272 210.212 95.3312Z" fill="black"/>
<path d="M204.673 99.7714C205.581 100.397 206.622 100.802 207.713 100.957C208.283 101.028 208.858 101.059 209.433 101.05C211.831 101.048 214.225 100.847 216.59 100.451C215.65 99.4104 214.698 98.2972 214.34 96.9408C214.164 96.2216 214.126 95.4752 214.23 94.742C214.374 93.8051 214.598 92.8824 214.9 91.9841C213.891 92.0372 212.88 92.0112 211.875 91.9064C211.303 91.8462 209.898 91.3247 209.4 91.7208C208.903 92.117 209.285 93.3931 209.293 93.9923C209.294 94.0141 209.294 94.0358 209.293 94.0575C209.268 94.9703 209.072 95.8703 208.715 96.7101C208 98.3298 206.45 99.6636 204.673 99.7714Z" fill="#EA9B7A"/>
<path d="M187.023 119.225C187.021 119.712 187.145 120.192 187.383 120.617C187.622 121.042 187.966 121.398 188.383 121.649C188.847 121.894 189.343 122.069 189.858 122.171C192.608 122.838 195.438 123.374 198.27 123.211C198.884 123.206 199.491 123.078 200.055 122.835C200.336 122.71 200.583 122.52 200.774 122.279C200.966 122.039 201.098 121.756 201.158 121.454C201.16 121.304 201.189 121.155 201.243 121.015C201.353 120.861 201.495 120.733 201.66 120.641C201.918 120.447 202.116 120.183 202.23 119.88C202.345 119.578 202.372 119.249 202.308 118.932C202.65 119.087 203.01 118.738 203.173 118.397C203.335 118.056 203.46 117.645 203.805 117.497C204.04 117.397 204.305 117.457 204.555 117.392C204.953 117.289 205.195 116.891 205.475 116.602C206.045 115.991 206.858 115.675 207.603 115.296C209.823 114.175 211.63 112.398 213.403 110.65C214.324 109.799 215.161 108.86 215.903 107.847C216.101 107.556 216.285 107.255 216.453 106.945C216.987 105.915 217.45 104.851 217.84 103.758C218.065 103.171 218.293 102.554 218.2 101.933C218.2 101.878 218.18 101.822 218.168 101.765C218.052 101.366 217.867 100.991 217.62 100.657C217.008 99.7539 216.205 98.9015 215.15 98.6207C214.095 98.3399 213.045 98.6784 211.973 98.9065C211.618 98.9863 211.258 99.0416 210.895 99.072C209.76 99.1522 208.645 98.8463 207.54 98.543L206.345 98.212C205.748 98.0465 205.448 97.322 204.845 97.1941C204.574 97.1532 204.298 97.1677 204.033 97.2367C202.805 97.4699 201.565 97.7733 200.483 98.4001C200.241 98.5388 200.01 98.6964 199.793 98.8714C199.007 99.4597 198.442 100.296 198.188 101.246C197.938 102.291 198.173 103.409 197.923 104.455C197.718 105.317 197.2 106.07 196.695 106.797L193.75 111.026C193.094 112.017 192.37 112.962 191.585 113.854C190 115.582 187.065 116.881 187.023 119.225Z" fill="#957ECE"/>
<path d="M173.703 148.838C174.453 150.242 175.288 151.595 175.965 153.05C176.358 153.895 176.698 154.762 177.135 155.584C177.613 156.479 178.2 157.312 178.7 158.194C179.95 160.426 180.658 162.943 181.305 165.423C183.114 165.153 184.856 164.538 186.435 163.612C186.541 163.552 186.644 163.486 186.743 163.414C187.165 163.111 187.518 162.72 187.778 162.269C187.18 160.012 186.568 157.698 185.35 155.695C184.953 155.043 184.498 154.441 184.1 153.787C182.918 151.919 182.673 149.565 181.32 147.817C181.191 147.641 181.121 147.429 181.121 147.21C181.121 146.992 181.191 146.779 181.32 146.604C181.475 146.401 181.725 146.207 181.678 145.954C181.643 145.771 181.453 145.606 181.525 145.435C181.56 145.353 181.645 145.307 181.71 145.247C181.94 145.037 181.91 144.673 181.933 144.362C181.983 143.57 182.455 142.875 182.913 142.229C183.005 142.076 183.128 141.944 183.273 141.84C183.395 141.765 183.54 141.73 183.663 141.654C184.093 141.386 184.063 140.754 184.27 140.285C184.54 139.669 185.22 139.355 185.668 138.856C186.235 138.22 186.378 137.334 186.978 136.778C187.039 136.72 187.105 136.666 187.175 136.617C186.915 137.565 186.796 138.546 186.823 139.528C186.765 142.898 187.605 146.383 187.213 149.73C186.903 152.383 188.533 155.03 190.843 156.359C191.749 156.839 192.695 157.238 193.67 157.553C195.115 158.067 196.56 158.596 197.978 159.19C198.978 159.606 199.978 160.057 200.943 160.536C202.144 161.12 203.312 161.769 204.443 162.482C205.835 163.369 207.23 164.272 208.218 165.598C209.175 165.573 210.053 164.996 210.658 164.252C211.263 163.507 211.64 162.607 211.992 161.717C212.3 160.947 212.605 160.158 212.628 159.328C212.628 159.238 212.603 159.151 212.556 159.075C212.509 158.999 212.442 158.938 212.363 158.899L205.748 155.389L204.498 154.732C201.79 153.29 198.998 151.956 196.275 150.517C196.093 150.57 195.943 150.362 195.89 150.181C195.838 150.001 195.8 149.775 195.628 149.695C195.54 149.655 195.43 149.655 195.378 149.585C195.335 149.52 195.318 149.441 195.333 149.364C195.42 148.05 196.365 146.842 196.175 145.541C196.095 144.984 195.808 144.437 195.925 143.893C196.013 143.515 196.283 143.209 196.425 142.85C196.748 142.048 196.425 141.095 196.78 140.301C197.017 139.785 197.178 139.238 197.258 138.676C197.428 137.557 197.769 136.471 198.27 135.457C198.509 134.942 198.823 134.466 199.2 134.043C199.4 133.829 199.623 133.636 199.81 133.416C200.388 132.731 200.598 131.819 200.763 130.939C201.058 129.342 201.263 127.679 200.893 126.102C200.768 125.563 200.578 125.029 200.585 124.475C200.585 123.745 200.913 122.89 200.408 122.361C200.195 122.172 199.936 122.04 199.658 121.98C198.481 121.662 197.282 121.44 196.07 121.316L190.555 120.596C189.918 120.554 189.294 120.392 188.718 120.118C187.968 119.704 187.468 118.934 187.168 118.132C186.198 118.841 185.833 120.163 185.06 121.08C184.683 121.529 184.218 121.89 183.81 122.301C183.304 122.834 182.84 123.407 182.425 124.014C181.273 125.601 180.113 127.2 179.288 128.978C178.86 129.903 178.538 130.868 178.183 131.826C176.835 135.605 174.638 139.19 173.725 143.094C173.5 144.049 172.918 144.909 172.83 145.887C172.728 146.922 173.205 147.925 173.703 148.838Z" fill="#1F1F1F"/>
<path opacity="0.1" d="M179.305 145.225L186.75 163.414C187.173 163.111 187.526 162.72 187.785 162.268C187.187 160.012 186.575 157.698 185.357 155.695C184.96 155.043 184.505 154.441 184.107 153.787C182.925 151.919 182.68 149.564 181.327 147.817C181.198 147.641 181.129 147.429 181.129 147.21C181.129 146.992 181.198 146.779 181.327 146.603C181.482 146.4 181.732 146.207 181.685 145.954C181.65 145.771 181.46 145.606 181.532 145.435C181.567 145.352 181.652 145.307 181.717 145.247C181.947 145.036 181.917 144.673 181.94 144.362C181.99 143.57 182.462 142.875 182.92 142.228C183.013 142.076 183.135 141.944 183.28 141.84C183.402 141.765 183.547 141.729 183.67 141.654C184.1 141.386 184.07 140.754 184.277 140.285C184.547 139.669 185.227 139.355 185.675 138.856C186.242 138.219 186.385 137.334 186.985 136.778L187.037 136.647L186.475 133.137L179.305 145.225Z" fill="black"/>
<path opacity="0.1" d="M200.08 119.328C200.256 119.479 200.388 119.674 200.462 119.894C200.602 120.204 200.629 120.553 200.537 120.88C200.415 120.822 200.372 120.672 200.335 120.539C200.278 120.333 200.194 120.137 200.085 119.954C199.985 119.797 199.527 119.42 199.532 119.247C199.525 118.987 199.957 119.235 200.08 119.328Z" fill="black"/>
<path opacity="0.1" d="M202.633 117.472C202.767 117.724 202.836 118.005 202.835 118.29C202.713 117.678 201.873 117.339 201.82 116.735C201.795 116.457 201.845 116.47 202.018 116.617C202.28 116.836 202.393 117.232 202.633 117.472Z" fill="black"/>
<path opacity="0.1" d="M199.785 98.8714C200.173 99.2044 200.599 99.4889 201.055 99.7188C202.25 100.326 203.573 100.644 204.775 101.223C205.368 101.525 205.944 101.86 206.5 102.226C207.693 102.978 208.883 103.73 210.073 104.495C210.359 104.661 210.624 104.862 210.86 105.094C211.29 105.556 211.288 106.348 211.68 106.849C211.897 107.097 212.163 107.297 212.461 107.435C212.76 107.573 213.084 107.647 213.413 107.652C214.071 107.657 214.725 107.547 215.345 107.326C215.721 107.214 216.09 107.079 216.45 106.922C216.826 106.763 217.182 106.559 217.51 106.315C217.838 106.084 218.117 105.79 218.331 105.451C218.546 105.112 218.692 104.733 218.76 104.337C218.803 103.79 218.731 103.24 218.548 102.722C218.448 102.386 218.321 102.058 218.168 101.742C218.079 101.563 217.978 101.391 217.863 101.228C217.043 100.062 215.598 99.5132 214.2 99.24C213.463 99.097 212.713 99.0093 211.973 98.8839C211.618 98.9637 211.258 99.019 210.895 99.0494C209.76 99.1296 208.645 98.8238 207.54 98.5204L206.345 98.1894C205.748 98.024 205.448 97.2994 204.845 97.1715C204.574 97.1306 204.298 97.1451 204.033 97.2141C202.805 97.4473 201.565 97.7507 200.483 98.3775C200.237 98.5231 200.004 98.6883 199.785 98.8714Z" fill="black"/>
<path opacity="0.1" d="M209.295 93.9798C210.016 94.4525 210.83 94.7643 211.682 94.8941C212.534 95.0239 213.404 94.9686 214.232 94.732C214.377 93.7951 214.601 92.8724 214.902 91.9741C213.894 92.0271 212.882 92.0012 211.877 91.8963C211.305 91.8362 209.9 91.3147 209.402 91.7108C208.905 92.1069 209.287 93.3806 209.295 93.9798Z" fill="black"/>
<path d="M212.595 94.6844C215.924 94.6844 218.622 91.978 218.622 88.6396C218.622 85.3011 215.924 82.5947 212.595 82.5947C209.266 82.5947 206.568 85.3011 206.568 88.6396C206.568 91.978 209.266 94.6844 212.595 94.6844Z" fill="#EA9B7A"/>
<path d="M183.7 82.5846H189.195C190.666 82.5846 191.858 81.3891 191.858 79.9144V79.9119C191.858 78.4372 190.666 77.2417 189.195 77.2417H183.7C182.23 77.2417 181.038 78.4372 181.038 79.9119V79.9144C181.038 81.3891 182.23 82.5846 183.7 82.5846Z" fill="#957ECE"/>
<path d="M186.53 81.5818C187.45 81.5818 188.195 80.8342 188.195 79.912C188.195 78.9898 187.45 78.2422 186.53 78.2422C185.61 78.2422 184.865 78.9898 184.865 79.912C184.865 80.8342 185.61 81.5818 186.53 81.5818Z" fill="white"/>
<path d="M194.882 78.8263C194.76 78.2472 194.67 77.6454 194.352 77.149C194.135 76.8373 193.872 76.5601 193.572 76.3266C193.087 75.8744 192.52 75.5195 191.902 75.2811C191.593 75.1645 191.26 75.1235 190.931 75.1614C190.602 75.1993 190.288 75.3152 190.012 75.4993C189.485 75.9004 189.262 76.5874 189.18 77.2543C189.042 78.161 189.198 79.0883 189.625 79.8994C190.125 80.792 191.022 81.3887 191.765 82.1007C192.304 82.6223 192.773 83.2123 193.16 83.8557C193.336 84.1894 193.549 84.5022 193.795 84.7884C193.919 84.9286 194.074 85.0381 194.248 85.1081C194.421 85.1781 194.608 85.2069 194.795 85.1921C195.107 85.1094 195.39 84.9419 195.612 84.7082C195.917 84.4399 196.737 83.956 196.762 83.5373C196.782 83.1938 196.142 82.4166 195.985 82.0932C195.504 81.0461 195.134 79.9511 194.882 78.8263Z" fill="#EA9B7A"/>
<path d="M196.872 82.8279C197.025 84.2896 198.255 85.3627 199.005 86.6238C199.37 87.238 199.625 87.91 199.952 88.5443C200.327 89.2385 200.744 89.9084 201.202 90.5501L202.54 92.4982C203.327 93.6439 204.122 94.7998 205.127 95.7575C206.877 96.0559 208.352 97.3621 210.015 97.9964C211.347 98.4979 212.797 98.5731 214.195 98.8464C215.592 99.1197 217.037 99.6662 217.857 100.835C218.164 101.296 218.395 101.804 218.542 102.339C218.726 102.855 218.798 103.405 218.755 103.951C218.687 104.347 218.541 104.726 218.327 105.066C218.112 105.406 217.833 105.7 217.505 105.932C216.847 106.389 216.116 106.728 215.342 106.935C214.722 107.155 214.068 107.265 213.41 107.261C213.081 107.255 212.757 107.182 212.458 107.043C212.159 106.905 211.892 106.706 211.675 106.458C211.285 105.957 211.287 105.157 210.857 104.703C210.621 104.471 210.357 104.27 210.07 104.104L206.497 101.847C205.941 101.482 205.365 101.147 204.772 100.845C203.57 100.255 202.247 99.937 201.052 99.3403C199.857 98.7436 198.745 97.7332 198.51 96.4119C197.782 92.3527 194.98 88.9304 192.585 85.5783C192.662 85.5632 192.64 85.3827 192.667 85.3075C193.014 84.5207 193.637 83.8891 194.417 83.5324C195.187 83.1137 196.042 83.0059 196.872 82.8279Z" fill="#957ECE"/>
<path d="M209.5 82.8578C209.455 82.4178 209.542 81.9743 209.75 81.5842C210.148 80.9223 210.978 80.6891 211.733 80.5336C212.488 80.3782 213.183 80.2579 213.913 80.1526C214.506 80.0328 215.117 80.0218 215.715 80.12C216.53 80.3005 217.215 80.8496 217.965 81.188C218.865 81.5917 219.865 81.6895 220.825 81.9201C221.785 82.1508 222.773 82.5194 223.375 83.3041C223.833 83.8983 224.015 84.658 224.153 85.3976C225.295 91.5729 224.065 97.906 223.833 104.182C223.74 106.624 223.85 109.234 225.243 111.242L221.19 111.134C220.153 111.106 219.038 111.051 218.223 110.409C217.503 109.845 217.163 108.935 216.858 108.075C216.581 107.407 216.406 106.702 216.338 105.982C216.275 104.508 217.11 103.061 216.838 101.609C216.635 100.526 215.838 99.6485 215.008 98.939C214.178 98.2295 213.233 97.6102 212.55 96.7452C211.338 95.2033 211.105 93.0997 211.255 91.1416C211.345 89.9783 211.555 88.8124 211.453 87.6491C211.401 86.759 211.081 85.9055 210.535 85.2021C209.898 84.4298 209.56 83.9485 209.5 82.8578Z" fill="#1F1F1F"/>
<path opacity="0.1" d="M209.75 81.5842C210.14 80.9323 210.95 80.6966 211.693 80.5437C211.299 80.6826 210.961 80.9467 210.73 81.2959C210.524 81.6874 210.437 82.1312 210.48 82.572C210.535 83.6627 210.873 84.144 211.518 84.9163C212.066 85.6187 212.387 86.4726 212.438 87.3633C212.538 88.5266 212.33 89.69 212.24 90.8558C212.088 92.8114 212.32 94.9175 213.535 96.4594C214.215 97.3244 215.153 97.9411 215.993 98.6532C216.833 99.3652 217.62 100.24 217.823 101.323C218.093 102.773 217.258 104.222 217.323 105.696C217.389 106.415 217.563 107.12 217.84 107.787C218.148 108.649 218.488 109.559 219.205 110.124C220.02 110.765 221.138 110.821 222.175 110.848L225.045 110.923C225.108 111.029 225.175 111.134 225.245 111.237L221.193 111.129C220.155 111.101 219.04 111.046 218.225 110.404C217.505 109.84 217.165 108.93 216.86 108.07C216.584 107.402 216.409 106.697 216.34 105.977C216.278 104.502 217.113 103.056 216.84 101.604C216.638 100.521 215.84 99.6435 215.01 98.934C214.18 98.2245 213.235 97.6052 212.553 96.7402C211.34 95.1983 211.108 93.0947 211.258 91.1366C211.348 89.9733 211.558 88.8074 211.455 87.6441C211.404 86.754 211.084 85.9005 210.538 85.1971C209.893 84.4248 209.555 83.9435 209.498 82.8528C209.455 82.4142 209.542 81.9726 209.75 81.5842Z" fill="black"/>
<g opacity="0.5">
<path opacity="0.5" d="M90.98 69.7278H76.1625C74.692 69.7278 73.5 70.9233 73.5 72.398V72.4005C73.5 73.8752 74.692 75.0706 76.1625 75.0706H90.98C92.4505 75.0706 93.6425 73.8752 93.6425 72.4005V72.398C93.6425 70.9233 92.4505 69.7278 90.98 69.7278Z" fill="#957ECE"/>
<path opacity="0.5" d="M112.587 77.2419H76.1625C74.692 77.2419 73.5 78.4374 73.5 79.9121V79.9146C73.5 81.3893 74.692 82.5848 76.1625 82.5848H112.587C114.058 82.5848 115.25 81.3893 115.25 79.9146V79.9121C115.25 78.4374 114.058 77.2419 112.587 77.2419Z" fill="#957ECE"/>
<path opacity="0.5" d="M126.77 84.7534H76.1625C74.692 84.7534 73.5 85.9489 73.5 87.4236V87.4261C73.5 88.9008 74.692 90.0963 76.1625 90.0963H126.77C128.24 90.0963 129.432 88.9008 129.432 87.4261V87.4236C129.432 85.9489 128.24 84.7534 126.77 84.7534Z" fill="#957ECE"/>
</g>
<path opacity="0.7" d="M65 65.1847H228" stroke="#1F1F1F" stroke-miterlimit="10" stroke-linecap="round"/>
<path d="M126.77 55.0381H76.1625C74.692 55.0381 73.5 56.2336 73.5 57.7083V57.7108C73.5 59.1855 74.692 60.3809 76.1625 60.3809H126.77C128.24 60.3809 129.432 59.1855 129.432 57.7108V57.7083C129.432 56.2336 128.24 55.0381 126.77 55.0381Z" fill="#957ECE"/>
<path d="M208.005 45.6887H182.538C180.055 45.6887 178.043 47.707 178.043 50.1967C178.043 52.6864 180.055 54.7046 182.538 54.7046H208.005C210.488 54.7046 212.5 52.6864 212.5 50.1967C212.5 47.707 210.488 45.6887 208.005 45.6887Z" fill="#1F1F1F"/>
<path opacity="0.1" d="M207.26 47.1956H183.28C181.627 47.1956 180.287 48.5386 180.287 50.1954C180.287 51.8522 181.627 53.1953 183.28 53.1953H207.26C208.913 53.1953 210.252 51.8522 210.252 50.1954C210.252 48.5386 208.913 47.1956 207.26 47.1956Z" fill="black"/>
<path d="M206.84 47.5239H201.345C199.875 47.5239 198.682 48.7194 198.682 50.1941V50.1966C198.682 51.6713 199.875 52.8668 201.345 52.8668H206.84C208.31 52.8668 209.502 51.6713 209.502 50.1966V50.1941C209.502 48.7194 208.31 47.5239 206.84 47.5239Z" fill="#957ECE"/>
<path d="M204.01 51.8665C204.93 51.8665 205.675 51.1189 205.675 50.1967C205.675 49.2745 204.93 48.5269 204.01 48.5269C203.09 48.5269 202.345 49.2745 202.345 50.1967C202.345 51.1189 203.09 51.8665 204.01 51.8665Z" fill="white"/>
<path d="M126.77 47.5239H76.1625C74.692 47.5239 73.5 48.7194 73.5 50.1941V50.1966C73.5 51.6713 74.692 52.8668 76.1625 52.8668H126.77C128.24 52.8668 129.432 51.6713 129.432 50.1966V50.1941C129.432 48.7194 128.24 47.5239 126.77 47.5239Z" fill="#957ECE"/>
<path d="M90.98 40.0125H76.1625C74.692 40.0125 73.5 41.2079 73.5 42.6826V42.6851C73.5 44.1598 74.692 45.3553 76.1625 45.3553H90.98C92.4505 45.3553 93.6425 44.1598 93.6425 42.6851V42.6826C93.6425 41.2079 92.4505 40.0125 90.98 40.0125Z" fill="#957ECE"/>
<path opacity="0.1" d="M286 104.126C286.015 112.424 283.756 120.567 279.47 127.664C279.47 136.344 275.435 144.212 268.89 149.946C267.252 151.379 265.488 152.661 263.62 153.777C263.545 153.824 263.467 153.869 263.39 153.914C263.25 153.997 263.11 154.08 262.967 154.165L262.835 154.243C256.638 157.705 249.653 159.501 242.56 159.458H54.2925C52.7925 159.458 51.3058 159.398 49.8325 159.277C44.5966 158.864 39.4516 157.669 34.5675 155.732C33.6141 155.354 32.6791 154.948 31.7625 154.514C31.3258 154.308 30.8933 154.097 30.465 153.879C30.1975 153.744 29.93 153.604 29.665 153.463C26.585 151.835 23.6955 149.868 21.05 147.599C12.55 140.27 7.27997 130.146 7.27997 118.964C2.51183 111.601 -0.0175908 103.005 -3.12626e-05 94.2255C-3.12626e-05 69.3691 19.81 49.2188 44.25 49.2188C45 49.2188 45.75 49.2413 46.5 49.2815C46.6075 49.2815 46.7125 49.2815 46.82 49.2965C50.94 42.2538 56.4475 35.7827 63.07 30.0863C81.13 14.5668 107.525 4.78369 136.927 4.78369C161.632 4.78369 184.215 11.691 201.512 23.1038C208.067 19.3878 215.471 17.4399 223 17.4501C247.435 17.4501 267.25 37.6004 267.25 62.4568C267.246 64.0295 267.163 65.6011 267 67.1653C272.89 71.3468 277.691 76.8877 280.998 83.3204C284.305 89.7532 286.02 96.8892 286 104.126Z" fill="#957ECE"/>
<g opacity="0.2">
<path opacity="0.2" d="M34.5924 155.394C34.5924 155.509 34.5799 155.622 34.5674 155.732C33.6141 155.354 32.6791 154.948 31.7624 154.514C31.2727 154.449 30.8173 154.226 30.4649 153.879C30.1974 153.744 29.9299 153.603 29.6649 153.463C29.7249 153.337 29.7925 153.215 29.8674 153.097C30.3824 152.28 31.1649 151.768 32.0274 151.796C32.8899 151.823 33.6374 152.382 34.0999 153.227C34.4536 153.893 34.6237 154.64 34.5924 155.394Z" fill="#1F1F1F"/>
<path opacity="0.2" d="M34.7274 151.101C34.7104 151.853 34.4938 152.587 34.0999 153.227C33.5849 154.042 32.8024 154.554 31.9399 154.526L31.7624 154.514C31.2727 154.449 30.8173 154.226 30.4649 153.879C30.2259 153.652 30.0243 153.388 29.8674 153.097C29.5224 152.43 29.3537 151.685 29.3773 150.933C29.4009 150.182 29.6161 149.449 30.0024 148.805C30.5174 147.987 31.2999 147.476 32.1624 147.504C33.0249 147.531 33.7724 148.09 34.2349 148.935C34.5886 149.6 34.7587 150.348 34.7274 151.101Z" fill="#1F1F1F"/>
<path opacity="0.2" d="M34.8632 146.817C34.9243 144.878 33.7768 143.268 32.3002 143.221C30.8236 143.174 29.577 144.708 29.5159 146.647C29.4548 148.586 30.6023 150.196 32.0789 150.243C33.5556 150.289 34.8021 148.756 34.8632 146.817Z" fill="#1F1F1F"/>
<path opacity="0.2" d="M34.9971 142.524C35.0582 140.585 33.9107 138.975 32.4341 138.929C30.9575 138.882 29.7109 140.416 29.6498 142.355C29.5887 144.294 30.7362 145.903 32.2129 145.95C33.6895 145.997 34.936 144.463 34.9971 142.524Z" fill="#1F1F1F"/>
<path opacity="0.2" d="M35.1536 137.948C35.2116 136.008 34.061 134.4 32.5836 134.355C31.1063 134.311 29.8616 135.848 29.8036 137.787C29.7455 139.727 30.8961 141.336 32.3735 141.381C33.8508 141.425 35.0955 139.888 35.1536 137.948Z" fill="#1F1F1F"/>
<path opacity="0.2" d="M23.3674 108.449C23.0154 107.971 22.6979 107.468 22.4174 106.945L29.4824 106.009L21.8774 105.826C21.1988 104.212 20.8556 102.476 20.8689 100.724C20.8823 98.9717 21.2518 97.2409 21.9549 95.6371L31.9849 101.266L22.7974 94.0324C23.7243 92.5291 24.9502 91.2335 26.3988 90.2267C27.8473 89.2199 29.4872 88.5233 31.2162 88.1807C32.9452 87.838 34.7261 87.8566 36.4476 88.2352C38.1691 88.6138 39.7943 89.3443 41.2217 90.3811C42.649 91.4179 43.8479 92.7387 44.7434 94.261C45.6389 95.7834 46.2118 97.4745 46.4263 99.2289C46.6408 100.983 46.4923 102.763 45.9901 104.457C45.4879 106.152 44.6427 107.724 43.5074 109.076C44.0545 109.82 44.5197 110.621 44.895 111.465L35.6224 115.93L45.455 112.964C46.0742 115.013 46.1739 117.185 45.7453 119.282C45.3166 121.38 44.373 123.337 42.9999 124.976C44.4275 126.919 45.2811 129.225 45.4633 131.631C45.6455 134.037 45.1488 136.446 44.0301 138.582C42.9114 140.719 41.2158 142.496 39.1373 143.711C37.0587 144.927 34.681 145.531 32.2761 145.455C29.8712 145.379 27.5362 144.626 25.5381 143.281C23.54 141.937 21.9594 140.056 20.9771 137.853C19.9949 135.651 19.6505 133.215 19.9835 130.825C20.3164 128.435 21.3132 126.188 22.8599 124.339C21.1545 122.018 20.2765 119.189 20.3672 116.307C20.4579 113.425 21.5119 110.658 23.3599 108.449H23.3674Z" fill="#957ECE"/>
<path opacity="0.1" d="M46 117.119C45.9113 120.002 44.8542 122.771 42.9999 124.976C44.4275 126.919 45.2811 129.225 45.4633 131.631C45.6455 134.037 45.1488 136.446 44.0301 138.582C42.9114 140.718 41.2158 142.496 39.1373 143.711C37.0587 144.927 34.681 145.531 32.2761 145.455C29.8712 145.379 27.5362 144.626 25.5381 143.281C23.54 141.937 21.9594 140.056 20.9771 137.853C19.9949 135.65 19.6505 133.215 19.9835 130.825C20.3164 128.435 21.3132 126.188 22.8599 124.339C21.2174 122.1 46.045 115.674 46 117.119Z" fill="black"/>
</g>
<path opacity="0.1" d="M17.63 40.8197C20.6165 40.8197 23.0375 38.3917 23.0375 35.3966C23.0375 32.4015 20.6165 29.9735 17.63 29.9735C14.6436 29.9735 12.2225 32.4015 12.2225 35.3966C12.2225 38.3917 14.6436 40.8197 17.63 40.8197Z" fill="#957ECE"/>
<path opacity="0.1" d="M40.1675 10.8461C43.154 10.8461 45.575 8.41815 45.575 5.42307C45.575 2.42799 43.154 0 40.1675 0C37.181 0 34.76 2.42799 34.76 5.42307C34.76 8.41815 37.181 10.8461 40.1675 10.8461Z" fill="#957ECE"/>
<path opacity="0.1" d="M38.3351 35.1033C43.3402 35.1033 47.3976 31.0342 47.3976 26.0147C47.3976 20.9953 43.3402 16.9261 38.3351 16.9261C33.33 16.9261 29.2726 20.9953 29.2726 26.0147C29.2726 31.0342 33.33 35.1033 38.3351 35.1033Z" fill="#957ECE"/>
<path d="M244.263 166.949C248.95 166.949 252.75 166.216 252.75 165.312C252.75 164.408 248.95 163.675 244.263 163.675C239.575 163.675 235.775 164.408 235.775 165.312C235.775 166.216 239.575 166.949 244.263 166.949Z" fill="#957ECE"/>
<path d="M244.405 165.911C244.95 165.911 245.392 165.331 245.392 164.615C245.392 163.899 244.95 163.319 244.405 163.319C243.86 163.319 243.417 163.899 243.417 164.615C243.417 165.331 243.86 165.911 244.405 165.911Z" fill="#1F1F1F"/>
<path d="M244.405 164.327C244.95 164.327 245.392 163.746 245.392 163.031C245.392 162.315 244.95 161.734 244.405 161.734C243.86 161.734 243.417 162.315 243.417 163.031C243.417 163.746 243.86 164.327 244.405 164.327Z" fill="#1F1F1F"/>
<path d="M244.405 162.74C244.95 162.74 245.392 162.159 245.392 161.444C245.392 160.728 244.95 160.147 244.405 160.147C243.86 160.147 243.417 160.728 243.417 161.444C243.417 162.159 243.86 162.74 244.405 162.74Z" fill="#1F1F1F"/>
<path d="M244.405 161.155C244.95 161.155 245.392 160.575 245.392 159.859C245.392 159.143 244.95 158.563 244.405 158.563C243.86 158.563 243.417 159.143 243.417 159.859C243.417 160.575 243.86 161.155 244.405 161.155Z" fill="#1F1F1F"/>
<path d="M244.405 159.568C244.95 159.568 245.392 158.988 245.392 158.272C245.392 157.556 244.95 156.976 244.405 156.976C243.86 156.976 243.417 157.556 243.417 158.272C243.417 158.988 243.86 159.568 244.405 159.568Z" fill="#1F1F1F"/>
<path d="M244.405 157.984C244.95 157.984 245.392 157.403 245.392 156.687C245.392 155.972 244.95 155.391 244.405 155.391C243.86 155.391 243.417 155.972 243.417 156.687C243.417 157.403 243.86 157.984 244.405 157.984Z" fill="#1F1F1F"/>
<path d="M244.405 156.399C244.95 156.399 245.392 155.819 245.392 155.103C245.392 154.387 244.95 153.807 244.405 153.807C243.86 153.807 243.417 154.387 243.417 155.103C243.417 155.819 243.86 156.399 244.405 156.399Z" fill="#1F1F1F"/>
<path d="M240.705 144.252C240.57 144.079 240.447 143.897 240.337 143.708L242.932 143.279L240.125 143.302C239.856 142.714 239.71 142.077 239.694 141.43C239.679 140.784 239.795 140.141 240.035 139.541L243.802 141.499L240.327 138.939C240.652 138.372 241.089 137.878 241.612 137.488C242.135 137.099 242.733 136.822 243.368 136.674C244.003 136.527 244.661 136.513 245.302 136.632C245.943 136.752 246.552 137.003 247.092 137.37C247.631 137.736 248.089 138.211 248.438 138.763C248.786 139.316 249.017 139.934 249.116 140.58C249.214 141.226 249.179 141.886 249.012 142.518C248.845 143.149 248.55 143.74 248.145 144.252C248.356 144.519 248.538 144.809 248.685 145.117L245.315 146.872L248.91 145.663C249.075 146.154 249.159 146.668 249.16 147.185C249.161 148.251 248.804 149.285 248.145 150.121C248.694 150.821 249.035 151.662 249.13 152.548C249.225 153.433 249.07 154.328 248.682 155.129C248.294 155.93 247.689 156.605 246.936 157.078C246.183 157.551 245.313 157.801 244.425 157.801C243.537 157.801 242.667 157.551 241.914 157.078C241.161 156.605 240.556 155.93 240.168 155.129C239.78 154.328 239.625 153.433 239.72 152.548C239.814 151.662 240.156 150.821 240.705 150.121C240.049 149.284 239.692 148.251 239.692 147.186C239.692 146.122 240.049 145.089 240.705 144.252Z" fill="#957ECE"/>
<path opacity="0.1" d="M249.16 147.185C249.161 148.251 248.804 149.285 248.145 150.121C248.694 150.821 249.035 151.662 249.13 152.548C249.225 153.433 249.07 154.328 248.682 155.129C248.294 155.93 247.689 156.605 246.936 157.078C246.183 157.551 245.313 157.801 244.425 157.801C243.537 157.801 242.667 157.551 241.914 157.078C241.161 156.605 240.556 155.93 240.168 155.129C239.78 154.328 239.625 153.433 239.72 152.548C239.814 151.662 240.156 150.821 240.705 150.121C240.07 149.314 249.16 146.654 249.16 147.185Z" fill="black"/>
<path d="M260.792 148.231C263.945 148.231 266.5 147.738 266.5 147.13C266.5 146.522 263.945 146.029 260.792 146.029C257.64 146.029 255.085 146.522 255.085 147.13C255.085 147.738 257.64 148.231 260.792 148.231Z" fill="#957ECE"/>
<path d="M260.89 147.536C261.257 147.536 261.555 147.146 261.555 146.664C261.555 146.182 261.257 145.791 260.89 145.791C260.523 145.791 260.225 146.182 260.225 146.664C260.225 147.146 260.523 147.536 260.89 147.536Z" fill="#1F1F1F"/>
<path d="M260.89 146.471C261.257 146.471 261.555 146.08 261.555 145.598C261.555 145.116 261.257 144.726 260.89 144.726C260.523 144.726 260.225 145.116 260.225 145.598C260.225 146.08 260.523 146.471 260.89 146.471Z" fill="#1F1F1F"/>
<path d="M260.89 145.402C261.257 145.402 261.555 145.012 261.555 144.53C261.555 144.048 261.257 143.657 260.89 143.657C260.523 143.657 260.225 144.048 260.225 144.53C260.225 145.012 260.523 145.402 260.89 145.402Z" fill="#1F1F1F"/>
<path d="M260.89 144.337C261.257 144.337 261.555 143.946 261.555 143.464C261.555 142.983 261.257 142.592 260.89 142.592C260.523 142.592 260.225 142.983 260.225 143.464C260.225 143.946 260.523 144.337 260.89 144.337Z" fill="#1F1F1F"/>
<path d="M260.89 143.271C261.257 143.271 261.555 142.881 261.555 142.399C261.555 141.917 261.257 141.526 260.89 141.526C260.523 141.526 260.225 141.917 260.225 142.399C260.225 142.881 260.523 143.271 260.89 143.271Z" fill="#1F1F1F"/>
<path d="M260.89 142.206C261.257 142.206 261.555 141.815 261.555 141.333C261.555 140.851 261.257 140.461 260.89 140.461C260.523 140.461 260.225 140.851 260.225 141.333C260.225 141.815 260.523 142.206 260.89 142.206Z" fill="#1F1F1F"/>
<path d="M260.89 141.138C261.257 141.138 261.555 140.747 261.555 140.265C261.555 139.783 261.257 139.393 260.89 139.393C260.523 139.393 260.225 139.783 260.225 140.265C260.225 140.747 260.523 141.138 260.89 141.138Z" fill="#1F1F1F"/>
<path d="M258.403 132.972C258.31 132.857 258.226 132.734 258.153 132.606L259.903 132.317L258.015 132.332C257.822 131.915 257.722 131.459 257.723 130.999C257.722 130.589 257.8 130.183 257.953 129.803L260.488 131.121L258.15 129.399C258.367 129.016 258.661 128.682 259.012 128.418C259.364 128.154 259.767 127.966 260.195 127.866C260.623 127.766 261.067 127.756 261.499 127.836C261.931 127.916 262.341 128.086 262.705 128.333C263.069 128.581 263.377 128.901 263.611 129.274C263.845 129.647 264 130.064 264.065 130.5C264.131 130.936 264.105 131.38 263.991 131.806C263.876 132.231 263.675 132.628 263.4 132.972C263.542 133.152 263.663 133.347 263.763 133.553L261.498 134.734L263.913 133.92C264.084 134.424 264.126 134.964 264.037 135.489C263.947 136.014 263.728 136.509 263.4 136.928C263.771 137.399 264.002 137.965 264.066 138.561C264.131 139.158 264.027 139.76 263.766 140.3C263.505 140.84 263.098 141.295 262.591 141.614C262.084 141.932 261.498 142.101 260.9 142.101C260.302 142.101 259.716 141.932 259.209 141.614C258.702 141.295 258.295 140.84 258.034 140.3C257.773 139.76 257.669 139.158 257.734 138.561C257.799 137.965 258.029 137.399 258.4 136.928C257.958 136.366 257.718 135.671 257.718 134.955C257.718 134.239 257.958 133.544 258.4 132.982L258.403 132.972Z" fill="#957ECE"/>
<path opacity="0.1" d="M264.085 134.945C264.086 135.661 263.846 136.356 263.405 136.918C263.776 137.389 264.007 137.955 264.071 138.552C264.136 139.148 264.032 139.75 263.771 140.29C263.51 140.83 263.103 141.285 262.596 141.604C262.089 141.922 261.503 142.091 260.905 142.091C260.307 142.091 259.721 141.922 259.214 141.604C258.707 141.285 258.3 140.83 258.039 140.29C257.778 139.75 257.674 139.148 257.739 138.552C257.803 137.955 258.034 137.389 258.405 136.918C257.975 136.374 264.085 134.587 264.085 134.945Z" fill="black"/>
<defs>
<linearGradient id="paint0_linear_5_0" x1="198.992" y1="174.045" x2="198.992" y2="74.8449" gradientUnits="userSpaceOnUse">
<stop stop-color="#808080" stop-opacity="0.25"/>
<stop offset="0.54" stop-color="#808080" stop-opacity="0.12"/>
<stop offset="1" stop-color="#808080" stop-opacity="0.1"/>
</linearGradient>
</defs>
</svg>
