<svg width="414" height="430" viewBox="0 0 414 430" fill="none" xmlns="http://www.w3.org/2000/svg">
<path d="M422.182 361.702L428.15 266.716C428.674 258.362 427.482 249.99 424.646 242.114C421.81 234.239 417.391 227.029 411.66 220.928C405.93 214.826 399.011 209.964 391.329 206.64C383.646 203.316 375.365 201.602 366.995 201.602C351.344 201.604 336.287 207.596 324.913 218.347C313.539 229.099 306.71 243.795 305.828 259.421L299.602 370.36H412.961C415.31 370.359 417.571 369.463 419.284 367.855C420.997 366.247 422.033 364.047 422.182 361.702Z" fill="#474881"/>
<path opacity="0.1" d="M422.394 358.284L428.15 266.74C428.674 258.386 427.482 250.013 424.646 242.138C421.81 234.263 417.391 227.052 411.66 220.951C405.93 214.85 399.011 209.988 391.329 206.664C383.646 203.34 375.365 201.626 366.995 201.626C351.344 201.628 336.287 207.619 324.913 218.371C313.539 229.122 306.71 243.819 305.828 259.445L299.602 370.36H409.542C412.816 370.349 415.963 369.097 418.348 366.855C420.734 364.614 422.179 361.55 422.394 358.284Z" fill="black"/>
<path d="M403.786 370.36L410.294 266.716C410.817 258.363 409.623 249.991 406.786 242.116C403.95 234.242 399.53 227.032 393.8 220.931C388.07 214.83 381.151 209.968 373.47 206.644C365.789 203.319 357.508 201.604 349.139 201.602C333.487 201.602 318.428 207.592 307.053 218.344C295.679 229.096 288.851 243.794 287.972 259.421L281.711 370.36H403.786Z" fill="#474881"/>
<path d="M405.736 388.204H407.298C407.719 388.181 408.118 388.009 408.424 387.718C408.73 387.428 408.922 387.037 408.966 386.618L411.315 370.372H401.8L404.15 386.618C404.193 387.024 404.374 387.402 404.663 387.691C404.951 387.979 405.33 388.16 405.736 388.204Z" fill="#474881"/>
<path opacity="0.7" d="M405.736 388.204H407.298C407.719 388.181 408.118 388.009 408.424 387.718C408.73 387.428 408.922 387.037 408.966 386.618L411.315 370.372H401.8L404.15 386.618C404.193 387.024 404.374 387.402 404.663 387.691C404.951 387.979 405.33 388.16 405.736 388.204Z" fill="white"/>
<path d="M252.262 388.204H253.671C254.071 388.163 254.443 387.98 254.721 387.69C254.998 387.399 255.164 387.019 255.187 386.618L257.313 370.372H248.667L250.77 386.618C250.792 387.016 250.954 387.393 251.227 387.683C251.499 387.973 251.866 388.157 252.262 388.204Z" fill="#474881"/>
<path opacity="0.5" d="M252.262 388.204H253.671C254.071 388.163 254.443 387.98 254.721 387.69C254.998 387.399 255.164 387.019 255.187 386.618L257.313 370.372H248.667L250.77 386.618C250.792 387.016 250.954 387.393 251.227 387.683C251.499 387.973 251.866 388.157 252.262 388.204Z" fill="white"/>
<path d="M296.441 388.204H297.863C298.262 388.163 298.635 387.98 298.912 387.69C299.19 387.399 299.355 387.019 299.378 386.618L301.469 370.372H292.835L294.902 386.618C294.926 387.023 295.095 387.406 295.377 387.697C295.66 387.988 296.037 388.168 296.441 388.204Z" fill="#474881"/>
<path opacity="0.7" d="M296.441 388.204H297.863C298.262 388.163 298.635 387.98 298.912 387.69C299.19 387.399 299.355 387.019 299.378 386.618L301.469 370.372H292.835L294.902 386.618C294.926 387.023 295.095 387.406 295.377 387.697C295.66 387.988 296.037 388.168 296.441 388.204Z" fill="white"/>
<path d="M358.161 388.204H359.723C360.145 388.179 360.544 388.007 360.852 387.716C361.159 387.426 361.354 387.038 361.403 386.618L363.752 370.372H354.226L356.575 386.618C356.616 387.024 356.797 387.404 357.085 387.693C357.374 387.982 357.754 388.163 358.161 388.204Z" fill="#474881"/>
<path opacity="0.5" d="M358.161 388.204H359.723C360.145 388.179 360.544 388.007 360.852 387.716C361.159 387.426 361.354 387.038 361.403 386.618L363.752 370.372H354.226L356.575 386.618C356.616 387.024 356.797 387.404 357.085 387.693C357.374 387.982 357.754 388.163 358.161 388.204Z" fill="white"/>
<path d="M306.438 331.266H264.665L261.905 290.997L261.306 282.352L261.036 278.369C260.96 277.324 260.823 276.285 260.625 275.256C260.625 275.033 260.531 274.787 260.484 274.563C260.459 274.395 260.415 274.229 260.354 274.07C259.229 269.966 257.036 266.233 253.999 263.251C250.495 259.79 245.863 257.705 240.948 257.377H280.242C280.665 257.377 281.1 257.377 281.534 257.377C286.861 257.401 291.968 259.509 295.76 263.251C298.8 266.232 300.997 269.965 302.127 274.07C302.188 274.229 302.231 274.395 302.256 274.563C302.532 275.817 302.716 277.089 302.808 278.369L303.078 282.352L306.438 331.266Z" fill="#474881"/>
<path opacity="0.1" d="M306.438 331.266H264.665L261.905 290.997L261.306 282.352L261.036 278.369C260.96 277.324 260.823 276.285 260.625 275.256C260.625 275.033 260.531 274.787 260.484 274.563C260.459 274.395 260.415 274.229 260.354 274.07C259.229 269.966 257.036 266.233 253.999 263.251C250.495 259.79 245.863 257.705 240.948 257.377H280.242C280.665 257.377 281.1 257.377 281.534 257.377C286.861 257.401 291.968 259.509 295.76 263.251C298.8 266.232 300.997 269.965 302.127 274.07C302.188 274.229 302.231 274.395 302.256 274.563C302.532 275.817 302.716 277.089 302.808 278.369L303.078 282.352L306.438 331.266Z" fill="black"/>
<path d="M339.542 309.769H356.316C360.404 309.769 363.705 312.353 363.705 315.536V325.451C363.705 328.646 360.404 331.219 356.316 331.219H339.542V309.769Z" fill="black"/>
<path d="M272.221 331.685H352.762C356.595 331.685 359.702 328.791 359.702 325.221V316.359C359.702 312.789 356.595 309.895 352.762 309.895H272.221C268.388 309.895 265.281 312.789 265.281 316.359V325.221C265.281 328.791 268.388 331.685 272.221 331.685Z" fill="#474881"/>
<path d="M445.264 281.071C445.274 286.687 443.298 292.126 439.684 296.426C436.07 300.726 431.052 303.609 425.518 304.565L421.23 361.808C420.854 366.671 417.318 370.395 413.089 370.395H367.018C371.247 370.395 374.771 366.671 375.146 361.808L377.496 331.266L379.481 304.53C383.102 303.908 386.529 302.453 389.491 300.28C392.453 298.106 394.869 295.274 396.55 292.007C396.78 291.592 396.988 291.165 397.172 290.727C398.53 287.689 399.226 284.398 399.216 281.071C399.214 279.441 399.049 277.816 398.723 276.219C398.594 275.585 398.429 274.951 398.253 274.328C397.416 271.53 396.079 268.907 394.306 266.587C392.083 263.692 389.225 261.345 385.952 259.728C382.679 258.111 379.079 257.267 375.428 257.26H421.5C425.193 257.246 428.836 258.108 432.131 259.774C435.353 261.377 438.165 263.695 440.354 266.552C443.551 270.715 445.278 275.821 445.264 281.071Z" fill="#474881"/>
<path opacity="0.1" d="M445.264 281.071C445.274 286.687 443.298 292.126 439.684 296.426C436.07 300.726 431.052 303.609 425.518 304.565L421.23 361.808C420.854 366.671 417.318 370.395 413.089 370.395H367.018C371.247 370.395 374.771 366.671 375.146 361.808L377.496 331.266L379.481 304.53C383.102 303.908 386.529 302.453 389.491 300.28C392.453 298.106 394.869 295.274 396.55 292.007C396.78 291.592 396.988 291.165 397.172 290.727C398.53 287.689 399.226 284.398 399.216 281.071C399.214 279.441 399.049 277.816 398.723 276.219C398.594 275.585 398.429 274.951 398.253 274.328C397.416 271.53 396.079 268.907 394.306 266.587C392.083 263.692 389.225 261.345 385.952 259.728C382.679 258.111 379.079 257.267 375.428 257.26H421.5C425.193 257.246 428.836 258.108 432.131 259.774C435.353 261.377 438.165 263.695 440.354 266.552C443.551 270.715 445.278 275.821 445.264 281.071Z" fill="black"/>
<path d="M399.228 281.082C399.228 292.829 391.487 302.615 381.326 304.576L377.402 361.808C377.061 366.671 373.878 370.407 370.025 370.407H246.987C243.157 370.407 239.938 366.671 239.609 361.808L235.674 304.471C225.713 302.38 218.183 292.724 218.183 281.118C218.159 276.245 219.542 271.469 222.165 267.362C224.15 264.23 226.883 261.643 230.118 259.832C233.063 258.176 236.384 257.306 239.762 257.306C245.091 257.338 250.198 259.445 254 263.18C257.036 266.157 259.229 269.886 260.355 273.987C260.416 274.154 260.459 274.328 260.484 274.504C260.762 275.753 260.946 277.022 261.036 278.298L261.318 282.281L264.666 331.266H352.346L355.975 278.404C356.492 270.933 360.134 264.707 365.185 261.758C368.377 259.204 372.277 257.691 376.357 257.424C376.786 257.381 377.217 257.361 377.649 257.365C380.929 257.347 384.161 258.155 387.046 259.715C387.136 259.754 387.223 259.802 387.305 259.855C390.284 261.51 392.841 263.829 394.776 266.634C397.692 270.886 399.245 275.926 399.228 281.082Z" fill="#474881"/>
<path opacity="0.1" d="M350.313 370.372H246.939C243.11 370.372 239.891 366.636 239.562 361.773L235.627 304.436C225.665 302.345 218.136 292.689 218.136 281.083C218.112 276.21 219.495 271.434 222.118 267.327C224.102 264.195 226.835 261.608 230.071 259.797C233.015 258.141 236.337 257.271 239.715 257.271C245.044 257.303 250.151 259.41 253.952 263.145C256.989 266.122 259.181 269.851 260.307 273.952C260.368 274.12 260.412 274.293 260.437 274.469C260.714 275.718 260.899 276.987 260.989 278.263L261.271 282.246L264.666 331.266H352.345L350.313 370.372Z" fill="white"/>
<path d="M336.91 207.593C334.866 208.768 332.999 209.743 331.037 210.742C329.075 211.74 327.149 212.656 325.163 213.573C321.216 215.37 317.222 217.097 313.111 218.589C308.967 220.13 304.748 221.463 300.471 222.583C296.022 223.778 291.479 224.592 286.892 225.014L285.917 225.108H285.458C281.312 224.627 277.635 223.933 273.946 223.111C270.258 222.289 266.604 221.478 262.986 220.55C259.368 219.622 255.774 218.671 252.179 217.637C248.585 216.603 245.025 215.534 241.466 214.324L243.099 206.172C250.488 206.642 257.865 207.347 265.171 208.11L276.084 209.203C279.679 209.555 283.356 209.861 286.574 209.978H285.153C288.84 209.321 292.475 208.403 296.031 207.229C299.708 206.055 303.384 204.715 307.061 203.141C310.738 201.567 314.38 199.946 317.998 198.219C319.854 197.373 321.651 196.481 323.413 195.6C325.175 194.719 327.055 193.779 328.664 192.945L336.91 207.593Z" fill="#263238"/>
<path opacity="0.1" d="M336.91 207.593C334.866 208.768 332.999 209.743 331.037 210.742C329.075 211.74 327.149 212.656 325.163 213.573C321.216 215.37 317.222 217.097 313.111 218.589C308.967 220.13 304.748 221.463 300.471 222.583C296.022 223.778 291.479 224.592 286.892 225.014L285.917 225.108H285.458C281.312 224.627 277.635 223.933 273.946 223.111C270.258 222.289 266.604 221.478 262.986 220.55C259.368 219.622 255.774 218.671 252.179 217.637C248.585 216.603 245.025 215.534 241.466 214.324L243.099 206.172C250.488 206.642 257.865 207.347 265.171 208.11L276.084 209.203C279.679 209.555 283.356 209.861 286.574 209.978H285.153C288.84 209.321 292.475 208.403 296.031 207.229C299.708 206.055 303.384 204.715 307.061 203.141C310.738 201.567 314.38 199.946 317.998 198.219C319.854 197.373 321.651 196.481 323.413 195.6C325.175 194.719 327.055 193.779 328.664 192.945L336.91 207.593Z" fill="black"/>
<path d="M241.606 201.696C239.87 200.478 237.951 199.542 235.921 198.924L232.878 210.8L241.994 214.63L243.028 213.361C243.729 212.514 244.25 211.533 244.559 210.477C244.868 209.422 244.959 208.315 244.826 207.223C244.693 206.131 244.339 205.078 243.785 204.128C243.232 203.178 242.49 202.351 241.606 201.696Z" fill="#FFC3BD"/>
<path d="M232.879 210.8L235.921 198.924L227.416 194.284L224.855 202.648L232.879 210.8Z" fill="#FFC3BD"/>
<path opacity="0.2" d="M308.306 219.669H308.635H308.776C313.264 219.188 326.456 216.968 335.994 207.558C334.573 204.809 332.623 202.683 330.238 202.202C323.66 200.956 315.601 205.667 308.306 219.669Z" fill="black"/>
<path d="M316.048 281.071C327.302 250.681 319.901 222.735 321.311 207.264C321.657 203.451 323.236 199.854 325.809 197.018C328.383 194.182 331.81 192.261 335.572 191.547C343.254 190.067 352.758 188.399 361.814 187.177C364.345 186.828 366.922 187.03 369.367 187.77C371.813 188.51 374.069 189.77 375.981 191.464C377.894 193.158 379.418 195.245 380.448 197.583C381.478 199.921 381.99 202.454 381.949 205.009C381.162 250.822 366.478 281.071 366.478 281.071L342.749 280.965L316.048 281.071Z" fill="#6566E5"/>
<path opacity="0.8" d="M316.048 281.071C327.302 250.681 319.901 222.735 321.311 207.264C321.657 203.451 323.236 199.854 325.809 197.018C328.383 194.182 331.81 192.261 335.572 191.547C343.254 190.067 352.758 188.399 361.814 187.177C364.345 186.828 366.922 187.03 369.367 187.77C371.813 188.51 374.069 189.77 375.981 191.464C377.894 193.158 379.418 195.245 380.448 197.583C381.478 199.921 381.99 202.454 381.949 205.009C381.162 250.822 366.478 281.071 366.478 281.071L342.749 280.965L316.048 281.071Z" fill="white"/>
<path d="M226.019 384.762L223.012 404.532H232.562L238.835 384.762H226.019Z" fill="#FFC3BD"/>
<path d="M221.79 400.127L234.559 399.822C234.659 399.81 234.76 399.82 234.856 399.85C234.952 399.88 235.04 399.93 235.115 399.996C235.191 400.063 235.251 400.144 235.293 400.236C235.335 400.327 235.357 400.426 235.358 400.526V409.924C235.301 410.445 235.055 410.926 234.668 411.279C234.281 411.631 233.779 411.831 233.255 411.839C228.815 411.839 226.7 411.674 221.085 411.839C215.107 411.82 209.136 411.428 203.206 410.664C198.66 409.889 199.894 405.625 201.949 405.554C211.229 405.214 216.422 403.275 219.758 400.855C220.339 400.4 221.052 400.145 221.79 400.127Z" fill="#263238"/>
<path opacity="0.2" d="M224.809 392.691L226.019 384.762H238.835L235.757 394.653L224.809 392.691Z" fill="black"/>
<path d="M310.174 273.952C310.174 273.952 232.468 274.728 231.258 299.338C229.543 334.72 223.563 388.615 223.563 388.615L238.212 392.644C238.212 392.644 259.122 339.16 259.932 311.519C281.793 307.173 337.979 311.519 344.581 297.164C347.808 289.858 348.678 281.729 347.072 273.905L310.174 273.952Z" fill="#6566E5"/>
<path opacity="0.6" d="M310.174 273.952C310.174 273.952 232.468 274.728 231.258 299.338C229.543 334.72 223.563 388.615 223.563 388.615L238.212 392.644C238.212 392.644 259.122 339.16 259.932 311.519C281.793 307.173 337.979 311.519 344.581 297.164C347.808 289.858 348.678 281.729 347.072 273.905L310.174 273.952Z" fill="black"/>
<path d="M294.386 392.409L299.566 405.824H310.045L306.438 391.716L294.386 392.409Z" fill="#FFC3BD"/>
<path opacity="0.2" d="M307.415 395.522L305.382 385.197L292.144 386.841L295.538 395.816L307.415 395.522Z" fill="black"/>
<path d="M296.724 401.384H310.104C310.32 401.368 310.534 401.438 310.699 401.578C310.864 401.719 310.967 401.92 310.985 402.136L311.631 412.156C311.619 412.698 311.394 413.214 311.005 413.592C310.616 413.97 310.094 414.18 309.552 414.176C304.853 414.094 302.668 413.836 296.783 413.836C293.176 413.836 285.87 414.188 280.877 414.188C275.885 414.188 276.026 409.489 278.129 409.125C287.644 407.222 291.32 404.603 294.668 402.077C295.264 401.636 295.983 401.393 296.724 401.384Z" fill="#263238"/>
<path d="M331.072 273.952C331.072 273.952 260.59 278.733 262.328 303.319C264.22 330.244 292.448 392.679 292.448 392.679H306.65C306.65 392.679 297.252 336.035 292.929 308.594C312.805 308.594 358.865 311.589 365.491 297.199C368.704 289.889 369.566 281.761 367.958 273.94L331.072 273.952Z" fill="#6566E5"/>
<path opacity="0.5" d="M331.072 273.952C331.072 273.952 260.59 278.733 262.328 303.319C264.22 330.244 292.448 392.679 292.448 392.679H306.65C306.65 392.679 297.252 336.035 292.929 308.594C312.805 308.594 358.865 311.589 365.491 297.199C368.704 289.889 369.566 281.761 367.958 273.94L331.072 273.952Z" fill="black"/>
<path d="M341.751 174.35C343.372 180.623 343.877 188.446 335.114 191.676C332.682 195.553 331.496 199.641 340.858 198.184C348.311 197.221 355.093 193.385 359.759 187.495C354.156 182.584 355.178 167.525 356.599 159.031L341.751 174.35Z" fill="#FFC3BD"/>
<path d="M340.716 185.768C332.669 187.142 326.056 193.368 322.508 200.71C318.961 208.052 318.103 216.416 318.174 224.58C318.244 232.744 319.172 240.873 318.949 249.026C318.702 258.423 316.435 265.084 313.193 273.941C313.193 276.044 316.376 277.23 319.066 277.782C324.681 265.53 328.37 253.807 327.982 240.344C327.689 230.571 327.559 219.435 329.157 209.802C330.755 200.17 342.278 187.589 341.726 185.85L340.716 185.768Z" fill="#263238"/>
<path opacity="0.3" d="M348.586 178.954C347.743 179.58 346.782 180.03 345.76 180.276C344.739 180.522 343.679 180.56 342.642 180.387C342.662 178.861 342.552 177.336 342.313 175.829L352.04 167.841C352.253 168.879 352.39 169.931 352.451 170.989C352.556 172.538 352.255 174.088 351.577 175.485C350.899 176.882 349.868 178.078 348.586 178.954Z" fill="black"/>
<path d="M334.044 137.252C323.765 143.067 323.66 159.501 326.831 168.969C327.631 171.454 329.099 173.67 331.074 175.377C333.049 177.084 335.455 178.215 338.029 178.646C340.603 179.078 343.246 178.794 345.67 177.825C348.093 176.855 350.203 175.239 351.77 173.151C356.798 166.796 356.07 160.382 355.823 149.34C355.576 138.298 344.334 131.449 334.044 137.252Z" fill="#FFC3BD"/>
<path opacity="0.2" d="M337.357 166.808C334.044 168.229 330.414 170.074 327.066 169.674C327.967 172.055 329.49 174.15 331.477 175.742C333.463 177.334 335.84 178.363 338.36 178.723C340.88 179.083 343.45 178.76 345.802 177.789C348.155 176.817 350.204 175.232 351.735 173.198C355.882 167.983 357.162 164.459 355.988 154.967C349.55 162.509 344.44 163.754 337.357 166.808Z" fill="black"/>
<path d="M347.295 140.964C346.228 142.698 345.753 144.732 345.941 146.76C346.13 148.787 346.972 150.699 348.34 152.206C349.268 153.181 350.408 153.933 351.301 154.932C352.693 156.498 353.418 158.547 353.321 160.641C353.53 159.294 354.201 158.061 355.219 157.154C356.237 156.248 357.539 155.724 358.901 155.672C357.507 159.987 356.113 164.294 354.719 168.593C357.478 167.306 359.863 165.336 361.647 162.869C363.432 160.402 364.557 157.52 364.915 154.497C365.808 146.157 355.518 128.289 347.295 140.964Z" fill="#263238"/>
<path d="M323.307 141.54C322.521 142.413 321.96 143.466 321.674 144.606C321.537 145.17 321.576 145.764 321.786 146.305C321.996 146.847 322.367 147.312 322.849 147.636C323.739 147.995 324.723 148.044 325.645 147.777L335.043 146.145C340.423 145.205 345.803 144.277 351.112 142.996C353.462 142.432 356.175 141.528 357.115 139.273C360.158 131.931 347.165 130.979 342.819 131.179C335.418 131.566 327.936 135.819 323.307 141.54Z" fill="#263238"/>
<path d="M357.491 153.792C354.413 154.485 353.097 158.914 353.18 161.756C353.18 164.987 355.529 167.09 358.254 165.14C360.278 163.635 361.655 161.418 362.107 158.937C362.659 155.895 360.58 153.099 357.491 153.792Z" fill="#FFC3BD"/>
<path d="M335.747 165.011C335.281 165.321 334.752 165.526 334.198 165.609C333.643 165.692 333.078 165.652 332.541 165.492C333.715 162.838 333.574 163.437 333.938 158.926L335.747 165.011Z" fill="#ED847E"/>
<path d="M341.163 150.362C340.282 149.375 337.874 149 336.57 149.187C336.438 149.205 336.305 149.17 336.197 149.091C336.09 149.013 336.017 148.896 335.994 148.765C335.977 148.624 336.013 148.481 336.096 148.366C336.178 148.25 336.302 148.17 336.441 148.142C338.085 147.895 340.822 148.389 341.938 149.622C342.035 149.721 342.089 149.854 342.089 149.992C342.089 150.131 342.035 150.263 341.938 150.362C341.873 150.43 341.792 150.483 341.703 150.515C341.608 150.544 341.507 150.545 341.411 150.518C341.315 150.491 341.229 150.437 341.163 150.362Z" fill="#263238"/>
<path d="M325.962 152.559C325.852 152.482 325.775 152.366 325.749 152.235C325.723 152.103 325.749 151.967 325.821 151.854C326.232 151.112 326.811 150.477 327.51 149.998C328.209 149.519 329.011 149.209 329.85 149.093C329.915 149.092 329.978 149.103 330.038 149.126C330.098 149.15 330.153 149.185 330.199 149.23C330.245 149.275 330.281 149.329 330.306 149.388C330.331 149.447 330.344 149.511 330.344 149.575C330.35 149.717 330.301 149.857 330.207 149.964C330.113 150.072 329.981 150.138 329.839 150.15C329.176 150.256 328.547 150.511 327.997 150.896C327.448 151.28 326.993 151.785 326.667 152.371C326.624 152.447 326.563 152.512 326.49 152.559C326.416 152.606 326.331 152.634 326.244 152.641C326.143 152.649 326.043 152.62 325.962 152.559Z" fill="#263238"/>
<path d="M334.843 169.791C335.972 171.229 337.012 172.736 337.955 174.302L338.684 173.997C341.996 172.564 342.936 170.567 342.983 168.793C342.943 167.382 342.508 166.01 341.726 164.834C340.552 166.866 337.58 168.487 335.959 169.274C335.265 169.615 334.843 169.791 334.843 169.791Z" fill="#2E353A"/>
<path d="M335.936 169.274L336.417 169.932C336.55 170.109 336.737 170.236 336.95 170.293C337.163 170.351 337.389 170.335 337.592 170.249C340.036 169.075 341.657 167.9 342.291 166.573C342.349 166.447 342.379 166.311 342.379 166.173C342.379 166.035 342.349 165.899 342.291 165.774C342.134 165.448 341.953 165.134 341.751 164.834C340.517 166.866 337.557 168.487 335.936 169.274Z" fill="white"/>
<path d="M338.66 173.997C341.973 172.564 342.913 170.567 342.96 168.793C341.702 169.373 340.584 170.219 339.682 171.271C339.062 172.049 338.704 173.003 338.66 173.997Z" fill="#DE5753"/>
<path d="M329.733 156.235C329.157 156.341 328.84 157.163 329.004 158.044C329.169 158.925 329.791 159.56 330.367 159.442C330.943 159.325 331.26 158.526 331.095 157.645C330.931 156.764 330.308 156.235 329.733 156.235Z" fill="#263238"/>
<path d="M339.812 154.614C339.237 154.72 338.919 155.531 339.084 156.423C339.248 157.316 339.871 157.939 340.446 157.821C341.022 157.704 341.339 156.893 341.175 156.012C341.01 155.131 340.388 154.509 339.812 154.614Z" fill="#263238"/>
<path opacity="0.9" d="M325.293 161.005L332.706 159.336L332.835 162.485L325.939 164.129L325.293 161.005Z" fill="white"/>
<g opacity="0.8">
<path opacity="0.9" d="M334.961 158.843L335.842 161.733L345.357 159.689L344.793 156.353L334.961 158.843Z" fill="white"/>
</g>
<path d="M332.752 160.5L332.705 159.337L334.961 158.843L335.29 159.936L332.752 160.5Z" fill="#263238"/>
<path d="M330.05 279.72C330.05 279.72 343.43 284.9 346.496 285.91C350.021 287.29 353.73 288.141 357.503 288.436C359.416 288.565 361.335 288.284 363.132 287.614C364.928 286.944 366.561 285.898 367.923 284.548C371.118 281.141 372.116 275.972 372.95 271.121C375.394 256.876 377.845 242.631 380.304 228.385C381.479 221.337 384.568 210.765 384.31 206.783C383.828 199.382 379.118 190.642 367.124 185.838C362.425 183.97 357.855 184.663 353.932 189.362C351.583 192.157 344.746 198.9 343.066 210.777C341.727 220.292 339.636 232.614 339.765 242.282C339.918 254.992 334.843 271.015 330.05 279.72Z" fill="#263238"/>
<path d="M383.652 202.871C385.015 215.252 378.166 246.464 376.851 248.344C371.236 266.446 355.812 256.684 353.58 255.85C349.692 254.417 345.733 251.609 342.033 249.741C334.855 246.217 328.054 243.304 321.381 238.875L325.14 231.451C332.459 233.942 353.169 239.298 356.587 240.132C358.067 240.52 363.835 243.539 363.776 239.557C364.587 238.229 365.715 212.374 368.193 203.235C368.476 202.209 368.968 201.254 369.638 200.427L369.861 200.146C370.766 199.012 371.965 198.148 373.327 197.649C374.689 197.15 376.162 197.035 377.585 197.316C379.008 197.597 380.327 198.264 381.397 199.244C382.467 200.223 383.247 201.478 383.652 202.871Z" fill="#263238"/>
<path opacity="0.1" d="M383.652 202.871C385.015 215.252 378.166 246.464 376.851 248.344C371.236 266.446 355.812 256.684 353.58 255.85C349.692 254.417 345.733 251.609 342.033 249.741C334.855 246.217 328.054 243.304 321.381 238.875L325.14 231.451C332.459 233.942 353.169 239.298 356.587 240.132C358.067 240.52 363.835 243.539 363.776 239.557C364.587 238.229 365.715 212.374 368.193 203.235C368.476 202.209 368.968 201.254 369.638 200.427L369.861 200.146C370.766 199.012 371.965 198.148 373.327 197.649C374.689 197.15 376.162 197.035 377.585 197.316C379.008 197.597 380.327 198.264 381.397 199.244C382.467 200.223 383.247 201.478 383.652 202.871Z" fill="white"/>
<path d="M322.204 249.625H287.433L283.462 204.258H318.233L322.204 249.625Z" fill="#263238"/>
<path opacity="0.5" d="M322.204 249.625H287.433L283.462 204.258H318.233L322.204 249.625Z" fill="white"/>
<path d="M320.97 249.401H286.199L282.228 204.034H316.999L320.97 249.401Z" fill="#6566E5"/>
<path opacity="0.8" d="M320.97 249.401H286.199L282.228 204.034H316.999L320.97 249.401Z" fill="white"/>
<path d="M307.179 206.865H292.553L292.06 201.191H306.673L307.179 206.865Z" fill="#6566E5"/>
<path d="M292.06 201.191L293.493 200.698H308.635L308.847 203.106L307.719 204.41L307.648 206.383L307.179 206.865L306.673 201.191H292.06Z" fill="#6566E5"/>
<path opacity="0.5" d="M292.06 201.191L293.493 200.698H308.635L308.847 203.106L307.719 204.41L307.648 206.383L307.179 206.865L306.673 201.191H292.06Z" fill="black"/>
<path d="M327.913 233.907L328.7 238.147C326.82 243.046 316.048 241.754 316.048 241.754V229.22L325.551 231.428C326.141 231.572 326.677 231.882 327.095 232.322C327.514 232.761 327.797 233.311 327.913 233.907Z" fill="#FFC3BD"/>
<path d="M316.024 229.22L316.071 241.777L306.532 242.012L304.347 230.97L316.024 229.22Z" fill="#FFC3BD"/>
<path d="M352.346 331.267L355.976 278.405C356.493 270.934 360.134 264.708 365.185 261.759C368.378 259.205 372.277 257.692 376.357 257.425C376.786 257.381 377.218 257.362 377.649 257.366C380.929 257.348 384.161 258.156 387.047 259.715C387.136 259.755 387.223 259.803 387.305 259.856C390.284 261.51 392.841 263.83 394.776 266.634C397.705 270.899 399.263 275.957 399.24 281.13C399.24 292.877 391.499 302.663 381.338 304.624L377.402 361.809C377.062 366.672 373.878 370.408 370.025 370.408H350.314L352.346 331.267Z" fill="#595A8D"/>
<path opacity="0.1" d="M352.346 331.267L355.976 278.405C356.493 270.934 360.134 264.708 365.185 261.759C368.378 259.205 372.277 257.692 376.357 257.425C376.786 257.381 377.218 257.362 377.649 257.366C380.929 257.348 384.161 258.156 387.047 259.715C387.136 259.755 387.223 259.803 387.305 259.856C390.284 261.51 392.841 263.83 394.776 266.634C397.705 270.899 399.263 275.957 399.24 281.13C399.24 292.877 391.499 302.663 381.338 304.624L377.402 361.809C377.062 366.672 373.878 370.408 370.025 370.408H350.314L352.346 331.267Z" fill="#595A8D"/>
<path d="M173.086 85.2826V134.397C173.086 135.643 172.591 136.838 171.71 137.72C170.828 138.601 169.633 139.096 168.387 139.096H118.086L100.113 152.992C99.6034 153.378 98.9961 153.613 98.3597 153.671C97.7234 153.73 97.0834 153.609 96.5118 153.323C95.9403 153.038 95.4599 152.598 95.1249 152.054C94.7899 151.51 94.6135 150.883 94.6157 150.244V139.096H91.8082C90.562 139.096 89.3668 138.601 88.4856 137.72C87.6044 136.838 87.1094 135.643 87.1094 134.397V85.2709C87.1124 84.6591 87.2367 84.054 87.4751 83.4905C87.7135 82.9271 88.0612 82.4165 88.4981 81.9882C88.9351 81.56 89.4526 81.2227 90.0208 80.9957C90.5889 80.7688 91.1965 80.6567 91.8082 80.6661H168.469C169.694 80.6661 170.868 81.1525 171.734 82.0182C172.599 82.884 173.086 84.0583 173.086 85.2826Z" stroke="#6566E5" stroke-width="2.04327" stroke-miterlimit="10"/>
<path d="M125.981 73.7471H116.383V74.9218H125.981V73.7471Z" fill="#6566E5"/>
<path d="M81.1063 87.5856H79.9316V81.7943C79.9348 79.656 80.7864 77.6063 82.2995 76.0954C83.8126 74.5845 85.8635 73.7358 88.0018 73.7358H109.417V74.9105H87.9784C86.1525 74.9136 84.4022 75.6395 83.1101 76.9295C81.8179 78.2194 81.0891 79.9685 81.0828 81.7943L81.1063 87.5856Z" fill="#6566E5"/>
<path d="M148.969 116.648C148.458 116.651 147.952 116.548 147.483 116.346C147.015 116.144 146.593 115.847 146.244 115.474C145.895 115.101 145.628 114.66 145.458 114.179C145.288 113.698 145.219 113.186 145.256 112.677C146.513 98.3574 157.861 97.0418 159.282 80.7604C159.694 76.0616 157.978 74.2995 154.701 74.2995C151.424 74.2995 149.403 76.0733 148.992 80.7604L148.757 83.4387C148.651 84.6488 148.095 85.7751 147.199 86.595C146.303 87.415 145.132 87.869 143.917 87.8674C143.245 87.8667 142.58 87.7262 141.965 87.455C141.35 87.1837 140.798 86.7875 140.344 86.2916C139.89 85.7957 139.544 85.2108 139.328 84.5741C139.112 83.9374 139.031 83.2627 139.089 82.5929L139.195 81.4182C140.111 70.9399 145.785 64.9724 155.805 64.9724C165.825 64.9724 170.442 70.9634 169.526 81.4182C168.034 98.3927 155.641 101.024 154.584 112.994C154.589 113.053 154.589 113.112 154.584 113.17C154.53 114.12 154.116 115.013 153.426 115.668C152.736 116.323 151.823 116.69 150.872 116.695L148.969 116.648ZM154.055 126.609C153.949 127.841 153.384 128.988 152.473 129.823C151.561 130.659 150.369 131.121 149.133 131.12C148.448 131.121 147.77 130.979 147.143 130.704C146.515 130.428 145.952 130.025 145.489 129.52C145.026 129.015 144.673 128.419 144.453 127.77C144.233 127.122 144.151 126.434 144.211 125.751C144.317 124.518 144.883 123.369 145.797 122.533C146.711 121.697 147.906 121.236 149.145 121.241C149.828 121.243 150.504 121.387 151.129 121.664C151.754 121.941 152.315 122.344 152.777 122.848C153.238 123.353 153.59 123.947 153.81 124.595C154.03 125.242 154.113 125.928 154.055 126.609Z" fill="#6566E5"/>
<path d="M135.731 105.147H108.713C108.09 105.147 107.492 104.9 107.051 104.459C106.611 104.019 106.363 103.421 106.363 102.798C106.363 102.175 106.611 101.577 107.051 101.137C107.492 100.696 108.09 100.448 108.713 100.448H135.731C136.354 100.448 136.952 100.696 137.392 101.137C137.833 101.577 138.08 102.175 138.08 102.798C138.08 103.421 137.833 104.019 137.392 104.459C136.952 104.9 136.354 105.147 135.731 105.147Z" fill="#6566E5"/>
<path d="M131.996 114.451H108.76C108.137 114.451 107.539 114.203 107.099 113.763C106.658 113.322 106.411 112.725 106.411 112.102C106.411 111.479 106.658 110.881 107.099 110.44C107.539 110 108.137 109.752 108.76 109.752H131.996C132.619 109.752 133.216 110 133.657 110.44C134.098 110.881 134.345 111.479 134.345 112.102C134.345 112.725 134.098 113.322 133.657 113.763C133.216 114.203 132.619 114.451 131.996 114.451Z" fill="#6566E5"/>
<path d="M128.26 123.743H108.76C108.137 123.743 107.539 123.495 107.099 123.054C106.658 122.614 106.411 122.016 106.411 121.393C106.411 120.77 106.658 120.172 107.099 119.732C107.539 119.291 108.137 119.044 108.76 119.044H128.26C128.883 119.044 129.481 119.291 129.921 119.732C130.362 120.172 130.61 120.77 130.61 121.393C130.61 122.016 130.362 122.614 129.921 123.054C129.481 123.495 128.883 123.743 128.26 123.743Z" fill="#6566E5"/>
<path d="M-7.00596 361.048L-12.9734 266.061C-13.4982 257.708 -12.3058 249.335 -9.4698 241.46C-6.6338 233.585 -2.21435 226.374 3.51592 220.273C9.24619 214.172 16.1657 209.309 23.8478 205.986C31.5298 202.662 39.8113 200.947 48.1816 200.948C63.8327 200.95 78.8898 206.941 90.2637 217.693C101.638 228.444 108.466 243.14 109.348 258.767L115.574 369.705H2.21546C-0.133934 369.704 -2.39475 368.809 -4.10756 367.201C-5.82037 365.592 -6.8567 363.393 -7.00596 361.048Z" fill="#474881"/>
<path opacity="0.1" d="M-7.2174 357.63L-12.9734 266.085C-13.4982 257.731 -12.3058 249.359 -9.4698 241.484C-6.6338 233.608 -2.21435 226.398 3.51592 220.297C9.24619 214.195 16.1657 209.333 23.8478 206.009C31.5298 202.686 39.8113 200.971 48.1816 200.971C63.8327 200.974 78.8898 206.965 90.2637 217.716C101.638 228.468 108.466 243.164 109.348 258.79L115.574 369.706H5.63385C2.3606 369.695 -0.786552 368.442 -3.17194 366.201C-5.55732 363.959 -7.00317 360.896 -7.2174 357.63Z" fill="#756C6C"/>
<path d="M11.3903 369.705L4.8824 266.061C4.35941 257.708 5.55304 249.336 8.38966 241.462C11.2263 233.587 15.6458 226.378 21.3757 220.277C27.1057 214.176 34.0245 209.313 41.7057 205.989C49.387 202.665 57.6677 200.949 66.0374 200.948C81.6894 200.947 96.748 206.937 108.123 217.689C119.497 228.441 126.325 243.139 127.204 258.767L133.465 369.705H11.3903Z" fill="#474881"/>
<path d="M9.44121 387.549H7.87887C7.45767 387.526 7.05841 387.354 6.7527 387.063C6.447 386.773 6.25485 386.383 6.21077 385.963L3.86137 369.717H13.3765L11.0271 385.963C10.9837 386.369 10.8027 386.748 10.5142 387.036C10.2256 387.325 9.84696 387.506 9.44121 387.549Z" fill="#474881"/>
<path opacity="0.7" d="M9.44121 387.549H7.87887C7.45767 387.526 7.05841 387.354 6.7527 387.063C6.447 386.773 6.25485 386.383 6.21077 385.963L3.86137 369.717H13.3765L11.0271 385.963C10.9837 386.369 10.8027 386.748 10.5142 387.036C10.2256 387.325 9.84696 387.506 9.44121 387.549Z" fill="white"/>
<path d="M162.915 387.549H161.505C161.105 387.508 160.733 387.326 160.456 387.035C160.178 386.744 160.013 386.364 159.99 385.963L157.863 369.717H166.509L164.407 385.963C164.384 386.361 164.223 386.738 163.95 387.028C163.677 387.318 163.31 387.503 162.915 387.549Z" fill="#474881"/>
<path opacity="0.5" d="M162.915 387.549H161.505C161.105 387.508 160.733 387.326 160.456 387.035C160.178 386.744 160.013 386.364 159.99 385.963L157.863 369.717H166.509L164.407 385.963C164.384 386.361 164.223 386.738 163.95 387.028C163.677 387.318 163.31 387.503 162.915 387.549Z" fill="white"/>
<path d="M118.735 387.549H117.314C116.914 387.508 116.542 387.326 116.265 387.035C115.987 386.744 115.822 386.364 115.799 385.963L113.708 369.717H122.342L120.274 385.963C120.251 386.368 120.082 386.751 119.8 387.042C119.517 387.333 119.139 387.513 118.735 387.549Z" fill="#474881"/>
<path opacity="0.7" d="M118.735 387.549H117.314C116.914 387.508 116.542 387.326 116.265 387.035C115.987 386.744 115.822 386.364 115.799 385.963L113.708 369.717H122.342L120.274 385.963C120.251 386.368 120.082 386.751 119.8 387.042C119.517 387.333 119.139 387.513 118.735 387.549Z" fill="white"/>
<path d="M57.0154 387.549H55.4531C55.0314 387.524 54.6318 387.352 54.3246 387.062C54.0174 386.772 53.8222 386.383 53.7733 385.963L51.4239 369.717H60.9507L58.6013 385.963C58.5601 386.37 58.3797 386.75 58.0908 387.039C57.8018 387.327 57.422 387.508 57.0154 387.549Z" fill="#474881"/>
<path opacity="0.5" d="M57.0154 387.549H55.4531C55.0314 387.524 54.6318 387.352 54.3246 387.062C54.0174 386.772 53.8222 386.383 53.7733 385.963L51.4239 369.717H60.9507L58.6013 385.963C58.5601 386.37 58.3797 386.75 58.0908 387.039C57.8018 387.327 57.422 387.508 57.0154 387.549Z" fill="white"/>
<path d="M108.738 330.612H150.511L153.271 290.343L153.87 281.697L154.141 277.715C154.216 276.67 154.353 275.63 154.552 274.602C154.552 274.379 154.646 274.132 154.693 273.909C154.718 273.74 154.761 273.575 154.822 273.415C155.948 269.311 158.14 265.578 161.177 262.596C164.681 259.135 169.314 257.05 174.228 256.723H134.934C134.511 256.723 134.077 256.723 133.642 256.723C128.315 256.746 123.208 258.855 119.416 262.596C116.376 265.577 114.18 269.31 113.05 273.415C112.989 273.575 112.945 273.74 112.92 273.909C112.644 275.162 112.46 276.434 112.368 277.715L112.098 281.697L108.738 330.612Z" fill="#474881"/>
<path opacity="0.1" d="M108.738 330.612H150.511L153.271 290.343L153.87 281.697L154.141 277.715C154.216 276.67 154.353 275.63 154.552 274.602C154.552 274.379 154.646 274.132 154.693 273.909C154.718 273.74 154.761 273.575 154.822 273.415C155.948 269.311 158.14 265.578 161.177 262.596C164.681 259.135 169.314 257.05 174.228 256.723H134.934C134.511 256.723 134.077 256.723 133.642 256.723C128.315 256.746 123.208 258.855 119.416 262.596C116.376 265.577 114.18 269.31 113.05 273.415C112.989 273.575 112.945 273.74 112.92 273.909C112.644 275.162 112.46 276.434 112.368 277.715L112.098 281.697L108.738 330.612Z" fill="#756C6C"/>
<path d="M75.6343 309.114H58.8595C54.7716 309.114 51.4706 311.698 51.4706 314.882V324.796C51.4706 327.991 54.7716 330.564 58.8595 330.564H75.6343V309.114Z" fill="#756C6C"/>
<path d="M143.607 330.474H66.1639C62.4784 330.474 59.4907 327.58 59.4907 324.01V315.149C59.4907 311.579 62.4784 308.685 66.1639 308.685H143.607C147.293 308.685 150.28 311.579 150.28 315.149V324.01C150.28 327.58 147.293 330.474 143.607 330.474Z" fill="#474881"/>
<path d="M-30.0882 280.416C-30.0982 286.033 -28.1214 291.472 -24.5077 295.771C-20.8939 300.071 -15.876 302.954 -10.3415 303.91L-6.05381 361.154C-5.6779 366.017 -2.14202 369.741 2.08691 369.741H48.1587C43.9298 369.741 40.4057 366.017 40.0298 361.154L37.6804 330.611L35.6951 303.875C32.0743 303.253 28.6476 301.798 25.6854 299.625C22.7233 297.452 20.3068 294.62 18.6267 291.353C18.3958 290.938 18.1879 290.51 18.0041 290.072C16.6467 287.035 15.9501 283.743 15.9601 280.416C15.9625 278.787 16.1277 277.162 16.4535 275.565C16.5827 274.931 16.7472 274.296 16.9234 273.674C17.76 270.876 19.0973 268.253 20.8704 265.932C23.0937 263.037 25.9518 260.691 29.2245 259.074C32.4973 257.456 36.0974 256.612 39.7479 256.605H-6.32396C-10.0165 256.592 -13.6596 257.453 -16.955 259.119C-20.1765 260.723 -22.989 263.041 -25.178 265.897C-28.375 270.061 -30.1017 275.167 -30.0882 280.416Z" fill="#474881"/>
<path opacity="0.1" d="M-30.0882 280.416C-30.0982 286.033 -28.1214 291.472 -24.5077 295.771C-20.8939 300.071 -15.876 302.954 -10.3415 303.91L-6.05381 361.154C-5.6779 366.017 -2.14202 369.741 2.08691 369.741H48.1587C43.9298 369.741 40.4057 366.017 40.0298 361.154L37.6804 330.611L35.6951 303.875C32.0743 303.253 28.6476 301.798 25.6854 299.625C22.7233 297.452 20.3068 294.62 18.6267 291.353C18.3958 290.938 18.1879 290.51 18.0041 290.072C16.6467 287.035 15.9501 283.743 15.9601 280.416C15.9625 278.787 16.1277 277.162 16.4535 275.565C16.5827 274.931 16.7472 274.296 16.9234 273.674C17.76 270.876 19.0973 268.253 20.8704 265.932C23.0937 263.037 25.9518 260.691 29.2245 259.074C32.4973 257.456 36.0974 256.612 39.7479 256.605H-6.32396C-10.0165 256.592 -13.6596 257.453 -16.955 259.119C-20.1765 260.723 -22.989 263.041 -25.178 265.897C-28.375 270.061 -30.1017 275.167 -30.0882 280.416Z" fill="#756C6C"/>
<path d="M15.9482 280.428C15.9482 292.175 23.6895 301.96 33.8507 303.922L37.7742 361.153C38.1149 366.017 41.2983 369.752 45.1513 369.752H168.19C172.019 369.752 175.238 366.017 175.567 361.153L179.502 303.816C189.464 301.725 196.993 292.069 196.993 280.463C197.017 275.59 195.634 270.814 193.011 266.707C191.027 263.576 188.294 260.988 185.058 259.177C182.114 257.522 178.792 256.652 175.414 256.652C170.085 256.683 164.978 258.79 161.177 262.525C158.14 265.503 155.948 269.232 154.822 273.333C154.761 273.5 154.717 273.673 154.692 273.849C154.415 275.099 154.23 276.367 154.14 277.644L153.858 281.626L150.51 330.611H62.8306L59.2008 277.749C58.6839 270.278 55.0424 264.052 49.9911 261.104C46.7988 258.55 42.8994 257.037 38.8197 256.769C38.3904 256.726 37.959 256.706 37.5275 256.711C34.2474 256.692 31.0155 257.5 28.1299 259.06C28.0401 259.1 27.9537 259.147 27.8715 259.201C24.8925 260.855 22.3358 263.175 20.4004 265.979C17.4846 270.232 15.9318 275.271 15.9482 280.428Z" fill="#474881"/>
<path opacity="0.1" d="M64.8632 369.717H168.237C172.067 369.717 175.285 365.982 175.614 361.118L179.549 303.781C189.511 301.69 197.041 292.034 197.041 280.428C197.064 275.555 195.682 270.779 193.058 266.672C191.074 263.541 188.341 260.953 185.106 259.143C182.161 257.487 178.84 256.617 175.461 256.617C170.132 256.648 165.025 258.755 161.224 262.49C158.188 265.468 155.995 269.197 154.869 273.298C154.808 273.465 154.765 273.638 154.74 273.815C154.462 275.064 154.277 276.332 154.188 277.609L153.906 281.591L150.511 330.611H62.831L64.8632 369.717Z" fill="white"/>
<path d="M96.5308 392.103L106.551 394.876L115.549 371.323L105.529 368.551L96.5308 392.103Z" fill="#FFC3BD"/>
<path d="M111.039 391.751C110.248 390.726 109.106 390.031 107.832 389.801L97.5535 387.792C97.3136 387.722 97.056 387.75 96.8362 387.869C96.6164 387.987 96.4521 388.188 96.3788 388.426L93.1953 397.824C93.1042 398.079 93.0645 398.35 93.0784 398.621C93.0923 398.891 93.1596 399.157 93.2764 399.401C93.3933 399.646 93.5573 399.865 93.7591 400.046C93.9609 400.227 94.1964 400.366 94.4522 400.455H94.5227C98.3288 401.959 100.901 401.442 106.845 402.593C110.522 403.298 118.216 405.742 123.362 405.53C128.507 405.319 128.495 400.232 126.334 399.856C118.698 398.682 112.825 394.077 111.039 391.751Z" fill="#263238"/>
<g opacity="0.2">
<path d="M115.55 371.335L110.91 383.481L100.89 380.685L105.518 368.551L115.55 371.335Z" fill="black"/>
</g>
<path d="M82.1069 281.928C82.1069 281.928 142.44 281.599 140.56 301.804C139.291 315.454 132.737 329.797 127.638 343.647C120.226 363.722 113.8 381.237 113.8 381.237L100.056 376.48C100.056 376.48 112.402 318.426 120.719 312.482H69.702C52.8216 312.482 45.5267 293.945 61.9608 272.331C72.0045 272.366 82.1069 281.928 82.1069 281.928Z" fill="#6566E5"/>
<path opacity="0.6" d="M82.1069 281.928C82.1069 281.928 142.44 281.599 140.56 301.804C141.488 314.362 113.789 381.214 113.789 381.214L100.045 376.456C100.045 376.456 112.391 318.403 120.708 312.459H69.702C52.8216 312.459 45.5267 293.922 61.9608 272.307C72.0045 272.366 82.1069 281.928 82.1069 281.928Z" fill="black"/>
<path d="M124.653 245.242C117.229 252.02 102.651 235.974 100.302 234.071C95.274 229.959 80.4963 216.168 81.2716 211.376C83.621 197.279 106.739 217.249 113.423 231.017L124.653 245.242Z" fill="#263238"/>
<path d="M59.6814 202.823C55.9576 203.611 51.9284 202.271 49.3088 205.032C46.6892 207.792 45.5967 211.669 45.2208 215.451C44.89 220.736 45.1659 226.041 46.0431 231.263C46.8263 237.63 47.6446 243.993 48.4982 250.352C49.0278 255.59 48.8262 260.876 47.8992 266.058C47.8014 266.608 47.889 267.176 48.1484 267.671C48.4077 268.166 48.8241 268.561 49.3323 268.795C49.3323 268.795 78.2182 269.781 86.6173 269.464C91.0812 269.3 88.0152 257.553 89.3896 250.669C89.6951 249.142 92.6788 242.869 93.1252 241.271C95.1927 233.695 93.8183 228.479 91.9505 220.867C90.5526 215.334 89.977 207.358 87.1577 206.77C82.083 205.725 70.0423 200.615 59.6814 202.823Z" fill="#6566E5"/>
<path opacity="0.8" d="M59.6814 202.823C55.9576 203.611 51.9284 202.271 49.3088 205.032C46.6892 207.792 45.5967 211.669 45.2208 215.451C44.89 220.736 45.1659 226.041 46.0431 231.263C46.8263 237.63 47.6446 243.993 48.4982 250.352C49.0278 255.59 48.8262 260.876 47.8992 266.058C47.8014 266.608 47.889 267.176 48.1484 267.671C48.4077 268.166 48.8241 268.561 49.3323 268.795C49.3323 268.795 78.2182 269.781 86.6173 269.464C91.0812 269.3 88.0152 257.553 89.3896 250.669C89.6951 249.142 92.6788 242.869 93.1252 241.271C95.1927 233.695 93.8183 228.479 91.9505 220.867C90.5526 215.334 89.977 207.358 87.1577 206.77C82.083 205.725 70.0423 200.615 59.6814 202.823Z" fill="white"/>
<path d="M55.5575 208.25C55.1698 207.663 44.9852 199.111 43.1644 208.991C40.5918 222.746 45.9132 236.279 45.9132 236.279C45.9132 236.279 47.0879 251.162 51.4578 252.654C55.8277 254.146 59.8921 254.51 61.3488 251.961C62.2907 249.974 62.7878 247.805 62.8054 245.606C62.8054 245.606 62.312 218.494 55.5575 208.25Z" fill="#263238"/>
<path d="M62.5941 183.946C63.6396 190.278 64.5206 201.849 59.998 205.925C59.998 205.925 71.052 211.716 78.3116 221.819C79.9236 220.616 81.1157 218.935 81.7187 217.017C82.3218 215.098 82.3052 213.038 81.6713 211.129C81.3073 209.924 80.7034 208.806 79.8959 207.841C79.0884 206.876 78.094 206.084 76.9725 205.514C72.6848 203.164 73.096 198.724 74.2707 194.566L62.5941 183.946Z" fill="#E8BFBF"/>
<path opacity="0.2" d="M64.04 194.695L68.1632 196.281C69.9286 196.963 71.8175 197.267 73.7078 197.174C73.4137 198.465 73.4137 199.806 73.7078 201.097C72.2296 201.501 70.6658 201.468 69.2062 201.001C67.7465 200.534 66.4538 199.653 65.4849 198.466C64.8185 197.288 64.3316 196.017 64.04 194.695Z" fill="black"/>
<path d="M166.391 371.851H177.621L165.863 343.694L158.25 356.616L166.391 371.851Z" fill="#FFC3BD"/>
<path d="M176.693 369.185L163.524 366.189C163.298 366.133 163.06 366.163 162.855 366.274C162.651 366.385 162.495 366.568 162.42 366.788L158.743 376.914C158.669 377.17 158.647 377.437 158.677 377.701C158.707 377.965 158.788 378.221 158.917 378.453C159.046 378.685 159.219 378.89 159.427 379.055C159.635 379.221 159.874 379.344 160.129 379.417C164.746 380.38 167.013 380.591 172.804 381.919C176.328 382.729 185.397 385.102 190.319 386.218C195.241 387.334 196.533 382.518 194.571 381.601C185.785 377.537 181.027 373.649 178.478 370.336C178.033 369.759 177.402 369.352 176.693 369.185Z" fill="#263238"/>
<g opacity="0.2">
<path d="M165.863 343.694L170.867 355.688L160.764 361.326L158.25 356.627L165.863 343.694Z" fill="black"/>
</g>
<path d="M47.6759 268.924L46.5012 272.754C46.3485 273.047 46.6891 273.353 47.1825 273.376L90.6465 274.692C91.0459 274.692 91.3631 274.527 91.3983 274.281L91.9034 270.428C91.9034 270.169 91.598 269.934 91.1869 269.911L48.4277 268.619C48.2865 268.596 48.1418 268.613 48.0094 268.667C47.8769 268.721 47.7616 268.81 47.6759 268.924Z" fill="#263238"/>
<path d="M102.041 300.347C87.7448 306.444 72.2388 312.529 63.8044 312.529C46.9122 312.529 31.9112 300.335 47.8989 272.589C57.9544 272.589 75.4222 272.871 75.4222 272.871C75.4222 272.871 108.314 263.473 132.254 266.246C137.927 266.908 143.245 269.351 147.442 273.223C151.64 277.096 154.503 282.2 155.619 287.801C161.681 318.344 171.019 351.376 171.019 351.376L159.002 359.599C159.002 359.599 140.266 320.211 129.482 288.976C123.773 290.773 113.283 295.554 102.041 300.347Z" fill="#6566E5"/>
<path opacity="0.5" d="M155.619 287.802C154.508 282.196 151.647 277.087 147.449 273.21C143.25 269.332 137.931 266.886 132.255 266.222C108.361 263.497 75.4224 272.848 75.4224 272.848C75.4224 272.848 57.9546 272.53 47.8992 272.566C31.653 300.195 46.9124 312.506 63.8046 312.506C72.239 312.506 87.7451 306.421 102.041 300.324C113.283 295.531 123.773 290.75 129.482 288.918C140.266 320.188 159.003 359.588 159.003 359.588L171.02 351.365C171.02 351.365 161.681 318.344 155.619 287.802Z" fill="black"/>
<path d="M140.559 301.898C140.177 305.823 139.589 309.724 138.797 313.587C138.738 313.457 138.691 313.34 138.644 313.211C138.597 313.081 138.644 313.152 138.644 313.117C138.605 312.987 138.554 312.861 138.491 312.741C135.296 304.8 132.171 296.659 129.528 288.988H129.611C136.447 291.89 141.111 296.025 140.559 301.898Z" fill="#6566E5"/>
<path opacity="0.6" d="M140.559 301.898C140.177 305.823 139.589 309.724 138.797 313.587C138.738 313.457 138.691 313.34 138.644 313.211C138.597 313.081 138.644 313.152 138.644 313.117C138.605 312.987 138.554 312.861 138.491 312.741C135.296 304.8 132.171 296.659 129.528 288.988H129.611C136.447 291.89 141.111 296.025 140.559 301.898Z" fill="black"/>
<path d="M54.8881 177.861C58.4122 187.787 59.7044 192.063 66.3062 195.787C76.2559 201.402 87.6505 194.871 87.1572 184.04C86.7108 174.349 81.0135 159.735 69.9713 158.561C67.5352 158.287 65.0695 158.641 62.8088 159.589C60.548 160.537 58.5676 162.048 57.0557 163.977C55.5439 165.907 54.5511 168.192 54.1717 170.614C53.7922 173.036 54.0389 175.514 54.8881 177.814V177.861Z" fill="#E8BFBF"/>
<path d="M72.7323 176.569C72.979 177.426 73.6016 177.931 74.142 177.744C74.6823 177.556 74.8938 176.804 74.6823 175.97C74.4709 175.136 73.8248 174.607 73.2727 174.795C72.7206 174.983 72.4974 175.747 72.7323 176.569Z" fill="#263238"/>
<path d="M81.9544 173.656C82.2011 174.525 82.8237 175.03 83.364 174.83C83.9044 174.631 84.1158 173.891 83.9044 173.057C83.6929 172.223 83.0351 171.694 82.5065 171.882C81.9779 172.07 81.7194 172.845 81.9544 173.656Z" fill="#263238"/>
<path d="M82.2817 172.011L84.0908 170.836C84.0908 170.836 83.5152 172.681 82.2817 172.011Z" fill="#263238"/>
<path d="M78.6523 175.535C79.9234 177.204 81.4174 178.69 83.0927 179.952C82.7563 180.368 82.3325 180.705 81.8513 180.938C81.3701 181.172 80.8435 181.296 80.3087 181.303L78.6523 175.535Z" fill="#ED847E"/>
<path d="M48.4043 184.428C49.126 186.215 49.6728 188.068 50.0372 189.96C50.1372 191.864 49.5249 193.737 48.3197 195.213C47.1144 196.69 45.4025 197.665 43.5176 197.948C45.1591 198.386 46.9013 198.242 48.4491 197.542C49.9969 196.842 51.2551 195.629 52.0107 194.107C51.1126 196.499 49.3352 198.457 47.0417 199.581C48.681 199.599 50.3023 199.239 51.7795 198.528C53.2566 197.816 54.5498 196.774 55.5583 195.482C55.0062 196.915 54.3836 198.336 53.8902 199.769C56.6795 198.08 58.9699 195.68 60.5273 192.815C61.1499 191.64 61.6197 190.113 60.7974 189.079C59.9752 188.046 58.6712 188.116 57.473 188.093C56.2748 188.069 54.83 187.787 54.3953 186.671C53.9607 185.555 54.7595 184.439 55.6288 183.676C56.498 182.912 57.5435 182.207 57.8607 181.091C58.0111 180.284 57.9545 179.451 57.6962 178.672C57.1559 176.51 56.6233 174.345 56.0986 172.176C55.956 171.41 55.6818 170.674 55.2881 170.002C52.9387 166.478 50.3191 171.647 49.4146 173.397C47.7215 176.821 47.3614 180.753 48.4043 184.428Z" fill="#263238"/>
<path d="M54.1954 187.588C55.5259 189.317 57.4842 190.452 59.646 190.748C62.524 191.1 63.5343 188.398 62.3831 185.943C61.3376 183.688 58.5888 180.81 55.8752 181.573C53.1617 182.337 52.5743 185.426 54.1954 187.588Z" fill="#E8BFBF"/>
<path d="M72.885 169.474C72.8659 169.583 72.8142 169.684 72.7366 169.764C72.6591 169.844 72.5593 169.898 72.4503 169.92C70.1009 170.367 68.7383 173.198 68.7383 173.221C68.6793 173.349 68.5725 173.449 68.4408 173.5C68.3091 173.55 68.1629 173.547 68.0334 173.491C67.9083 173.432 67.8111 173.327 67.7628 173.197C67.7145 173.068 67.7189 172.925 67.775 172.798C67.8807 172.692 69.3374 169.439 72.2506 168.875C72.3872 168.854 72.5266 168.886 72.6403 168.964C72.7539 169.043 72.833 169.162 72.8615 169.298C72.8866 169.353 72.8948 169.414 72.885 169.474Z" fill="#263238"/>
<path d="M79.1573 167.125C79.0788 167.112 78.9987 167.116 78.9218 167.137C78.845 167.157 78.7732 167.193 78.7109 167.242C78.5817 167.383 78.1471 167.63 78.3938 167.759C79.8269 168.487 81.8121 169.685 83.3393 169.439C83.5977 169.439 84.2085 169.169 84.0793 168.981C83.991 168.886 83.8797 168.816 83.7563 168.776C83.6328 168.737 83.5013 168.731 83.3745 168.757C82.1998 168.922 80.5435 167.782 79.4158 167.195C79.333 167.161 79.2461 167.137 79.1573 167.125Z" fill="#263238"/>
<path d="M73.0493 174.913L74.8701 173.738C74.8701 173.738 74.2945 175.606 73.0493 174.913Z" fill="#263238"/>
<path d="M72.8848 154.214C68.8791 153.486 68.3622 153.216 64.2977 153.474C60.1924 153.603 56.223 154.975 52.9149 157.409C49.8244 159.964 47.6443 163.451 46.7007 167.347C45.7773 171.23 45.6732 175.263 46.3953 179.188C46.525 181.063 47.3354 182.826 48.6742 184.146C48.8106 182.035 49.1689 179.944 49.7432 177.908C50.3421 175.853 51.5756 174.04 53.2673 172.728C54.0139 172.324 54.6572 171.753 55.1468 171.06C55.401 170.374 55.5438 169.652 55.5697 168.922C55.938 167.277 56.9215 165.835 58.3185 164.892C59.706 163.971 61.1913 163.207 62.7471 162.613C67.6926 160.487 73.0845 159.266 77.6424 156.399C76.1511 155.481 74.5535 154.747 72.8848 154.214Z" fill="#263238"/>
<path d="M52.3862 169.932C53.4619 171.238 54.9342 172.158 56.5799 172.551C58.5299 172.998 63.4049 172.88 63.6986 172.375C63.9923 171.87 62.2537 166.396 60.2802 166.067C61.6417 167.381 63.2675 168.39 65.0495 169.027C67.0657 169.43 69.1418 169.43 71.158 169.027C72.1917 168.792 69.8775 164.516 68.1977 163.295C73.2607 164.352 78.6173 165.562 82.2941 169.168C85.971 172.775 87.5568 178.484 87.3689 183.805C88.2304 183.111 88.9225 182.23 89.3927 181.228C89.8629 180.227 90.0988 179.132 90.0824 178.025C90.9693 180.777 91.2943 183.679 91.038 186.558C90.7817 189.438 89.9494 192.237 88.5905 194.788C93.9707 190.372 95.9794 182.654 94.5698 175.841C93.1601 169.027 88.6963 163.095 83.2809 158.737C78.5821 155.013 72.9905 152.229 67.0348 152.088C59.223 151.853 44.7507 160.734 52.3862 169.932Z" fill="#263238"/>
<path d="M58.718 201.343C58.718 200.956 58.812 200.439 58.859 199.898C58.9616 198.658 58.6003 197.423 57.8452 196.434C57.09 195.444 55.9946 194.77 54.771 194.542C54.4078 194.477 54.0684 194.316 53.7876 194.077C53.5068 193.837 53.2949 193.528 53.1734 193.179C52.2689 190.548 51.9165 189.749 51.0472 187.165C48.6978 186.589 45.8668 187.47 43.4117 187.728C42.7309 190.676 42.6828 193.735 43.2707 196.703C43.3649 197.367 43.6233 197.997 44.0225 198.536C46.2519 200.362 48.7175 201.88 51.3527 203.047C53.4671 203.693 56.4391 201.543 58.718 201.343Z" fill="#E8BFBF"/>
<path d="M51.5992 203.106C51.5992 203.106 45.1266 244.866 51.7989 251.268C55.7107 255.004 59.0938 252.936 61.1965 250.599C61.9673 249.728 62.5473 248.705 62.8993 247.596C63.2513 246.488 63.3675 245.318 63.2405 244.161L58.6944 201.379C58.6944 201.379 54.2305 198.736 51.5992 203.106Z" fill="#E8BFBF"/>
<path d="M121.141 240.814C123.799 238.494 125.705 235.435 126.616 232.027C126.823 230.825 126.902 229.604 126.851 228.386C126.792 220.82 124.654 206.947 124.654 206.947L118.51 204.915C118.51 204.915 116.595 215.487 116.161 221.267C116.078 222.442 115.949 223.746 115.808 225.167C115.538 227.751 115.209 230.594 114.916 232.955L121.141 240.814Z" fill="#E8BFBF"/>
<path d="M124.654 245.242C126.546 243.516 126.863 241.425 127.838 237.019C128.766 232.814 127.72 227.622 126.851 228.409C126.742 228.508 126.661 228.633 126.616 228.773C125.124 232.297 119.321 229.208 117.677 227.446C116.968 226.772 116.345 226.015 115.821 225.19C115.605 224.875 115.489 224.503 115.489 224.121C115.489 223.74 115.605 223.367 115.821 223.052C114.035 222.312 112.602 229.337 113.471 231.064L113.917 232.368C114.625 234.483 115.716 236.45 117.136 238.171L120.367 242.059L124.654 245.242Z" fill="#263238"/>
<path d="M118.345 205.796L117.617 195.059C119.517 195.964 121.48 196.729 123.491 197.35C126.474 198.372 130.539 196.575 129.599 198.525C128.101 201.426 126.43 204.235 124.595 206.936L118.345 205.796Z" fill="#E8BFBF"/>
<path d="M117.617 195.059L122.222 184.311L128.236 187.987C129.893 191.582 129.693 198.56 129.693 198.56C129.693 198.56 121.329 198.889 117.617 195.059Z" fill="#E8BFBF"/>
<path d="M77.9479 186.777C78.1006 187.541 78.6527 188.081 79.1226 187.952C79.5925 187.823 79.8862 187.141 79.7217 186.378C79.5573 185.614 79.0169 185.074 78.547 185.203C78.0771 185.332 77.7835 186.061 77.9479 186.777Z" fill="#263238"/>
<path d="M203.465 429.318C225.225 429.318 242.864 424.806 242.864 419.239C242.864 413.673 225.225 409.16 203.465 409.16C181.705 409.16 164.065 413.673 164.065 419.239C164.065 424.806 181.705 429.318 203.465 429.318Z" fill="#263238"/>
<path opacity="0.3" d="M203.465 425.959C225.225 425.959 242.864 422.198 242.864 417.56C242.864 412.921 225.225 409.16 203.465 409.16C181.705 409.16 164.065 412.921 164.065 417.56C164.065 422.198 181.705 425.959 203.465 425.959Z" fill="white"/>
<path d="M206.717 417.548H200.209L192.691 336.47H214.235L206.717 417.548Z" fill="#263238"/>
<path d="M214.235 336.47C214.235 338.819 209.419 340.746 203.463 340.746C197.508 340.746 192.691 338.831 192.691 336.47C192.691 334.109 197.519 332.194 203.463 332.194C209.407 332.194 214.235 334.109 214.235 336.47Z" fill="#263238"/>
<path opacity="0.7" d="M214.235 336.47C214.235 338.819 209.419 340.746 203.463 340.746C197.508 340.746 192.691 338.831 192.691 336.47C192.691 334.109 197.519 332.194 203.463 332.194C209.407 332.194 214.235 334.109 214.235 336.47Z" fill="white"/>
<path opacity="0.7" d="M71.71 337.739C71.7394 337.253 71.8658 336.779 72.0817 336.343C72.2976 335.907 72.5986 335.519 72.9669 335.201C82.0708 344.364 139.831 351.424 209.726 351.424C279.621 351.424 337.381 344.376 346.496 335.201C346.865 335.519 347.166 335.907 347.382 336.343C347.597 336.779 347.724 337.253 347.753 337.739C347.753 348.088 285.952 356.534 209.726 356.534C133.499 356.534 71.71 348.088 71.71 337.739Z" fill="white"/>
<path opacity="0.7" d="M73.0137 340.076C82.1176 330.914 139.878 323.865 209.772 323.865C279.667 323.865 337.427 330.914 346.543 340.076C337.427 349.239 279.667 356.299 209.772 356.299C139.878 356.299 82.1176 349.239 73.0137 340.076Z" fill="white"/>
<path opacity="0.7" d="M71.71 337.375C71.71 327.014 133.499 318.579 209.726 318.579C285.952 318.579 347.753 326.967 347.753 337.375C347.725 337.859 347.599 338.332 347.383 338.766C347.167 339.2 346.865 339.586 346.496 339.9C337.381 330.738 279.621 323.689 209.726 323.689C139.831 323.689 82.0708 330.738 72.9669 339.9C72.5979 339.586 72.2963 339.2 72.0803 338.766C71.8643 338.332 71.7383 337.859 71.71 337.375Z" fill="white"/>
<path d="M263.01 328.247L205.262 327.155C205.106 327.139 204.955 327.092 204.818 327.017C204.68 326.941 204.559 326.839 204.462 326.717C204.365 326.594 204.293 326.454 204.251 326.303C204.208 326.152 204.197 325.994 204.216 325.839C204.203 325.683 204.222 325.526 204.271 325.377C204.32 325.228 204.398 325.09 204.501 324.972C204.604 324.854 204.729 324.757 204.87 324.688C205.011 324.619 205.164 324.579 205.321 324.57L263.069 325.663C263.226 325.677 263.378 325.723 263.517 325.798C263.655 325.872 263.778 325.974 263.876 326.097C263.975 326.219 264.048 326.361 264.091 326.512C264.134 326.664 264.146 326.822 264.126 326.978C264.139 327.136 264.12 327.294 264.07 327.443C264.021 327.593 263.941 327.731 263.837 327.85C263.733 327.968 263.606 328.064 263.464 328.132C263.322 328.201 263.168 328.24 263.01 328.247Z" fill="#263238"/>
<path opacity="0.2" d="M263.01 328.247L205.262 327.155C205.106 327.139 204.955 327.092 204.818 327.017C204.68 326.941 204.559 326.839 204.462 326.717C204.365 326.594 204.293 326.454 204.251 326.303C204.208 326.152 204.197 325.994 204.216 325.839C204.203 325.683 204.222 325.526 204.271 325.377C204.32 325.228 204.398 325.09 204.501 324.972C204.604 324.854 204.729 324.757 204.87 324.688C205.011 324.619 205.164 324.579 205.321 324.57L263.069 325.663C263.226 325.677 263.378 325.723 263.517 325.798C263.655 325.872 263.778 325.974 263.876 326.097C263.975 326.219 264.048 326.361 264.091 326.512C264.134 326.664 264.146 326.822 264.126 326.978C264.139 327.136 264.12 327.294 264.07 327.443C264.021 327.593 263.941 327.731 263.837 327.85C263.733 327.968 263.606 328.064 263.464 328.132C263.322 328.201 263.168 328.24 263.01 328.247Z" fill="white"/>
<path d="M291.05 324.03L263.445 328.2C263.143 328.2 262.853 328.085 262.634 327.877C262.415 327.669 262.285 327.385 262.27 327.084C262.222 326.768 262.292 326.446 262.468 326.179C262.644 325.912 262.912 325.72 263.221 325.639L290.827 321.469C291.128 321.469 291.419 321.584 291.637 321.792C291.856 322 291.986 322.284 292.002 322.585C292.05 322.901 291.979 323.223 291.803 323.49C291.628 323.757 291.359 323.949 291.05 324.03Z" fill="#263238"/>
<path d="M290.803 321.469H232.444L205.32 324.57L261.495 325.627L290.803 321.469Z" fill="#263238"/>
<path opacity="0.6" d="M290.803 321.469H232.444L205.32 324.57L261.495 325.627L290.803 321.469Z" fill="white"/>
<path opacity="0.5" d="M291.05 324.03L263.445 328.2C263.143 328.2 262.853 328.085 262.634 327.877C262.415 327.669 262.285 327.385 262.27 327.084C262.222 326.768 262.292 326.446 262.468 326.179C262.644 325.912 262.912 325.72 263.221 325.639L290.827 321.469C291.128 321.469 291.419 321.584 291.637 321.792C291.856 322 291.986 322.284 292.002 322.585C292.05 322.901 291.979 323.223 291.803 323.49C291.628 323.757 291.359 323.949 291.05 324.03Z" fill="white"/>
<path d="M261.494 325.628L207.646 324.617C206.631 324.488 205.698 323.991 205.025 323.22C204.352 322.45 203.984 321.459 203.992 320.435L202.371 287.92C202.254 285.653 203.722 283.832 205.614 283.867L259.462 284.889C260.479 285.013 261.415 285.509 262.089 286.281C262.763 287.053 263.129 288.046 263.115 289.071L264.748 321.575C264.854 323.842 263.397 325.663 261.494 325.628Z" fill="#6566E5"/>
<path opacity="0.2" d="M261.494 325.628L207.646 324.617C206.631 324.488 205.698 323.991 205.025 323.22C204.352 322.45 203.984 321.459 203.992 320.435L202.371 287.92C202.254 285.653 203.722 283.832 205.614 283.867L259.462 284.889C260.479 285.013 261.415 285.509 262.089 286.281C262.763 287.053 263.129 288.046 263.115 289.071L264.748 321.575C264.854 323.842 263.397 325.663 261.494 325.628Z" fill="white"/>
<path d="M259.92 325.463L206.072 324.441C205.054 324.314 204.119 323.818 203.443 323.047C202.768 322.276 202.399 321.284 202.406 320.259L200.785 287.802C200.668 285.535 202.136 283.714 204.039 283.749L257.876 284.76C258.893 284.886 259.829 285.382 260.504 286.153C261.18 286.924 261.549 287.916 261.541 288.941L263.186 321.41C263.28 323.677 261.811 325.498 259.92 325.463Z" fill="#6566E5"/>
<path opacity="0.6" d="M259.92 325.463L206.072 324.441C205.054 324.314 204.119 323.818 203.443 323.047C202.768 322.276 202.399 321.284 202.406 320.259L200.785 287.802C200.668 285.535 202.136 283.714 204.039 283.749L257.876 284.76C258.893 284.886 259.829 285.382 260.504 286.153C261.18 286.924 261.549 287.916 261.541 288.941L263.186 321.41C263.28 323.677 261.811 325.498 259.92 325.463Z" fill="white"/>
<path d="M224.844 304.048C225.002 305.595 225.721 307.031 226.867 308.083C228.012 309.135 229.503 309.731 231.058 309.757C231.789 309.77 232.515 309.627 233.186 309.337C233.858 309.048 234.461 308.619 234.954 308.079C235.447 307.54 235.82 306.901 236.047 306.206C236.275 305.511 236.352 304.775 236.274 304.048C236.103 302.509 235.378 301.085 234.235 300.041C233.092 298.997 231.608 298.405 230.06 298.374C229.332 298.363 228.609 298.505 227.941 298.792C227.272 299.079 226.671 299.505 226.178 300.041C225.686 300.577 225.312 301.211 225.082 301.902C224.852 302.592 224.771 303.324 224.844 304.048Z" fill="white"/>
</svg>
