<svg viewBox="0 0 450.95 383.39" version="1.1" id="svg370" xmlns:xlink="http://www.w3.org/1999/xlink" xmlns="http://www.w3.org/2000/svg">
    <defs id="defs10">
        <linearGradient id="linear-gradient" x1="95.03" y1="176.98" x2="95.03" y2="181.53" gradientTransform="translate(7.13 -78.52)" gradientUnits="userSpaceOnUse">
            <stop offset="0" stop-color="#293267" id="stop4"/>
            <stop offset="1" stop-color="#3b467e" id="stop6"/>
        </linearGradient>
        <linearGradient id="linear-gradient-2" x1="94.91" y1="165.18" x2="94.91" y2="173.83" gradientTransform="rotate(-5.64 -698.477 65.007)" xlink:href="#linear-gradient"/>
        <style id="style2">
            .cls-1{fill:#778ff6}.cls-2{fill:#293267}.cls-5,.cls-6{stroke-linecap:round}.cls-5{stroke:#fff}.cls-6{fill:none}.cls-8{fill:#bab7f6}.cls-10,.cls-5,.cls-9{fill:#fff}.cls-11{fill:#ffc6c5}.cls-12{fill:#e3e9ff}.cls-5,.cls-6{stroke-linejoin:round}.cls-14{fill:#384172}.cls-15,.cls-16{fill:#6ae0f6}.cls-17{fill:#ffa9a7}.cls-16{mix-blend-mode:multiply;opacity:.6}.cls-10{mix-blend-mode:overlay}.cls-6{stroke:#4bb6f6;stroke-width:.65px}.cls-20{fill:#ffa}.cls-21{fill:#637ff5}.cls-25{fill:#ff867e}.cls-10{opacity:.2}.cls-26{fill:#e16c7a}
        </style>
    </defs>
    <g id="g368" style="isolation:isolate">
        <g id="Layer_2" data-name="Layer 2">
            <g id="BACKGROUND_1" data-name="BACKGROUND 1">
                <g id="g364">
                    <g id="g26">
                        <path class="cls-10" d="M248.59 48.29c2.16 3.38 5.12 5.55 8.69 4.96 2.26-.38 4.09-2.22 4.97-4.34.88-2.12.95-4.49.81-6.78-.29-4.59-1.49-9.27-4.35-12.88-2.71-3.42-8.85-7.79-12.33-3.08-3.21 4.35-2 15.54 2.21 22.12Z" id="path12"/>
                        <path class="cls-10" d="M413.23 274.56c2.82 1.67 6.85 1.37 8.98-1.12 1.53-1.78 1.88-4.3 1.72-6.65-.37-5.38-6.4-15.5-12.75-10.26-5.14 4.24-3.29 14.87 2.05 18.03Z" id="path14"/>
                        <path class="cls-10" d="M439.11 278.23c-.25-3.91-4.5-5.23-7.26-2.69-3.03 2.78-1.64 7.86 2.84 7.61 2.45-.13 4.58-2.47 4.42-4.92Z" id="path16"/>
                        <path class="cls-10" d="M14.44 265.24c9.32-4.75 1.07-17.33-7.73-13.91-9.49 3.69-1.18 18.45 7.73 13.91Z" id="path18"/>
                        <path class="cls-10" d="M23.47 315.74c-.81-3.35-5.76-4.66-8.1-2.05-2.84 3.18.27 9.04 4.57 7.96 2.47-.62 4.13-3.44 3.53-5.91Z" id="path20"/>
                        <path class="cls-10" d="M130.31 32.07c9.26-8.26-3.42-22.75-12.9-15.21-9.9 7.87 3.15 23.92 12.9 15.21Z" id="path22"/>
                        <path class="cls-10" d="M32.74 275.56c3.31 14.19-.19 29.21-3.72 43.33-3.53 14.12-7.12 29.08-3.97 43.32.9 4.08 2.59 8.02 4.82 11.45h404.89c6.15-7.93 11.09-16.91 13.98-27.12 6.66-23.54-2.01-54.21-22.28-61.36-5.31-1.87-11.19-2.16-15.75-5.84-7.45-6.01-8.37-18.18-9.23-28.72-.86-10.54-3.69-22.95-12.28-26.26-12.23-4.71-26.6 13.1-37.09 4.36-5.93-4.94-5.86-15.33-3.73-23.47s5.74-16.23 4.8-24.67c-1.76-15.85-18.09-23.27-31.74-23.1-13.65.17-27.91 4.46-40.59-1.47-12.45-5.83-20.43-20.47-24.36-35.48-3.92-15.01-4.59-30.89-7.16-46.3-3.93-23.53-12.99-46.88-29.27-61.41-16.28-14.53-40.72-17.95-57.16-3.66-10.85 9.43-18.08 25.72-31.25 29.28-13.87 3.75-29.26-8.52-42.03-1.17-10.24 5.89-13.13 21.45-12.64 34.79.48 13.34 3.02 27.24-1.08 39.7-8.22 24.99-36.59 29.43-54.25 46.45C4.08 175.15-1.52 206.95 8.9 230.64c6.93 15.76 19.87 27.83 23.86 44.93Z" id="path24"/>
                    </g>
                    <ellipse cx="222.01" cy="375.06" rx="222.01" ry="8.33" id="ellipse28" style="fill:#ef9dbd"/>
                    <g id="g40">
                        <path class="cls-1" d="M372.87 319.81v-2.28H94.42c-3.02 0-5.47 2.45-5.47 5.47v17.12c0 3.02 2.45 5.47 5.47 5.47h278.45v-2.28h-1.49V319.8h1.49Z" id="path30"/>
                        <path class="cls-15" d="M382.95 347.88v-2.28H77.13c-3.02 0-5.47 2.45-5.47 5.47v17.12c0 3.02 2.45 5.47 5.47 5.47h305.81v-2.28h-1.49v-23.51h1.49Z" id="path32"/>
                        <path class="cls-9" d="M119.69 319.81h251.68v23.51H119.69a4.58 4.58 0 0 1-4.58-4.58V324.4a4.58 4.58 0 0 1 4.58-4.58Z" id="path34"/>
                        <path class="cls-9" d="M137.93 347.88h243.52v23.51H137.93a4.58 4.58 0 0 1-4.58-4.58v-14.34a4.58 4.58 0 0 1 4.58-4.58Z" id="path36"/>
                        <path id="rect38" style="fill:#4bb6f6" d="M78.2 352.08h36.91v14.44H78.2z"/>
                    </g>
                    <g id="g48">
                        <path class="cls-25" d="M139.14 298.03v-3.67H374.8c4.87 0 8.82 3.95 8.82 8.82v5.54c0 4.87-3.95 8.82-8.82 8.82H139.14v-3.67h2.4v-15.84h-2.4Z" id="path42"/>
                        <path d="M374.8 294.36h-60.98c4.87 0 8.82 3.95 8.82 8.82v5.54c0 4.87-3.95 8.82-8.82 8.82h60.98c4.87 0 8.82-3.95 8.82-8.82v-5.54c0-4.87-3.95-8.82-8.82-8.82Z" id="path44" style="fill:#e45f55"/>
                        <path class="cls-9" d="M141.54 313.86H310.1c4.08 0 7.39-3.31 7.39-7.39v-1.06c0-4.08-3.31-7.39-7.39-7.39H141.54v15.84Z" id="path46"/>
                    </g>
                    <g id="g120">
                        <g id="g100">
                            <path class="cls-17" d="M57.89 107.28S55.26 97.65 55.75 97c.49-.66 1.44 2.18 1.44 2.18s-.7-6.2-.09-6.94c.62-.74 2.34 6.33 2.34 6.33s-.9-6.33 0-6.82c.9-.49 2.05 6.16 2.05 6.16s-.33-4.85.58-5.34c.9-.49 3.62 9.53 3.62 9.53l-1.67 6.3-6.14-1.11Z" id="path50"/>
                            <g id="g60">
                                <path class="cls-2" id="polygon52" d="m111.61 276.03 31.68-10.7-33.01-81.61-11.76 2.39 13.09 89.92z"/>
                                <path class="cls-8" d="M88.24 177.85c3.9 59.24 18.04 134.06 18.04 134.06l-6.08 5.49h20.73l-18.11-129.28h6.21l45.82 129.36h21.52l-9.63-5.72-45.22-131.2-33.28-2.71Z" id="path54"/>
                                <path class="cls-12" d="M93.99 130.17c8.25-2.31 19.84-4.35 19.84-4.35l7.69 54.74-30.19-1.68 2.66-48.7Z" id="path56"/>
                                <path class="cls-14" d="M80.79 146.87c1.03 21.16 12.01 120.2 16.09 140.73 3.68-.58 10.23-4.41 13.91-4.98C106.5 256.81 94.06 156.57 94 130.17c-10.77 2.82-21.41 4.95-32.48 6.1 2.47-11.22 3.82-19.8 7.04-29.33-3.08-.78-9.08-2.31-12.16-3.09 0 0-10.2 35.53-7.1 40.27 5.27 8.06 31.5 2.75 31.5 2.75Z" id="path58"/>
                            </g>
                            <path class="cls-9" d="M102.61 124.83c-3.32.2-4.45.81-3.99 3.61.46 2.79 1.45 6.04 2.85 5.23 1.39-.81 3.1-3.09 3.1-3.09s2.6 3.41 4.45 2.57c1.85-.84 1.17-7.9 0-8.31s-3.65-.17-6.4 0Z" id="path62"/>
                            <path class="cls-17" d="M103.75 129.69c-1.68-.08-3.03-1.49-2.95-3.16.09-1.89-.24-3.64-3.33-5.06-6.46-2.97-6.6-26.99 5.31-26.44 11.91.55 10.44 16.73 10.17 21.18-.27 4.45-4.25 5.39-5.31 6.95-.47.69-.62 2.09-.63 3.43-.02 1.77-1.49 3.18-3.26 3.1Z" id="path64"/>
                            <path class="cls-9" d="M91.76 105.76s-3.69 2.98 1.33 4.46l1.62 4.26s1.47 0 1.34-5.39c0 0 2.57-1.71 1.37-4.41l-5.66 1.09Z" id="path66"/>
                            <path class="cls-9" d="m113.84 103.59 5.06.6s-7.72 7.88-11.78-.28l6.72-.32Z" id="path68"/>
                            <path class="cls-17" d="M94.71 112.88c-.07 1.46-1.16 2.59-2.42 2.53-1.26-.06-2.23-1.3-2.15-2.76.07-1.46 1.16-2.59 2.42-2.53 1.26.06 2.23 1.3 2.15 2.76Z" id="path70"/>
                            <path class="cls-17" d="M116.18 111.91c-.07 1.46-1.16 2.59-2.42 2.53-1.26-.06-2.23-1.3-2.15-2.76s1.16-2.59 2.42-2.53 2.23 1.3 2.15 2.76Z" id="path72"/>
                            <path class="cls-2" d="M101.42 112.35c.01.65-.5 1.19-1.15 1.2-.65.01-1.19-.5-1.2-1.15-.01-.65.5-1.19 1.15-1.2.65-.01 1.19.5 1.2 1.15Zm5.97-1.3c-.65.01-1.17.55-1.15 1.2.01.65.55 1.17 1.2 1.15.65-.01 1.17-.55 1.15-1.2-.01-.65-.55-1.17-1.2-1.15Z" id="path74"/>
                            <path class="cls-2" d="M98.33 107.53c-.06 0-.13-.02-.18-.07-.1-.1-.1-.26 0-.35.87-.87 2.23-1.18 3.39-.77.13.05.2.19.15.32-.05.13-.19.2-.32.15-.97-.34-2.15-.07-2.87.65-.05.05-.11.07-.18.07Z" id="path76"/>
                            <path class="cls-2" d="M108.61 107.14s-.09-.01-.13-.04c-.93-.57-2.15-.62-3.12-.13-.12.06-.27.01-.34-.11a.263.263 0 0 1 .11-.34c1.12-.56 2.54-.5 3.61.16.12.07.15.23.08.34-.05.08-.13.12-.21.12Z" id="path78"/>
                            <path class="cls-26" d="M104.35 115.33c-.16 0-.3-.05-.42-.15a.244.244 0 0 1-.04-.35c.09-.11.24-.13.35-.04.05.04.11.05.19.03a.52.52 0 0 0 .31-.27c.1-.26.04-.58-.05-.93l-.75-3c-.03-.13.05-.27.18-.3.13-.04.27.05.3.18l.76 3c.09.34.2.81.03 1.24-.11.27-.36.49-.64.57-.07.02-.14.03-.21.03Z" id="path80"/>
                            <path class="cls-26" d="M104.4 117.52c-.13 0-.25 0-.38-.01-1.24-.1-2.44-.67-3.29-1.58-.09-.1-.09-.26.01-.35.1-.09.26-.09.35.01.77.82 1.85 1.34 2.96 1.42 1.11.08 2.26-.26 3.15-.95.11-.09.27-.07.35.04.08.11.07.27-.04.35-.88.69-2 1.07-3.12 1.07Z" id="path82"/>
                            <path class="cls-26" d="M113.08 112.99h-.01c-.14 0-.24-.12-.24-.26l.1-2c0-.14.11-.25.26-.24.14 0 .24.12.24.26l-.1 2c0 .13-.12.24-.25.24Z" id="path84"/>
                            <path class="cls-26" d="M93.56 114.02c-.1 0-.19-.06-.23-.16l-.6-1.46a.25.25 0 0 1 .14-.33c.13-.05.27 0 .33.14l.6 1.46c.05.13 0 .27-.14.33-.03.01-.06.02-.09.02Z" id="path86"/>
                            <path class="cls-9" d="m113.83 106.72-.75 3.52s-1.09.53-1.19-2.36c-.09-2.89 1.93-1.16 1.93-1.16Z" id="path88"/>
                            <path class="cls-9" d="m61.18 100.45 1.88-1.05 11.16-12.83s4.88-1.07 4.76 4.2l1.38-1.05s.84.95-1.38 3.41c-2.21 2.45-14.81 8.12-14.81 8.12s-9.09 10.28-11.47 12.53-5.53 2.55-7.47-.75c-1.94-3.29.15-6.83 2.85-8.32 2.69-1.49 13.11-4.26 13.11-4.26Z" id="path90"/>
                            <path class="cls-25" id="polygon92" d="m58.31 101.25 2.53 3.73 6.95-5.42-1.91-3.4-7.57 5.09z"/>
                            <path class="cls-17" d="m64.28 102.3-.12-1.05s-2.64.11-2.98-.8c-.34-.91 4.41-1.56 5.16-1.15.75.41.66 5 .09 7.1l-3.94-1.01 1.8-3.09Z" id="path94"/>
                            <path class="cls-14" d="M113.83 125.82s1.82 52.84 14.31 89.24c12.49 36.4 20.17 56.1 20.17 56.1l13.52-7s-18.67-42.64-26.18-66.47c-7.51-23.83-12.05-56.18-12.05-56.18l21.27 19.45-9.33 28.94 14.64 6.98 7.73-37.94a8.68 8.68 0 0 0-2.72-8.21c-8.89-7.93-31.44-26.93-41.36-24.92Z" id="path96"/>
                            <path class="cls-17" d="M135.54 189.9s-3.34 8.53-3.24 10.67 2.89-.24 2.63 2.02c-.27 2.26-.68 3.46 1.86 2.79 2.54-.67 3.24 3.61 4.82 2.27 1.58-1.34 4.83-4.26 3.67-5.06s-3.66 0-3.66 0 3.08-5.74-.41-6.41l.74-3.23-6.41-3.06Z" id="path98"/>
                        </g>
                        <g id="g112">
                            <g id="g106">
                                <path transform="rotate(-5.63 102.293 98.4)" id="rect102" style="fill:url(#linear-gradient)" d="M91.08 91.9h22.18v12.81H91.08z"/>
                                <path id="polygon104" style="fill:url(#linear-gradient-2)" d="m100.74 85.12-20.71 8.93 22.06 4.72 20.71-8.94-22.06-4.71z"/>
                            </g>
                            <path class="cls-20" d="M88.16 101.5a.252.252 0 0 1-.27-.22l-.55-5.59c-.01-.11.05-.21.16-.25l13.68-5.19c.13-.05.27.02.31.14.05.13-.02.27-.14.31l-13.51 5.13.53 5.41c.01.13-.08.25-.22.27Z" id="path108"/>
                            <path class="cls-20" d="m89.37 104.98-1.64.16-.36-3.63c-.04-.45.29-.86.74-.9.45-.04.86.29.9.74l.36 3.63Z" id="path110"/>
                        </g>
                        <g id="g118">
                            <path class="cls-2" id="polygon114" d="m120.15 311.87-13.87.04-6.08 5.48h20.73l-.78-5.52z"/>
                            <path class="cls-2" id="polygon116" d="m154.83 317.45 21.53.03-9.63-5.72-13.9.03 2 5.66z"/>
                        </g>
                    </g>
                    <g id="g194">
                        <g id="g128">
                            <path class="cls-11" d="M385.75 244.63c-.24 0-.44-.2-.44-.44v-.88c0-.24.2-.44.44-.44s.44.2.44.44v.88c0 .24-.2.44-.44.44Z" id="path122"/>
                            <path class="cls-11" d="M385.75 239.61c-.24 0-.44-.2-.44-.44v-1.66c0-.24.2-.44.44-.44s.44.2.44.44v1.66c0 .24-.2.44-.44.44Zm0-5.79c-.24 0-.44-.2-.44-.44v-1.66c0-.24.2-.44.44-.44s.44.2.44.44v1.66c0 .24-.2.44-.44.44Zm0-5.79c-.24 0-.44-.2-.44-.44v-1.66c0-.24.2-.44.44-.44s.44.2.44.44v1.66c0 .24-.2.44-.44.44Zm0-5.79c-.24 0-.44-.2-.44-.44v-1.66c0-.24.2-.44.44-.44s.44.2.44.44v1.66c0 .24-.2.44-.44.44Zm0-5.79c-.24 0-.44-.2-.44-.44v-1.66c0-.24.2-.44.44-.44s.44.2.44.44v1.66c0 .24-.2.44-.44.44Zm0-5.79c-.24 0-.44-.2-.44-.44v-1.65c0-.24.2-.44.44-.44s.44.2.44.44v1.65c0 .24-.2.44-.44.44Z" id="path124"/>
                            <path class="cls-11" d="M385.75 204.85c-.24 0-.44-.2-.44-.44v-.88c0-.24.2-.44.44-.44s.44.2.44.44v.88c0 .24-.2.44-.44.44Z" id="path126"/>
                        </g>
                        <path class="cls-9" d="M398.39 168.61c-.57 0-1.12.06-1.65.16-.88-5.78-5.85-10.22-11.88-10.22-6.65 0-12.03 5.39-12.03 12.03 0 .46.03.91.08 1.36-.45-.09-.91-.14-1.39-.14-4.06 0-7.34 3.29-7.34 7.34s3.29 7.34 7.34 7.34h26.88c4.94 0 8.94-4 8.94-8.94s-4-8.94-8.94-8.94Z" id="path130"/>
                        <path class="cls-5" id="polygon132" d="m385.75 189.92-3.13 4.22h1.15v6.13h3.96v-6.13h1.14l-3.12-4.22z"/>
                        <g id="g148" style="mix-blend-mode:multiply;opacity:.6">
                            <path class="cls-11" d="M338.45 153.36c-.14 0-.28-.07-.36-.19-5-7.35-4.65-18.08.86-26.7 4.42-6.91 11.82-12.53 21.99-16.68 1.11-.45 2.23-.89 3.36-1.32 5.13-1.98 10.44-4.03 14.18-7.99 4.12-4.38 5.7-10.45 6.61-15.24.29-1.53.55-3.09.79-4.61.66-4.05 1.34-8.23 2.79-12.16 2.32-6.28 6.49-10.82 11.42-12.45.23-.08.48.05.55.28a.43.43 0 0 1-.28.55c-4.68 1.55-8.65 5.9-10.88 11.93-1.42 3.84-2.1 7.99-2.75 11.99-.25 1.52-.5 3.09-.8 4.63-.94 4.91-2.56 11.13-6.84 15.68-3.87 4.11-9.27 6.2-14.5 8.21-1.12.43-2.24.86-3.34 1.31-10 4.09-17.26 9.59-21.59 16.34-5.33 8.33-5.68 18.67-.87 25.73.14.2.08.47-.12.61-.08.05-.16.08-.25.08Z" id="path134"/>
                            <path class="cls-11" d="M340.95 148.43c-.23 0-.42-.18-.44-.41-.71-10.21 4.61-20.77 13.22-26.28 4.12-2.64 8.91-4.21 13.53-5.74 6.21-2.04 12.07-3.97 16.6-8.26 5.15-4.87 7.45-11.92 9.68-18.74 2.16-6.6 4.38-13.42 9.18-18.44a.44.44 0 0 1 .62-.01c.17.17.18.44.01.62-4.66 4.88-6.86 11.61-8.98 18.11-2.26 6.92-4.6 14.08-9.91 19.11-4.67 4.42-10.9 6.47-16.93 8.45-4.57 1.5-9.3 3.06-13.33 5.64-8.35 5.35-13.51 15.59-12.82 25.48.02.24-.17.45-.41.47h-.03Z" id="path136"/>
                            <path class="cls-11" d="M349.23 141.43c-.24 0-.44-.2-.43-.44.08-6.48 5.62-11.25 10.78-13.55 3.01-1.34 6.24-2.19 9.37-3.01 2.54-.66 5.16-1.35 7.63-2.3 13.25-5.07 22.01-15.37 26.05-30.63.06-.23.3-.37.54-.31.23.06.37.3.31.54-4.11 15.54-13.05 26.04-26.58 31.22-2.52.96-5.17 1.66-7.73 2.33-3.09.81-6.29 1.65-9.23 2.96-4.68 2.09-10.18 6.69-10.26 12.76 0 .24-.2.43-.44.43Z" id="path138"/>
                            <path class="cls-11" d="m345.43 115.86-3.03.66c-.06.01-.11.04-.16.07 0 0 0 .01-.01.02s-.02.03-.04.04c-.03.04-.06.07-.08.12 0 0-.01.02-.02.03v.03c-.01.05-.02.09-.02.14v.06a.4.4 0 0 0 .07.18l1.78 2.43 4.13 5.63c-1.13.59-2.71 2.85-2.53 4.48.06.54.38 1.47 1.84 1.69.75.11 1.39-.03 1.9-.4.24-.18.45-.4.61-.68.79-1.3.52-3.39-.63-4.95l-4.21-5.74 2.38-.52a.38.38 0 0 0 .17-.08.431.431 0 0 0 .09-.61l-1.78-2.43a.436.436 0 0 0-.45-.17Z" id="path140"/>
                            <path class="cls-11" d="m380.38 100.37-2.71 1.51c-.05.03-.1.07-.13.12v.02c-.01.02-.02.03-.02.05-.02.04-.04.09-.04.14v.06c0 .05 0 .09.03.14 0 .02 0 .04.02.05.03.06.07.11.12.15l2.41 1.81 5.58 4.19c-.91.89-1.77 3.52-1.12 5.02.21.5.79 1.3 2.25 1.08.75-.11 1.33-.43 1.7-.93.18-.24.31-.51.39-.83.37-1.47-.48-3.39-2.04-4.56l-5.69-4.27 2.12-1.18c.05-.03.1-.07.14-.12.05-.07.08-.15.09-.23a.456.456 0 0 0-.17-.38l-2.41-1.81a.44.44 0 0 0-.48-.03Z" id="path142"/>
                            <path class="cls-11" d="m373.85 113.09-10.56.66h-.02c-.05 0-.09.01-.14.03l-.02.02c-.02.01-.04.03-.05.04-.04.03-.07.06-.09.09 0 0-.02.01-.02.02v.03c-.02.04-.03.09-.04.13v.05c0 .06 0 .13.04.19l1.28 2.73 2.97 6.32c-1.22.36-3.21 2.28-3.34 3.91-.04.54.09 1.52 1.48 2.01.71.25 1.37.24 1.94-.03.27-.13.51-.31.73-.55 1.02-1.13 1.16-3.22.34-4.98l-3.04-6.47 9.65-.61 2.84 6.04c-1.22.36-3.21 2.28-3.34 3.91-.04.54.09 1.52 1.48 2.01.71.25 1.37.24 1.94-.03.27-.13.51-.31.73-.55 1.02-1.13 1.16-3.22.34-4.98l-4.59-9.78a.417.417 0 0 0-.45-.24Z" id="path144"/>
                            <path class="cls-11" d="m386.91 69.35-8.33 6.51s0 .02-.02.03c-.03.03-.07.06-.09.1v.03c-.01.02-.01.04-.02.06-.01.04-.02.08-.02.13v.03c0 .01 0 .02.01.03 0 .05.02.09.04.13 0 .02.01.03.02.05.04.05.08.1.14.14l2.6 1.53 6.02 3.53c-.8.99-1.36 3.69-.55 5.12.27.47.93 1.2 2.35.82.73-.19 1.27-.58 1.58-1.12.15-.26.25-.55.29-.87.21-1.51-.86-3.32-2.54-4.3l-6.16-3.62 7.62-5.96 5.75 3.38c-.8.99-1.36 3.69-.55 5.12.27.47.93 1.2 2.35.82.73-.19 1.27-.58 1.58-1.12.15-.26.25-.55.29-.87.21-1.51-.86-3.32-2.54-4.3l-9.31-5.47a.436.436 0 0 0-.51.05Z" id="path146"/>
                        </g>
                        <g id="g154">
                            <path class="cls-9" d="M331.32 103.88c-.17-.25-4.18-6.23-11.43-6.23s-11.26 5.98-11.43 6.23l-.14.22v.74l.14.22c.17.25 4.18 6.23 11.43 6.23s11.26-5.98 11.43-6.23l.14-.22v-.74l-.14-.22Zm-11.43 5.66c-5.3 0-8.73-3.84-9.69-5.07.96-1.23 4.38-5.07 9.69-5.07s8.73 3.84 9.69 5.07c-.96 1.23-4.38 5.07-9.69 5.07Z" id="path150"/>
                            <path class="cls-9" d="M319.89 100.31c-2.29 0-4.16 1.87-4.16 4.16s1.87 4.16 4.16 4.16 4.16-1.87 4.16-4.16-1.87-4.16-4.16-4.16Z" id="path152"/>
                        </g>
                        <g id="g168">
                            <path class="cls-8" transform="rotate(55.72 59.004 306.996)" id="rect156" d="M54.75 303.88h8.5v6.2h-8.5z"/>
                            <rect class="cls-14" x="53.58" y="317.91" width="33.55" height="11.46" rx="1.58" ry="1.58" transform="rotate(55.72 70.355 323.64)" id="rect158"/>
                            <g id="g166">
                                <path class="cls-9" d="M65.45 268.58c-8.39-12.3-25.16-15.48-37.46-7.09s-15.48 25.16-7.09 37.46 25.16 15.48 37.46 7.09 15.48-25.16 7.09-37.46Zm-40.89 27.87c-7.01-10.28-4.35-24.29 5.93-31.3 10.28-7.01 24.29-4.35 31.3 5.93 7.01 10.28 4.35 24.29-5.93 31.3-10.28 7.01-24.29 4.35-31.3-5.93Z" id="path160"/>
                                <circle cx="43.17" cy="283.76" r="22.53" id="circle162" style="mix-blend-mode:overlay;fill:#fff;opacity:.4"/>
                                <path d="M57.54 273.97c5.41 7.93 3.36 18.75-4.57 24.15" id="path164" style="fill:none;opacity:.4;stroke-linecap:round;stroke:#fff;mix-blend-mode:screen;stroke-miterlimit:10;stroke-width:6px"/>
                            </g>
                        </g>
                        <g id="g174">
                            <path class="cls-25" d="M432.23 309.3a.734.734 0 0 1-1.25-.52c0-.97-.38-1.88-1.06-2.57s-1.6-1.06-2.57-1.06c-2.81 0-5.1-2.29-5.1-5.1 0-.97-.38-1.88-1.06-2.57a3.6 3.6 0 0 0-2.57-1.06 5.06 5.06 0 0 1-3.6-1.49 5.06 5.06 0 0 1-1.49-3.6c0-.4.33-.73.73-.73.4 0 .73.33.73.73 0 .97.38 1.88 1.06 2.57s1.6 1.06 2.57 1.06c1.36 0 2.64.53 3.6 1.49a5.06 5.06 0 0 1 1.49 3.6c0 .97.38 1.88 1.06 2.57a3.6 3.6 0 0 0 2.57 1.06c1.36 0 2.64.53 3.6 1.49s1.49 2.24 1.49 3.6c0 .2-.08.39-.21.52Z" id="path170"/>
                            <path class="cls-25" d="M426.51 315.01a.734.734 0 0 1-1.25-.52c0-2-1.63-3.63-3.63-3.63-2.81 0-5.1-2.29-5.1-5.1 0-.97-.38-1.88-1.06-2.57s-1.6-1.06-2.57-1.06a5.06 5.06 0 0 1-3.6-1.49 5.06 5.06 0 0 1-1.49-3.6c0-.4.33-.73.73-.73s.73.33.73.73c0 2 1.63 3.63 3.63 3.63 2.81 0 5.1 2.29 5.1 5.1 0 .97.38 1.88 1.06 2.57s1.6 1.06 2.57 1.06c1.36 0 2.64.53 3.6 1.49s1.49 2.24 1.49 3.6c0 .2-.08.39-.21.52Z" id="path172"/>
                        </g>
                        <g id="g180">
                            <path class="cls-9" d="M58.88 176.24a.738.738 0 0 1 .07 1.36 3.59 3.59 0 0 0-1.86 2.06c-.32.91-.27 1.9.14 2.78 1.21 2.54.12 5.58-2.41 6.79a3.59 3.59 0 0 0-1.86 2.06c-.33.91-.27 1.9.14 2.78.58 1.23.66 2.61.2 3.89a5.101 5.101 0 0 1-2.61 2.9c-.37.17-.8.02-.98-.35-.17-.37-.02-.8.35-.98a3.59 3.59 0 0 0 1.86-2.06c.32-.91.27-1.9-.14-2.78a5.075 5.075 0 0 1-.2-3.9 5.053 5.053 0 0 1 2.61-2.89 3.59 3.59 0 0 0 1.86-2.06c.33-.91.28-1.9-.14-2.78a5.052 5.052 0 0 1-.2-3.89 5.101 5.101 0 0 1 2.61-2.9c.18-.09.38-.09.56-.03Z" id="path176"/>
                            <path class="cls-9" d="M66.49 178.95a.738.738 0 0 1 .07 1.36 3.635 3.635 0 0 0-1.72 4.84c1.21 2.54.12 5.58-2.41 6.79a3.59 3.59 0 0 0-1.86 2.06c-.33.91-.28 1.9.14 2.78.58 1.23.66 2.61.2 3.89a5.101 5.101 0 0 1-2.61 2.9c-.37.17-.8.02-.98-.35-.17-.37-.02-.8.35-.98a3.635 3.635 0 0 0 1.72-4.84c-1.21-2.54-.12-5.58 2.41-6.79a3.59 3.59 0 0 0 1.86-2.06c.33-.91.28-1.9-.14-2.78a5.052 5.052 0 0 1-.2-3.89 5.101 5.101 0 0 1 2.61-2.9c.18-.09.38-.09.56-.03Z" id="path178"/>
                        </g>
                        <path class="cls-20" d="m322.86 140.67-8.18 2.19c-.39.1-.79-.13-.9-.52l-2.19-8.18c-.1-.39.13-.79.52-.9l8.18-2.19c.39-.1.79.13.9.52l2.19 8.18c.1.39-.13.79-.52.9Zm-7.85.58 6.76-1.81-1.81-6.76-6.76 1.81 1.81 6.76Z" id="path182"/>
                        <path class="cls-25" d="m46.84 344.02-7.65-3.63a.735.735 0 0 1-.35-.98l3.63-7.65c.17-.37.61-.52.98-.35l7.65 3.63c.37.17.52.61.35.98l-3.63 7.65c-.17.37-.61.52-.98.35Zm-6.36-4.64 6.32 3.01 3.01-6.32-6.32-3.01-3.01 6.32Z" id="path184"/>
                        <path class="cls-9" d="M140.34 104.83c-2.74 0-4.96-2.23-4.96-4.97s2.23-4.97 4.96-4.97 4.96 2.23 4.96 4.97-2.23 4.97-4.96 4.97Zm0-8.47c-1.93 0-3.5 1.57-3.5 3.5s1.57 3.5 3.5 3.5 3.5-1.57 3.5-3.5-1.57-3.5-3.5-3.5Z" id="path186"/>
                        <path class="cls-1" d="m135.25 83.55-3.06-.47.47-3.06a.74.74 0 0 0-.61-.84c-.4-.06-.77.21-.83.61l-.47 3.06-3.06-.47a.74.74 0 0 0-.84.61c-.06.4.21.77.61.84l3.06.47-.47 3.06c-.06.4.21.77.61.84.4.06.77-.21.84-.61l.47-3.06 3.06.47c.4.06.77-.21.84-.61a.74.74 0 0 0-.61-.84Z" id="path188"/>
                        <path class="cls-25" d="M374.48 219h-3.09v-3.09c0-.4-.33-.73-.73-.73s-.73.33-.73.73V219h-3.09c-.4 0-.73.33-.73.73s.33.73.73.73h3.09v3.09c0 .4.33.73.73.73s.73-.33.73-.73v-3.09h3.09c.4 0 .73-.33.73-.73s-.33-.73-.73-.73Z" id="path190"/>
                        <path class="cls-20" d="m75.49 246.31-3.05.51-.51-3.05c-.07-.4-.44-.67-.84-.6s-.67.44-.6.84l.51 3.05-3.05.51c-.4.07-.67.44-.6.84.07.4.44.67.84.6l3.05-.51.51 3.05c.07.4.44.67.84.6.4-.07.67-.44.6-.84l-.51-3.05 3.05-.51c.4-.07.67-.44.6-.84a.726.726 0 0 0-.84-.6Z" id="path192"/>
                    </g>
                    <g id="g296">
                        <g id="g202">
                            <rect class="cls-12" x="157.56" y="60.18" width="137.88" height="257.36" rx="13.15" ry="13.15" transform="rotate(180 226.505 188.855)" id="rect196"/>
                            <path class="cls-9" d="M282.3 62.81h-35.07c-5 0-9.67 2.53-12.39 6.73l-1.58 2.43c-1.48 2.28-4.02 3.66-6.75 3.66s-5.26-1.38-6.75-3.66l-1.58-2.43a14.8 14.8 0 0 0-12.39-6.73h-35.07c-5.81 0-10.52 4.71-10.52 10.52v231.05c0 5.81 4.71 10.52 10.52 10.52H282.3c5.81 0 10.52-4.71 10.52-10.52V73.33c0-5.81-4.71-10.52-10.52-10.52Z" id="path198"/>
                            <path class="cls-9" d="M229.53 68.74c0-1.67-1.35-3.02-3.02-3.02s-3.02 1.35-3.02 3.02 1.35 3.02 3.02 3.02 3.02-1.35 3.02-3.02Z" id="path200"/>
                        </g>
                        <g id="g230">
                            <rect class="cls-1" x="173.49" y="81.37" width="106.03" height="157.35" rx="6.9" ry="6.9" id="rect204"/>
                            <path class="cls-21" d="M269.17 191.42h-74.46a1.52 1.52 0 1 1 0-3.04h74.46a1.52 1.52 0 1 1 0 3.04Z" id="path206"/>
                            <path class="cls-9" d="M194.71 191.42h-10.87a1.52 1.52 0 1 1 0-3.04h10.87a1.52 1.52 0 1 1 0 3.04Z" id="path208"/>
                            <circle class="cls-2" cx="194.71" cy="189.9" r="3.72" id="circle210"/>
                            <circle class="cls-21" cx="226.21" cy="213.94" r="12.8" transform="rotate(-13.36 226.175 213.88)" id="circle212"/>
                            <circle class="cls-21" cx="196.64" cy="213.94" r="9.38" id="circle214"/>
                            <circle class="cls-21" cx="255.78" cy="213.94" r="9.38" id="circle216"/>
                            <g id="g226">
                                <path class="cls-9" d="M223.27 208.33c-.94 0-1.7.76-1.7 1.7v7.81c0 .94.76 1.7 1.7 1.7s1.7-.76 1.7-1.7v-7.81c0-.94-.76-1.7-1.7-1.7Z" id="path218"/>
                                <path class="cls-9" d="M229.14 208.33c-.94 0-1.7.76-1.7 1.7v7.81c0 .94.76 1.7 1.7 1.7s1.7-.76 1.7-1.7v-7.81c0-.94-.76-1.7-1.7-1.7Z" id="path220"/>
                                <path class="cls-9" d="M199.43 210.29a.866.866 0 0 0-.94.19l-2.58 2.58v-1.97c0-.35-.21-.66-.53-.8a.866.866 0 0 0-.94.19l-2.85 2.85c-.34.34-.34.88 0 1.22l2.85 2.85c.16.17.39.25.61.25.11 0 .22-.02.33-.07.32-.13.53-.45.53-.8v-1.97l2.58 2.58a.855.855 0 0 0 .94.18c.32-.13.53-.45.53-.8v-5.69c0-.35-.21-.66-.53-.8Z" id="path222"/>
                                <path class="cls-9" d="m260.82 213.33-2.85-2.85a.866.866 0 0 0-.94-.19c-.32.13-.53.45-.53.8v1.97l-2.58-2.58a.866.866 0 0 0-.94-.19c-.32.13-.53.45-.53.8v5.69c0 .35.21.66.53.8.11.04.22.07.33.07.22 0 .44-.09.61-.25l2.58-2.58v1.97c0 .35.21.66.53.8.11.04.22.07.33.07.22 0 .44-.09.61-.25l2.85-2.85c.34-.34.34-.88 0-1.22Z" id="path224"/>
                            </g>
                            <path class="cls-12" transform="rotate(90 226.505 133.545)" id="rect228" d="M184.68 90.88h83.66v85.33h-83.66z"/>
                        </g>
                        <g id="g236">
                            <path class="cls-12" d="M237.6 249.1h-61.43a2.68 2.68 0 0 0-2.68 2.68v15.43c0 1.48 1.2 2.68 2.68 2.68h7.33v6.93l6.93-6.93h47.17c1.48 0 2.68-1.2 2.68-2.68v-15.43c0-1.48-1.2-2.68-2.68-2.68Z" id="path232"/>
                            <path class="cls-9" d="M190.12 257.28h-7.73a1.34 1.34 0 0 1 0-2.68h7.73a1.34 1.34 0 0 1 0 2.68Zm14.33 5.01c0-.74-.6-1.34-1.34-1.34h-20.72a1.34 1.34 0 0 0 0 2.68h20.72c.74 0 1.34-.6 1.34-1.34Zm16.67 0c0-.74-.6-1.34-1.34-1.34h-10.51a1.34 1.34 0 0 0 0 2.68h10.51c.74 0 1.34-.6 1.34-1.34Zm11.22 0c0-.74-.6-1.34-1.34-1.34h-5.1a1.34 1.34 0 0 0 0 2.68h5.1c.74 0 1.34-.6 1.34-1.34Zm.24-6.35c0-.74-.6-1.34-1.34-1.34h-34.6a1.34 1.34 0 0 0 0 2.68h34.6c.74 0 1.34-.6 1.34-1.34Z" id="path234"/>
                        </g>
                        <g id="g242">
                            <path class="cls-12" d="M221.55 276.03h55.3c1.48 0 2.68 1.2 2.68 2.68v15.43c0 1.48-1.2 2.68-2.68 2.68h-7.33v6.93l-6.93-6.93h-41.04a2.68 2.68 0 0 1-2.68-2.68v-15.43c0-1.48 1.2-2.68 2.68-2.68Z" id="path238"/>
                            <path class="cls-9" d="M257.18 282.87c0-.74.6-1.34 1.34-1.34h12.11a1.34 1.34 0 0 1 0 2.68h-12.11c-.74 0-1.34-.6-1.34-1.34Zm.62 7.69h12.83a1.34 1.34 0 0 0 0-2.68H257.8a1.34 1.34 0 0 0 0 2.68Zm-8.78 0h2.62a1.34 1.34 0 0 0 0-2.68h-2.62a1.34 1.34 0 0 0 0 2.68Zm-14.11 0h7.99a1.34 1.34 0 0 0 0-2.68h-7.99a1.34 1.34 0 0 0 0 2.68Zm-7 0h1.68a1.34 1.34 0 0 0 0-2.68h-1.68a1.34 1.34 0 0 0 0 2.68Zm11.12-6.35h12.08a1.34 1.34 0 0 0 0-2.68h-12.08a1.34 1.34 0 0 0 0 2.68Zm-11.12 0h4.89a1.34 1.34 0 0 0 0-2.68h-4.89a1.34 1.34 0 0 0 0 2.68Z" id="path240"/>
                        </g>
                        <g id="g294">
                            <g id="g290">
                                <g id="g256">
                                    <g id="g250">
                                        <path class="cls-9" d="M215.02 121.21v-8.67h1.76c1.93 0 3.5-1.56 3.5-3.5s-1.57-3.5-3.5-3.5h-13.01c-1.93 0-3.5 1.57-3.5 3.5s1.57 3.5 3.5 3.5h1.76v8.67c-8.85 2.13-15.43 10.1-15.43 19.6 0 11.14 9.03 20.17 20.17 20.17s20.17-9.03 20.17-20.17c0-9.51-6.58-17.47-15.43-19.6Z" id="path244"/>
                                        <circle class="cls-12" cx="215.92" cy="108.27" r="1.4" id="circle246"/>
                                        <path class="cls-12" d="M212.74 107.56c0 .38-.31.69-.69.69s-.69-.31-.69-.69.31-.69.69-.69.69.31.69.69Z" id="path248"/>
                                    </g>
                                    <path class="cls-12" d="m214.4 123.77-2.01-.49v-10.74h-4.23v10.74l-2.01.49c-7.9 1.9-13.41 8.92-13.41 17.05 0 9.67 7.87 17.54 17.54 17.54s17.54-7.87 17.54-17.54c0-8.13-5.52-15.14-13.41-17.05Z" id="path252"/>
                                    <path d="M193.69 135.06a17.74 17.74 0 0 0-.96 5.75c0 9.67 7.87 17.54 17.54 17.54s17.54-7.87 17.54-17.54c0-2.01-.34-3.94-.96-5.75h-33.16Z" id="path254" style="fill:#ffd054"/>
                                </g>
                                <g id="g264">
                                    <path class="cls-2" transform="rotate(180 210.275 159.215)" id="rect258" d="M197.64 157.95h25.27v2.53h-25.27z"/>
                                    <path class="cls-2" id="polygon260" d="M198.6 170.5h-1.8l3.61-11.29h1.8l-3.61 11.29z"/>
                                    <path class="cls-2" id="polygon262" d="M221.94 170.5h1.8l-3.61-11.29h-1.8l3.61 11.29z"/>
                                </g>
                                <g id="g288">
                                    <path class="cls-9" d="m263.44 162.16-20.59-27.06v-9.75h1.67c1.83 0 3.32-1.49 3.32-3.32s-1.49-3.32-3.32-3.32h-12.36c-1.83 0-3.32 1.49-3.32 3.32s1.49 3.32 3.32 3.32h1.67v9.75l-20.59 27.06c-2.6 3.42-.16 8.34 4.13 8.34h41.93c4.3 0 6.73-4.92 4.13-8.34Z" id="path266"/>
                                    <path class="cls-15" d="m261.14 163.91-21.18-27.84v-10.5h-3.23v10.5l-21.18 27.84c-.78 1.03-.42 2.03-.23 2.42.19.38.77 1.28 2.06 1.28h41.93c1.29 0 1.87-.9 2.06-1.28.19-.38.55-1.39-.23-2.42Z" id="path268"/>
                                    <path class="cls-12" d="M245.04 121.29a1.33 1.33 0 1 1-2.659.001 1.33 1.33 0 0 1 2.659-.001Z" id="path270"/>
                                    <path class="cls-12" d="M240.68 120.61c0 .36-.29.65-.65.65s-.65-.29-.65-.65.29-.65.65-.65.65.29.65.65Z" id="path272"/>
                                    <path class="cls-16" d="M230.91 157.27a1.71 1.71 0 1 1-3.418.002 1.71 1.71 0 0 1 3.418-.002Z" id="path274"/>
                                    <path class="cls-16" d="M234.93 148.14c0 .29-.24.53-.53.53s-.53-.24-.53-.53.24-.53.53-.53.53.24.53.53Z" id="path276"/>
                                    <path class="cls-16" d="M246.38 148.86a4.02 4.02 0 1 1-8.04 0 4.02 4.02 0 0 1 8.04 0Z" id="path278"/>
                                    <circle class="cls-16" cx="236.18" cy="157.73" r="1.25" id="circle280"/>
                                    <path class="cls-16" d="M248.98 160.95c0 1.09-.88 1.97-1.97 1.97s-1.97-.88-1.97-1.97.88-1.97 1.97-1.97 1.97.88 1.97 1.97Z" id="path282"/>
                                    <path class="cls-16" d="M234.93 162.69c0 .96-.78 1.73-1.73 1.73s-1.73-.78-1.73-1.73.78-1.73 1.73-1.73 1.73.78 1.73 1.73Z" id="path284"/>
                                    <path class="cls-16" d="M226.56 161.39c0 .61-.5 1.11-1.11 1.11s-1.11-.5-1.11-1.11.5-1.11 1.11-1.11 1.11.5 1.11 1.11Z" id="path286"/>
                                </g>
                            </g>
                            <path class="cls-9" transform="rotate(90 226.505 172.655)" id="rect292" d="M223.78 129.99h5.44v85.33h-5.44z"/>
                        </g>
                    </g>
                    <g id="g362">
                        <path class="cls-5" d="M330.42 210.48c.9 1.13 1.15 2.65 1.08 4.09-.06 1.45-.23 3.14-1.09 4.37-.89 1.27-2.14.88-2.94-.25-1.54-2.16-1.88-4.83-1.31-7.38.18-.78.32-1.77 1.17-2.08 1.05-.39 2.45.45 3.08 1.24Z" id="path298"/>
                        <g id="g340">
                            <path class="cls-14" d="m340.6 280.69 40.94 20.86c3.25 1.66 5.53 4.74 6.15 8.34l7.98 47.21 7.87 5.91-22.73 1.69-8.9-48.54-44.43-20.65 13.12-14.8Z" id="path300"/>
                            <path class="cls-14" d="m304.87 288.32 1.54 5.99a46.333 46.333 0 0 0 13.17 22.27l63.58 59.63 18.45-6.51-7.36-2.31-66.38-70.1 12.73-16.59-35.73 7.63Z" id="path302"/>
                            <path class="cls-15" d="M336.72 232.75c4.92.73 13.3 39.99 13.3 39.99l12.57-1.21s-2.87 6.8-13.57 10.72c-12.59 4.61-16.66-32.01-16.66-32.01l4.36-17.48Z" id="path304"/>
                            <path class="cls-15" d="M336.72 232.75c-11.01-3.38-25.7-1.32-32.49-.04-2.36.44-4.54 1.51-6.32 3.12l2.41 17.02c1.32 16.15 4.55 35.48 4.55 35.48l35.73-7.63-1.77-21.89-2.11-26.06Z" id="path306"/>
                            <path class="cls-15" d="M297.91 235.82c-4.69 5.35-11.68 39.67-11.28 41.96s18.12 4.79 18.12 4.79l4.14-12.43-10.98-34.32Z" id="path308"/>
                            <path class="cls-9" d="M317.35 229.45s-1.72-.28-2.46.62-.73 9.49.66 9.66c1.28.16 5.18-4.75 5.18-4.75s4.43 4.98 5.73 4.36c1.2-.58-.86-10.1-3.6-9.97-2.73.13-5.5.08-5.5.08Z" id="path310"/>
                            <path class="cls-14" d="M328.63 205.34s.89 4.25-.34 6.56l-1.89-6.97 2.23.41Z" id="path312"/>
                            <path class="cls-17" d="M320.61 234.21c-1.15.14-2.15.2-3-.69-1.58-1.65-1.5-4.23-3.11-5.83-.76-.75-1.67-1.32-2.5-1.99-1.29-1.04-2.05-2.47-2.77-3.93-3.26-6.57-3.9-21.74 6.73-22.63 10.63-.89 12.47 10.87 12.65 16.34.07 2.12 0 4.4-.68 6.47-.34 1.06-.84 2.08-1.6 2.9-.82.9-1.94 1.27-2.83 2.07-1.2 1.07-.51 2.96-.37 4.32.18 1.76-.79 2.76-2.53 2.97Z" id="path314"/>
                            <path class="cls-14" d="m307.57 214.97 2.88 3.22.85-.92-1.68-3.24s2.98-1.12 1.32-5.35c0 0 8.06 2.74 9.96 0l-4.16-1.07s11.62 1.43 14.24-3.85l-3.97-.55s7.18-3.25 2.86-9.05l-5.92 4.1 2.85-4.63s-20.16-.32-21.6 10.73l-2.37-2.11-1.76 2.62 3.69.77s-3.48 2.04-3.19 4.12 4.44 4.96 4.44 4.96l1.56.23Z" id="path316"/>
                            <path class="cls-17" d="M309.38 217.41c.19 1.67-1 3.18-2.67 3.37-1.67.19-3.18-1-3.37-2.67-.19-1.67 1-3.18 2.67-3.37 1.67-.19 3.18 1 3.37 2.67Z" id="path318"/>
                            <path class="cls-26" d="M320.74 218.44c-.17 0-.36-.03-.58-.08a.258.258 0 0 1-.19-.3c.03-.13.17-.22.3-.19.44.1.74.08.86-.07.36-.46-.47-2.1-.82-2.8-.22-.43-.31-.61-.32-.74-.01-.14.09-.26.23-.27.16-.02.26.09.27.23.01.06.15.32.27.55.67 1.33 1.28 2.68.77 3.33-.17.21-.43.32-.79.32Z" id="path320"/>
                            <path class="cls-26" d="M319.92 221.19c-.42 0-.85-.06-1.26-.19-.92-.29-1.73-.88-2.27-1.69a.248.248 0 0 1 .07-.35c.11-.08.27-.05.35.07a3.77 3.77 0 0 0 2 1.49c.81.25 1.7.22 2.49-.09.13-.05.27.01.32.14.05.13-.01.27-.14.32-.5.2-1.03.3-1.57.3Z" id="path322"/>
                            <path class="cls-2" d="M315.42 214.36s-.1-.01-.14-.03a.33.33 0 0 1-.15-.44c.28-.56.83-.96 1.45-1.04.62-.08 1.26.15 1.68.62.12.13.11.34-.03.46-.13.12-.34.11-.46-.03a1.3 1.3 0 0 0-1.1-.41c-.4.05-.78.32-.96.69-.06.11-.17.18-.29.18Z" id="path324"/>
                            <path class="cls-2" d="M322.33 213.84s-.1-.01-.15-.04a.328.328 0 0 1-.14-.44c.28-.55.85-.95 1.46-1.02.63-.08 1.26.17 1.67.64.12.14.1.34-.03.46s-.34.1-.46-.03c-.26-.3-.69-.47-1.1-.42-.4.05-.78.31-.96.67-.06.11-.17.18-.29.18Z" id="path326"/>
                            <path class="cls-26" d="M308 218.45h-.05a.246.246 0 0 1-.19-.3c.13-.58-.24-1.26-.8-1.47-.56-.21-1.28.05-1.57.57a.26.26 0 0 1-.34.1.26.26 0 0 1-.1-.34c.41-.74 1.39-1.1 2.18-.79.79.3 1.29 1.22 1.11 2.04-.03.12-.13.2-.24.2Z" id="path328"/>
                            <path class="cls-26" d="M318.2 228.36c-.64 0-1.29-.06-1.92-.19a.255.255 0 0 1-.2-.29.25.25 0 0 1 .29-.2c1.58.32 3.22.22 4.75-.29.13-.04.27.03.32.16.04.13-.03.27-.16.32-1 .33-2.04.5-3.09.5Z" id="path330"/>
                            <path class="cls-6" d="M308.22 251.4a74.694 74.694 0 0 0 24.08 22.31" id="path332"/>
                            <path class="cls-6" d="M338.59 257.33c-.21-5.67-.42-11.34-.62-17.02" id="path334"/>
                            <path class="cls-2" d="M313.85 212.18s-.09-.01-.13-.03a.247.247 0 0 1-.09-.34 3.47 3.47 0 0 1 2.29-1.64c.95-.19 1.97.05 2.75.64.11.08.13.24.05.35-.08.11-.24.13-.35.05-.66-.5-1.54-.7-2.34-.54-.81.16-1.54.68-1.96 1.4a.25.25 0 0 1-.22.12Z" id="path336"/>
                            <path class="cls-2" d="M326.01 211.21c-.07 0-.15-.03-.2-.09-.49-.62-1.25-1-2.04-1.02h-.07c-.76 0-1.52.34-2.02.91-.09.1-.25.11-.35.02a.251.251 0 0 1-.02-.35c.62-.7 1.55-1.1 2.48-1.08.93.03 1.84.48 2.42 1.21.08.11.07.27-.04.35-.05.04-.1.05-.16.05Z" id="path338"/>
                        </g>
                        <g id="g354">
                            <g id="g350">
                                <path class="cls-9" d="M307.38 282.57h23.6v3.05h-22.21c-.77 0-1.39-.62-1.39-1.39v-1.66Z" id="path342"/>
                                <path class="cls-9" d="M375.08 285.62h-46.19c-.77 0-1.31-.62-1.22-1.39l3.9-32.87c.18-1.53 1.57-2.78 3.11-2.78h43.41c1.53 0 2.63 1.24 2.45 2.78l-3.9 32.87c-.09.77-.79 1.39-1.55 1.39Z" id="path344"/>
                                <path class="cls-12" d="M370.21 283.02h-39.24c-.25 0-.45-.2-.45-.45s.2-.45.45-.45h39.24c.25 0 .45.2.45.45s-.2.45-.45.45Z" id="path346"/>
                                <path class="cls-12" d="M359.35 265.3a2.77 2.77 0 1 1-5.54 0 2.77 2.77 0 0 1 5.54 0Z" id="path348"/>
                            </g>
                            <path class="cls-17" d="M378.53 270.69s5.4 3.08 5.11 4.8c-.29 1.72-2.03 2.52-2.56 2.9-.52.38-.07 2.7-1.72 3.94s-1.83 3.28-3.36 4.06c-1.53.78-3.61-1.26-4.13-1.8s2.07-3.39 2.07-3.39-1.12-1.5-.86-2.08c.26-.59 2.25-3.23 2.25-3.23s-.45-2.43-.25-2.89c.2-.47 1.1-1.36 1.1-1.36l1.36.74.99-1.68Z" id="path352"/>
                        </g>
                        <path class="cls-6" id="polyline356" d="m306.37 246.71-5.62 24.61 23.33 3.57"/>
                        <path class="cls-5" d="M303.47 219.25c.77 2.02 2.57 3.79 4.73 3.87 2.1.08 4.06-1.57 4.61-3.6.91-3.35-2-7.91-5.63-8.09-3.72-.19-4.74 5.14-3.71 7.82Z" id="path358"/>
                        <path class="cls-9" d="M305.2 204.37c-.44 1.28 2 8.1 2 8.1s-2.29 2.01-2.45 1.62c-.15-.39-1.78-4.11-1.43-6.75.29-2.16 1.87-2.96 1.87-2.96Z" id="path360"/>
                    </g>
                </g>
            </g>
        </g>
    </g>
</svg>
