<svg width="51" height="51" viewBox="0 0 51 51" fill="none" xmlns="http://www.w3.org/2000/svg">
<path fill-rule="evenodd" clip-rule="evenodd" d="M37.9232 3.33663C38.8208 3.56005 40.9419 5.76773 41.9596 6.39175C43.0314 7.04726 42.5826 8.40848 41.7864 8.98525C40.9832 9.56694 39.8454 9.5069 38.6427 9.30218C37.0374 9.02856 35.4606 7.85041 35.4458 6.17028C35.4389 5.40453 37.182 3.15356 37.9232 3.33663L37.9232 3.33663Z" fill="#052C3C"/>
<path fill-rule="evenodd" clip-rule="evenodd" d="M8.24406 33.4783C15.1358 33.118 13.1506 26.0226 9.68894 26.0905C5.19879 26.178 2.90057 23.3159 3.37497 18.7401C3.74701 15.1544 6.33854 12.4802 10.2352 9.74103C16.9517 5.02153 26.4025 0.125875 30.7942 4.71445C33.3789 7.41523 35.746 10.4467 37.2352 10.9595C41.3543 12.3768 44.4202 11.0156 46.186 12.5343C48.1781 14.2479 47.9724 18.3926 46.7391 21.8434C44.5058 28.0944 42.744 31.2233 35.8986 33.368C28.6682 33.4733 27.8464 42.0668 32.0265 45.4467C31.3789 47.5028 27.9468 48.1839 24.0236 48.1908C19.1564 48.1977 14.749 47.5924 11.7401 46.0481C8.02454 44.1406 1.15939 33.8493 8.24402 33.4782L8.24406 33.4783Z" fill="#052C3C"/>
<path fill-rule="evenodd" clip-rule="evenodd" d="M36.18 11.9478L42.0846 34.0128L40.3011 32.9124C39.0216 32.123 37.5629 31.7155 36.06 31.7155C31.5806 31.7155 27.9497 35.3464 27.9497 39.8258C27.9497 40.6781 28.0806 41.5226 28.3434 42.3327L28.6151 43.1673L17.9911 46.0148C16.3877 46.4429 14.6653 45.5531 14.2273 43.9262L6.17708 13.8799C5.74007 12.2539 6.79125 10.6171 8.39165 10.189L25.2725 5.63582L36.18 11.9478L36.18 11.9478Z" fill="#052C3C"/>
<path fill-rule="evenodd" clip-rule="evenodd" d="M8.60721 10.9931L24.3867 6.76475L26.0846 12.997C26.4556 14.3582 27.8661 15.3061 29.742 14.8031L35.6525 13.2195L40.7381 32.2037C39.3769 31.3641 37.7765 30.8828 36.0599 30.8828C31.1219 30.8828 27.117 34.8868 27.117 39.8258C27.117 40.7913 27.2686 41.7195 27.5521 42.5905L17.7755 45.2106C16.5747 45.5315 15.3404 44.8583 15.0314 43.7106L6.98118 13.6634C6.67213 12.5148 7.40441 11.3149 8.60717 10.9931H8.60721Z" fill="white"/>
<path fill-rule="evenodd" clip-rule="evenodd" d="M25.19 6.5502L35.4567 12.4902L29.5472 14.0738C28.3464 14.3957 27.1112 13.7224 26.8031 12.5738L25.1899 6.55019L25.19 6.5502Z" fill="white"/>
<path d="M16.4024 11.6238L10.2079 13.2836C9.68291 13.4243 9.37136 13.9639 9.51203 14.4889L11.5377 22.0488C11.6783 22.5737 12.218 22.8853 12.743 22.7446L18.9375 21.0848C19.4625 20.9441 19.774 20.4045 19.6334 19.8795L17.6077 12.3197C17.467 11.7947 16.9274 11.4832 16.4024 11.6238Z" fill="#C6FFC2"/>
<path d="M36.0152 48.7826C41.0094 48.7826 45.0581 44.734 45.0581 39.7398C45.0581 34.7455 41.0094 30.6969 36.0152 30.6969C31.021 30.6969 26.9724 34.7455 26.9724 39.7398C26.9724 44.734 31.021 48.7826 36.0152 48.7826Z" fill="#F2E5CC"/>
<path fill-rule="evenodd" clip-rule="evenodd" d="M31.312 38.5325C32.6703 39.6417 34.4006 41.5709 35.5787 42.8396C36.2835 43.5994 37.1083 43.5748 37.997 42.4085C39.7776 40.0748 43.7411 36.2667 47.5492 33.0945C43.8602 34.7225 39.5374 37.5433 36.2037 40.2106C34.7303 39.3169 32.6693 38.5984 31.312 38.5325H31.312Z" fill="#052C3C"/>
<path fill-rule="evenodd" clip-rule="evenodd" d="M29.058 39.7728C29.0275 41.2983 29.5029 42.8367 30.4045 44.071C31.624 45.7452 33.5482 46.817 35.6141 46.9706C38.0994 47.1546 40.5403 45.9627 41.9596 43.9243C42.3819 43.318 42.7047 42.6556 42.9143 41.946C43.0659 41.442 43.1653 40.9125 43.2008 40.3869C43.2165 40.1635 43.0472 39.9617 42.8248 39.945C42.5974 39.9302 42.3986 40.0976 42.3819 40.3249C42.3533 40.8101 42.2578 41.2944 42.1141 41.758C41.9074 42.4224 41.5935 43.0513 41.1781 43.6103C39.8759 45.3653 37.7214 46.3534 35.5383 46.1428C33.808 45.9765 32.2421 45.0956 31.186 43.7186C30.2588 42.5129 29.7992 41.0168 29.9006 39.4981C29.995 38.067 30.5885 36.696 31.5689 35.6507C32.623 34.5227 34.0954 33.821 35.6328 33.6969C36.6141 33.6182 37.6072 33.7717 38.5187 34.1458C39.1279 34.3948 39.6978 34.7491 40.1988 35.1743C40.37 35.319 40.6318 35.2964 40.7765 35.1251C40.9222 34.9538 40.9015 34.693 40.7293 34.5473C40.187 34.0887 39.5797 33.7097 38.9252 33.4312C37.9114 32.9932 36.7972 32.8032 35.6948 32.8721C33.9064 32.9843 32.1988 33.7845 30.9734 35.0926C29.7824 36.3672 29.0964 38.0277 29.058 39.7727V39.7728Z" fill="#052C3C"/>
<path fill-rule="evenodd" clip-rule="evenodd" d="M20.499 14.9852L24.3789 13.9449C25.1998 13.7254 25.5295 14.9705 24.7126 15.189L20.8327 16.2293C20.0157 16.4478 19.6781 15.2047 20.499 14.9852V14.9852ZM19.5984 11.623L23.4783 10.5837C24.2992 10.3632 24.6289 11.6083 23.812 11.8277L19.9321 12.8671C19.1152 13.0856 18.7776 11.8435 19.5984 11.623ZM21.4006 18.3474L30.2746 15.9695C31.0955 15.75 31.4262 16.9951 30.6083 17.2136L21.7333 19.5915C20.9154 19.811 20.5797 18.5679 21.4006 18.3474H21.4006Z" fill="#052C3C"/>
<path fill-rule="evenodd" clip-rule="evenodd" d="M13.306 25.568L33.6475 20.1182C34.4694 19.8977 34.7991 21.1438 33.9812 21.3623L13.6396 26.8131C12.8217 27.0316 12.4851 25.7885 13.306 25.568V25.568ZM16.6928 38.2107L23.7971 36.3062C24.619 36.0867 24.9467 37.3328 24.1308 37.5513L17.0264 39.4548C16.2105 39.6733 15.8709 38.4302 16.6928 38.2107V38.2107ZM34.3247 29.135L35.9487 28.6999C36.7696 28.4794 37.0954 29.7265 36.2814 29.944L34.6583 30.379C33.8444 30.5975 33.5028 29.3554 34.3247 29.135H34.3247ZM28.5924 30.6704L31.3926 29.9204C32.2145 29.7009 32.5412 30.947 31.7263 31.1655L28.9261 31.9155C28.1111 32.134 27.7715 30.8909 28.5924 30.6704ZM15.6052 34.1507L24.621 31.7354C25.4418 31.5149 25.7696 32.7609 24.9536 32.9794L15.9389 35.3958C15.1229 35.6143 14.7833 34.3712 15.6052 34.1507H15.6052ZM22.7056 27.7255L34.8168 24.4794C35.6377 24.2599 35.9655 25.506 35.1505 25.7245L23.0393 28.9696C22.2233 29.1881 21.8838 27.945 22.7056 27.7255V27.7255ZM14.4743 29.9302L19.62 28.5513C20.4418 28.3318 20.7706 29.5769 19.9536 29.7964L14.808 31.1753C13.991 31.3938 13.6525 30.1507 14.4743 29.9302V29.9302Z" fill="#052C3C"/>
</svg>
