<svg width="121" height="120" viewBox="0 0 121 120" fill="none" xmlns="http://www.w3.org/2000/svg">
<circle cx="60.5" cy="60" r="60" fill="#F8F8F4"/>
<path fill-rule="evenodd" clip-rule="evenodd" d="M46.9935 36.0402C48.8259 36.3538 49.6113 38.2016 49.5417 40.136C49.4708 42.0704 48.5395 44.0927 46.9397 44.7515C43.3985 46.2082 42.6222 42.8263 42.4213 39.9365C42.1914 36.552 42.9782 35.3552 46.9935 36.0402H46.9935Z" fill="#052C3C"/>
<path fill-rule="evenodd" clip-rule="evenodd" d="M36.3635 31.1848C37.0807 31.5916 38.2773 31.1297 39.2361 30.9066C42.7129 30.093 45.5002 30.2583 48.7274 30.6481C51.118 30.9368 53.0199 28.8239 50.2209 27.9315C46.5352 26.7583 41.276 26.5221 37.3906 27.1717C35.1774 27.5391 34.9567 30.3869 36.3635 31.1848L36.3635 31.1848Z" fill="#052C3C"/>
<path fill-rule="evenodd" clip-rule="evenodd" d="M81.5229 28.9942C80.9778 29.6136 79.6958 29.5664 78.7159 29.6688C75.1642 30.0336 72.5832 31.0992 69.6607 32.5192C67.496 33.5717 65.007 32.195 67.3621 30.4391C70.4619 28.1281 75.356 26.1898 79.24 25.5362C81.4533 25.1622 82.592 27.7816 81.5229 28.9942L81.5229 28.9942Z" fill="#052C3C"/>
<path fill-rule="evenodd" clip-rule="evenodd" d="M78.3089 33.6018C75.2734 34.4443 70.1587 36.817 67.9126 39.1713C65.8951 41.2842 67.4056 41.4614 68.677 41.1333C70.7405 40.6005 77.1044 41.086 81.6964 42.0309C85.1469 42.7409 85.4228 40.3118 82.8339 39.3223C80.2332 38.3288 75.5676 38.1412 74.5891 38.607C75.5519 37.6713 78.653 36.2632 80.2384 35.674C82.8799 34.6923 82.5515 31.9233 78.3089 33.6018L78.3089 33.6018Z" fill="#052C3C"/>
<path d="M21.4811 91.6905L20.1204 92.7088L20.0954 92.6734L20.0718 92.6367L20.0508 92.5999L20.0311 92.5619L20.014 92.5225L19.9995 92.4844L19.9864 92.4438L19.9759 92.4044L19.9667 92.3637L19.9601 92.323L19.9549 92.2823L19.9522 92.2417L19.9509 92.201L19.9522 92.1603L19.9549 92.1196L19.9588 92.0789L19.9667 92.0382L19.9746 91.9989L19.9851 91.9595L19.9982 91.9201L20.0127 91.8821L20.0284 91.844L20.0468 91.8073L20.0665 91.7718L20.0888 91.7364L20.1112 91.7023L20.1374 91.6682L20.165 91.6367L20.1939 91.6052L20.2241 91.575L20.257 91.5474L20.2911 91.5199L20.3266 91.4949L20.3634 91.4713L20.4001 91.4503L20.4382 91.4306L20.4776 91.4136L20.5157 91.3991L20.5564 91.386L20.5959 91.3755L20.6366 91.3663L20.6773 91.3598L20.718 91.3545L20.7587 91.3519L20.7994 91.3506L20.8402 91.3519L20.8809 91.3545L20.9216 91.3598L20.9623 91.3663L21.0017 91.3742L21.0411 91.3847L21.0805 91.3978L21.1186 91.4123L21.1567 91.428L21.1935 91.4464L21.229 91.4661L21.2644 91.4884L21.2986 91.5107L21.3327 91.5369L21.3642 91.5645L21.3958 91.5934L21.426 91.6235L21.4536 91.6564L21.4811 91.6905L21.4811 91.6905ZM99.4319 93.1603L100.806 94.1655L99.3479 95.9529L97.6968 97.6301L95.8632 99.1905L93.8614 100.635L91.706 101.97L89.4113 103.187L86.984 104.29L84.441 105.281L81.7956 106.158L79.0557 106.921L76.2369 107.566L73.3512 108.096L70.409 108.511L67.4234 108.805L64.4037 108.979L61.3695 109.036L58.3261 108.973L55.2854 108.79L52.2617 108.483L49.2709 108.05L46.3155 107.495L43.4206 106.81L40.5874 106.002L37.8316 105.061L35.1692 103.991L32.6105 102.79L30.1621 101.453L27.8465 99.9844L25.6713 98.3729L23.6472 96.6262L21.7926 94.7403L20.1205 92.7088L21.4813 91.6905L23.0588 93.6012L24.8136 95.3873L26.7326 97.0474L28.8079 98.5776L31.0291 99.9884L33.3776 101.271L35.8496 102.432L38.4253 103.467L41.0944 104.377L43.8461 105.164L46.6702 105.828L49.5441 106.37L52.4692 106.79L55.4193 107.092L58.3918 107.274L61.3695 107.337L64.3432 107.281L67.2894 107.106L70.2093 106.818L73.0832 106.416L75.8981 105.899L78.6433 105.271L81.3018 104.533L83.8683 103.683L86.3246 102.726L88.6573 101.662L90.8601 100.492L92.9131 99.2233L94.8098 97.8519L96.5357 96.3834L98.0817 94.8217L99.4319 93.1603H99.4319ZM100.806 94.1655L99.4319 93.1603L99.4582 93.1262L99.4871 93.0934L99.516 93.0619L99.5475 93.033L99.5791 93.0054L99.6119 92.9792L99.646 92.9556L99.6815 92.9333L99.7183 92.9123L99.7551 92.8939L99.7918 92.8781L99.8299 92.8637L99.8693 92.8506L99.9087 92.8388L99.9481 92.8296L99.9889 92.823L100.03 92.8178L100.07 92.8138L100.111 92.8125L100.152 92.8138L100.194 92.8165L100.234 92.8204L100.275 92.827L100.316 92.8348L100.355 92.8453L100.396 92.8585L100.434 92.8729L100.474 92.8899L100.512 92.9083L100.55 92.9293L100.587 92.9516L100.622 92.9766L100.656 93.0028L100.689 93.0317L100.72 93.0606L100.749 93.092L100.777 93.1235L100.803 93.1564L100.827 93.1905L100.849 93.2259L100.87 93.2627L100.889 93.2994L100.904 93.3361L100.919 93.3742L100.932 93.4136L100.944 93.4529L100.953 93.4923L100.96 93.533L100.965 93.5737L100.969 93.6144L100.97 93.655L100.969 93.6957L100.966 93.7377L100.962 93.7784L100.956 93.8191L100.948 93.8598L100.937 93.8991L100.924 93.9398L100.91 93.9779L100.893 94.0172L100.874 94.0553L100.853 94.0934L100.831 94.1301L100.806 94.1655V94.1655Z" fill="#052C3C"/>
<path fill-rule="evenodd" clip-rule="evenodd" d="M36.3308 52.9718C32.9407 51.7487 32.2012 52.9455 32.569 56.2907C33.2007 62.0321 37.4512 73.6424 42.5147 76.8156C46.1768 79.1135 55.7692 79.8576 60.1747 80.0229C65.3118 80.2132 73.8784 80.1397 78.2011 77.1187C83.4945 73.4167 85.7931 62.9429 86.635 56.8878C86.7913 55.7723 87.0159 54.5282 85.9743 53.7749C84.9433 53.0295 83.857 53.6463 82.772 53.9403C78.3127 55.1529 74.0216 56.0545 69.3954 56.3524C62.7583 56.7802 53.3103 57.2172 46.8348 56.0925C43.3107 55.481 39.6947 54.1831 36.3308 52.9718L36.3308 52.9718Z" fill="#052C3C"/>
<path fill-rule="evenodd" clip-rule="evenodd" d="M35.7641 54.5384C38.353 55.4714 43.2353 57.1591 46.5492 57.7352C51.7546 58.6381 65.0367 58.3035 69.5026 58.0161C75.3397 57.6394 79.2789 56.6171 83.2076 55.5489C85.1542 55.0213 85.2829 54.4977 84.9821 56.6591C84.2662 61.8035 82.1134 72.3468 77.2443 75.7523C73.6716 78.2496 66.2228 78.579 60.2358 78.3559C52.9407 78.0843 45.8058 76.9137 43.4008 75.4045C39.8622 73.1866 35.0325 63.4229 34.226 56.1079C33.9856 53.9163 33.7413 53.8087 35.7641 54.5383L35.7641 54.5384Z" fill="white"/>
<path fill-rule="evenodd" clip-rule="evenodd" d="M90.0908 47.7832C90.5729 47.7832 90.9919 50.2058 91.0996 50.5877C91.5462 52.1703 92.3238 54.0837 93.7673 55.1861C94.3531 55.6323 95.0493 55.9472 95.8781 56.0483C96.083 56.0732 96.2734 56.2137 96.2734 56.4276C96.2734 56.6415 96.083 56.7819 95.8781 56.8068C95.0493 56.9079 94.3531 57.2228 93.7673 57.669C92.3238 58.7714 91.5462 60.6848 91.0996 62.2675C90.9919 62.6494 90.5729 65.0719 90.0908 65.0719C89.6088 65.0719 89.1898 62.6494 89.0821 62.2675C88.6355 60.6848 87.8579 58.7714 86.4144 57.669C85.8285 57.2228 85.1324 56.9079 84.3036 56.8068C84.0987 56.7819 83.9082 56.6415 83.9082 56.4276C83.9082 56.2137 84.0987 56.0732 84.3036 56.0483C85.1324 55.9472 85.8285 55.6323 86.4144 55.1861C87.8579 54.0837 88.6355 52.1704 89.0821 50.5877C89.1898 50.2058 89.6088 47.7832 90.0908 47.7832Z" fill="#FFC700"/>
<path fill-rule="evenodd" clip-rule="evenodd" d="M97.8033 43.3945C98.1343 43.3945 98.4206 45.052 98.4942 45.3145C98.8002 46.3972 99.3322 47.7069 100.32 48.4615C100.722 48.7672 101.197 48.9825 101.765 49.052C101.905 49.0691 102.035 49.1649 102.035 49.3118C102.035 49.4575 101.905 49.5533 101.765 49.5704C101.197 49.6399 100.722 49.8552 100.32 50.1609C99.3322 50.9155 98.8002 52.2252 98.4942 53.3079C98.4206 53.5704 98.1343 55.2279 97.8033 55.2279C97.4736 55.2279 97.1873 53.5704 97.1137 53.3079C96.8077 52.2252 96.2757 50.9155 95.2879 50.1609C94.886 49.8552 94.4105 49.6399 93.8418 49.5704C93.7025 49.5533 93.5725 49.4575 93.5725 49.3118C93.5725 49.1649 93.7025 49.0691 93.8418 49.052C94.4105 48.9825 94.886 48.7672 95.2879 48.4615C96.2757 47.7069 96.8077 46.3972 97.1137 45.3145C97.1873 45.052 97.4736 43.3945 97.8033 43.3945Z" fill="#FFC700"/>
<path fill-rule="evenodd" clip-rule="evenodd" d="M28.8702 54.0143C28.576 54.9972 25.8531 55.0392 22.79 54.1245C19.7204 53.202 17.4796 51.6547 17.7764 50.681C18.0706 49.698 20.7948 49.656 23.8566 50.5707C26.9262 51.4933 29.167 53.0405 28.8702 54.0143ZM63.0343 85.2965C64.03 85.5301 64.2493 88.24 63.5269 91.3542C62.8032 94.4697 61.403 96.807 60.41 96.5747C59.4143 96.3411 59.195 93.6311 59.9174 90.5169C60.6411 87.4014 62.0413 85.0642 63.0343 85.2965ZM85.88 78.6574C86.4513 77.8083 89.0639 78.5694 91.7224 80.3581C94.377 82.1442 96.0609 84.2873 95.4895 85.1272C94.9181 85.9763 92.3056 85.2151 89.6471 83.4264C86.9925 81.6403 85.3086 79.4973 85.88 78.6574ZM75.8041 83.3792C76.7906 83.0944 78.2985 85.3595 79.1851 88.4277C80.0691 91.5025 79.9798 94.2256 78.9986 94.5025C78.0121 94.7873 76.5042 92.5222 75.6176 89.454C74.7336 86.3792 74.823 83.6561 75.8041 83.3792ZM92.0547 66.2821C91.6475 67.2204 93.6966 69.0091 96.6362 70.2834C99.5719 71.555 102.287 71.8188 102.687 70.8857C103.095 69.9474 101.046 68.1587 98.106 66.8844C95.1703 65.6101 92.4553 65.349 92.0547 66.2821ZM29.8792 66.2807C30.2864 67.2204 28.2373 69.0091 25.2977 70.2834C22.362 71.5563 19.647 71.8188 19.2477 70.8871C18.8392 69.9474 20.8883 68.1587 23.8279 66.8844C26.7622 65.6101 29.4785 65.349 29.8791 66.2807H29.8792Z" fill="#7659C0"/>
<path fill-rule="evenodd" clip-rule="evenodd" d="M47.0764 64.5044C48.5646 65.3981 54.5922 65.8679 56.8068 65.8679C60.52 65.8679 62.9618 66.0188 66.6593 65.7839C69.3704 65.612 73.5 64.9348 76.2702 64.5359C76.7167 64.4729 77.8739 64.0516 78.0132 64.3049C78.3652 64.9493 77.2592 66.1514 76.2702 66.3325C70.6826 67.3574 66.4098 67.8298 60.7604 67.8298C58.8558 67.8298 48.6434 68.2354 47.3733 66.5989C47.0042 66.1225 46.7349 65.0857 47.0764 64.5044L47.0764 64.5044Z" fill="#052C3C"/>
<path fill-rule="evenodd" clip-rule="evenodd" d="M57.7329 66.3312C58.1664 65.9138 58.4737 64.6947 58.8139 63.6409C58.9032 64.4978 59.6769 65.9611 60.0289 66.297C59.4772 66.4466 58.6629 66.4493 57.7329 66.3312V66.3312Z" fill="#052C3C"/>
<path fill-rule="evenodd" clip-rule="evenodd" d="M69.9403 66.6408C70.4447 66.9912 70.9543 68.1723 71.4692 69.1802C71.4206 68.2996 71.9618 66.6985 72.2626 66.3022C71.6807 66.2405 70.8584 66.3705 69.9403 66.6408Z" fill="#052C3C"/>
<path fill-rule="evenodd" clip-rule="evenodd" d="M69.9904 65.7987C70.4238 65.3814 70.7312 64.1622 71.0714 63.1084C71.1607 63.9654 71.9343 65.4286 72.2863 65.7646C71.7347 65.9142 70.9203 65.9168 69.9904 65.7987V65.7987Z" fill="#052C3C"/>
<path fill-rule="evenodd" clip-rule="evenodd" d="M57.6658 67.239C58.1111 67.6616 58.4342 68.907 58.7889 69.9818C58.8756 69.1039 59.6558 67.6038 60.0131 67.2574C59.4482 67.1091 58.6155 67.1117 57.6658 67.239Z" fill="#052C3C"/>
<path fill-rule="evenodd" clip-rule="evenodd" d="M42.0943 77.2091C41.7882 79.1186 40.2948 81.7524 39.2204 83.6842C41.0553 83.4768 42.6946 84.0976 45.2716 85.654C46.1701 85.9283 48.1429 85.612 49.7323 86.0792C51.8391 86.6973 55.7021 89.0464 56.6334 91.0333C57.608 93.1094 56.1172 96.7091 55.2384 98.6881C53.9381 101.624 51.1508 103.877 49.4577 106.626L48.9849 107.394L48.0838 107.419C45.2243 107.497 40.325 106.035 37.6967 105.046C31.6126 102.758 26.0499 99.1632 21.7417 94.2669L21.2583 93.717L21.3358 92.99C21.9413 87.322 26.2548 81.6973 27.6865 75.9388L27.7364 75.7433L27.8297 75.5648C29.1485 73.0622 35.6634 68.6488 38.1971 66.9178C40.4327 65.3889 47.1223 59.0727 49.4039 62.9296C50.5558 64.8797 49.5773 69.4401 48.3465 71.2223C46.9818 73.196 44.1722 75.5661 42.0943 77.2092L42.0943 77.2091Z" fill="#052C3C"/>
<path fill-rule="evenodd" clip-rule="evenodd" d="M22.9934 93.1675C23.5359 88.0914 27.7877 82.4391 29.3047 76.3407C30.3674 74.325 36.6761 69.9746 39.1376 68.2921C41.2247 66.8656 46.8491 61.884 47.9682 63.7764C48.6762 64.9746 47.955 68.8578 46.9752 70.2764C45.9323 71.7843 43.1214 74.304 40.4655 76.3696C40.8136 77.7764 38.4099 81.4207 36.9177 84.4522C35.5399 84.8158 34.8687 85.5966 34.1541 86.5152C33.8507 87.1438 34.807 86.9234 35.8144 86.6019C38.754 85.1885 40.0714 84.4549 44.4506 87.0992C45.307 87.6176 47.1288 87.0507 49.262 87.6767C52.0046 88.4824 54.7392 90.9194 55.1241 91.741C55.7795 93.1373 54.361 96.5572 53.7147 98.0139C52.593 100.545 49.7716 102.938 48.0378 105.754C46.0203 105.809 32.3941 103.851 22.9934 93.1675L22.9934 93.1675Z" fill="#F6EEDA"/>
</svg>
