<svg width="256" height="244" viewBox="0 0 256 244" fill="none" xmlns="http://www.w3.org/2000/svg">
<path d="M48.615 39.0557L60.715 46.0407L58.322 47.4227L46.222 40.4377L48.615 39.0557Z" fill="#957ECE"/>
<path d="M58.322 112.836L94.338 92.0417V26.6287L58.322 47.4227V112.836Z" fill="#B3A3DC"/>
<path d="M46.222 105.851L58.322 112.836V47.4226L46.222 40.4376V105.851Z" fill="#7659C0"/>
<path d="M48.449 85.0157L56.094 89.4297V60.7457L48.449 56.3317V85.0157Z" fill="#DFEAED"/>
<path d="M55.926 46.0407L91.942 25.2467L94.335 26.6287L58.314 47.4227L55.926 46.0407Z" fill="#957ECE"/>
<path d="M46.222 40.4387L82.238 19.6387L84.631 21.0207L48.615 41.8197L46.222 40.4387Z" fill="#957ECE"/>
<path d="M48.967 96.2546C49.0284 97.4008 49.3592 98.5164 49.9326 99.5108C50.506 100.505 51.3058 101.35 52.267 101.978C54.092 103.032 55.567 102.178 55.567 100.07C55.5057 98.9234 55.1748 97.8078 54.6015 96.8135C54.0281 95.8191 53.2283 94.9739 52.267 94.3466C50.445 93.2936 48.967 94.1466 48.967 96.2546Z" fill="#DFEAED"/>
<path d="M84.632 21.0256V29.4676L58.32 44.6586L51.009 40.4376L84.632 21.0256Z" fill="#7659C0"/>
<path d="M89.113 26.8826L81.802 22.6616L51.009 40.4396L58.32 44.6606L89.113 26.8826Z" fill="#DFEAED"/>
<path d="M60.714 46.0406L72.814 53.0257L70.422 54.4077L58.322 47.4227L60.714 46.0406Z" fill="#6746B9"/>
<path d="M70.418 119.821L106.434 99.0267V33.6136L70.418 54.4057V119.821Z" fill="#6746B9"/>
<path d="M58.322 112.836L70.422 119.821V54.4066L58.322 47.4216V112.836Z" fill="#856BC7"/>
<path d="M60.547 92.0006L68.192 96.4146V67.7316L60.547 63.3176V92.0006Z" fill="#DFEAED"/>
<path d="M68.024 53.0257L104.04 32.2317L106.433 33.6137L70.418 54.4097L68.024 53.0257Z" fill="#6746B9"/>
<path d="M58.322 47.4227L94.338 26.6287L96.731 28.0107L60.715 48.8047L58.322 47.4227Z" fill="#6746B9"/>
<path d="M61.064 103.237C61.1259 104.383 61.4569 105.498 62.0302 106.493C62.6036 107.487 63.4031 108.332 64.364 108.96C66.189 110.014 67.664 109.16 67.664 107.052C67.6026 105.906 67.2718 104.79 66.6985 103.796C66.1251 102.801 65.3253 101.956 64.364 101.329C62.543 100.279 61.064 101.137 61.064 103.237Z" fill="#DFEAED"/>
<path d="M96.735 28.0106V36.4526L70.423 51.6436L63.112 47.4226L96.735 28.0106Z" fill="#6746B9"/>
<path d="M101.212 33.8656L93.901 29.6447L63.108 47.4227L70.419 51.6436L101.212 33.8656Z" fill="#DFEAED"/>
<path d="M213.187 147.278L209.579 149.378C209.945 149.119 210.236 148.767 210.422 148.358C210.608 147.95 210.682 147.499 210.637 147.053L214.245 144.953C214.29 145.399 214.216 145.85 214.03 146.258C213.844 146.667 213.553 147.019 213.187 147.278V147.278Z" fill="#A5B7C6"/>
<path d="M106.96 2.33571L110.568 0.235716C110.983 0.0444349 111.441 -0.0326055 111.895 0.0125787C112.349 0.057763 112.783 0.223527 113.152 0.492712L109.544 2.59271C109.175 2.32353 108.741 2.15777 108.287 2.11258C107.833 2.0674 107.375 2.14443 106.96 2.33571V2.33571Z" fill="#A5B7C6"/>
<path d="M210.839 65.2517L214.447 63.1517L214.247 144.952L210.639 147.052L210.839 65.2517Z" fill="#C3D3DD"/>
<path d="M109.544 2.59377L113.152 0.493774L210.831 56.8938L207.223 58.9938L109.544 2.59377Z" fill="#A5B7C6"/>
<path d="M207.223 58.9888L210.831 56.8888C211.885 57.5741 212.761 58.4988 213.39 59.5874C214.018 60.6759 214.38 61.8976 214.447 63.1528L210.839 65.2528C210.772 63.9976 210.41 62.7759 209.782 61.6873C209.153 60.5988 208.277 59.6741 207.223 58.9888V58.9888Z" fill="#C3D3DD"/>
<path d="M207.223 58.9888C208.277 59.6741 209.153 60.5986 209.782 61.6869C210.41 62.7753 210.772 63.9968 210.839 65.2518L210.639 147.052C210.633 149.362 208.993 150.277 206.999 149.126L109.32 92.7258C108.265 92.0421 107.387 91.1178 106.758 90.0289C106.13 88.94 105.768 87.7175 105.704 86.4618L105.904 4.66182C105.91 2.35182 107.534 1.42682 109.544 2.58782L207.223 58.9888Z" fill="#1D262D"/>
<path d="M109.521 10.8168L109.342 84.5028L207.021 140.903L207.2 67.2178L109.521 10.8168Z" fill="#6746B9"/>
<path d="M208.5 151.233L208.488 155.406C208.448 155.852 208.289 156.28 208.029 156.645C207.77 157.011 207.417 157.301 207.009 157.486L207.021 153.313C207.429 153.128 207.781 152.838 208.041 152.472C208.301 152.107 208.459 151.679 208.5 151.233Z" fill="#C3D3DD"/>
<path d="M137.004 193.902L136.992 198.075C135.871 198.642 134.632 198.938 133.375 198.938C132.119 198.938 130.88 198.642 129.759 198.075L129.771 193.902C130.892 194.47 132.131 194.766 133.388 194.766C134.644 194.766 135.883 194.47 137.004 193.902V193.902Z" fill="#758D9E"/>
<path d="M30.572 139.572L30.583 135.399C30.6238 135.853 30.7852 136.287 31.0505 136.658C31.3158 137.029 31.6754 137.322 32.092 137.507L32.08 141.68C31.6635 141.495 31.304 141.202 31.0388 140.831C30.7737 140.46 30.6125 140.026 30.572 139.572V139.572Z" fill="#758D9E"/>
<path d="M207.021 153.313L207.009 157.486L136.992 198.074L137.004 193.901L207.021 153.313Z" fill="#C3D3DD"/>
<path d="M129.771 193.902L129.759 198.075L32.08 141.675L32.092 137.502L129.771 193.902Z" fill="#758D9E"/>
<path d="M206.998 149.123C208.992 150.274 208.998 152.161 207.021 153.313L137.004 193.901C135.883 194.469 134.644 194.765 133.388 194.765C132.131 194.765 130.892 194.469 129.771 193.901L32.092 137.501C30.082 136.341 30.092 134.463 32.069 133.312L102.086 92.7227C103.206 92.1529 104.446 91.856 105.703 91.856C106.959 91.856 108.199 92.1529 109.319 92.7227L206.998 149.123Z" fill="#A5B7C6"/>
<path d="M127.753 159.696L91.753 138.91C91.1933 138.624 90.5736 138.474 89.945 138.474C89.3164 138.474 88.6967 138.624 88.137 138.91L69.537 149.616C69.3181 149.691 69.1283 149.834 68.9944 150.023C68.8605 150.212 68.7892 150.438 68.7904 150.67C68.7916 150.901 68.8653 151.127 69.0012 151.314C69.1371 151.502 69.3283 151.642 69.548 151.716L105.548 172.502C106.108 172.788 106.727 172.937 107.356 172.937C107.985 172.937 108.604 172.788 109.164 172.502L127.764 161.795C128.771 161.21 128.764 160.286 127.752 159.701" fill="#C3D3DD"/>
<path d="M110.393 99.1017V100.145L103.817 103.966V102.923L110.393 99.1017Z" fill="#455B68"/>
<path d="M103.817 102.92V103.963L97.345 100.227V99.1837L103.817 102.92Z" fill="#1D262D"/>
<path d="M110.392 99.1017L103.816 102.923L97.344 99.1867L103.92 95.3657L110.392 99.1017Z" fill="#37454F"/>
<path d="M118.698 103.896V104.939L112.122 108.76V107.717L118.698 103.896Z" fill="#455B68"/>
<path d="M112.118 107.717V108.76L105.63 105.014V103.971L112.118 107.717Z" fill="#1D262D"/>
<path d="M118.695 103.896L112.119 107.717L105.631 103.971L112.207 100.15L118.695 103.896Z" fill="#37454F"/>
<path d="M126.98 108.679V109.722L120.404 113.543V112.5L126.98 108.679Z" fill="#455B68"/>
<path d="M120.404 112.501V113.544L113.933 109.808V108.765L120.404 112.501Z" fill="#1D262D"/>
<path d="M126.981 108.679L120.405 112.5L113.933 108.764L120.509 104.943L126.981 108.679Z" fill="#37454F"/>
<path d="M135.265 113.463V114.506L128.689 118.327V117.284L135.265 113.463Z" fill="#455B68"/>
<path d="M128.689 117.284V118.327L122.216 114.591V113.548L128.689 117.284Z" fill="#1D262D"/>
<path d="M135.266 113.464L128.69 117.285L122.215 113.549L128.791 109.728L135.266 113.464Z" fill="#37454F"/>
<path d="M143.552 118.246V119.289L136.976 123.11V122.067L143.552 118.246Z" fill="#455B68"/>
<path d="M136.975 122.072V123.115L130.503 119.379V118.336L136.975 122.072Z" fill="#1D262D"/>
<path d="M143.551 118.247L136.975 122.068L130.503 118.332L137.079 114.511L143.551 118.247Z" fill="#37454F"/>
<path d="M151.854 123.039V124.082L145.278 127.903V126.86L151.854 123.039Z" fill="#455B68"/>
<path d="M145.278 126.86V127.903L138.806 124.167V123.124L145.278 126.86Z" fill="#1D262D"/>
<path d="M151.856 123.04L145.28 126.861L138.808 123.125L145.384 119.304L151.856 123.04Z" fill="#37454F"/>
<path d="M160.14 127.823V128.866L153.564 132.687V131.644L160.14 127.823Z" fill="#455B68"/>
<path d="M153.564 131.645V132.688L147.092 128.952V127.909L153.564 131.645Z" fill="#1D262D"/>
<path d="M160.139 127.821L153.563 131.642L147.091 127.906L153.667 124.085L160.139 127.821Z" fill="#37454F"/>
<path d="M168.424 132.607V133.65L161.848 137.471V136.428L168.424 132.607Z" fill="#455B68"/>
<path d="M161.849 136.429V137.472L155.377 133.736V132.693L161.849 136.429Z" fill="#1D262D"/>
<path d="M168.425 132.607L161.849 136.428L155.377 132.692L161.953 128.871L168.425 132.607Z" fill="#37454F"/>
<path d="M176.727 137.401V138.444L170.151 142.265V141.222L176.727 137.401Z" fill="#455B68"/>
<path d="M170.151 141.225V142.268L163.663 138.522V137.479L170.151 141.225Z" fill="#1D262D"/>
<path d="M176.727 137.401L170.151 141.222L163.663 137.476L170.239 133.651L176.727 137.401Z" fill="#37454F"/>
<path d="M185.012 142.184V143.227L178.436 147.048V146.005L185.012 142.184Z" fill="#455B68"/>
<path d="M178.436 146.005V147.048L171.964 143.312V142.269L178.436 146.005Z" fill="#1D262D"/>
<path d="M185.013 142.184L178.437 146.005L171.965 142.269L178.541 138.448L185.013 142.184Z" fill="#37454F"/>
<path d="M201.6 151.761V152.804L195.024 156.625V155.582L201.6 151.761Z" fill="#455B68"/>
<path d="M195.025 155.581V156.624L180.252 148.094V147.051L195.025 155.581Z" fill="#1D262D"/>
<path d="M201.599 151.761L195.023 155.582L180.249 147.052L186.825 143.231L201.599 151.761Z" fill="#37454F"/>
<path d="M110.316 108.765V109.808L103.757 113.62V112.577L110.316 108.765Z" fill="#455B68"/>
<path d="M103.756 112.576V113.619L88.982 105.089V104.046L103.756 112.576Z" fill="#1D262D"/>
<path d="M110.316 108.765L103.757 112.577L88.983 104.047L95.542 100.235L110.316 108.765Z" fill="#37454F"/>
<path d="M118.602 113.548V114.591L112.043 118.403V117.36L118.602 113.548Z" fill="#455B68"/>
<path d="M112.043 117.361V118.404L105.571 114.668V113.625L112.043 117.361Z" fill="#1D262D"/>
<path d="M118.602 113.548L112.043 117.36L105.571 113.624L112.13 109.812L118.602 113.548Z" fill="#37454F"/>
<path d="M126.888 118.331V119.374L120.328 123.186V122.143L126.888 118.331Z" fill="#455B68"/>
<path d="M120.329 122.144V123.187L113.857 119.451V118.408L120.329 122.144Z" fill="#1D262D"/>
<path d="M126.884 118.331L120.325 122.143L113.853 118.407L120.413 114.595L126.884 118.331Z" fill="#37454F"/>
<path d="M135.174 123.115V124.158L128.615 127.97V126.927L135.174 123.115Z" fill="#455B68"/>
<path d="M128.614 126.927V127.97L122.142 124.234V123.191L128.614 126.927Z" fill="#1D262D"/>
<path d="M135.173 123.115L128.613 126.927L122.141 123.191L128.7 119.379L135.173 123.115Z" fill="#37454F"/>
<path d="M143.475 127.908V128.951L136.916 132.763V131.72L143.475 127.908Z" fill="#455B68"/>
<path d="M136.916 131.72V132.763L130.444 129.027V127.984L136.916 131.72Z" fill="#1D262D"/>
<path d="M143.475 127.909L136.916 131.721L130.445 127.985L137.004 124.172L143.475 127.909Z" fill="#37454F"/>
<path d="M151.761 132.692V133.735L145.202 137.547V136.504L151.761 132.692Z" fill="#455B68"/>
<path d="M145.202 136.504V137.547L138.73 133.811V132.768L145.202 136.504Z" fill="#1D262D"/>
<path d="M151.761 132.693L145.202 136.505L138.73 132.769L145.289 128.957L151.761 132.693Z" fill="#37454F"/>
<path d="M160.046 137.476V138.519L153.486 142.331V141.288L160.046 137.476Z" fill="#455B68"/>
<path d="M153.486 141.288V142.331L147.015 138.595V137.552L153.486 141.288Z" fill="#1D262D"/>
<path d="M160.046 137.477L153.487 141.289L147.015 137.553L153.575 133.741L160.046 137.477Z" fill="#37454F"/>
<path d="M168.348 142.269V143.312L161.789 147.124V146.081L168.348 142.269Z" fill="#455B68"/>
<path d="M161.789 146.081V147.124L155.301 143.378V142.335L161.789 146.081Z" fill="#1D262D"/>
<path d="M168.351 142.269L161.792 146.081L155.304 142.335L161.863 138.523L168.351 142.269Z" fill="#37454F"/>
<path d="M176.635 147.049V148.092L170.075 151.904V150.861L176.635 147.049Z" fill="#455B68"/>
<path d="M170.075 150.866V151.909L163.603 148.173V147.13L170.075 150.866Z" fill="#1D262D"/>
<path d="M176.634 147.053L170.074 150.865L163.602 147.129L170.161 143.317L176.634 147.053Z" fill="#37454F"/>
<path d="M184.921 151.836V152.879L178.362 156.691V155.648L184.921 151.836Z" fill="#455B68"/>
<path d="M178.361 155.648V156.691L171.889 152.955V151.912L178.361 155.648Z" fill="#1D262D"/>
<path d="M184.92 151.839L178.36 155.651L171.888 151.915L178.447 148.103L184.92 151.839Z" fill="#37454F"/>
<path d="M193.221 156.63V157.673L186.662 161.485V160.442L193.221 156.63Z" fill="#455B68"/>
<path d="M186.661 160.442V161.485L180.169 157.734V156.691L186.661 160.442Z" fill="#1D262D"/>
<path d="M193.222 156.63L186.662 160.442L180.174 156.696L186.734 152.884L193.222 156.63Z" fill="#37454F"/>
<path d="M101.956 113.624V114.667L95.397 118.479V117.436L101.956 113.624Z" fill="#455B68"/>
<path d="M95.396 117.435V118.478L80.622 109.949V108.906L95.396 117.435Z" fill="#1D262D"/>
<path d="M101.955 113.624L95.396 117.436L80.622 108.906L87.182 105.094L101.955 113.624Z" fill="#37454F"/>
<path d="M110.241 118.407V119.45L103.682 123.262V122.219L110.241 118.407Z" fill="#455B68"/>
<path d="M103.679 122.219V123.262L97.207 119.526V118.483L103.679 122.219Z" fill="#1D262D"/>
<path d="M110.24 118.405L103.68 122.217L97.208 118.481L103.768 114.669L110.24 118.405Z" fill="#37454F"/>
<path d="M118.526 123.191V124.234L111.966 128.046V127.003L118.526 123.191Z" fill="#455B68"/>
<path d="M111.966 127V128.043L105.494 124.307V123.264L111.966 127Z" fill="#1D262D"/>
<path d="M118.526 123.192L111.967 127.004L105.495 123.268L112.055 119.456L118.526 123.192Z" fill="#37454F"/>
<path d="M126.812 127.974V129.017L120.253 132.829V131.786L126.812 127.974Z" fill="#455B68"/>
<path d="M120.253 131.787V132.83L113.781 129.094V128.051L120.253 131.787Z" fill="#1D262D"/>
<path d="M126.812 127.974L120.253 131.786L113.781 128.05L120.34 124.238L126.812 127.974Z" fill="#37454F"/>
<path d="M135.114 132.766V133.809L128.555 137.621V136.578L135.114 132.766Z" fill="#455B68"/>
<path d="M128.555 136.58V137.623L122.083 133.887V132.844L128.555 136.58Z" fill="#1D262D"/>
<path d="M135.114 132.767L128.554 136.579L122.082 132.843L128.641 129.031L135.114 132.767Z" fill="#37454F"/>
<path d="M143.403 137.551V138.594L136.843 142.406V141.363L143.403 137.551Z" fill="#455B68"/>
<path d="M136.84 141.363V142.406L130.368 138.67V137.627L136.84 141.363Z" fill="#1D262D"/>
<path d="M143.399 137.551L136.84 141.363L130.369 137.627L136.928 133.815L143.399 137.551Z" fill="#37454F"/>
<path d="M151.686 142.335V143.378L145.127 147.19V146.147L151.686 142.335Z" fill="#455B68"/>
<path d="M145.126 146.152V147.195L138.647 143.452V142.409L145.126 146.152Z" fill="#1D262D"/>
<path d="M151.685 142.336L145.126 146.148L138.654 142.412L145.214 138.6L151.685 142.336Z" fill="#37454F"/>
<path d="M159.987 147.129V148.172L153.428 151.984V150.941L159.987 147.129Z" fill="#455B68"/>
<path d="M153.427 150.941V151.984L146.939 148.238V147.195L153.427 150.941Z" fill="#1D262D"/>
<path d="M159.986 147.129L153.427 150.941L146.939 147.195L153.498 143.383L159.986 147.129Z" fill="#37454F"/>
<path d="M168.272 151.912V152.955L161.712 156.767V155.724L168.272 151.912Z" fill="#455B68"/>
<path d="M161.712 155.725V156.768L155.241 153.032V151.989L161.712 155.725Z" fill="#1D262D"/>
<path d="M168.272 151.912L161.712 155.724L155.241 151.988L161.8 148.176L168.272 151.912Z" fill="#37454F"/>
<path d="M184.861 161.488V162.531L178.302 166.343V165.3L184.861 161.488Z" fill="#455B68"/>
<path d="M178.301 165.301V166.344L163.527 157.814V156.771L178.301 165.301Z" fill="#1D262D"/>
<path d="M184.861 161.488L178.302 165.3L163.528 156.77L170.087 152.958L184.861 161.488Z" fill="#37454F"/>
<path d="M101.879 123.266V124.309L95.32 128.121V127.078L101.879 123.266Z" fill="#455B68"/>
<path d="M95.319 127.079V128.122L72.26 114.809V113.766L95.319 127.079Z" fill="#1D262D"/>
<path d="M101.879 123.266L95.32 127.078L72.261 113.765L78.821 109.953L101.879 123.266Z" fill="#37454F"/>
<path d="M110.164 128.05V129.093L103.605 132.905V131.862L110.164 128.05Z" fill="#455B68"/>
<path d="M103.605 131.862V132.905L97.133 129.169V128.126L103.605 131.862Z" fill="#1D262D"/>
<path d="M110.164 128.051L103.605 131.863L97.133 128.127L103.693 124.315L110.164 128.051Z" fill="#37454F"/>
<path d="M118.451 132.834V133.877L111.891 137.689V136.646L118.451 132.834Z" fill="#455B68"/>
<path d="M111.891 136.646V137.689L105.419 133.953V132.91L111.891 136.646Z" fill="#1D262D"/>
<path d="M118.45 132.835L111.891 136.647L105.42 132.911L111.979 129.099L118.45 132.835Z" fill="#37454F"/>
<path d="M126.752 137.627V138.67L120.192 142.482V141.439L126.752 137.627Z" fill="#455B68"/>
<path d="M120.192 141.44V142.483L113.721 138.747V137.704L120.192 141.44Z" fill="#1D262D"/>
<path d="M126.752 137.627L120.193 141.439L113.721 137.703L120.28 133.891L126.752 137.627Z" fill="#37454F"/>
<path d="M135.037 142.41V143.453L128.478 147.265V146.222L135.037 142.41Z" fill="#455B68"/>
<path d="M128.477 146.223V147.266L122.005 143.53V142.487L128.477 146.223Z" fill="#1D262D"/>
<path d="M135.038 142.41L128.478 146.222L122.006 142.486L128.565 138.674L135.038 142.41Z" fill="#37454F"/>
<path d="M143.323 147.194V148.237L136.764 152.049V151.006L143.323 147.194Z" fill="#455B68"/>
<path d="M136.764 151.006V152.049L130.292 148.313V147.27L136.764 151.006Z" fill="#1D262D"/>
<path d="M143.323 147.194L136.764 151.006L130.292 147.27L136.851 143.458L143.323 147.194Z" fill="#37454F"/>
<path d="M151.625 151.988V153.031L145.066 156.843V155.8L151.625 151.988Z" fill="#455B68"/>
<path d="M145.066 155.8V156.843L138.578 153.097V152.054L145.066 155.8Z" fill="#1D262D"/>
<path d="M151.625 151.988L145.066 155.8L138.578 152.054L145.138 148.242L151.625 151.988Z" fill="#37454F"/>
<path d="M159.912 156.771V157.814L153.352 161.626V160.583L159.912 156.771Z" fill="#455B68"/>
<path d="M153.352 160.583V161.626L146.88 157.89V156.847L153.352 160.583Z" fill="#1D262D"/>
<path d="M159.911 156.772L153.351 160.584L146.879 156.848L153.439 153.036L159.911 156.772Z" fill="#37454F"/>
<path d="M176.499 166.349V167.392L169.94 171.204V170.161L176.499 166.349Z" fill="#455B68"/>
<path d="M169.939 170.161V171.204L155.165 162.674V161.631L169.939 170.161Z" fill="#1D262D"/>
<path d="M176.498 166.349L169.939 170.161L155.165 161.631L161.725 157.819L176.498 166.349Z" fill="#37454F"/>
<path d="M76.93 118.546V119.589L70.354 123.41V122.367L76.93 118.546Z" fill="#455B68"/>
<path d="M70.354 122.37V123.413L63.882 119.677V118.634L70.354 122.37Z" fill="#1D262D"/>
<path d="M76.929 118.549L70.353 122.37L63.881 118.634L70.457 114.813L76.929 118.549Z" fill="#37454F"/>
<path d="M85.232 123.342V124.385L78.656 128.206V127.163L85.232 123.342Z" fill="#455B68"/>
<path d="M78.66 127.163V128.206L72.16 124.461V123.418L78.66 127.163Z" fill="#1D262D"/>
<path d="M85.232 123.342L78.656 127.163L72.168 123.417L78.744 119.596L85.232 123.342Z" fill="#37454F"/>
<path d="M93.517 128.125V129.168L86.941 132.989V131.946L93.517 128.125Z" fill="#455B68"/>
<path d="M86.941 131.947V132.99L80.469 129.254V128.211L86.941 131.947Z" fill="#1D262D"/>
<path d="M93.518 128.125L86.942 131.946L80.47 128.21L87.046 124.389L93.518 128.125Z" fill="#37454F"/>
<path d="M134.96 152.054V153.097L128.384 156.918V155.875L134.96 152.054Z" fill="#455B68"/>
<path d="M128.385 155.874V156.917L88.752 134.034V132.991L128.385 155.874Z" fill="#1D262D"/>
<path d="M134.961 152.054L128.385 155.875L88.755 132.994L95.331 129.173L134.961 152.054Z" fill="#37454F"/>
<path d="M143.263 156.846V157.889L136.687 161.71V160.667L143.263 156.846Z" fill="#455B68"/>
<path d="M136.688 160.668V161.711L130.2 157.965V156.922L136.688 160.668Z" fill="#1D262D"/>
<path d="M143.267 156.847L136.691 160.668L130.203 156.922L136.779 153.101L143.267 156.847Z" fill="#37454F"/>
<path d="M151.55 161.63V162.673L144.967 166.495V165.452L151.55 161.63Z" fill="#455B68"/>
<path d="M144.973 165.452V166.495L138.501 162.759V161.716L144.973 165.452Z" fill="#1D262D"/>
<path d="M151.549 161.63L144.973 165.451L138.501 161.715L145.077 157.894L151.549 161.63Z" fill="#37454F"/>
<path d="M168.137 171.208V172.251L161.561 176.072V175.029L168.137 171.208Z" fill="#455B68"/>
<path d="M161.561 175.025V176.068L146.787 167.538V166.495L161.561 175.025Z" fill="#1D262D"/>
<path d="M168.136 171.208L161.56 175.029L146.786 166.499L153.362 162.678L168.136 171.208Z" fill="#37454F"/>
<path d="M83.837 188.076L74.854 193.262L12.61 157.325L21.593 152.139L83.837 188.076Z" fill="#D4E3E8"/>
<path d="M25.637 149.804L87.881 185.741L83.837 188.076L21.593 152.139L25.637 149.804Z" fill="#CAD9DD"/>
<path d="M12.61 159.564L74.854 195.501V193.263L12.61 157.326V159.564Z" fill="#DFEAED"/>
<path d="M87.882 185.741L74.854 193.263V195.501L87.882 187.979V185.741Z" fill="#B6C9CE"/>
<path d="M61.422 182.553L58.867 184.028L58.046 183.554L60.601 182.079L61.422 182.553Z" fill="#CAD9DD"/>
<path d="M58.52 178.986L54.32 181.409L53.499 180.935L57.699 178.512L58.52 178.986Z" fill="#CAD9DD"/>
<path d="M52.335 177.308L49.78 178.783L48.959 178.309L51.514 176.834L52.335 177.308Z" fill="#CAD9DD"/>
<path d="M67.606 184.232L63.406 186.655L62.585 186.181L66.785 183.758L67.606 184.232Z" fill="#CAD9DD"/>
<path d="M76.695 189.479L72.495 191.902L71.674 191.428L75.874 189.005L76.695 189.479Z" fill="#CAD9DD"/>
<path d="M70.508 187.803L67.953 189.278L67.132 188.804L69.687 187.329L70.508 187.803Z" fill="#CAD9DD"/>
<path d="M49.433 173.739L45.233 176.162L44.412 175.688L48.612 173.265L49.433 173.739Z" fill="#CAD9DD"/>
<path d="M25.074 161.573L22.519 163.048L21.698 162.574L24.253 161.099L25.074 161.573Z" fill="#CAD9DD"/>
<path d="M22.172 158L17.972 160.423L17.151 159.949L21.351 157.526L22.172 158Z" fill="#CAD9DD"/>
<path d="M43.248 172.063L40.693 173.538L39.872 173.064L42.427 171.589L43.248 172.063Z" fill="#CAD9DD"/>
<path d="M31.259 163.246L27.059 165.669L26.238 165.195L30.438 162.772L31.259 163.246Z" fill="#CAD9DD"/>
<path d="M40.346 168.493L36.146 170.916L35.325 170.442L39.525 168.019L40.346 168.493Z" fill="#CAD9DD"/>
<path d="M34.155 166.818L31.6 168.293L30.779 167.819L33.334 166.344L34.155 166.818Z" fill="#CAD9DD"/>
<path d="M144.478 219.79V222.648L108.461 243.303V240.437L144.478 219.79Z" fill="#282828"/>
<path d="M144.478 219.786L108.461 240.436L73.117 220.026L109.134 199.371L144.478 219.786Z" fill="#424242"/>
<path d="M108.461 240.437V243.303L73.117 222.885V220.027L108.461 240.437Z" fill="#303030"/>
<path d="M108.585 231.209C104.095 231.283 99.6625 230.199 95.714 228.061C91.36 225.548 88.962 221.915 88.962 217.831C88.962 213.747 91.362 210.114 95.714 207.601C99.6891 205.533 104.104 204.453 108.585 204.453C113.065 204.453 117.48 205.533 121.455 207.601C125.808 210.114 128.205 213.748 128.205 217.832C128.205 221.916 125.805 225.548 121.454 228.062C117.506 230.199 113.074 231.283 108.585 231.209V231.209Z" fill="#D4E3E8"/>
<path d="M108.585 230.258C104.095 230.332 99.6625 229.248 95.714 227.11C91.36 224.597 88.962 220.964 88.962 216.88C88.962 212.796 91.362 209.163 95.714 206.65C99.6889 204.582 104.104 203.502 108.585 203.502C113.065 203.502 117.48 204.582 121.455 206.65C125.808 209.163 128.205 212.796 128.205 216.88C128.205 220.964 125.805 224.597 121.454 227.11C117.506 229.248 113.074 230.332 108.585 230.258V230.258Z" fill="#C3D3DD"/>
<path d="M121.978 215.663L121.948 213.192C124.048 213.165 125.723 210.854 126.585 208.699C127.634 206.078 127.585 203.577 126.874 202.886C125.274 201.326 122.512 203.671 122.484 203.695L120.865 201.826C122.414 200.481 126.023 198.6 128.601 201.117C130.429 202.903 130.058 206.674 128.88 209.617C127.379 213.368 124.802 215.628 121.978 215.663Z" fill="#DFEAED"/>
<path d="M93.812 202.573V216.88C93.812 219.063 95.254 221.245 98.139 222.911C103.908 226.242 113.262 226.242 119.031 222.911C121.915 221.246 123.358 219.063 123.358 216.88V202.573H93.812Z" fill="#DCE8EF"/>
<path d="M119.031 208.605C113.262 211.936 103.908 211.936 98.139 208.605C92.37 205.274 92.369 199.874 98.139 196.543C103.909 193.212 113.261 193.212 119.031 196.543C124.801 199.874 124.8 205.274 119.031 208.605Z" fill="#F0F5F7"/>
<path d="M108.586 209.891C105.16 209.967 101.771 209.163 98.745 207.555C96.345 206.17 95.024 204.401 95.024 202.574C95.024 200.747 96.345 198.979 98.745 197.594C101.797 196.057 105.167 195.257 108.584 195.257C112.002 195.257 115.372 196.057 118.424 197.594C120.824 198.979 122.145 200.748 122.145 202.574C122.145 204.4 120.823 206.174 118.424 207.556C115.399 209.163 112.011 209.967 108.586 209.891V209.891Z" fill="#C3D3DD"/>
<path d="M118.424 202.663C115.372 201.126 112.002 200.326 108.585 200.326C105.167 200.326 101.797 201.126 98.745 202.663C97.6352 203.266 96.6675 204.099 95.907 205.108C96.6675 206.116 97.6352 206.95 98.745 207.553C101.798 209.089 105.167 209.889 108.585 209.889C112.002 209.889 115.372 209.089 118.424 207.553C119.534 206.949 120.502 206.115 121.263 205.107C120.502 204.099 119.534 203.265 118.424 202.663Z" fill="#424242"/>
<path d="M0.998016 166.999L5.798 172.507L8.16602 168.407L0.998016 166.999Z" fill="#EFC87E"/>
<path d="M0.998016 166.999L2.31702 168.511L2.96701 167.385L0.998016 166.999Z" fill="#7659C0"/>
<path d="M8.17099 168.404C7.97864 168.314 7.76591 168.278 7.5549 168.299C7.34389 168.32 7.1423 168.397 6.97101 168.522C6.48316 168.839 6.07732 169.267 5.78671 169.771C5.4961 170.275 5.32897 170.841 5.29901 171.422C5.27809 171.628 5.31232 171.837 5.39822 172.026C5.48413 172.215 5.61862 172.378 5.78799 172.498L40.888 192.898C40.7185 192.777 40.5839 192.614 40.498 192.425C40.412 192.236 40.3779 192.027 40.399 191.821C40.429 191.24 40.5961 190.674 40.8867 190.17C41.1773 189.666 41.5832 189.238 42.071 188.921C42.2423 188.796 42.4439 188.719 42.6549 188.698C42.8659 188.677 43.0787 188.713 43.271 188.803L8.17099 168.404Z" fill="#6746B9"/>
<path d="M42.076 188.921C43.003 188.386 43.76 188.812 43.763 189.882C43.7319 190.463 43.5638 191.029 43.2723 191.533C42.9809 192.037 42.5744 192.465 42.086 192.782C41.159 193.317 40.405 192.888 40.403 191.823C40.4328 191.241 40.5999 190.675 40.8907 190.171C41.1815 189.666 41.5877 189.238 42.076 188.921Z" fill="#856BC7"/>
<path d="M17.967 169.913L22.767 175.421L25.135 171.321L17.967 169.913Z" fill="#EFC87E"/>
<path d="M17.967 169.913L19.286 171.425L19.936 170.299L17.967 169.913Z" fill="#6746B9"/>
<path d="M25.138 171.318C24.9457 171.228 24.7331 171.192 24.5221 171.213C24.3111 171.233 24.1094 171.31 23.938 171.435C23.4502 171.752 23.0444 172.18 22.7538 172.684C22.4632 173.188 22.296 173.754 22.266 174.335C22.245 174.541 22.2792 174.75 22.3651 174.939C22.451 175.128 22.5856 175.291 22.755 175.412L45.405 188.592C45.2356 188.472 45.1011 188.309 45.0152 188.12C44.9293 187.931 44.8951 187.722 44.916 187.516C44.946 186.935 45.1131 186.369 45.4037 185.865C45.6943 185.361 46.1002 184.933 46.588 184.616C46.7594 184.491 46.961 184.414 47.172 184.393C47.3831 184.373 47.5958 184.409 47.788 184.499L25.138 171.318Z" fill="#856BC7"/>
<path d="M46.591 184.612C47.518 184.077 48.275 184.504 48.278 185.574C48.2471 186.155 48.0791 186.721 47.7878 187.225C47.4965 187.729 47.0902 188.157 46.602 188.474C45.675 189.009 44.922 188.58 44.918 187.515C44.9476 186.933 45.1147 186.367 45.4055 185.862C45.6963 185.358 46.1026 184.929 46.591 184.612V184.612Z" fill="#7659C0"/>
<path d="M20.687 189.783C20.4227 189.665 20.1946 189.479 20.0263 189.243C19.8581 189.008 19.7558 188.732 19.73 188.444L19.722 191.136C19.7478 191.424 19.8501 191.7 20.0183 191.935C20.1866 192.171 20.4147 192.357 20.679 192.475L22.231 193.375L22.239 190.683L20.687 189.783Z" fill="#C4C4C4"/>
<path d="M26.817 188.018L26.809 190.71L22.231 193.371L22.239 190.679L26.817 188.018Z" fill="#ECECEC"/>
<path d="M26.817 188.018L22.239 190.679L20.687 189.779C19.416 189.045 19.41 187.853 20.672 187.119C21.3833 186.756 22.1703 186.568 22.9685 186.568C23.7668 186.568 24.5537 186.756 25.265 187.119L26.817 188.018Z" fill="#ECECEC"/>
<path d="M30.008 189.862L30 192.554L25.422 195.214L25.43 192.522L30.008 189.862Z" fill="#856BC7"/>
<path d="M25.436 192.522L25.428 195.214L22.236 193.371L22.244 190.679L25.436 192.522Z" fill="#7659C0"/>
<path d="M30.008 189.862L25.43 192.522L22.238 190.679L26.816 188.018L30.008 189.862Z" fill="#856BC7"/>
<path d="M31.576 193.422C30.8645 193.783 30.0777 193.972 29.2795 193.972C28.4814 193.972 27.6945 193.783 26.983 193.422L25.432 192.522L25.424 195.214L26.975 196.109C27.6865 196.47 28.4733 196.659 29.2715 196.659C30.0697 196.659 30.8566 196.47 31.568 196.109C31.8281 195.992 32.0525 195.808 32.2183 195.576C32.3842 195.344 32.4855 195.073 32.512 194.789L32.52 192.097C32.4944 192.381 32.3935 192.654 32.2276 192.887C32.0617 193.12 31.8368 193.304 31.576 193.422V193.422Z" fill="#C4C4C4"/>
<path d="M31.56 190.758C32.831 191.492 32.84 192.682 31.575 193.418C30.8636 193.779 30.0767 193.968 29.2785 193.968C28.4804 193.968 27.6935 193.779 26.982 193.418L25.431 192.518L30.009 189.858L31.56 190.758Z" fill="#ECECEC"/>
<path d="M207.828 200.761L252.902 174.738L224.769 158.496L179.696 184.519L207.828 200.761Z" fill="#856BC7"/>
<path d="M252.902 176.763L207.828 202.786V200.761L252.902 174.738V176.763Z" fill="#7659C0"/>
<path d="M207.828 202.785L179.696 186.543V184.518L207.828 200.76V202.785Z" fill="#7659C0"/>
<path d="M207.828 191.049L252.902 165.026L224.77 148.783L179.696 174.806L207.828 191.049Z" fill="#856BC7"/>
<path d="M182.294 176.306V188.112L179.694 186.612V174.806L182.294 176.306Z" fill="#7659C0"/>
<path d="M207.828 193.074V199.374L251.646 174.049V167.749L207.828 193.074Z" fill="#DFEAED"/>
<path d="M207.828 193.074L179.696 176.832V174.807L207.828 191.049V193.074Z" fill="#7659C0"/>
<path d="M252.902 167.05L207.828 193.073V191.048L252.902 165.025V167.05Z" fill="#7659C0"/>
<path d="M207.828 193.073L182.294 178.323V184.623L207.828 199.373V193.073Z" fill="#B6C9CE"/>
<path d="M203.907 188.787L248.981 162.764L243.899 159.83L198.825 185.853L203.907 188.787Z" fill="#6746B9"/>
<path d="M207.828 189.06L252.902 163.037L224.769 146.795L179.695 172.818L207.828 189.06Z" fill="#6746B9"/>
<path d="M252.902 165.062L207.828 191.085V189.06L252.902 163.037V165.062Z" fill="#6746B9"/>
<path d="M207.828 191.084L179.696 174.842V172.817L207.828 189.059V191.084Z" fill="#7659C0"/>
<path d="M207.828 179.347L252.902 153.324L224.769 137.082L179.695 163.105L207.828 179.347Z" fill="#6746B9"/>
<path d="M182.294 164.604V176.41L179.694 174.91V163.104L182.294 164.604Z" fill="#7659C0"/>
<path d="M207.828 181.373V187.673L251.646 162.348V156.048L207.828 181.373Z" fill="#DFEAED"/>
<path d="M207.828 181.373L179.696 165.131V163.104L207.828 179.346V181.373Z" fill="#7659C0"/>
<path d="M252.902 155.349L207.828 181.372V179.347L252.902 153.324V155.349Z" fill="#6746B9"/>
<path d="M207.828 181.372L182.294 166.622V172.922L207.828 187.672V181.372Z" fill="#B6C9CE"/>
<path d="M203.907 177.086L248.981 151.063L243.907 148.125L198.833 174.148L203.907 177.086Z" fill="#D4E3E8"/>
<path d="M177.042 214.379L180.917 196.92H148.828L152.703 214.379H177.042Z" fill="#DCE8EF"/>
<path d="M164.873 205.066C173.807 205.066 181.05 200.884 181.05 195.726C181.05 190.567 173.807 186.386 164.873 186.386C155.939 186.386 148.696 190.567 148.696 195.726C148.696 200.884 155.939 205.066 164.873 205.066Z" fill="#F0F5F7"/>
<path d="M164.873 203.452C161.172 203.535 157.511 202.668 154.241 200.933C151.706 199.469 150.31 197.621 150.31 195.727C150.31 193.833 151.71 191.984 154.241 190.52C157.54 188.864 161.181 188.001 164.873 188.001C168.565 188.001 172.206 188.864 175.505 190.52C178.04 191.984 179.436 193.833 179.436 195.727C179.436 197.621 178.036 199.47 175.505 200.933C172.235 202.668 168.574 203.535 164.873 203.452Z" fill="#C3D3DD"/>
<path d="M175.504 194.769C172.205 193.112 168.564 192.25 164.872 192.25C161.18 192.25 157.539 193.112 154.24 194.769C152.877 195.485 151.727 196.548 150.905 197.851C151.727 199.153 152.877 200.215 154.24 200.932C157.539 202.588 161.18 203.451 164.872 203.451C168.564 203.451 172.205 202.588 175.504 200.932C176.867 200.216 178.017 199.153 178.839 197.851C178.018 196.548 176.867 195.485 175.504 194.769V194.769Z" fill="#424242"/>
<path d="M173.548 218.482C168.756 221.249 160.988 221.249 156.196 218.482C151.404 215.715 151.404 211.23 156.196 208.464C160.988 205.698 168.756 205.697 173.548 208.464C178.34 211.231 178.34 215.716 173.548 218.482Z" fill="#DCE8EF"/>
<path d="M163.808 186.769V197.655C163.817 197.748 163.85 197.838 163.905 197.914C163.96 197.991 164.034 198.051 164.12 198.09C164.353 198.208 164.611 198.27 164.873 198.27C165.134 198.27 165.392 198.208 165.625 198.09C165.711 198.051 165.785 197.991 165.84 197.915C165.895 197.838 165.928 197.748 165.937 197.655V186.769H163.808Z" fill="#282828"/>
<path d="M179.107 179.587C179.107 183.362 177.607 186.982 174.938 189.652C172.269 192.321 168.648 193.821 164.873 193.821C161.098 193.821 157.477 192.321 154.808 189.652C152.139 186.982 150.639 183.362 150.639 179.587C150.639 171.726 164.873 151.966 164.873 151.966C164.873 151.966 179.107 171.731 179.107 179.587Z" fill="#6746B9"/>
<g style="mix-blend-mode:multiply">
<g style="mix-blend-mode:multiply">
<path d="M171.907 162.697C173.041 168.432 172.309 174.38 169.819 179.671C167.329 184.961 163.212 189.315 158.069 192.097C160.237 193.276 162.674 193.871 165.141 193.824C167.609 193.777 170.021 193.09 172.143 191.829C174.264 190.569 176.022 188.779 177.243 186.634C178.464 184.489 179.106 182.064 179.107 179.597C179.107 175.631 175.493 168.65 171.907 162.697Z" fill="#D1D3D4"/>
</g>
</g>
<path d="M53.531 211.913C53.531 211.913 58.231 210.57 59.236 211.074C60.241 211.578 59.471 213.526 57.288 214.768C55.8741 215.709 54.3581 216.486 52.769 217.086C51.612 217.386 49.799 217.422 49.531 216.28C49.2761 215.279 49.3344 214.224 49.698 213.257C50 212.753 53.531 211.913 53.531 211.913Z" fill="#424242"/>
<path d="M53.951 211.605V212.645C53.8104 213.086 53.5287 213.469 53.1493 213.734C52.7698 214 52.3137 214.133 51.851 214.114C49.925 214.103 49.88 213.096 49.88 213.096L49.937 211.649" fill="#F4B298"/>
<path d="M60.221 215.998C60.221 215.998 65.49 214.491 66.621 215.056C67.752 215.621 66.885 217.806 64.436 219.199C61.987 220.592 60.664 221.459 59.367 221.799C58.07 222.139 56.036 222.176 55.734 220.899C55.449 219.776 55.5146 218.593 55.922 217.509C56.26 216.939 60.221 215.998 60.221 215.998Z" fill="#424242"/>
<path d="M60.218 215.395V217.278C60.218 217.278 59.987 218.521 58.142 218.634C56.297 218.747 55.919 217.504 55.919 217.504V216.044L58.707 215.621L60.218 215.395Z" fill="#F4B298"/>
<path d="M49.55 177.459C49.05 179.866 50.464 182.648 50.54 183.703C50.616 184.758 49.84 192.597 49.388 198.168C48.936 203.739 49.327 212.668 49.327 212.668C49.6348 213.039 50.0423 213.314 50.5014 213.461C50.9605 213.608 51.452 213.62 51.918 213.497C52.9339 213.324 53.8939 212.91 54.718 212.292C54.718 212.292 55.961 193.492 56.338 191.311C56.715 189.13 57.366 180.387 57.417 179.031C57.468 177.675 50.577 172.521 49.55 177.459Z" fill="#282828"/>
<path d="M64.265 179.809C64.2743 185.776 63.8398 191.736 62.965 197.64C62.814 198.619 61.337 216.398 61.337 216.398C61.337 216.398 59.801 219.864 54.979 217.265C54.979 217.265 55.479 200.982 55.568 198.218C55.657 195.454 56.104 189.729 55.918 186.867C55.732 184.005 54.118 183.251 53.947 179.484C53.947 179.484 54.576 176.018 59.109 176.32C63.642 176.622 64.265 179.809 64.265 179.809Z" fill="#303030"/>
<path d="M65.985 157.886C66.524 154.614 64.752 152.809 60.785 150.486C59.146 149.525 53.044 145.345 50.049 149.073C47.054 152.801 50.219 161.164 50.049 165.911C49.879 170.658 49.149 176.872 49.149 176.872C49.149 176.872 50.675 179.98 56.212 180.488C59.2638 180.851 62.3582 180.503 65.253 179.471C65.253 179.471 64.402 167.491 65.985 157.886Z" fill="#856BC7"/>
<path d="M65.116 167.091C63.5581 168.57 61.5269 169.451 59.382 169.577V171.799C61.3116 171.569 63.2076 171.114 65.031 170.443C65.2504 169.796 65.3865 169.124 65.436 168.443C65.53 167.283 65.116 167.091 65.116 167.091Z" fill="#6746B9"/>
<path d="M58.395 154.58C58.5572 154.964 58.6724 155.367 58.738 155.78C56.478 153.809 55.23 162.207 53.983 162.497C52.736 162.787 47.944 161.078 46.715 158.528C46.4168 157.289 46.3818 156.001 46.6123 154.747C46.8427 153.494 47.3335 152.303 48.053 151.251C48.893 149.753 57.319 152.32 58.395 154.58Z" fill="#282828"/>
<path d="M59.371 170.402C59.407 173.06 59.525 176.965 56.586 177.02C53.647 177.075 47.428 174.253 47.093 173.006C46.5839 168.199 46.4572 163.36 46.714 158.533C47.943 161.082 52.744 162.782 53.982 162.502C55.22 162.222 56.482 153.814 58.737 155.785C59.434 159.409 59.335 168.079 59.371 170.402Z" fill="#2F3030"/>
<path d="M58.827 156.302C58.827 156.302 59.937 153.229 61.527 152.947C62.5223 152.785 63.5418 152.861 64.502 153.169C64.502 153.169 64.668 152.692 63.989 152.156C63.2629 151.691 62.4867 151.309 61.675 151.019C61.675 151.019 59.275 150.464 56.8 153.104C57.3832 153.347 57.8787 153.762 58.221 154.293C58.4821 154.943 58.6849 155.615 58.827 156.302Z" fill="#6746B9"/>
<path d="M52.354 151.279C52.354 151.279 52.713 148.201 53.985 147.551C53.7452 147.386 53.4611 147.297 53.17 147.296C52.5668 147.431 51.9864 147.652 51.447 147.954C50.5557 148.673 49.9525 149.689 49.747 150.816C49.747 150.816 51.838 151.132 52.354 151.279Z" fill="#6746B9"/>
<path d="M54.644 146.976C54.644 146.976 54.606 148.37 54.644 148.676C55.4244 149.504 56.4844 150.014 57.619 150.107C58.3691 150.221 59.1356 150.16 59.858 149.928V148.028C59.858 148.028 62.064 148.123 62.365 147.548C62.836 146.255 63.0536 144.883 63.006 143.508C62.7878 143.041 62.6354 142.547 62.553 142.039C62.6452 141.415 62.6956 140.786 62.704 140.156C62.5268 139.585 62.2999 139.03 62.026 138.499C62.026 138.499 63.026 137.256 60.267 136.427C57.508 135.598 53.852 136.503 53.4 137.327C53.1401 137.76 52.9984 138.253 52.989 138.758C52.989 138.758 51.499 140.038 51.866 141.319C52.5261 142.973 53.2902 144.583 54.154 146.141L54.644 146.976Z" fill="#FFC8AF"/>
<path d="M60.268 136.428C57.507 135.599 53.853 136.504 53.401 137.328C53.1411 137.761 52.9994 138.254 52.99 138.759C52.99 138.759 51.5 140.039 51.867 141.32C52.527 142.974 53.2912 144.584 54.155 146.142L54.645 146.971C54.645 146.971 57.696 146.481 58.035 146.071C58.374 145.661 59.015 143.924 59.383 144.071C59.751 144.218 59.805 145.465 59.805 145.465H60.264C60.297 144.863 60.297 144.259 60.264 143.657C60.201 143.318 60.818 142.715 60.893 142.226C60.8678 141.505 60.7872 140.787 60.652 140.079C60.637 139.779 62.023 138.497 62.023 138.497C62.023 138.497 63.03 137.258 60.268 136.428Z" fill="#282828"/>
<path d="M72.081 180.59C71.972 180.228 70.824 177.001 70.824 177.001L67.108 167.653C66.8945 167.079 66.5692 166.554 66.151 166.108C66.1689 162.826 65.9349 159.548 65.451 156.303C65.451 156.303 62.075 153.973 60.992 157.976C60.992 157.976 61.374 164.204 61.492 166.84V166.849L61.508 167.137C61.521 167.464 61.529 167.719 61.529 167.864C61.5293 167.945 61.5407 168.026 61.563 168.104V168.115L61.581 168.152C61.6021 168.213 61.6303 168.271 61.665 168.326L61.68 168.358V168.367C63.009 171.052 67.972 178.384 68.035 178.727C68.035 178.727 67.791 179.975 68.207 180.427C68.623 180.879 69.075 180.952 69.147 181.295C69.219 181.638 69.183 182.95 69.265 183.295C69.347 183.64 70.765 184.986 71.299 184.606C71.299 184.606 71.751 183.367 71.86 183.024C72.0512 182.227 72.1257 181.407 72.081 180.59Z" fill="#FFC8AF"/>
<path d="M66.393 161.666C66.435 159.448 66.2881 157.231 65.954 155.039C65.443 153.315 61.82 152.025 60.663 155.984C60.1402 158.469 60.1385 161.036 60.658 163.522C60.687 163.529 65.187 164.459 66.393 161.666Z" fill="#7659C0"/>
<path d="M149.02 58.4448C162.583 66.2758 173.547 85.2658 173.503 100.851C173.459 116.436 162.423 122.711 148.86 114.881C135.297 107.051 124.333 88.0738 124.378 72.4878C124.423 56.9018 135.457 50.6138 149.02 58.4448Z" fill="#7659C0"/>
<path d="M171.56 113.562L166.344 116.594C170.75 114.033 173.482 108.594 173.504 100.851C173.548 85.2647 162.584 66.2757 149.021 58.4437L154.238 55.4127C167.801 63.2427 178.765 82.2327 178.721 97.8187C178.698 105.558 175.966 111.001 171.56 113.562Z" fill="#856BC7"/>
<path d="M139.819 75.6017L145.036 72.5697L161.876 93.5107L156.659 96.5427L139.819 75.6017Z" fill="#C3D3DD"/>
<path d="M139.818 75.6027L156.658 96.5437L139.758 97.9897L139.818 75.6027Z" fill="#A5B7C6"/>
<path d="M131.544 56.7347L136.761 53.7027C141.227 51.1027 147.413 51.4717 154.238 55.4127L149.021 58.4437C142.196 54.5037 136.01 54.1387 131.544 56.7347Z" fill="#856BC7"/>
<path d="M236.004 134.575L235.942 156.541C235.933 159.711 233.849 162.877 229.687 165.295C221.308 170.165 207.679 170.165 199.244 165.295C195.001 162.845 192.882 159.629 192.891 156.418L192.954 134.452C192.945 137.663 195.064 140.879 199.308 143.329C207.743 148.199 221.371 148.199 229.751 143.329C233.912 140.91 235.995 137.745 236.004 134.575Z" fill="#455B68"/>
<path d="M229.649 125.696C238.083 130.566 238.128 138.46 229.749 143.329C221.37 148.198 207.741 148.199 199.306 143.329C190.871 138.459 190.828 130.566 199.206 125.696C207.584 120.826 221.215 120.828 229.649 125.696Z" fill="#424E57"/>
<path d="M229.75 143.33C225.088 145.825 219.865 147.082 214.578 146.982V168.947C219.844 169.038 225.045 167.781 229.688 165.296C233.85 162.877 235.934 159.712 235.943 156.542L236.005 134.576C235.996 137.746 233.913 140.912 229.75 143.33Z" fill="#1D262D"/>
<path d="M255.101 136.428L214.58 159.974L173.8 136.428L214.318 112.882L255.101 136.428Z" fill="#37454F"/>
<path d="M255.101 136.428L255.096 138.228L214.578 161.774L214.583 159.974L255.101 136.428Z" fill="#455B68"/>
<path d="M214.583 159.974L214.578 161.774L173.795 138.228L173.8 136.428L214.583 159.974Z" fill="#1D262D"/>
<path d="M235.974 166.175C236.088 166.213 236.188 166.286 236.258 166.383C236.329 166.48 236.368 166.598 236.368 166.718C236.369 166.838 236.333 166.956 236.263 167.054C236.194 167.153 236.096 167.227 235.982 167.267C235.69 167.415 235.366 167.493 235.039 167.493C234.711 167.493 234.387 167.415 234.095 167.267C233.981 167.228 233.882 167.154 233.812 167.056C233.742 166.958 233.705 166.841 233.705 166.721C233.705 166.6 233.742 166.483 233.812 166.385C233.882 166.287 233.981 166.214 234.095 166.175C234.386 166.027 234.708 165.95 235.035 165.95C235.361 165.95 235.683 166.027 235.974 166.175V166.175Z" fill="#EFC87E"/>
<path d="M237.308 171.445C237.305 171.35 237.287 171.257 237.252 171.169L236.362 166.769L233.703 166.835L232.821 171.155C232.784 171.245 232.765 171.342 232.763 171.44V171.44C232.782 171.64 232.855 171.832 232.972 171.996C233.09 172.159 233.249 172.289 233.433 172.371C233.931 172.624 234.483 172.757 235.042 172.757C235.601 172.757 236.153 172.624 236.651 172.371C236.834 172.289 236.992 172.159 237.108 171.995C237.224 171.832 237.293 171.64 237.31 171.44L237.308 171.445Z" fill="#7659C0"/>
<path d="M236.367 164.678L236.361 166.778C236.35 166.894 236.309 167.005 236.241 167.1C236.173 167.195 236.081 167.271 235.975 167.319C235.683 167.467 235.36 167.545 235.032 167.545C234.704 167.545 234.381 167.467 234.089 167.319C233.981 167.271 233.887 167.194 233.818 167.098C233.749 167.001 233.707 166.888 233.696 166.77L233.702 164.67C233.712 164.788 233.754 164.901 233.823 164.998C233.892 165.094 233.986 165.17 234.094 165.219C234.386 165.368 234.71 165.445 235.038 165.445C235.365 165.445 235.689 165.368 235.981 165.219C236.087 165.171 236.179 165.095 236.247 165C236.315 164.905 236.356 164.794 236.367 164.678V164.678Z" fill="#6746B9"/>
<path d="M235.974 164.127C236.088 164.165 236.187 164.238 236.257 164.335C236.328 164.432 236.366 164.549 236.367 164.669C236.368 164.79 236.331 164.907 236.262 165.005C236.193 165.103 236.095 165.178 235.982 165.218C235.69 165.367 235.367 165.444 235.039 165.444C234.711 165.444 234.387 165.367 234.095 165.218C233.981 165.179 233.883 165.105 233.813 165.007C233.744 164.909 233.706 164.792 233.706 164.672C233.706 164.552 233.744 164.435 233.813 164.337C233.883 164.239 233.981 164.166 234.095 164.127C234.386 163.979 234.708 163.902 235.035 163.902C235.361 163.902 235.683 163.979 235.974 164.127V164.127Z" fill="#7659C0"/>
<path d="M234.982 165.134C234.76 165.127 234.542 165.069 234.346 164.964C234.267 164.928 234.198 164.874 234.146 164.805C234.094 164.737 234.059 164.656 234.046 164.571V164.5L233.982 146.518L234.916 147.062L234.982 165.134Z" fill="#6746B9"/>
<path d="M234.918 145.534L235.852 146.077C235.79 146.048 235.72 146.036 235.652 146.042C235.583 146.049 235.518 146.074 235.462 146.115L234.527 145.572C234.583 145.531 234.649 145.506 234.717 145.499C234.786 145.493 234.855 145.505 234.918 145.534V145.534Z" fill="#7659C0"/>
<path d="M236.08 164.529V164.578C236.067 164.661 236.033 164.741 235.982 164.808C235.93 164.876 235.863 164.929 235.786 164.965C235.54 165.094 235.263 165.153 234.986 165.135L234.922 147.063C234.932 146.873 234.986 146.688 235.081 146.524C235.176 146.359 235.308 146.219 235.467 146.116C235.543 146.07 235.629 146.044 235.717 146.041C235.736 146.041 235.755 146.043 235.774 146.048H235.78C235.795 146.051 235.81 146.056 235.824 146.063C235.828 146.062 235.833 146.062 235.837 146.063L235.85 146.07C235.908 146.108 235.954 146.161 235.983 146.224C236.013 146.286 236.025 146.356 236.018 146.425L236.08 164.529Z" fill="#6746B9"/>
<path d="M234.917 147.062L233.983 146.519C233.993 146.329 234.048 146.144 234.143 145.98C234.238 145.815 234.371 145.675 234.53 145.572L235.465 146.115C235.306 146.218 235.173 146.358 235.078 146.523C234.982 146.687 234.927 146.872 234.917 147.062V147.062Z" fill="#7659C0"/>
<path d="M214.196 134.537V135.618C214.202 135.685 214.226 135.75 214.266 135.805C214.305 135.86 214.358 135.904 214.42 135.932V134.852C214.358 134.824 214.305 134.78 214.266 134.724C214.226 134.669 214.202 134.604 214.196 134.537V134.537Z" fill="#7659C0"/>
<path d="M214.42 134.853V135.933L234.679 147.706V146.626L214.42 134.853Z" fill="#7659C0"/>
<path d="M236.005 147.391V146.311C235.999 146.379 235.974 146.445 235.934 146.501C235.894 146.557 235.84 146.602 235.777 146.63C235.608 146.716 235.421 146.761 235.231 146.761C235.041 146.761 234.853 146.716 234.684 146.63V147.71C234.853 147.796 235.041 147.842 235.231 147.842C235.421 147.842 235.609 147.796 235.778 147.71C235.841 147.682 235.895 147.637 235.935 147.581C235.975 147.525 235.999 147.459 236.005 147.391V147.391Z" fill="#7659C0"/>
<path d="M214.424 134.223C214.358 134.246 214.301 134.288 214.261 134.345C214.221 134.402 214.199 134.47 214.199 134.539C214.199 134.609 214.221 134.677 214.261 134.733C214.301 134.79 214.358 134.833 214.424 134.856L234.683 146.629C234.852 146.715 235.039 146.76 235.229 146.76C235.42 146.76 235.607 146.715 235.776 146.629C235.842 146.606 235.899 146.563 235.939 146.506C235.98 146.45 236.001 146.382 236.001 146.312C236.001 146.243 235.98 146.175 235.939 146.118C235.899 146.061 235.842 146.019 235.776 145.996L215.518 134.223C215.349 134.137 215.161 134.092 214.971 134.092C214.781 134.092 214.593 134.137 214.424 134.223Z" fill="#7659C0"/>
<path d="M234.92 147.804V146.725L234.679 146.63L234.573 146.876L234.638 147.621L234.683 147.71L234.92 147.804Z" fill="#7659C0"/>
<g style="mix-blend-mode:screen">
<g style="mix-blend-mode:screen">
<g style="mix-blend-mode:screen">
<path d="M182.152 101.078H189.576V109.65L182.152 101.078Z" fill="#20514A"/>
</g>
</g>
<g style="mix-blend-mode:screen">
<g style="mix-blend-mode:screen">
<path d="M190.306 105.786H197.73V114.358L190.306 105.786Z" fill="#20514A"/>
</g>
</g>
</g>
<g style="mix-blend-mode:screen">
<g style="mix-blend-mode:screen">
<path d="M189.941 83.6067C188.95 83.0347 188.146 83.4987 188.146 84.6427C188.18 85.2655 188.36 85.8715 188.672 86.4117C188.984 86.9518 189.419 87.4109 189.941 87.7517C190.933 88.3237 191.741 87.8587 191.741 86.7157C191.707 86.0924 191.526 85.486 191.213 84.9458C190.9 84.4056 190.464 83.9468 189.941 83.6067ZM185.747 78.1977L187.326 81.0157C187.751 80.8365 188.214 80.7695 188.672 80.8209C189.13 80.8724 189.567 81.0407 189.941 81.3097C191.026 81.9858 191.925 82.9226 192.556 84.0347L194.136 83.0407C193.123 81.2569 191.681 79.7542 189.941 78.6687C189.341 78.238 188.64 77.9684 187.906 77.8858C187.171 77.8032 186.428 77.9102 185.747 78.1967V78.1977ZM189.941 67.5727C185.734 65.1437 181.918 64.8567 179.102 66.3437L180.683 69.1627C183.091 67.8927 186.344 68.1367 189.941 70.2127C193.782 72.6047 196.965 75.9188 199.2 79.8537L200.781 78.8587C198.164 74.2534 194.438 70.3748 189.941 67.5747V67.5727ZM182.468 72.3477L184.048 75.1657C185.583 74.3567 187.648 74.5057 189.941 75.8287C192.387 77.3528 194.413 79.4641 195.835 81.9707L197.414 80.9767C195.61 77.7986 193.042 75.1212 189.941 73.1877C187.039 71.5127 184.41 71.3227 182.467 72.3477H182.468Z" fill="#20514A"/>
</g>
</g>
<g style="mix-blend-mode:screen">
<g style="mix-blend-mode:screen">
<g style="mix-blend-mode:screen">
<path d="M112.59 61.9567C111.297 63.0787 111.317 65.8197 112.634 68.4257C114.134 71.3867 116.694 73.2047 118.534 72.8487L121.378 77.7717C121.498 77.9787 121.693 78.0917 121.812 78.0217L122.612 77.5607C122.731 77.4907 122.731 77.2667 122.612 77.0607L119.77 72.1387C120.921 70.8107 120.737 67.9797 119.215 65.3437C117.363 62.1367 114.272 60.4987 112.59 61.9567ZM117.982 70.4657C116.928 71.0737 115.215 70.0837 114.162 68.2597C113.109 66.4357 113.109 64.4597 114.162 63.8497C115.215 63.2397 116.928 64.2307 117.982 66.0547C119.036 67.8787 119.034 69.8577 117.978 70.4657H117.982Z" fill="#20514A"/>
</g>
</g>
</g>
<path d="M23.51 75.8857C22.686 73.8167 21.252 72.7197 19.982 73.4957C18.712 74.2717 20.682 79.8817 21.317 81.8187C21.952 83.7557 22.16 84.8947 22.733 85.3437C23.306 85.7927 28.633 92.1127 28.633 92.1127C28.4467 92.8801 28.4086 93.676 28.521 94.4577C28.766 95.2317 29.097 96.1576 29.358 96.0576C29.619 95.9576 29.514 94.6697 29.732 94.6297C29.95 94.5897 30.172 95.7827 30.124 96.1297C30.076 96.4767 29.302 97.7427 29.511 98.0177C29.72 98.2927 30.669 97.5426 31.135 96.9736C31.5479 96.4727 31.7722 95.8429 31.769 95.1937C31.722 94.7647 31.569 93.8277 31.569 93.8277L30.394 91.6217L26.188 84.0647L23.51 75.8857Z" fill="#FFC8AF"/>
<path d="M24.404 78.6167C24.404 78.6167 25.786 82.7717 26.293 83.6877C26.8 84.6037 27.405 85.5877 27.405 85.5877C27.1035 86.3026 26.5768 86.8995 25.905 87.2877L24.886 87.7807C24.163 87.2599 23.5193 86.6371 22.975 85.9317C22.737 85.3527 23.361 81.2317 23.361 81.2317L24.404 78.6167Z" fill="#7659C0"/>
<path d="M27.405 85.5857C27.5836 85.6545 27.7351 85.7795 27.8366 85.9418C27.9382 86.1041 27.9843 86.2949 27.968 86.4857C27.7594 86.9722 27.4468 87.4071 27.052 87.7597C26.5797 88.2053 26.0094 88.5338 25.387 88.7187C25.041 88.3834 24.7724 87.9766 24.6 87.5267C25.2669 87.2166 25.903 86.8442 26.5 86.4147C26.981 85.9767 27.405 85.5857 27.405 85.5857Z" fill="#856BC7"/>
<path d="M26.853 133.901C26.987 135.015 23.636 134.739 22.731 134.178C21.9384 133.508 21.1914 132.786 20.495 132.017C19.867 131.523 19.314 131.523 19.238 131.037C19.222 130.894 19.18 130.492 19.146 129.937C19.0076 128.212 18.9682 126.481 19.028 124.752C19.17 122.515 18.844 117.352 19.237 114.7C19.296 114.323 19.337 113.929 19.38 113.519C19.573 111.483 19.58 109.129 19.64 107.739C19.715 106.064 19.313 99.4117 19.313 99.4117C19.313 99.4117 18.894 91.7307 18.894 89.9207C18.894 89.3097 19.388 88.9737 20.05 88.8067C21.1194 88.6054 22.2145 88.58 23.292 88.7317C25.592 99.6217 24.665 105.762 24.615 109.188C24.573 112.262 23.71 114.214 23.359 117.632C23.008 121.05 22.312 125.866 22.454 127.617C22.546 128.789 24.448 130.733 25.721 132.207C26.2128 132.686 26.5985 133.263 26.853 133.901Z" fill="#F4B298"/>
<path d="M22.036 97.2526C21.336 99.4136 19.236 99.6236 19.523 103.117C19.81 106.61 20.009 110.723 19.448 113.236C19.423 113.328 19.406 113.429 19.381 113.521V113.529C18.5895 116.593 18.0517 119.716 17.773 122.869C17.4306 126.44 17.3384 130.032 17.497 133.617C17.564 134.17 17.857 135.326 18.092 136.482C18.376 137.814 18.592 139.146 18.335 139.556C17.849 140.318 14.917 139.556 14.498 138.856C14.079 138.156 14.214 136.628 14.214 135.79C14.214 135.639 14.189 135.09 14.138 134.265C13.921 130.529 13.338 121.206 13.452 119.036C13.586 116.38 14.352 112.192 14.152 109.193C13.952 106.194 12.896 103.815 13.247 98.5796C13.598 93.3446 15.547 92.9256 15.685 90.2026C15.777 88.5026 18.223 88.5446 20.058 88.8126H20.066C20.7318 88.9145 21.3917 89.0517 22.043 89.2236C22.043 89.2236 22.731 95.0826 22.036 97.2526Z" fill="#FFC8AF"/>
<path d="M23.883 88.5767C23.883 88.5767 22.19 91.0897 15.683 90.1997C15.683 90.1997 12.838 93.4997 12.683 97.2157C12.528 100.932 12.997 106.745 12.997 106.745C15.1325 107.485 17.3872 107.823 19.646 107.74C23.992 107.74 25.246 106.379 25.246 106.379C25.246 106.379 24.984 95.5937 24.722 92.8187C24.6226 91.3749 24.3407 89.9495 23.883 88.5767V88.5767Z" fill="#282828"/>
<path d="M10.611 80.1736C11.082 77.1106 12.286 76.2466 15.011 74.1526C17.736 72.0586 20.796 70.9846 22.367 73.4196C23.5489 75.3311 24.3408 77.4577 24.697 79.6766C24.697 80.2526 23.755 81.5876 23.781 82.3466C23.807 83.1056 23.881 88.5766 23.881 88.5766C23.881 88.5766 23.07 90.6706 19.381 90.9066C15.692 91.1426 15.349 90.5926 15.349 90.5926C15.349 90.5926 14.878 87.7136 14.538 86.0116C14.198 84.3096 10.291 82.2506 10.611 80.1736Z" fill="#FFC8AF"/>
<path d="M15.349 90.5927C15.349 90.5927 15.689 91.1427 19.381 90.9067C23.073 90.6707 23.881 88.5767 23.881 88.5767C23.881 88.5767 23.803 83.1057 23.781 82.3467C23.759 81.5877 24.697 80.2527 24.697 79.6767C24.3408 77.4577 23.5489 75.3312 22.367 73.4197C22.137 73.033 21.8182 72.7066 21.437 72.4675C21.0558 72.2284 20.6233 72.0835 20.175 72.0447C20.303 72.1977 21.755 73.9447 21.722 75.0167C21.687 76.1337 18.441 78.3317 17.149 78.3317C15.874 78.3317 15.141 76.1567 13.342 75.4637C12.5773 76.0084 11.9382 76.7106 11.4676 77.5231C10.9971 78.3355 10.706 79.2393 10.614 80.1737C10.294 82.2507 14.201 84.3097 14.541 86.0107C14.881 87.7117 15.349 90.5927 15.349 90.5927Z" fill="#DCE8EF"/>
<path d="M20.22 71.7967C20.22 71.7967 20.194 74.0217 20.12 74.6767C20.046 75.3317 18.235 75.3307 17.45 75.3307C17.2768 75.3435 17.1028 75.3207 16.9388 75.2635C16.7748 75.2063 16.6243 75.116 16.4967 74.9982C16.3691 74.8805 16.267 74.7377 16.1969 74.5788C16.1267 74.4199 16.09 74.2483 16.089 74.0747C16.062 73.3157 16.106 69.8167 16.106 69.8167C16.9906 70.0093 17.8469 70.3144 18.654 70.7247C20.166 71.4567 20.22 71.7967 20.22 71.7967Z" fill="#F4B298"/>
<path d="M18.615 74.3227C18.615 74.3227 19.034 75.4747 19.315 76.2077C19.596 76.9407 20.641 88.3187 20.223 92.1577C19.805 95.9967 18.896 97.3927 18.129 97.6027C17.362 97.8127 12.684 95.5087 12.684 95.5087C12.684 95.5087 14.638 90.6217 14.498 88.8087C14.358 86.9957 12.125 83.6437 11.357 80.9907C10.589 78.3377 10.903 78.0907 11.288 77.3257C12.1072 76.2377 13.0178 75.2217 14.01 74.2887L17.082 74.7077L18.615 74.3227Z" fill="#856BC7"/>
<path d="M18.616 74.3187C18.3351 74.9569 18.1245 75.6238 17.988 76.3077C17.988 76.7967 14.009 74.2837 14.009 74.2837L14.219 73.2017L18.616 74.3187Z" fill="#957ECE"/>
<path d="M22.033 64.3716C22.1385 65.1001 22.1617 65.838 22.102 66.5716C22.2508 66.9759 22.3446 67.3984 22.381 67.8276C22.381 68.3866 22.416 71.3526 21.823 71.7376C21.23 72.1226 17.948 71.5976 17.285 71.0736C16.8396 70.705 16.441 70.2832 16.098 69.8176C15.873 69.8306 15.6482 69.79 15.442 69.699C15.2358 69.6081 15.0542 69.4695 14.912 69.2947C14.3912 68.4799 14.0475 67.5648 13.9032 66.6087C13.7588 65.6526 13.817 64.6768 14.074 63.7446C14.842 61.1616 18.995 61.0566 20.462 62.1036C20.8656 62.3535 21.2133 62.6839 21.4836 63.0741C21.7539 63.4643 21.9409 63.906 22.033 64.3716Z" fill="#FFC8AF"/>
<path d="M26.854 133.901C26.988 135.015 23.637 134.739 22.732 134.178C21.9394 133.508 21.1925 132.786 20.496 132.017C19.868 131.523 19.315 131.523 19.239 131.037C19.223 130.894 19.181 130.492 19.147 129.937C20.378 130.85 23.385 132.969 24.516 132.819C25.216 132.719 25.58 132.492 25.722 132.207C26.2138 132.686 26.5995 133.263 26.854 133.901V133.901Z" fill="#6746B9"/>
<path d="M18.334 139.555C17.848 140.317 14.916 139.555 14.497 138.855C14.078 138.155 14.213 136.627 14.213 135.789C14.213 135.638 14.188 135.089 14.137 134.264C14.221 134.6 14.296 134.964 14.355 135.328C14.598 136.903 14.741 137.528 16.726 137.774C17.598 137.883 17.958 137.238 18.092 136.484C18.376 137.813 18.594 139.145 18.334 139.555Z" fill="#6746B9"/>
<path d="M10.306 82.2757C10.585 79.6577 10.795 77.7387 12.156 77.4937C13.517 77.2487 14.356 78.9597 14.006 81.8217C13.656 84.6837 13.064 88.4217 13.064 88.4217C13.064 88.4217 13.864 97.8457 13.972 98.1947C14.08 98.5437 14.74 98.7877 15.054 99.2417C15.368 99.6957 15.822 101.542 15.508 101.72C15.194 101.898 14.844 100.778 14.6 100.92C14.356 101.062 14.565 102.176 14.74 102.665C14.915 103.154 15.368 103.677 15.089 103.852C14.6343 103.846 14.187 103.737 13.7816 103.531C13.3762 103.325 13.0236 103.029 12.751 102.665C12.3139 101.541 12.0887 100.346 12.087 99.1397C12.122 98.5467 10.202 89.6817 10.097 89.0187C9.99201 88.3557 10.306 82.2757 10.306 82.2757Z" fill="#FFC8AF"/>
<path d="M10.379 79.2397C10.713 77.6277 11.426 76.7267 13.066 77.0067C14.706 77.2867 15.021 80.0437 14.566 82.1717C14.111 84.2997 13.379 88.3147 13.379 88.6287C13.379 88.9427 13.693 92.5387 13.693 92.5387C13.2716 92.8736 12.782 93.1123 12.2586 93.2381C11.7352 93.3639 11.1906 93.3736 10.663 93.2667C10.3041 91.8405 10.0244 90.3957 9.82499 88.9387C9.75199 85.6961 9.93726 82.4528 10.379 79.2397V79.2397Z" fill="#7659C0"/>
<path d="M13.624 91.7177C13.2017 92.0957 12.69 92.3597 12.1372 92.4848C11.5844 92.6099 11.0089 92.592 10.465 92.4326C10.397 92.6646 10.3793 92.9083 10.413 93.1476C10.4354 93.381 10.52 93.6041 10.658 93.7937C11.2168 93.9528 11.8071 93.9658 12.3723 93.8313C12.9375 93.6968 13.4588 93.4194 13.886 93.0257C13.9134 92.7616 13.8896 92.4947 13.816 92.2397C13.7729 92.0587 13.7084 91.8834 13.624 91.7177V91.7177Z" fill="#856BC7"/>
<path d="M20.152 73.3767C20.814 74.2252 21.4091 75.1239 21.932 76.0647C22.5993 77.3293 22.9916 78.7207 23.083 80.1477C23.083 80.8287 23.676 88.0187 23.991 90.4787C24.306 92.9387 24.864 96.2207 24.864 96.2207C24.864 96.2207 25.964 96.4827 25.545 92.5557C25.126 88.6287 24.184 84.4937 24.236 82.9757C24.288 81.4577 25.231 80.9857 25.126 79.4677C25.021 77.9497 22.84 73.0987 21.933 72.5747C21.3965 72.2622 20.7938 72.0809 20.174 72.0457L20.152 73.3767Z" fill="#7659C0"/>
<path d="M20.152 73.3767C20.4283 73.4593 20.676 73.6176 20.8671 73.8335C21.0583 74.0494 21.1854 74.3144 21.234 74.5987C21.3538 74.1748 21.3416 73.7244 21.199 73.3077C20.9484 72.8203 20.599 72.3905 20.173 72.0457L20.152 73.3767Z" fill="#957ECE"/>
<path d="M21.566 63.3416C21.109 64.4742 20.4284 65.5029 19.5649 66.3665C18.7013 67.23 17.6725 67.9106 16.54 68.3676C16.54 68.3676 16.04 66.6406 15.258 67.1906C15.1101 67.2695 14.9798 67.3777 14.8752 67.5087C14.7706 67.6397 14.6939 67.7908 14.6498 67.9525C14.6057 68.1142 14.5951 68.2832 14.6187 68.4492C14.6423 68.6152 14.6996 68.7746 14.787 68.9176C15.075 69.3626 15.427 69.9556 16.102 69.8176C16.102 69.8176 16.16 72.9236 16.123 73.5006C16.086 74.0776 13.06 75.2806 13.06 75.2806C13.06 75.2806 12.511 67.5496 13.418 64.5136C14.325 61.4776 16.49 61.0576 18.13 61.5136C19.365 61.937 20.5248 62.554 21.566 63.3416Z" fill="#282828"/>
<path d="M16.644 61.4307C17.2177 61.1434 17.8512 60.9961 18.4927 61.0008C19.1343 61.0055 19.7656 61.1621 20.335 61.4577C20.7744 61.645 21.1707 61.9205 21.4994 62.2671C21.8281 62.6137 22.0822 63.024 22.246 63.4727C22.2989 64.1632 22.268 64.8576 22.154 65.5407C22.0837 64.9513 21.9836 64.3659 21.854 63.7867C21.723 63.3677 21.566 63.3417 21.566 63.3417C20.8152 62.8004 20.0231 62.319 19.197 61.9017C18.4166 61.4803 17.5233 61.3155 16.644 61.4307V61.4307Z" fill="#303030"/>
<g style="mix-blend-mode:screen">
<g style="mix-blend-mode:screen">
<path d="M169.992 56.0107C169.411 56.0236 168.839 55.8642 168.348 55.5527C167.718 55.1739 167.161 54.6859 166.703 54.1117C165.026 53.9037 163.837 55.0987 163.837 57.3047V57.5267C164.955 59.3881 166.502 60.9553 168.348 62.0977C168.996 62.5537 169.743 62.8492 170.528 62.9598C171.312 63.0704 172.112 62.9929 172.861 62.7337V62.5147C172.727 60.07 171.707 57.7579 169.992 56.0107V56.0107ZM168.348 48.1997C166.708 47.2527 165.378 48.0217 165.378 49.9147C165.434 50.9452 165.732 51.9479 166.248 52.8417C166.764 53.7354 167.484 54.495 168.348 55.0587C169.99 56.0067 171.318 55.2367 171.318 53.3437C171.262 52.3131 170.964 51.3101 170.448 50.4163C169.932 49.5225 169.212 48.7631 168.347 48.1997H168.348Z" fill="#20514A"/>
</g>
</g>
<g style="mix-blend-mode:screen">
<g style="mix-blend-mode:screen">
<g style="mix-blend-mode:screen">
<g style="mix-blend-mode:screen">
<path d="M125.661 50.1297L114.219 43.5237C114.055 43.4168 113.919 43.2728 113.821 43.1034C113.724 42.934 113.667 42.7439 113.657 42.5487V34.2177C113.657 33.8587 113.909 33.7177 114.219 33.8927L125.661 40.4987C125.825 40.6056 125.961 40.7497 126.058 40.919C126.156 41.0884 126.212 41.2784 126.223 41.4737V49.8047C126.224 50.1637 125.971 50.3097 125.661 50.1297ZM114.782 42.5497L125.099 48.5057V41.4737L114.784 35.5177L114.782 42.5497Z" fill="#20514A"/>
</g>
</g>
</g>
<g style="mix-blend-mode:screen">
<g style="mix-blend-mode:screen">
<g style="mix-blend-mode:screen">
<path d="M119.94 43.7577C119.798 43.6711 119.678 43.5534 119.589 43.4136L113.869 34.8486C113.626 34.4846 113.586 34.0487 113.779 33.8847C113.972 33.7207 114.327 33.8747 114.57 34.2377L119.94 42.2776L125.31 40.4376C125.553 40.3546 125.91 40.6056 126.101 40.9976C126.292 41.3896 126.255 41.7767 126.011 41.8587L120.29 43.8186C120.231 43.8337 120.169 43.8361 120.109 43.8256C120.048 43.8151 119.991 43.7919 119.94 43.7577V43.7577Z" fill="#20514A"/>
</g>
</g>
</g>
</g>
<g style="mix-blend-mode:screen">
<g style="mix-blend-mode:screen">
<g style="mix-blend-mode:screen">
<path d="M123.469 25.9757L118.174 19.3887V26.4487L123.469 25.9757Z" fill="#20514A"/>
</g>
</g>
<g style="mix-blend-mode:screen">
<g style="mix-blend-mode:screen">
<path d="M119.005 25.2907L113.386 22.0467V18.2617L119.005 21.5057V25.2907Z" fill="#20514A"/>
</g>
</g>
</g>
</svg>
