<svg width="120" height="120" viewBox="0 0 120 120" fill="none" xmlns="http://www.w3.org/2000/svg">
<path fill-rule="evenodd" clip-rule="evenodd" d="M108.466 29.6951C103.942 30.5429 102.997 39.6386 104.967 42.022C106.584 43.9827 109.917 44.4529 112.235 43.37C114.754 42.1896 117.182 37.5979 115.854 34.7744C114.348 31.5782 111.831 29.0623 108.466 29.695L108.466 29.6951ZM44.5164 10.3705C49.7793 4.29581 57.0797 1.07715 65.3599 1.07715C76.3819 1.07715 68.0164 11.6235 62.543 21.3495C57.5157 30.2778 59.037 33.1188 63.0092 33.2113C67.9538 27.5142 72.2267 20.6442 78.5949 14.3119C94.9549 -1.94401 109.899 12.8439 99.4684 30.6954C96.228 36.2324 82.9229 54.0563 83.3865 57.3951C84.3815 64.5552 110.899 43.4175 117.748 55.1417C123.525 65.0254 94.0601 80.3309 88.4565 93.7157C83.1911 106.295 78.9582 118.495 55.784 118.495C46.3985 118.495 1.31319 113.223 11.1423 98.1174C16.1245 90.4646 17.8336 86.3031 17.6808 83.9897C17.2172 77.0547 -13.7662 59.1382 11.5608 45.5682C27.8808 36.82 32.3041 24.4631 44.5165 10.3705L44.5164 10.3705Z" fill="#F6EEDA"/>
<path d="M89.2929 30.7071C105.471 46.8851 105.471 73.1149 89.2929 89.2929C73.1149 105.471 46.8851 105.471 30.7071 89.2929C14.5291 73.1149 14.5291 46.8851 30.7071 30.7071C46.8851 14.5291 73.1149 14.5291 89.2929 30.7071Z" fill="#A490D5" stroke="#052C3C" stroke-width="2"/>
<path opacity="0.19" d="M89.6078 83.5706C81.7309 85.8713 73.3359 85.6896 65.5661 83.0503C57.7963 80.411 51.0295 75.4423 46.1874 68.8212C41.3453 62.2 38.6633 54.2481 38.5066 46.0488C38.35 37.8494 40.7264 29.801 45.3121 23C39.4899 25.2864 34.2871 28.9086 30.1235 33.5743C25.9599 38.2399 22.9521 43.8184 21.343 49.8595C19.7338 55.9005 19.5683 62.235 20.8597 68.3518C22.1512 74.4686 24.8635 80.1963 28.7777 85.0728C32.6919 89.9493 37.6985 93.8379 43.3933 96.4249C49.0882 99.0119 55.3119 100.225 61.5622 99.9657C67.8125 99.7067 73.9143 97.9829 79.3752 94.9335C84.8362 91.8842 89.5033 87.5946 93 82.411C91.9032 82.8399 90.7682 83.2243 89.6078 83.5706Z" fill="#B3A3DC"/>
<path d="M63.3579 98.9352C61.3749 98.936 59.3947 98.7892 57.4336 98.4958C57.3888 98.4896 57.3483 98.4658 57.321 98.4296C57.2938 98.3935 57.282 98.348 57.2883 98.3032C57.2945 98.2584 57.3184 98.2179 57.3545 98.1907C57.3906 98.1634 57.4361 98.1516 57.4809 98.1579C59.7746 98.5012 62.0939 98.6425 64.4123 98.5803C64.4569 98.5803 64.4997 98.5975 64.5318 98.6284C64.564 98.6593 64.5829 98.7014 64.5846 98.7459C64.5851 98.7681 64.5812 98.7902 64.5731 98.8109C64.565 98.8315 64.5529 98.8504 64.5375 98.8664C64.5222 98.8824 64.5038 98.8952 64.4835 98.9041C64.4631 98.913 64.4412 98.9178 64.419 98.9183C64.0676 98.9318 63.7127 98.9352 63.3579 98.9352Z" fill="#052C3C"/>
<path d="M55.7445 98.2023H55.7107C54.5076 97.9658 53.3011 97.6751 52.1217 97.3304C52.0786 97.3179 52.0424 97.2887 52.0208 97.2494C51.9993 97.2102 51.9942 97.1639 52.0068 97.1209C52.0201 97.0784 52.0493 97.0427 52.0884 97.0212C52.1274 96.9998 52.1733 96.9943 52.2163 97.006C53.3856 97.3439 54.5819 97.638 55.7749 97.8678C55.819 97.8768 55.8579 97.9027 55.8831 97.9399C55.9084 97.9772 55.9181 98.0228 55.9101 98.0672C55.9023 98.1053 55.8816 98.1396 55.8514 98.1643C55.8212 98.1889 55.7835 98.2023 55.7445 98.2023V98.2023Z" fill="#052C3C"/>
<path d="M49.6439 96.8504C49.626 96.8537 49.6077 96.8537 49.5898 96.8504C40.1726 93.7103 32.2431 87.2093 27.3177 78.5905C22.3923 69.9716 20.8165 59.8397 22.8916 50.132C22.9021 50.0885 22.9291 50.0507 22.967 50.0267C23.0049 50.0028 23.0505 49.9945 23.0944 50.0036C23.1161 50.008 23.1366 50.0167 23.1549 50.0292C23.1731 50.0417 23.1887 50.0577 23.2007 50.0762C23.2126 50.0948 23.2208 50.1156 23.2246 50.1374C23.2284 50.1592 23.2278 50.1815 23.2228 50.203C21.1644 59.8289 22.7263 69.8759 27.61 78.4225C32.4937 86.9691 40.3565 93.4157 49.6946 96.5294C49.7394 96.5366 49.7795 96.5612 49.8061 96.598C49.8327 96.6347 49.8437 96.6806 49.8365 96.7254C49.8293 96.7702 49.8047 96.8103 49.7679 96.837C49.7311 96.8636 49.6853 96.8745 49.6405 96.8673L49.6439 96.8504Z" fill="#052C3C"/>
<path d="M25.11 45.8844C25.091 45.8879 25.0715 45.8879 25.0525 45.8844C25.0103 45.8691 24.9758 45.8379 24.9562 45.7975C24.9366 45.7571 24.9336 45.7107 24.9477 45.6681C25.8095 43.2193 26.9038 40.8586 28.2157 38.6184C28.2383 38.5801 28.2751 38.5522 28.3181 38.5408C28.3612 38.5294 28.4069 38.5354 28.4455 38.5576C28.4841 38.5808 28.5121 38.6182 28.5235 38.6618C28.5348 38.7054 28.5287 38.7517 28.5064 38.7908C27.2061 41.0115 26.1219 43.3518 25.2688 45.7796C25.2552 45.8105 25.2329 45.8368 25.2048 45.8554C25.1766 45.8739 25.1437 45.884 25.11 45.8844Z" fill="#052C3C"/>
<path d="M60.0182 102.599C49.2408 102.608 38.8603 98.5329 30.9676 91.1942C23.0748 83.8555 18.2563 73.7985 17.4826 63.0489C16.7088 52.2993 20.0374 41.6559 26.7977 33.2625C33.5581 24.8691 43.248 19.3493 53.9156 17.815C64.5832 16.2807 75.436 18.8459 84.2878 24.9938C93.1396 31.1418 99.3328 40.4157 101.62 50.9476C103.907 61.4795 102.118 72.4869 96.6136 81.7525C91.109 91.0181 82.2978 97.8535 71.9546 100.882C68.0772 102.017 64.0582 102.595 60.0182 102.599V102.599ZM60.0588 17.7257C51.1837 17.7106 42.5291 20.4895 35.3219 25.6685C28.1146 30.8475 22.7204 38.1638 19.904 46.5801C17.0877 54.9964 16.992 64.0858 19.6306 72.5595C22.2691 81.0332 27.5081 88.4614 34.6047 93.791C41.7014 99.1206 50.2955 102.081 59.1689 102.253C68.0423 102.425 76.7446 99.7989 84.0422 94.7479C91.3397 89.697 96.8622 82.4771 99.8268 74.1118C102.791 65.7465 103.047 56.6603 100.559 48.1413C97.991 39.382 92.6599 31.6876 85.361 26.2061C78.0622 20.7247 69.1867 17.7499 60.0588 17.7257V17.7257Z" fill="#052C3C"/>
<path d="M53.2532 57.9202C53.2803 59.9479 52.111 61.6377 50.6409 61.6377C49.1708 61.6377 47.9575 60.0155 47.9373 57.9743C47.917 55.9331 49.0829 54.2568 50.553 54.2568C52.0231 54.2568 53.2296 55.8756 53.2532 57.9202Z" fill="#052C3C"/>
<path d="M52.1718 56.2208C52.2766 57.0082 51.9792 57.701 51.4959 57.7652C51.0126 57.8294 50.553 57.2414 50.4449 56.4506C50.3367 55.6598 50.6375 54.9704 51.1208 54.9062C51.604 54.842 52.0772 55.43 52.1718 56.2208Z" fill="white"/>
<path d="M71.5259 57.5088C71.553 59.5534 70.3837 61.2263 68.9136 61.2432C67.4435 61.2601 66.2303 59.621 66.21 57.5798C66.1897 55.5385 67.3522 53.8623 68.8223 53.8623C70.2924 53.8623 71.4989 55.4608 71.5259 57.5088Z" fill="#052C3C"/>
<path d="M70.3532 55.6022C70.4579 56.393 70.1605 57.0824 69.6773 57.1466C69.194 57.2108 68.7344 56.6228 68.6263 55.8354C68.5181 55.0479 68.8189 54.3551 69.3022 54.2909C69.7854 54.2267 70.245 54.8148 70.3532 55.6022Z" fill="white"/>
<path d="M70.0626 78.5199C69.9443 78.5195 69.8299 78.4777 69.7392 78.4018C69.6484 78.3259 69.5871 78.2206 69.5658 78.1042C68.7006 73.4439 64.723 70.0171 60.1032 69.9596H59.9781C57.8104 69.9753 55.709 70.7093 54.0029 72.0467C52.2968 73.384 51.0822 75.2493 50.5493 77.3506C50.5322 77.415 50.5026 77.4753 50.4622 77.5282C50.4218 77.5811 50.3713 77.6256 50.3138 77.659C50.2562 77.6924 50.1926 77.7142 50.1266 77.723C50.0606 77.7319 49.9935 77.7276 49.9291 77.7105C49.8648 77.6934 49.8044 77.6638 49.7515 77.6234C49.6986 77.583 49.6542 77.5326 49.6207 77.475C49.5873 77.4174 49.5656 77.3538 49.5567 77.2878C49.5479 77.2218 49.5521 77.1547 49.5692 77.0904C50.1585 74.774 51.4985 72.7182 53.3798 71.244C55.2612 69.7698 57.5779 68.9605 59.968 68.9424H60.1065C65.2029 69.0066 69.5962 72.7815 70.5492 77.915C70.5615 77.9804 70.5607 78.0477 70.5469 78.1128C70.5331 78.178 70.5067 78.2398 70.469 78.2947C70.4313 78.3496 70.3832 78.3966 70.3274 78.4329C70.2716 78.4692 70.2092 78.4942 70.1437 78.5064L70.0626 78.5199Z" fill="#052C3C"/>
<path d="M44.5334 50.577C44.1749 50.6008 43.8216 50.4811 43.5513 50.2444C43.281 50.0077 43.1158 49.6733 43.0921 49.3148C43.0683 48.9562 43.188 48.603 43.4247 48.3327C43.6614 48.0623 43.9958 47.8971 44.3543 47.8734V47.8734C44.4287 47.8734 51.627 46.8595 55.9427 43.5983C56.0843 43.4911 56.2456 43.4129 56.4174 43.368C56.5892 43.3232 56.7681 43.3126 56.944 43.337C57.1199 43.3613 57.2893 43.42 57.4425 43.5098C57.5957 43.5996 57.7297 43.7187 57.8369 43.8602C57.9441 44.0018 58.0223 44.1631 58.0672 44.3349C58.112 44.5067 58.1226 44.6857 58.0982 44.8616C58.0739 45.0375 58.0152 45.2069 57.9254 45.36C57.8356 45.5132 57.7166 45.6473 57.575 45.7544C52.6848 49.455 45.037 50.5094 44.7126 50.5533L44.5334 50.577Z" fill="#052C3C"/>
<path d="M75.4117 52.2194C75.28 52.2202 75.149 52.2008 75.0231 52.1619C68.5716 50.2254 62.3939 45.7206 62.1336 45.5313C61.8446 45.3189 61.6517 45.0003 61.5976 44.6457C61.5434 44.2911 61.6323 43.9295 61.8447 43.6405C62.0571 43.3514 62.3757 43.1586 62.7303 43.1044C63.0849 43.0502 63.4465 43.1391 63.7355 43.3515C63.793 43.3955 69.8187 47.7753 75.8004 49.5732C76.1109 49.6667 76.3774 49.8688 76.5513 50.1424C76.7253 50.4161 76.7951 50.7432 76.7479 51.064C76.7008 51.3848 76.5399 51.678 76.2947 51.8901C76.0494 52.1022 75.736 52.2191 75.4117 52.2194V52.2194Z" fill="#052C3C"/>
</svg>
