<svg width="180" height="107" viewBox="0 0 180 107" fill="none" xmlns="http://www.w3.org/2000/svg">
<rect width="180" height="107" rx="20" fill="#FEEEEE"/>
<path d="M17.228 61.27C18.264 61.27 19.1693 61.4707 19.944 61.872C20.728 62.264 21.33 62.8333 21.75 63.58C22.1793 64.3173 22.394 65.1807 22.394 66.17C22.394 67.1593 22.1793 68.018 21.75 68.746C21.33 69.474 20.728 70.034 19.944 70.426C19.1693 70.8087 18.264 71 17.228 71H14.05V61.27H17.228ZM17.228 69.698C18.3667 69.698 19.2393 69.39 19.846 68.774C20.4527 68.158 20.756 67.29 20.756 66.17C20.756 65.0407 20.4527 64.1587 19.846 63.524C19.2393 62.8893 18.3667 62.572 17.228 62.572H15.646V69.698H17.228ZM23.4438 67.108C23.4438 66.3333 23.6024 65.6473 23.9198 65.05C24.2464 64.4527 24.6851 63.9907 25.2358 63.664C25.7958 63.328 26.4118 63.16 27.0838 63.16C27.6904 63.16 28.2178 63.2813 28.6658 63.524C29.1231 63.7573 29.4871 64.0513 29.7578 64.406V63.286H31.3678V71H29.7578V69.852C29.4871 70.216 29.1184 70.5193 28.6518 70.762C28.1851 71.0047 27.6531 71.126 27.0558 71.126C26.3931 71.126 25.7864 70.958 25.2358 70.622C24.6851 70.2767 24.2464 69.8007 23.9198 69.194C23.6024 68.578 23.4438 67.8827 23.4438 67.108ZM29.7578 67.136C29.7578 66.604 29.6458 66.142 29.4218 65.75C29.2071 65.358 28.9224 65.0593 28.5678 64.854C28.2131 64.6487 27.8304 64.546 27.4198 64.546C27.0091 64.546 26.6264 64.6487 26.2718 64.854C25.9171 65.05 25.6278 65.344 25.4038 65.736C25.1891 66.1187 25.0818 66.576 25.0818 67.108C25.0818 67.64 25.1891 68.1067 25.4038 68.508C25.6278 68.9093 25.9171 69.2173 26.2718 69.432C26.6358 69.6373 27.0184 69.74 27.4198 69.74C27.8304 69.74 28.2131 69.6373 28.5678 69.432C28.9224 69.2267 29.2071 68.928 29.4218 68.536C29.6458 68.1347 29.7578 67.668 29.7578 67.136ZM35.3261 64.588V68.858C35.3261 69.1473 35.3914 69.3573 35.5221 69.488C35.6621 69.6093 35.8954 69.67 36.2221 69.67H37.2021V71H35.9421C35.2234 71 34.6727 70.832 34.2901 70.496C33.9074 70.16 33.7161 69.614 33.7161 68.858V64.588H32.8061V63.286H33.7161V61.368H35.3261V63.286H37.2021V64.588H35.3261ZM38.141 67.108C38.141 66.3333 38.2997 65.6473 38.617 65.05C38.9437 64.4527 39.3824 63.9907 39.933 63.664C40.493 63.328 41.109 63.16 41.781 63.16C42.3877 63.16 42.915 63.2813 43.363 63.524C43.8204 63.7573 44.1844 64.0513 44.455 64.406V63.286H46.065V71H44.455V69.852C44.1844 70.216 43.8157 70.5193 43.349 70.762C42.8824 71.0047 42.3504 71.126 41.753 71.126C41.0904 71.126 40.4837 70.958 39.933 70.622C39.3824 70.2767 38.9437 69.8007 38.617 69.194C38.2997 68.578 38.141 67.8827 38.141 67.108ZM44.455 67.136C44.455 66.604 44.343 66.142 44.119 65.75C43.9044 65.358 43.6197 65.0593 43.265 64.854C42.9104 64.6487 42.5277 64.546 42.117 64.546C41.7064 64.546 41.3237 64.6487 40.969 64.854C40.6144 65.05 40.325 65.344 40.101 65.736C39.8864 66.1187 39.779 66.576 39.779 67.108C39.779 67.64 39.8864 68.1067 40.101 68.508C40.325 68.9093 40.6144 69.2173 40.969 69.432C41.333 69.6373 41.7157 69.74 42.117 69.74C42.5277 69.74 42.9104 69.6373 43.265 69.432C43.6197 69.2267 43.9044 68.928 44.119 68.536C44.343 68.1347 44.455 67.668 44.455 67.136ZM62.046 61.27V71H60.45V64.336L57.482 71H56.376L53.394 64.336V71H51.798V61.27H53.52L56.936 68.9L60.338 61.27H62.046ZM63.6118 67.108C63.6118 66.3333 63.7704 65.6473 64.0878 65.05C64.4144 64.4527 64.8531 63.9907 65.4038 63.664C65.9638 63.328 66.5798 63.16 67.2518 63.16C67.8584 63.16 68.3858 63.2813 68.8338 63.524C69.2911 63.7573 69.6551 64.0513 69.9258 64.406V63.286H71.5358V71H69.9258V69.852C69.6551 70.216 69.2864 70.5193 68.8198 70.762C68.3531 71.0047 67.8211 71.126 67.2238 71.126C66.5611 71.126 65.9544 70.958 65.4038 70.622C64.8531 70.2767 64.4144 69.8007 64.0878 69.194C63.7704 68.578 63.6118 67.8827 63.6118 67.108ZM69.9258 67.136C69.9258 66.604 69.8138 66.142 69.5898 65.75C69.3751 65.358 69.0904 65.0593 68.7358 64.854C68.3811 64.6487 67.9984 64.546 67.5878 64.546C67.1771 64.546 66.7944 64.6487 66.4398 64.854C66.0851 65.05 65.7958 65.344 65.5718 65.736C65.3571 66.1187 65.2498 66.576 65.2498 67.108C65.2498 67.64 65.3571 68.1067 65.5718 68.508C65.7958 68.9093 66.0851 69.2173 66.4398 69.432C66.8038 69.6373 67.1864 69.74 67.5878 69.74C67.9984 69.74 68.3811 69.6373 68.7358 69.432C69.0904 69.2267 69.3751 68.928 69.5898 68.536C69.8138 68.1347 69.9258 67.668 69.9258 67.136ZM77.524 63.16C78.1307 63.16 78.672 63.286 79.148 63.538C79.6334 63.79 80.0114 64.1633 80.282 64.658C80.5527 65.1527 80.688 65.75 80.688 66.45V71H79.106V66.688C79.106 65.9973 78.9334 65.47 78.588 65.106C78.2427 64.7327 77.7714 64.546 77.174 64.546C76.5767 64.546 76.1007 64.7327 75.746 65.106C75.4007 65.47 75.228 65.9973 75.228 66.688V71H73.632V63.286H75.228V64.168C75.4894 63.8507 75.8207 63.6033 76.222 63.426C76.6327 63.2487 77.0667 63.16 77.524 63.16ZM83.5358 62.264C83.2465 62.264 83.0038 62.166 82.8078 61.97C82.6118 61.774 82.5138 61.5313 82.5138 61.242C82.5138 60.9527 82.6118 60.71 82.8078 60.514C83.0038 60.318 83.2465 60.22 83.5358 60.22C83.8158 60.22 84.0538 60.318 84.2498 60.514C84.4458 60.71 84.5438 60.9527 84.5438 61.242C84.5438 61.5313 84.4458 61.774 84.2498 61.97C84.0538 62.166 83.8158 62.264 83.5358 62.264ZM84.3198 63.286V71H82.7238V63.286H84.3198ZM88.0112 64.42C88.2819 64.0653 88.6506 63.7667 89.1172 63.524C89.5839 63.2813 90.1112 63.16 90.6992 63.16C91.3712 63.16 91.9826 63.328 92.5332 63.664C93.0932 63.9907 93.5319 64.4527 93.8492 65.05C94.1666 65.6473 94.3252 66.3333 94.3252 67.108C94.3252 67.8827 94.1666 68.578 93.8492 69.194C93.5319 69.8007 93.0932 70.2767 92.5332 70.622C91.9826 70.958 91.3712 71.126 90.6992 71.126C90.1112 71.126 89.5886 71.0093 89.1312 70.776C88.6739 70.5333 88.3006 70.2347 88.0112 69.88V74.668H86.4152V63.286H88.0112V64.42ZM92.7012 67.108C92.7012 66.576 92.5892 66.1187 92.3652 65.736C92.1506 65.344 91.8612 65.05 91.4972 64.854C91.1426 64.6487 90.7599 64.546 90.3492 64.546C89.9479 64.546 89.5652 64.6487 89.2012 64.854C88.8466 65.0593 88.5572 65.358 88.3332 65.75C88.1186 66.142 88.0112 66.604 88.0112 67.136C88.0112 67.668 88.1186 68.1347 88.3332 68.536C88.5572 68.928 88.8466 69.2267 89.2012 69.432C89.5652 69.6373 89.9479 69.74 90.3492 69.74C90.7599 69.74 91.1426 69.6373 91.4972 69.432C91.8612 69.2173 92.1506 68.9093 92.3652 68.508C92.5892 68.1067 92.7012 67.64 92.7012 67.108ZM102.89 63.286V71H101.294V70.09C101.042 70.4073 100.71 70.6593 100.3 70.846C99.8982 71.0233 99.4688 71.112 99.0115 71.112C98.4048 71.112 97.8588 70.986 97.3735 70.734C96.8975 70.482 96.5195 70.1087 96.2395 69.614C95.9688 69.1193 95.8335 68.522 95.8335 67.822V63.286H97.4155V67.584C97.4155 68.2747 97.5882 68.8067 97.9335 69.18C98.2788 69.544 98.7502 69.726 99.3475 69.726C99.9448 69.726 100.416 69.544 100.762 69.18C101.116 68.8067 101.294 68.2747 101.294 67.584V63.286H102.89ZM106.591 60.64V71H104.995V60.64H106.591ZM108.155 67.108C108.155 66.3333 108.313 65.6473 108.631 65.05C108.957 64.4527 109.396 63.9907 109.947 63.664C110.507 63.328 111.123 63.16 111.795 63.16C112.401 63.16 112.929 63.2813 113.377 63.524C113.834 63.7573 114.198 64.0513 114.469 64.406V63.286H116.079V71H114.469V69.852C114.198 70.216 113.829 70.5193 113.363 70.762C112.896 71.0047 112.364 71.126 111.767 71.126C111.104 71.126 110.497 70.958 109.947 70.622C109.396 70.2767 108.957 69.8007 108.631 69.194C108.313 68.578 108.155 67.8827 108.155 67.108ZM114.469 67.136C114.469 66.604 114.357 66.142 114.133 65.75C113.918 65.358 113.633 65.0593 113.279 64.854C112.924 64.6487 112.541 64.546 112.131 64.546C111.72 64.546 111.337 64.6487 110.983 64.854C110.628 65.05 110.339 65.344 110.115 65.736C109.9 66.1187 109.793 66.576 109.793 67.108C109.793 67.64 109.9 68.1067 110.115 68.508C110.339 68.9093 110.628 69.2173 110.983 69.432C111.347 69.6373 111.729 69.74 112.131 69.74C112.541 69.74 112.924 69.6373 113.279 69.432C113.633 69.2267 113.918 68.928 114.133 68.536C114.357 68.1347 114.469 67.668 114.469 67.136ZM120.037 64.588V68.858C120.037 69.1473 120.102 69.3573 120.233 69.488C120.373 69.6093 120.606 69.67 120.933 69.67H121.913V71H120.653C119.934 71 119.384 70.832 119.001 70.496C118.618 70.16 118.427 69.614 118.427 68.858V64.588H117.517V63.286H118.427V61.368H120.037V63.286H121.913V64.588H120.037ZM124.196 62.264C123.907 62.264 123.664 62.166 123.468 61.97C123.272 61.774 123.174 61.5313 123.174 61.242C123.174 60.9527 123.272 60.71 123.468 60.514C123.664 60.318 123.907 60.22 124.196 60.22C124.476 60.22 124.714 60.318 124.91 60.514C125.106 60.71 125.204 60.9527 125.204 61.242C125.204 61.5313 125.106 61.774 124.91 61.97C124.714 62.166 124.476 62.264 124.196 62.264ZM124.98 63.286V71H123.384V63.286H124.98ZM130.421 71.126C129.693 71.126 129.035 70.9627 128.447 70.636C127.859 70.3 127.397 69.8333 127.061 69.236C126.725 68.6293 126.557 67.9293 126.557 67.136C126.557 66.352 126.73 65.6567 127.075 65.05C127.421 64.4433 127.892 63.9767 128.489 63.65C129.087 63.3233 129.754 63.16 130.491 63.16C131.229 63.16 131.896 63.3233 132.493 63.65C133.091 63.9767 133.562 64.4433 133.907 65.05C134.253 65.6567 134.425 66.352 134.425 67.136C134.425 67.92 134.248 68.6153 133.893 69.222C133.539 69.8287 133.053 70.3 132.437 70.636C131.831 70.9627 131.159 71.126 130.421 71.126ZM130.421 69.74C130.832 69.74 131.215 69.642 131.569 69.446C131.933 69.25 132.227 68.956 132.451 68.564C132.675 68.172 132.787 67.696 132.787 67.136C132.787 66.576 132.68 66.1047 132.465 65.722C132.251 65.33 131.966 65.036 131.611 64.84C131.257 64.644 130.874 64.546 130.463 64.546C130.053 64.546 129.67 64.644 129.315 64.84C128.97 65.036 128.695 65.33 128.489 65.722C128.284 66.1047 128.181 66.576 128.181 67.136C128.181 67.9667 128.391 68.6107 128.811 69.068C129.241 69.516 129.777 69.74 130.421 69.74ZM139.895 63.16C140.502 63.16 141.043 63.286 141.519 63.538C142.004 63.79 142.382 64.1633 142.653 64.658C142.924 65.1527 143.059 65.75 143.059 66.45V71H141.477V66.688C141.477 65.9973 141.304 65.47 140.959 65.106C140.614 64.7327 140.142 64.546 139.545 64.546C138.948 64.546 138.472 64.7327 138.117 65.106C137.772 65.47 137.599 65.9973 137.599 66.688V71H136.003V63.286H137.599V64.168C137.86 63.8507 138.192 63.6033 138.593 63.426C139.004 63.2487 139.438 63.16 139.895 63.16ZM15.646 90.712H18.936V92H14.05V82.27H15.646V90.712ZM19.7387 88.108C19.7387 87.3333 19.8974 86.6473 20.2147 86.05C20.5414 85.4527 20.98 84.9907 21.5307 84.664C22.0907 84.328 22.7067 84.16 23.3787 84.16C23.9854 84.16 24.5127 84.2813 24.9607 84.524C25.418 84.7573 25.782 85.0513 26.0527 85.406V84.286H27.6627V92H26.0527V90.852C25.782 91.216 25.4134 91.5193 24.9467 91.762C24.48 92.0047 23.948 92.126 23.3507 92.126C22.688 92.126 22.0814 91.958 21.5307 91.622C20.98 91.2767 20.5414 90.8007 20.2147 90.194C19.8974 89.578 19.7387 88.8827 19.7387 88.108ZM26.0527 88.136C26.0527 87.604 25.9407 87.142 25.7167 86.75C25.502 86.358 25.2174 86.0593 24.8627 85.854C24.508 85.6487 24.1254 85.546 23.7147 85.546C23.304 85.546 22.9214 85.6487 22.5667 85.854C22.212 86.05 21.9227 86.344 21.6987 86.736C21.484 87.1187 21.3767 87.576 21.3767 88.108C21.3767 88.64 21.484 89.1067 21.6987 89.508C21.9227 89.9093 22.212 90.2173 22.5667 90.432C22.9307 90.6373 23.3134 90.74 23.7147 90.74C24.1254 90.74 24.508 90.6373 24.8627 90.432C25.2174 90.2267 25.502 89.928 25.7167 89.536C25.9407 89.1347 26.0527 88.668 26.0527 88.136ZM33.651 84.16C34.2577 84.16 34.799 84.286 35.275 84.538C35.7603 84.79 36.1383 85.1633 36.409 85.658C36.6797 86.1527 36.815 86.75 36.815 87.45V92H35.233V87.688C35.233 86.9973 35.0603 86.47 34.715 86.106C34.3697 85.7327 33.8983 85.546 33.301 85.546C32.7037 85.546 32.2277 85.7327 31.873 86.106C31.5277 86.47 31.355 86.9973 31.355 87.688L31.355 92H29.759L29.759 84.286H31.355V85.168C31.6163 84.8507 31.9477 84.6033 32.349 84.426C32.7597 84.2487 33.1937 84.16 33.651 84.16ZM41.9588 84.16C42.5561 84.16 43.0834 84.2813 43.5408 84.524C44.0074 84.7573 44.3714 85.0513 44.6328 85.406V84.286H46.2428V92.126C46.2428 92.8353 46.0934 93.4653 45.7948 94.016C45.4961 94.576 45.0621 95.0147 44.4928 95.332C43.9328 95.6493 43.2608 95.808 42.4768 95.808C41.4314 95.808 40.5634 95.5607 39.8728 95.066C39.1821 94.5807 38.7901 93.918 38.6968 93.078H40.2788C40.4001 93.4793 40.6568 93.8013 41.0488 94.044C41.4501 94.296 41.9261 94.422 42.4768 94.422C43.1208 94.422 43.6388 94.226 44.0308 93.834C44.4321 93.442 44.6328 92.8727 44.6328 92.126V90.838C44.3621 91.202 43.9934 91.51 43.5268 91.762C43.0694 92.0047 42.5468 92.126 41.9588 92.126C41.2868 92.126 40.6708 91.958 40.1108 91.622C39.5601 91.2767 39.1214 90.8007 38.7948 90.194C38.4774 89.578 38.3188 88.8827 38.3188 88.108C38.3188 87.3333 38.4774 86.6473 38.7948 86.05C39.1214 85.4527 39.5601 84.9907 40.1108 84.664C40.6708 84.328 41.2868 84.16 41.9588 84.16ZM44.6328 88.136C44.6328 87.604 44.5208 87.142 44.2968 86.75C44.0821 86.358 43.7974 86.0593 43.4428 85.854C43.0881 85.6487 42.7054 85.546 42.2948 85.546C41.8841 85.546 41.5014 85.6487 41.1468 85.854C40.7921 86.05 40.5028 86.344 40.2788 86.736C40.0641 87.1187 39.9568 87.576 39.9568 88.108C39.9568 88.64 40.0641 89.1067 40.2788 89.508C40.5028 89.9093 40.7921 90.2173 41.1468 90.432C41.5108 90.6373 41.8934 90.74 42.2948 90.74C42.7054 90.74 43.0881 90.6373 43.4428 90.432C43.7974 90.2267 44.0821 89.928 44.2968 89.536C44.5208 89.1347 44.6328 88.668 44.6328 88.136ZM55.3251 84.286V92H53.7291V91.09C53.4771 91.4073 53.1457 91.6593 52.7351 91.846C52.3337 92.0233 51.9044 92.112 51.4471 92.112C50.8404 92.112 50.2944 91.986 49.8091 91.734C49.3331 91.482 48.9551 91.1087 48.6751 90.614C48.4044 90.1193 48.2691 89.522 48.2691 88.822V84.286H49.8511V88.584C49.8511 89.2747 50.0237 89.8067 50.3691 90.18C50.7144 90.544 51.1857 90.726 51.7831 90.726C52.3804 90.726 52.8517 90.544 53.1971 90.18C53.5517 89.8067 53.7291 89.2747 53.7291 88.584V84.286H55.3251ZM56.8989 88.108C56.8989 87.3333 57.0575 86.6473 57.3749 86.05C57.7015 85.4527 58.1402 84.9907 58.6909 84.664C59.2509 84.328 59.8669 84.16 60.5389 84.16C61.1455 84.16 61.6729 84.2813 62.1209 84.524C62.5782 84.7573 62.9422 85.0513 63.2129 85.406V84.286H64.8229V92H63.2129V90.852C62.9422 91.216 62.5735 91.5193 62.1069 91.762C61.6402 92.0047 61.1082 92.126 60.5109 92.126C59.8482 92.126 59.2415 91.958 58.6909 91.622C58.1402 91.2767 57.7015 90.8007 57.3749 90.194C57.0575 89.578 56.8989 88.8827 56.8989 88.108ZM63.2129 88.136C63.2129 87.604 63.1009 87.142 62.8769 86.75C62.6622 86.358 62.3775 86.0593 62.0229 85.854C61.6682 85.6487 61.2855 85.546 60.8749 85.546C60.4642 85.546 60.0815 85.6487 59.7269 85.854C59.3722 86.05 59.0829 86.344 58.8589 86.736C58.6442 87.1187 58.5369 87.576 58.5369 88.108C58.5369 88.64 58.6442 89.1067 58.8589 89.508C59.0829 89.9093 59.3722 90.2173 59.7269 90.432C60.0909 90.6373 60.4735 90.74 60.8749 90.74C61.2855 90.74 61.6682 90.6373 62.0229 90.432C62.3775 90.2267 62.6622 89.928 62.8769 89.536C63.1009 89.1347 63.2129 88.668 63.2129 88.136ZM70.0271 84.16C70.6245 84.16 71.1518 84.2813 71.6091 84.524C72.0758 84.7573 72.4398 85.0513 72.7011 85.406V84.286H74.3111V92.126C74.3111 92.8353 74.1618 93.4653 73.8631 94.016C73.5645 94.576 73.1305 95.0147 72.5611 95.332C72.0011 95.6493 71.3291 95.808 70.5451 95.808C69.4998 95.808 68.6318 95.5607 67.9411 95.066C67.2505 94.5807 66.8585 93.918 66.7651 93.078H68.3471C68.4685 93.4793 68.7251 93.8013 69.1171 94.044C69.5185 94.296 69.9945 94.422 70.5451 94.422C71.1891 94.422 71.7071 94.226 72.0991 93.834C72.5005 93.442 72.7011 92.8727 72.7011 92.126V90.838C72.4305 91.202 72.0618 91.51 71.5951 91.762C71.1378 92.0047 70.6151 92.126 70.0271 92.126C69.3551 92.126 68.7391 91.958 68.1791 91.622C67.6285 91.2767 67.1898 90.8007 66.8631 90.194C66.5458 89.578 66.3871 88.8827 66.3871 88.108C66.3871 87.3333 66.5458 86.6473 66.8631 86.05C67.1898 85.4527 67.6285 84.9907 68.1791 84.664C68.7391 84.328 69.3551 84.16 70.0271 84.16ZM72.7011 88.136C72.7011 87.604 72.5891 87.142 72.3651 86.75C72.1505 86.358 71.8658 86.0593 71.5111 85.854C71.1565 85.6487 70.7738 85.546 70.3631 85.546C69.9525 85.546 69.5698 85.6487 69.2151 85.854C68.8605 86.05 68.5711 86.344 68.3471 86.736C68.1325 87.1187 68.0251 87.576 68.0251 88.108C68.0251 88.64 68.1325 89.1067 68.3471 89.508C68.5711 89.9093 68.8605 90.2173 69.2151 90.432C69.5791 90.6373 69.9618 90.74 70.3631 90.74C70.7738 90.74 71.1565 90.6373 71.5111 90.432C71.8658 90.2267 72.1505 89.928 72.3651 89.536C72.5891 89.1347 72.7011 88.668 72.7011 88.136ZM83.4774 87.954C83.4774 88.2433 83.4588 88.5047 83.4214 88.738H77.5274C77.5741 89.354 77.8028 89.8487 78.2134 90.222C78.6241 90.5953 79.1281 90.782 79.7254 90.782C80.5841 90.782 81.1908 90.4227 81.5454 89.704H83.2674C83.0341 90.4133 82.6094 90.9967 81.9934 91.454C81.3868 91.902 80.6308 92.126 79.7254 92.126C78.9881 92.126 78.3254 91.9627 77.7374 91.636C77.1588 91.3 76.7014 90.8333 76.3654 90.236C76.0388 89.6293 75.8754 88.9293 75.8754 88.136C75.8754 87.3427 76.0341 86.6473 76.3514 86.05C76.6781 85.4433 77.1308 84.9767 77.7094 84.65C78.2974 84.3233 78.9694 84.16 79.7254 84.16C80.4534 84.16 81.1021 84.3187 81.6714 84.636C82.2408 84.9533 82.6841 85.4013 83.0014 85.98C83.3188 86.5493 83.4774 87.2073 83.4774 87.954ZM81.8114 87.45C81.8021 86.862 81.5921 86.3907 81.1814 86.036C80.7708 85.6813 80.2621 85.504 79.6554 85.504C79.1048 85.504 78.6334 85.6813 78.2414 86.036C77.8494 86.3813 77.6161 86.8527 77.5414 87.45H81.8114Z" fill="#F45656"/>
<path d="M13.8848 34.2008V40.1275C13.9346 43.2387 19.0545 45.7555 27 45.7555C34.9455 45.7555 40.0621 43.2387 40.1152 40.1275V34.2008H13.8848Z" fill="#AC4141"/>
<path d="M40.1152 34.1775C40.1152 37.4779 34.9754 40.1541 27 40.1541C19.0246 40.1541 13.8848 37.4779 13.8848 34.1775C13.8848 30.8771 19.0246 28.201 27 28.201C34.9754 28.201 40.1152 30.8738 40.1152 34.1775Z" fill="white"/>
<path d="M13.8848 28.2242V33.4869C13.9346 36.598 19.0545 39.4469 27 39.4469C34.9455 39.4469 40.0621 36.598 40.1152 33.4869V28.2242H13.8848Z" fill="#AC4141"/>
<path d="M40.1152 28.201C40.1152 31.5014 34.9754 34.1775 27 34.1775C19.0246 34.1775 13.8848 31.5014 13.8848 28.201C13.8848 24.9006 19.0246 22.2244 27 22.2244C34.9754 22.2244 40.1152 24.8973 40.1152 28.201Z" fill="white"/>
<path d="M13.8848 22.2477V27.5103C13.9346 30.6215 19.0545 33.4703 27 33.4703C34.9455 33.4703 40.0621 30.6215 40.1152 27.5103V22.2477H13.8848Z" fill="#AC4141"/>
<path d="M40.1152 22.2244C40.1152 25.5248 34.9754 28.201 27 28.201C19.0246 28.201 13.8848 25.5248 13.8848 22.2244C13.8848 18.924 19.0246 16.2478 27 16.2478C34.9754 16.2478 40.1152 18.9207 40.1152 22.2244Z" fill="#F45656"/>
</svg>
