<svg width="180" height="107" viewBox="0 0 180 107" fill="none" xmlns="http://www.w3.org/2000/svg">
<rect width="180" height="107" rx="20" fill="#EEF7FE"/>
<path d="M20.228 61.27C21.264 61.27 22.1693 61.4707 22.944 61.872C23.728 62.264 24.33 62.8333 24.75 63.58C25.1793 64.3173 25.394 65.1807 25.394 66.17C25.394 67.1593 25.1793 68.018 24.75 68.746C24.33 69.474 23.728 70.034 22.944 70.426C22.1693 70.8087 21.264 71 20.228 71H17.05V61.27H20.228ZM20.228 69.698C21.3667 69.698 22.2393 69.39 22.846 68.774C23.4527 68.158 23.756 67.29 23.756 66.17C23.756 65.0407 23.4527 64.1587 22.846 63.524C22.2393 62.8893 21.3667 62.572 20.228 62.572H18.646V69.698H20.228ZM26.4438 67.108C26.4438 66.3333 26.6024 65.6473 26.9198 65.05C27.2464 64.4527 27.6851 63.9907 28.2358 63.664C28.7958 63.328 29.4118 63.16 30.0838 63.16C30.6904 63.16 31.2178 63.2813 31.6658 63.524C32.1231 63.7573 32.4871 64.0513 32.7578 64.406V63.286H34.3678V71H32.7578V69.852C32.4871 70.216 32.1184 70.5193 31.6518 70.762C31.1851 71.0047 30.6531 71.126 30.0558 71.126C29.3931 71.126 28.7864 70.958 28.2358 70.622C27.6851 70.2767 27.2464 69.8007 26.9198 69.194C26.6024 68.578 26.4438 67.8827 26.4438 67.108ZM32.7578 67.136C32.7578 66.604 32.6458 66.142 32.4218 65.75C32.2071 65.358 31.9224 65.0593 31.5678 64.854C31.2131 64.6487 30.8304 64.546 30.4198 64.546C30.0091 64.546 29.6264 64.6487 29.2718 64.854C28.9171 65.05 28.6278 65.344 28.4038 65.736C28.1891 66.1187 28.0818 66.576 28.0818 67.108C28.0818 67.64 28.1891 68.1067 28.4038 68.508C28.6278 68.9093 28.9171 69.2173 29.2718 69.432C29.6358 69.6373 30.0184 69.74 30.4198 69.74C30.8304 69.74 31.2131 69.6373 31.5678 69.432C31.9224 69.2267 32.2071 68.928 32.4218 68.536C32.6458 68.1347 32.7578 67.668 32.7578 67.136ZM38.3261 64.588V68.858C38.3261 69.1473 38.3914 69.3573 38.5221 69.488C38.6621 69.6093 38.8954 69.67 39.2221 69.67H40.2021V71H38.9421C38.2234 71 37.6727 70.832 37.2901 70.496C36.9074 70.16 36.7161 69.614 36.7161 68.858V64.588H35.8061V63.286H36.7161V61.368H38.3261V63.286H40.2021V64.588H38.3261ZM41.141 67.108C41.141 66.3333 41.2997 65.6473 41.617 65.05C41.9437 64.4527 42.3824 63.9907 42.933 63.664C43.493 63.328 44.109 63.16 44.781 63.16C45.3877 63.16 45.915 63.2813 46.363 63.524C46.8204 63.7573 47.1844 64.0513 47.455 64.406V63.286H49.065V71H47.455V69.852C47.1844 70.216 46.8157 70.5193 46.349 70.762C45.8824 71.0047 45.3504 71.126 44.753 71.126C44.0904 71.126 43.4837 70.958 42.933 70.622C42.3824 70.2767 41.9437 69.8007 41.617 69.194C41.2997 68.578 41.141 67.8827 41.141 67.108ZM47.455 67.136C47.455 66.604 47.343 66.142 47.119 65.75C46.9044 65.358 46.6197 65.0593 46.265 64.854C45.9104 64.6487 45.5277 64.546 45.117 64.546C44.7064 64.546 44.3237 64.6487 43.969 64.854C43.6144 65.05 43.325 65.344 43.101 65.736C42.8864 66.1187 42.779 66.576 42.779 67.108C42.779 67.64 42.8864 68.1067 43.101 68.508C43.325 68.9093 43.6144 69.2173 43.969 69.432C44.333 69.6373 44.7157 69.74 45.117 69.74C45.5277 69.74 45.9104 69.6373 46.265 69.432C46.6197 69.2267 46.9044 68.928 47.119 68.536C47.343 68.1347 47.455 67.668 47.455 67.136ZM57.976 61.27C59.012 61.27 59.9174 61.4707 60.692 61.872C61.476 62.264 62.078 62.8333 62.498 63.58C62.9274 64.3173 63.142 65.1807 63.142 66.17C63.142 67.1593 62.9274 68.018 62.498 68.746C62.078 69.474 61.476 70.034 60.692 70.426C59.9174 70.8087 59.012 71 57.976 71H54.798V61.27H57.976ZM57.976 69.698C59.1147 69.698 59.9874 69.39 60.594 68.774C61.2007 68.158 61.504 67.29 61.504 66.17C61.504 65.0407 61.2007 64.1587 60.594 63.524C59.9874 62.8893 59.1147 62.572 57.976 62.572H56.394V69.698H57.976ZM71.7938 66.954C71.7938 67.2433 71.7752 67.5047 71.7378 67.738H65.8438C65.8905 68.354 66.1192 68.8487 66.5298 69.222C66.9405 69.5953 67.4445 69.782 68.0418 69.782C68.9005 69.782 69.5072 69.4227 69.8618 68.704H71.5838C71.3505 69.4133 70.9258 69.9967 70.3098 70.454C69.7032 70.902 68.9472 71.126 68.0418 71.126C67.3045 71.126 66.6418 70.9627 66.0538 70.636C65.4752 70.3 65.0178 69.8333 64.6818 69.236C64.3552 68.6293 64.1918 67.9293 64.1918 67.136C64.1918 66.3427 64.3505 65.6473 64.6678 65.05C64.9945 64.4433 65.4472 63.9767 66.0258 63.65C66.6138 63.3233 67.2858 63.16 68.0418 63.16C68.7698 63.16 69.4185 63.3187 69.9878 63.636C70.5572 63.9533 71.0005 64.4013 71.3178 64.98C71.6352 65.5493 71.7938 66.2073 71.7938 66.954ZM70.1278 66.45C70.1185 65.862 69.9085 65.3907 69.4978 65.036C69.0872 64.6813 68.5785 64.504 67.9718 64.504C67.4212 64.504 66.9498 64.6813 66.5578 65.036C66.1658 65.3813 65.9325 65.8527 65.8578 66.45H70.1278ZM76.5985 64.588H75.1705V71H73.5605V64.588H72.6505V63.286H73.5605V62.74C73.5605 61.8533 73.7938 61.2093 74.2605 60.808C74.7365 60.3973 75.4785 60.192 76.4865 60.192V61.522C76.0011 61.522 75.6605 61.6153 75.4645 61.802C75.2685 61.9793 75.1705 62.292 75.1705 62.74V63.286H76.5985V64.588ZM78.8249 62.264C78.5356 62.264 78.2929 62.166 78.0969 61.97C77.9009 61.774 77.8029 61.5313 77.8029 61.242C77.8029 60.9527 77.9009 60.71 78.0969 60.514C78.2929 60.318 78.5356 60.22 78.8249 60.22C79.1049 60.22 79.3429 60.318 79.5389 60.514C79.7349 60.71 79.8329 60.9527 79.8329 61.242C79.8329 61.5313 79.7349 61.774 79.5389 61.97C79.3429 62.166 79.1049 62.264 78.8249 62.264ZM79.6089 63.286V71H78.0129V63.286H79.6089ZM85.5963 63.16C86.203 63.16 86.7443 63.286 87.2203 63.538C87.7056 63.79 88.0836 64.1633 88.3543 64.658C88.625 65.1527 88.7603 65.75 88.7603 66.45V71H87.1783V66.688C87.1783 65.9973 87.0056 65.47 86.6603 65.106C86.315 64.7327 85.8436 64.546 85.2463 64.546C84.649 64.546 84.173 64.7327 83.8183 65.106C83.473 65.47 83.3003 65.9973 83.3003 66.688V71H81.7043V63.286H83.3003V64.168C83.5616 63.8507 83.893 63.6033 84.2943 63.426C84.705 63.2487 85.139 63.16 85.5963 63.16ZM91.6081 62.264C91.3188 62.264 91.0761 62.166 90.8801 61.97C90.6841 61.774 90.5861 61.5313 90.5861 61.242C90.5861 60.9527 90.6841 60.71 90.8801 60.514C91.0761 60.318 91.3188 60.22 91.6081 60.22C91.8881 60.22 92.1261 60.318 92.3221 60.514C92.5181 60.71 92.6161 60.9527 92.6161 61.242C92.6161 61.5313 92.5181 61.774 92.3221 61.97C92.1261 62.166 91.8881 62.264 91.6081 62.264ZM92.3921 63.286V71H90.7961V63.286H92.3921ZM96.3495 64.588V68.858C96.3495 69.1473 96.4148 69.3573 96.5455 69.488C96.6855 69.6093 96.9188 69.67 97.2455 69.67H98.2255V71H96.9655C96.2468 71 95.6962 70.832 95.3135 70.496C94.9308 70.16 94.7395 69.614 94.7395 68.858V64.588H93.8295V63.286H94.7395V61.368H96.3495V63.286H98.2255V64.588H96.3495ZM100.508 62.264C100.219 62.264 99.9765 62.166 99.7805 61.97C99.5845 61.774 99.4865 61.5313 99.4865 61.242C99.4865 60.9527 99.5845 60.71 99.7805 60.514C99.9765 60.318 100.219 60.22 100.508 60.22C100.788 60.22 101.026 60.318 101.222 60.514C101.418 60.71 101.516 60.9527 101.516 61.242C101.516 61.5313 101.418 61.774 101.222 61.97C101.026 62.166 100.788 62.264 100.508 62.264ZM101.292 63.286V71H99.6965V63.286H101.292ZM106.734 71.126C106.006 71.126 105.348 70.9627 104.76 70.636C104.172 70.3 103.71 69.8333 103.374 69.236C103.038 68.6293 102.87 67.9293 102.87 67.136C102.87 66.352 103.043 65.6567 103.388 65.05C103.733 64.4433 104.205 63.9767 104.802 63.65C105.399 63.3233 106.067 63.16 106.804 63.16C107.541 63.16 108.209 63.3233 108.806 63.65C109.403 63.9767 109.875 64.4433 110.22 65.05C110.565 65.6567 110.738 66.352 110.738 67.136C110.738 67.92 110.561 68.6153 110.206 69.222C109.851 69.8287 109.366 70.3 108.75 70.636C108.143 70.9627 107.471 71.126 106.734 71.126ZM106.734 69.74C107.145 69.74 107.527 69.642 107.882 69.446C108.246 69.25 108.54 68.956 108.764 68.564C108.988 68.172 109.1 67.696 109.1 67.136C109.1 66.576 108.993 66.1047 108.778 65.722C108.563 65.33 108.279 65.036 107.924 64.84C107.569 64.644 107.187 64.546 106.776 64.546C106.365 64.546 105.983 64.644 105.628 64.84C105.283 65.036 105.007 65.33 104.802 65.722C104.597 66.1047 104.494 66.576 104.494 67.136C104.494 67.9667 104.704 68.6107 105.124 69.068C105.553 69.516 106.09 69.74 106.734 69.74ZM116.208 63.16C116.814 63.16 117.356 63.286 117.832 63.538C118.317 63.79 118.695 64.1633 118.966 64.658C119.236 65.1527 119.372 65.75 119.372 66.45V71H117.79V66.688C117.79 65.9973 117.617 65.47 117.272 65.106C116.926 64.7327 116.455 64.546 115.858 64.546C115.26 64.546 114.784 64.7327 114.43 65.106C114.084 65.47 113.912 65.9973 113.912 66.688V71H112.316V63.286H113.912V64.168C114.173 63.8507 114.504 63.6033 114.906 63.426C115.316 63.2487 115.75 63.16 116.208 63.16ZM18.646 90.712H21.936V92H17.05L17.05 82.27H18.646V90.712ZM22.7387 88.108C22.7387 87.3333 22.8974 86.6473 23.2147 86.05C23.5414 85.4527 23.98 84.9907 24.5307 84.664C25.0907 84.328 25.7067 84.16 26.3787 84.16C26.9854 84.16 27.5127 84.2813 27.9607 84.524C28.418 84.7573 28.782 85.0513 29.0527 85.406V84.286H30.6627V92H29.0527V90.852C28.782 91.216 28.4134 91.5193 27.9467 91.762C27.48 92.0047 26.948 92.126 26.3507 92.126C25.688 92.126 25.0814 91.958 24.5307 91.622C23.98 91.2767 23.5414 90.8007 23.2147 90.194C22.8974 89.578 22.7387 88.8827 22.7387 88.108ZM29.0527 88.136C29.0527 87.604 28.9407 87.142 28.7167 86.75C28.502 86.358 28.2174 86.0593 27.8627 85.854C27.508 85.6487 27.1254 85.546 26.7147 85.546C26.304 85.546 25.9214 85.6487 25.5667 85.854C25.212 86.05 24.9227 86.344 24.6987 86.736C24.484 87.1187 24.3767 87.576 24.3767 88.108C24.3767 88.64 24.484 89.1067 24.6987 89.508C24.9227 89.9093 25.212 90.2173 25.5667 90.432C25.9307 90.6373 26.3134 90.74 26.7147 90.74C27.1254 90.74 27.508 90.6373 27.8627 90.432C28.2174 90.2267 28.502 89.928 28.7167 89.536C28.9407 89.1347 29.0527 88.668 29.0527 88.136ZM36.651 84.16C37.2577 84.16 37.799 84.286 38.275 84.538C38.7603 84.79 39.1383 85.1633 39.409 85.658C39.6797 86.1527 39.815 86.75 39.815 87.45V92H38.233V87.688C38.233 86.9973 38.0603 86.47 37.715 86.106C37.3697 85.7327 36.8983 85.546 36.301 85.546C35.7037 85.546 35.2277 85.7327 34.873 86.106C34.5277 86.47 34.355 86.9973 34.355 87.688V92H32.759V84.286H34.355V85.168C34.6163 84.8507 34.9477 84.6033 35.349 84.426C35.7597 84.2487 36.1937 84.16 36.651 84.16ZM44.9588 84.16C45.5561 84.16 46.0834 84.2813 46.5408 84.524C47.0074 84.7573 47.3714 85.0513 47.6328 85.406V84.286H49.2428V92.126C49.2428 92.8353 49.0934 93.4653 48.7948 94.016C48.4961 94.576 48.0621 95.0147 47.4928 95.332C46.9328 95.6493 46.2608 95.808 45.4768 95.808C44.4314 95.808 43.5634 95.5607 42.8728 95.066C42.1821 94.5807 41.7901 93.918 41.6968 93.078H43.2788C43.4001 93.4793 43.6568 93.8013 44.0488 94.044C44.4501 94.296 44.9261 94.422 45.4768 94.422C46.1208 94.422 46.6388 94.226 47.0308 93.834C47.4321 93.442 47.6328 92.8727 47.6328 92.126V90.838C47.3621 91.202 46.9934 91.51 46.5268 91.762C46.0694 92.0047 45.5468 92.126 44.9588 92.126C44.2868 92.126 43.6708 91.958 43.1108 91.622C42.5601 91.2767 42.1214 90.8007 41.7948 90.194C41.4774 89.578 41.3188 88.8827 41.3188 88.108C41.3188 87.3333 41.4774 86.6473 41.7948 86.05C42.1214 85.4527 42.5601 84.9907 43.1108 84.664C43.6708 84.328 44.2868 84.16 44.9588 84.16ZM47.6328 88.136C47.6328 87.604 47.5208 87.142 47.2968 86.75C47.0821 86.358 46.7974 86.0593 46.4428 85.854C46.0881 85.6487 45.7054 85.546 45.2948 85.546C44.8841 85.546 44.5014 85.6487 44.1468 85.854C43.7921 86.05 43.5028 86.344 43.2788 86.736C43.0641 87.1187 42.9568 87.576 42.9568 88.108C42.9568 88.64 43.0641 89.1067 43.2788 89.508C43.5028 89.9093 43.7921 90.2173 44.1468 90.432C44.5108 90.6373 44.8934 90.74 45.2948 90.74C45.7054 90.74 46.0881 90.6373 46.4428 90.432C46.7974 90.2267 47.0821 89.928 47.2968 89.536C47.5208 89.1347 47.6328 88.668 47.6328 88.136ZM58.3251 84.286V92H56.7291V91.09C56.4771 91.4073 56.1457 91.6593 55.7351 91.846C55.3337 92.0233 54.9044 92.112 54.4471 92.112C53.8404 92.112 53.2944 91.986 52.8091 91.734C52.3331 91.482 51.9551 91.1087 51.6751 90.614C51.4044 90.1193 51.2691 89.522 51.2691 88.822V84.286H52.8511V88.584C52.8511 89.2747 53.0237 89.8067 53.3691 90.18C53.7144 90.544 54.1857 90.726 54.7831 90.726C55.3804 90.726 55.8517 90.544 56.1971 90.18C56.5517 89.8067 56.7291 89.2747 56.7291 88.584V84.286H58.3251ZM59.8989 88.108C59.8989 87.3333 60.0575 86.6473 60.3749 86.05C60.7015 85.4527 61.1402 84.9907 61.6909 84.664C62.2509 84.328 62.8669 84.16 63.5389 84.16C64.1455 84.16 64.6729 84.2813 65.1209 84.524C65.5782 84.7573 65.9422 85.0513 66.2129 85.406V84.286H67.8229V92H66.2129V90.852C65.9422 91.216 65.5735 91.5193 65.1069 91.762C64.6402 92.0047 64.1082 92.126 63.5109 92.126C62.8482 92.126 62.2415 91.958 61.6909 91.622C61.1402 91.2767 60.7015 90.8007 60.3749 90.194C60.0575 89.578 59.8989 88.8827 59.8989 88.108ZM66.2129 88.136C66.2129 87.604 66.1009 87.142 65.8769 86.75C65.6622 86.358 65.3775 86.0593 65.0229 85.854C64.6682 85.6487 64.2855 85.546 63.8749 85.546C63.4642 85.546 63.0815 85.6487 62.7269 85.854C62.3722 86.05 62.0829 86.344 61.8589 86.736C61.6442 87.1187 61.5369 87.576 61.5369 88.108C61.5369 88.64 61.6442 89.1067 61.8589 89.508C62.0829 89.9093 62.3722 90.2173 62.7269 90.432C63.0909 90.6373 63.4735 90.74 63.8749 90.74C64.2855 90.74 64.6682 90.6373 65.0229 90.432C65.3775 90.2267 65.6622 89.928 65.8769 89.536C66.1009 89.1347 66.2129 88.668 66.2129 88.136ZM73.0271 84.16C73.6245 84.16 74.1518 84.2813 74.6091 84.524C75.0758 84.7573 75.4398 85.0513 75.7011 85.406V84.286H77.3111V92.126C77.3111 92.8353 77.1618 93.4653 76.8631 94.016C76.5645 94.576 76.1305 95.0147 75.5611 95.332C75.0011 95.6493 74.3291 95.808 73.5451 95.808C72.4998 95.808 71.6318 95.5607 70.9411 95.066C70.2505 94.5807 69.8585 93.918 69.7651 93.078H71.3471C71.4685 93.4793 71.7251 93.8013 72.1171 94.044C72.5185 94.296 72.9945 94.422 73.5451 94.422C74.1891 94.422 74.7071 94.226 75.0991 93.834C75.5005 93.442 75.7011 92.8727 75.7011 92.126V90.838C75.4305 91.202 75.0618 91.51 74.5951 91.762C74.1378 92.0047 73.6151 92.126 73.0271 92.126C72.3551 92.126 71.7391 91.958 71.1791 91.622C70.6285 91.2767 70.1898 90.8007 69.8631 90.194C69.5458 89.578 69.3871 88.8827 69.3871 88.108C69.3871 87.3333 69.5458 86.6473 69.8631 86.05C70.1898 85.4527 70.6285 84.9907 71.1791 84.664C71.7391 84.328 72.3551 84.16 73.0271 84.16ZM75.7011 88.136C75.7011 87.604 75.5891 87.142 75.3651 86.75C75.1505 86.358 74.8658 86.0593 74.5111 85.854C74.1565 85.6487 73.7738 85.546 73.3631 85.546C72.9525 85.546 72.5698 85.6487 72.2151 85.854C71.8605 86.05 71.5711 86.344 71.3471 86.736C71.1325 87.1187 71.0251 87.576 71.0251 88.108C71.0251 88.64 71.1325 89.1067 71.3471 89.508C71.5711 89.9093 71.8605 90.2173 72.2151 90.432C72.5791 90.6373 72.9618 90.74 73.3631 90.74C73.7738 90.74 74.1565 90.6373 74.5111 90.432C74.8658 90.2267 75.1505 89.928 75.3651 89.536C75.5891 89.1347 75.7011 88.668 75.7011 88.136ZM86.4774 87.954C86.4774 88.2433 86.4588 88.5047 86.4214 88.738H80.5274C80.5741 89.354 80.8028 89.8487 81.2134 90.222C81.6241 90.5953 82.1281 90.782 82.7254 90.782C83.5841 90.782 84.1908 90.4227 84.5454 89.704H86.2674C86.0341 90.4133 85.6094 90.9967 84.9934 91.454C84.3868 91.902 83.6308 92.126 82.7254 92.126C81.9881 92.126 81.3254 91.9627 80.7374 91.636C80.1588 91.3 79.7014 90.8333 79.3654 90.236C79.0388 89.6293 78.8754 88.9293 78.8754 88.136C78.8754 87.3427 79.0341 86.6473 79.3514 86.05C79.6781 85.4433 80.1308 84.9767 80.7094 84.65C81.2974 84.3233 81.9694 84.16 82.7254 84.16C83.4534 84.16 84.1021 84.3187 84.6714 84.636C85.2408 84.9533 85.6841 85.4013 86.0014 85.98C86.3188 86.5493 86.4774 87.2073 86.4774 87.954ZM84.8114 87.45C84.8021 86.862 84.5921 86.3907 84.1814 86.036C83.7708 85.6813 83.2621 85.504 82.6554 85.504C82.1048 85.504 81.6334 85.6813 81.2414 86.036C80.8494 86.3813 80.6161 86.8527 80.5414 87.45H84.8114Z" fill="#415EB6"/>
<path d="M16.8848 36.2008V42.1275C16.9346 45.2387 22.0545 47.7555 30 47.7555C37.9455 47.7555 43.0621 45.2387 43.1152 42.1275V36.2008H16.8848Z" fill="#415EB6"/>
<path d="M43.1152 36.1775C43.1152 39.4779 37.9754 42.1541 30 42.1541C22.0246 42.1541 16.8848 39.4779 16.8848 36.1775C16.8848 32.8771 22.0246 30.201 30 30.201C37.9754 30.201 43.1152 32.8738 43.1152 36.1775Z" fill="white"/>
<path d="M16.8848 30.2242V35.4869C16.9346 38.598 22.0545 41.4469 30 41.4469C37.9455 41.4469 43.0621 38.598 43.1152 35.4869V30.2242H16.8848Z" fill="#415EB6"/>
<path d="M43.1152 30.201C43.1152 33.5014 37.9754 36.1775 30 36.1775C22.0246 36.1775 16.8848 33.5014 16.8848 30.201C16.8848 26.9006 22.0246 24.2244 30 24.2244C37.9754 24.2244 43.1152 26.8973 43.1152 30.201Z" fill="white"/>
<path d="M16.8848 24.2477V29.5104C16.9346 32.6215 22.0545 35.4703 30 35.4703C37.9455 35.4703 43.0621 32.6215 43.1152 29.5104V24.2477H16.8848Z" fill="#415EB6"/>
<path d="M43.1152 24.2244C43.1152 27.5248 37.9754 30.201 30 30.201C22.0246 30.201 16.8848 27.5248 16.8848 24.2244C16.8848 20.924 22.0246 18.2479 30 18.2479C37.9754 18.2479 43.1152 20.9207 43.1152 24.2244Z" fill="#567DF4"/>
</svg>
