<svg width="25" height="25" viewBox="0 0 25 25" fill="none" xmlns="http://www.w3.org/2000/svg">
<path d="M1.81472 12.2621C1.81171 14.0646 2.25969 15.8393 3.11796 17.4251L3.11831 17.4258L3.20931 17.5933L1.41892 22.9524L1.1157 23.86L2.03392 23.5906L7.70433 21.9269L7.86064 22.0047L7.86086 22.0048C9.32176 22.7309 10.9687 23.1391 12.7121 23.1391C18.7305 23.1391 23.6096 18.2708 23.6096 12.2625C23.6096 6.2551 18.7305 1.38683 12.7121 1.38683C6.69492 1.38683 1.81495 6.25484 1.81472 12.2621ZM1.81472 12.2621C1.81472 12.2619 1.81472 12.2618 1.81472 12.2617L2.31472 12.2625H1.81472C1.81472 12.2624 1.81472 12.2622 1.81472 12.2621ZM2.17741 17.8739L2.24294 17.6777L2.15072 17.4925C1.36583 15.9167 0.924283 14.1409 0.924283 12.2625C0.924283 5.76777 6.20065 0.5 12.7121 0.5C19.2236 0.5 24.5 5.76777 24.5 12.2625C24.5 18.7582 19.2236 24.026 12.7121 24.026H12.7116C11.0126 24.0279 9.33354 23.662 7.79005 22.9536L7.62014 22.8756L7.44074 22.9282L2.28551 24.4405L2.28502 24.4407C1.20685 24.7581 0.219916 23.7335 0.574293 22.6731L0.574314 22.673L2.17741 17.8739ZM8.48604 10.3766C8.48604 10.2593 8.53272 10.1466 8.61611 10.0634C8.69953 9.98015 8.81287 9.9332 8.93126 9.9332H16.493C16.6114 9.9332 16.7248 9.98015 16.8082 10.0634C16.8916 10.1466 16.9382 10.2593 16.9382 10.3766C16.9382 10.4939 16.8916 10.6066 16.8082 10.6898C16.7248 10.7731 16.6114 10.82 16.493 10.82H8.93126C8.81287 10.82 8.69953 10.7731 8.61611 10.6898C8.53272 10.6066 8.48604 10.4939 8.48604 10.3766ZM8.48604 14.1493C8.48604 14.032 8.53272 13.9194 8.61611 13.8361C8.69953 13.7529 8.81287 13.7059 8.93126 13.7059H14.6026C14.721 13.7059 14.8343 13.7529 14.9177 13.8361C15.0011 13.9194 15.0478 14.032 15.0478 14.1493C15.0478 14.2666 15.0011 14.3793 14.9177 14.4625C14.8343 14.5458 14.721 14.5927 14.6026 14.5927H8.93126C8.81287 14.5927 8.69953 14.5458 8.61611 14.4625C8.53272 14.3793 8.48604 14.2666 8.48604 14.1493Z" stroke="#3A3A3A"/>
</svg>
