<svg width="24" height="24" viewBox="0 0 24 24" fill="none" xmlns="http://www.w3.org/2000/svg">
<rect width="24" height="24" rx="5" fill="#6746B9"/>
<path d="M21.3321 7.70756L20.0393 6.39999L18.4786 7.97851C17.4895 7.37388 16.3558 7.05412 15.2 7.05378C11.6718 7.05378 8.8 9.95835 8.8 13.5269C8.8 17.0954 11.6718 20 15.2 20C18.7282 20 21.6 17.0954 21.6 13.5269C21.5991 11.905 20.9935 10.3431 19.904 9.15291L21.3321 7.70756ZM16.1143 14.4516H14.2857V9.78913H16.1143V14.4516Z" fill="white"/>
<rect x="4" y="8" width="4" height="2.4" rx="1.2" fill="white"/>
<rect x="13.6" y="4" width="3.2" height="1.6" fill="white"/>
<rect x="3.2" y="12" width="4.8" height="2.4" rx="1.2" fill="white"/>
<rect x="4" y="16" width="4" height="2.4" rx="1.2" fill="white"/>
</svg>
