<svg width="15" height="15" viewBox="0 0 15 15" fill="none" xmlns="http://www.w3.org/2000/svg">
<path fill-rule="evenodd" clip-rule="evenodd" d="M7.50002 14.5834C11.4121 14.5834 14.5834 11.4122 14.5834 7.50008C14.5834 3.58796 11.4121 0.416748 7.50002 0.416748C3.5879 0.416748 0.416687 3.58796 0.416687 7.50008C0.416687 11.4122 3.5879 14.5834 7.50002 14.5834ZM11.3045 5.25821C11.3376 5.22407 11.3635 5.18361 11.3807 5.13923C11.3978 5.09486 11.4059 5.04748 11.4043 4.99993C11.4028 4.95238 11.3917 4.90563 11.3716 4.86247C11.3516 4.81932 11.3231 4.78063 11.2878 4.74874C11.2525 4.71684 11.2111 4.69239 11.1662 4.67683C11.1212 4.66127 11.0736 4.65493 11.0261 4.65819C10.9787 4.66144 10.9323 4.67423 10.8899 4.69578C10.8475 4.71733 10.8099 4.74721 10.7793 4.78362L6.53669 9.47173L4.20273 7.24366C4.13482 7.17876 4.0439 7.14349 3.94999 7.14561C3.85607 7.14774 3.76684 7.18709 3.70194 7.255C3.63703 7.32291 3.60176 7.41383 3.60389 7.50774C3.60601 7.60166 3.64536 7.69088 3.71327 7.75579L6.31073 10.235L6.57387 10.4864L6.8179 10.2165L11.3041 5.25821H11.3045Z" fill="#1FD251"/>
</svg>
