<svg width="24" height="24" viewBox="0 0 24 24" fill="none" xmlns="http://www.w3.org/2000/svg">
<path d="M21.3319 7.70796L20.0391 6.40039L18.4784 7.9789C17.4893 7.37428 16.3556 7.05452 15.1998 7.05417C11.6716 7.05417 8.7998 9.95875 8.7998 13.5273C8.7998 17.0958 11.6716 20.0004 15.1998 20.0004C18.728 20.0004 21.5998 17.0958 21.5998 13.5273C21.5989 11.9054 20.9933 10.3434 19.9038 9.15331L21.3319 7.70796ZM16.1141 14.452H14.2855V9.78953H16.1141V14.452Z" fill="#8A8A8A"/>
<rect x="4" y="8" width="4" height="2.4" rx="1.2" fill="#8A8A8A"/>
<rect x="13.6001" y="4" width="3.2" height="1.6" fill="#8A8A8A"/>
<rect x="3.2002" y="12" width="4.8" height="2.4" rx="1.2" fill="#8A8A8A"/>
<rect x="4" y="16" width="4" height="2.4" rx="1.2" fill="#8A8A8A"/>
</svg>
