<svg width="16" height="17" viewBox="0 0 16 17" fill="none" xmlns="http://www.w3.org/2000/svg">
<path fill-rule="evenodd" clip-rule="evenodd" d="M8 16.5C12.4183 16.5 16 12.9183 16 8.5C16 4.08172 12.4183 0.5 8 0.5C3.58172 0.5 0 4.08172 0 8.5C0 12.9183 3.58172 16.5 8 16.5ZM6.38307 10.3487L11.4968 5.23499C11.5879 5.14389 11.7356 5.14389 11.8267 5.23499L12.3766 5.78485C12.4677 5.87597 12.4677 6.02367 12.3766 6.11477L6.54802 11.9433C6.4569 12.0344 6.30919 12.0344 6.21809 11.9433L3.62431 9.34953C3.53321 9.25841 3.53321 9.1107 3.62431 9.0196L4.17417 8.46974C4.26529 8.37865 4.413 8.37865 4.5041 8.46974L6.38307 10.3487Z" fill="#0BB783"/>
</svg>
