<svg width="25" height="25" viewBox="0 0 25 25" fill="none" xmlns="http://www.w3.org/2000/svg">
<path d="M12.5006 0C19.4046 0 25 5.59645 25 12.4994C25 19.4023 19.4046 24.9987 12.5006 24.9987C10.3812 24.9987 8.33781 24.4694 6.52269 23.4792L1.38817 24.9574C1.20148 25.0113 1.00376 25.0141 0.815609 24.9656C0.627454 24.9171 0.45574 24.819 0.318346 24.6817C0.180951 24.5443 0.0829007 24.3725 0.0344019 24.1844C-0.0140969 23.9962 -0.0112702 23.7985 0.0425878 23.6118L1.52295 18.4806C0.52165 16.6462 -0.00165667 14.5892 0.00128545 12.4994C0.00128545 5.59645 5.59882 0 12.5006 0ZM13.3147 14.1297H8.42368L8.3139 14.1373C8.11879 14.1642 7.93999 14.2607 7.81057 14.4092C7.68114 14.5576 7.60984 14.7479 7.60984 14.9449C7.60984 15.1418 7.68114 15.3321 7.81057 15.4806C7.93999 15.629 8.11879 15.7256 8.3139 15.7524L8.42368 15.7601H13.3136L13.4234 15.7524C13.6185 15.7256 13.7973 15.629 13.9268 15.4806C14.0562 15.3321 14.1275 15.1418 14.1275 14.9449C14.1275 14.7479 14.0562 14.5576 13.9268 14.4092C13.7973 14.2607 13.6185 14.1642 13.4234 14.1373L13.3136 14.1297H13.3147ZM16.582 9.23866H8.42368L8.3139 9.24626C8.11879 9.27311 7.93999 9.36969 7.81057 9.51814C7.68114 9.66659 7.60984 9.85688 7.60984 10.0538C7.60984 10.2508 7.68114 10.4411 7.81057 10.5895C7.93999 10.738 8.11879 10.8346 8.3139 10.8614L8.42368 10.869H16.5809L16.6917 10.8614C16.8868 10.8346 17.0656 10.738 17.1951 10.5895C17.3245 10.4411 17.3958 10.2508 17.3958 10.0538C17.3958 9.85688 17.3245 9.66659 17.1951 9.51814C17.0656 9.36969 16.8868 9.27311 16.6917 9.24626L16.582 9.23866Z" fill="#6566E5"/>
</svg>
