<svg width="70" height="69" viewBox="0 0 70 69" fill="none" xmlns="http://www.w3.org/2000/svg">
<rect x="1.07609" y="0.644938" width="67.5035" height="67.5035" rx="33.7518" fill="white"/>
<path fill-rule="evenodd" clip-rule="evenodd" d="M21.0691 34.4734C21.0691 41.3138 26.0371 47.0019 32.5347 48.1553V38.2181H29.095V34.3966H32.5347V31.3388C32.5347 27.8991 34.7509 25.9889 37.8856 25.9889C38.8786 25.9889 39.9494 26.1414 40.9424 26.2939V29.8104H39.1847C37.5027 29.8104 37.1209 30.6508 37.1209 31.7217V34.3966H40.7899L40.1787 38.2181H37.1209V48.1553C43.6184 47.0019 48.5864 41.3149 48.5864 34.4734C48.5864 26.8637 42.395 20.6379 34.8278 20.6379C27.2605 20.6379 21.0691 26.8637 21.0691 34.4734Z" fill="#1877F2"/>
<rect x="1.07609" y="0.644938" width="67.5035" height="67.5035" rx="33.7518" stroke="#D9E1EC" stroke-width="1.28988"/>
</svg>
