<svg width="69" height="69" viewBox="0 0 69 69" fill="none" xmlns="http://www.w3.org/2000/svg">
<rect x="0.644938" y="0.644938" width="67.5035" height="67.5035" rx="33.7518" fill="white"/>
<path d="M47.8631 34.7062C47.8631 33.8004 47.7829 32.9405 47.6453 32.1035H34.6892V37.2745H42.1074C41.7749 38.9714 40.8004 40.4046 39.3557 41.3792V44.8188H43.7814C46.3726 42.4225 47.8631 38.8911 47.8631 34.7062Z" fill="#4285F4"/>
<path d="M34.689 48.1553C38.4039 48.1553 41.5111 46.917 43.7812 44.8188L39.3555 41.3791C38.1173 42.2047 36.5465 42.7091 34.689 42.7091C31.1003 42.7091 28.0619 40.2899 26.9727 37.0222H22.4094V40.5651C24.6681 45.0596 29.3117 48.1553 34.689 48.1553Z" fill="#34A853"/>
<path d="M26.9728 37.0224C26.6861 36.1968 26.5371 35.314 26.5371 34.3967C26.5371 33.4795 26.6976 32.5967 26.9728 31.7711V28.2283H22.4095C21.4693 30.0857 20.9304 32.1724 20.9304 34.3967C20.9304 36.6211 21.4693 38.7078 22.4095 40.5652L26.9728 37.0224Z" fill="#FBBC05"/>
<path d="M34.689 26.0841C36.7185 26.0841 38.53 26.7835 39.9632 28.1479L43.8844 24.2267C41.5111 22.0023 38.4039 20.6379 34.689 20.6379C29.3117 20.6379 24.6681 23.7336 22.4094 28.2281L26.9727 31.771C28.0619 28.5033 31.1003 26.0841 34.689 26.0841Z" fill="#EA4335"/>
<rect x="0.644938" y="0.644938" width="67.5035" height="67.5035" rx="33.7518" stroke="#D9E1EC" stroke-width="1.28988"/>
</svg>
