<svg width="29" height="29" viewBox="0 0 29 29" fill="none" xmlns="http://www.w3.org/2000/svg">
<path d="M16.1717 1.73941L16.1717 1.73942L27.4149 14.2319C27.4155 14.2326 27.4161 14.2333 27.4167 14.2339C27.795 14.6511 28.0031 15.195 27.9998 15.7581M16.1717 1.73941L26.9998 15.7543M16.1717 1.73941L16.1684 1.73578C15.9575 1.5038 15.7005 1.31845 15.4138 1.19162C15.1272 1.06479 14.8171 0.999268 14.5037 0.999268C14.1902 0.999268 13.8802 1.06479 13.5935 1.19162C13.3068 1.31845 13.0498 1.5038 12.839 1.73578L12.8357 1.73942L1.59342 14.2308C1.29812 14.5516 1.10238 14.9514 1.03011 15.3816C0.957376 15.8145 1.01292 16.2593 1.18989 16.6611C1.36687 17.0629 1.65754 17.4041 2.02609 17.6427C2.39355 17.8806 2.82242 18.0061 3.26011 18.0039M16.1717 1.73941L2.33243 14.9045C2.16659 15.0833 2.0567 15.3067 2.01629 15.5472C1.97589 15.7878 2.00674 16.0348 2.10505 16.258C2.20335 16.4812 2.36482 16.6707 2.56954 16.8033C2.77425 16.9358 3.01328 17.0055 3.25715 17.0039M27.9998 15.7581C27.9998 15.7593 27.9998 15.7604 27.9998 15.7616L26.9998 15.7543M27.9998 15.7581C27.9998 15.7568 27.9998 15.7555 27.9998 15.7543H26.9998M27.9998 15.7581C27.9988 16.3534 27.7619 16.924 27.3409 17.345C26.919 17.7669 26.3468 18.0039 25.7502 18.0039H24.251M26.9998 15.7543C26.9998 16.0857 26.8681 16.4035 26.6338 16.6379C26.3994 16.8722 26.0816 17.0039 25.7502 17.0039H24.251V18.0039M24.251 18.0039H23.251V25.7512C23.251 26.0826 23.1193 26.4004 22.885 26.6348C22.6506 26.8691 22.3328 27.0008 22.0013 27.0008H7.00599C6.67457 27.0008 6.35672 26.8691 6.12238 26.6348C5.88803 26.4004 5.75637 26.0826 5.75637 25.7512V18.0039H4.75637M24.251 18.0039V25.7512C24.251 26.3478 24.014 26.92 23.5921 27.3419C23.1702 27.7638 22.598 28.0008 22.0013 28.0008H7.00599C6.40935 28.0008 5.83715 27.7638 5.41527 27.3419L6.06798 26.6892L5.41527 27.3419C4.99339 26.92 4.75637 26.3478 4.75637 25.7512V18.0039M4.75637 18.0039V17.0039H3.25715M4.75637 18.0039H3.26011M3.26011 18.0039C3.26139 18.0039 3.26267 18.0039 3.26395 18.0038L3.25715 17.0039M3.26011 18.0039H3.25715V17.0039" stroke="#3A3A3A" stroke-width="2"/>
<path d="M8.99902 19.9999C10.7451 22.2638 15.3897 25.4333 19.9994 19.9999" stroke="#3A3A3A" stroke-width="2" stroke-linecap="round"/>
</svg>
