<svg width="38" height="38" viewBox="0 0 38 38" fill="none" xmlns="http://www.w3.org/2000/svg">
<circle cx="19" cy="19" r="19" fill="#7475E9"/>
<path d="M18.1206 6.93628C20.3818 6.75164 22.6439 7.28248 24.6075 8.45853C26.5711 9.63459 28.1437 11.4004 29.1171 13.5224C30.0905 15.6444 30.4188 18.0224 30.0587 20.3419C29.6987 22.6614 28.6671 24.813 27.1005 26.512C25.5339 28.211 23.5061 29.3772 21.2855 29.8565C19.065 30.3357 16.7562 30.1053 14.6648 29.1958C12.5734 28.2863 10.7979 26.7406 9.57332 24.7631C8.34871 22.7856 7.73268 20.4696 7.80676 18.1216C7.81493 17.8332 7.93338 17.5599 8.13607 17.3619C8.33876 17.164 8.60908 17.0575 8.88756 17.066C9.16603 17.0744 9.42986 17.1971 9.621 17.4071C9.81213 17.617 9.91493 17.897 9.90676 18.1854C9.83581 20.408 10.526 22.5851 11.8552 24.3315C13.1845 26.078 15.0672 27.2814 17.1704 27.729C19.2736 28.1765 21.4619 27.8394 23.3483 26.7772C25.2348 25.715 26.6977 23.9961 27.4786 21.9245C28.2595 19.853 28.308 17.5621 27.6155 15.4571C26.923 13.3521 25.5342 11.5685 23.6945 10.4217C21.8549 9.27486 19.6829 8.83873 17.5628 9.19039C15.4426 9.54205 13.5108 10.6589 12.109 12.3433L11.8234 12.7044H14.4512L14.594 12.7145C14.8463 12.7492 15.078 12.8776 15.2457 13.0759C15.4135 13.2742 15.506 13.5289 15.506 13.7926C15.506 14.0563 15.4135 14.311 15.2457 14.5093C15.078 14.7076 14.8463 14.836 14.594 14.8707L14.4512 14.8794H9.55396L9.41116 14.8707C9.18394 14.8383 8.9732 14.7298 8.81115 14.5617C8.6491 14.3936 8.54465 14.1752 8.51376 13.9398L8.50396 13.7919V7.99188L8.51376 7.84543C8.54465 7.61005 8.6491 7.39161 8.81115 7.22351C8.9732 7.05541 9.18394 6.94689 9.41116 6.91453L9.55396 6.90583L9.69676 6.91453C9.92397 6.94689 10.1347 7.05541 10.2968 7.22351C10.4588 7.39161 10.5633 7.61005 10.5942 7.84543L10.604 7.99188L10.6026 10.8237C12.5244 8.56364 15.2215 7.16899 18.1206 6.93628ZM18.6498 12.7044L18.7926 12.7145C19.0198 12.7469 19.2305 12.8554 19.3926 13.0235C19.5546 13.1916 19.6591 13.41 19.69 13.6454L19.6998 13.7919V18.5L22.1498 18.5015L22.2926 18.5116C22.5439 18.5474 22.7742 18.6763 22.9409 18.8743C23.1076 19.0724 23.1994 19.3262 23.1994 19.589C23.1994 19.8517 23.1076 20.1056 22.9409 20.3036C22.7742 20.5017 22.5439 20.6305 22.2926 20.6663L22.1498 20.6765H18.6498L18.507 20.6663C18.2799 20.634 18.0694 20.5257 17.9073 20.3579C17.7453 20.1901 17.6407 19.972 17.6096 19.7369L17.5998 19.5875V13.7919L17.6096 13.6454C17.6404 13.41 17.7449 13.1916 17.9069 13.0235C18.069 12.8554 18.2797 12.7469 18.507 12.7145L18.6498 12.7058V12.7044Z" fill="white"/>
</svg>
