<svg width="29" height="29" viewBox="0 0 29 29" fill="none" xmlns="http://www.w3.org/2000/svg">
<path d="M15.5775 0.474545C15.4417 0.325078 15.2761 0.205655 15.0914 0.123935C14.9067 0.0422141 14.7069 0 14.5049 0C14.3029 0 14.1032 0.0422141 13.9185 0.123935C13.7337 0.205655 13.5681 0.325078 13.4323 0.474545L0.386742 14.9692C0.194374 15.1766 0.0669002 15.4357 0.0200328 15.7147C-0.0268346 15.9937 0.00895335 16.2803 0.122985 16.5391C0.237017 16.798 0.424308 17.0179 0.661773 17.1716C0.899238 17.3253 1.1765 17.4062 1.45938 17.4043H4.35838V27.5505C4.35838 27.935 4.5111 28.3036 4.78293 28.5755C5.05477 28.8473 5.42346 29 5.80789 29H23.2019C23.5864 29 23.9551 28.8473 24.2269 28.5755C24.4987 28.3036 24.6514 27.935 24.6514 27.5505V17.4043H27.5505C27.9349 17.4043 28.3036 17.2516 28.5754 16.9797C28.8472 16.7079 29 16.3392 29 15.9548C29.0026 15.5906 28.8681 15.2387 28.6231 14.9692L15.5775 0.474545Z" fill="#6566E5"/>
<path d="M8.12012 19.7195C10.1455 22.3455 15.5331 26.0219 20.8801 19.7195" stroke="white" stroke-width="2" stroke-linecap="round"/>
</svg>
