<svg width="24" height="24" viewBox="0 0 24 24" fill="none" xmlns="http://www.w3.org/2000/svg">
<path d="M2.4004 11.9999C2.40092 9.90214 3.08859 7.86224 4.35822 6.19226C5.62786 4.52227 7.40956 3.31413 9.43083 2.75263C11.4521 2.19112 13.6017 2.30715 15.5507 3.08298C17.4998 3.8588 19.1411 5.25171 20.2236 7.04867C21.3061 8.84562 21.7702 10.9477 21.5449 13.0334C21.3196 15.119 20.4173 17.0735 18.976 18.5978C17.5348 20.1222 15.6339 21.1324 13.5641 21.4741C11.4943 21.8158 9.36953 21.4702 7.5148 20.49L3.1468 21.5819C3.04627 21.6072 2.94091 21.606 2.84099 21.5784C2.74106 21.5509 2.64998 21.4979 2.57663 21.4247C2.50327 21.3514 2.45014 21.2604 2.42241 21.1606C2.39468 21.0607 2.3933 20.9553 2.4184 20.8547L3.5104 16.4855C2.77923 15.1036 2.3981 13.5634 2.4004 11.9999ZM11.1004 8.76835C11.284 8.56075 11.5684 8.39995 12.0004 8.39995C12.4324 8.39995 12.7168 8.56075 12.9004 8.76835C13.0936 8.98915 13.2004 9.29395 13.2004 9.59995C13.2004 9.98035 13.1152 10.2275 13.0012 10.4219C12.88 10.6307 12.718 10.7987 12.4936 11.0339L12.4672 11.0627C12.2404 11.2991 11.962 11.5955 11.7496 11.9999C11.5336 12.4151 11.4004 12.9131 11.4004 13.5515C11.4004 13.7107 11.4636 13.8633 11.5761 13.9758C11.6887 14.0883 11.8413 14.1515 12.0004 14.1515C12.1595 14.1515 12.3121 14.0883 12.4247 13.9758C12.5372 13.8633 12.6004 13.7107 12.6004 13.5515C12.6004 13.0907 12.6928 12.7859 12.8128 12.5567C12.9388 12.3167 13.1104 12.1259 13.3336 11.8919L13.384 11.8403C13.588 11.6279 13.8424 11.3627 14.038 11.0267C14.2612 10.6427 14.4004 10.1867 14.4004 9.59995C14.4004 9.03235 14.2072 8.43595 13.8004 7.97515C13.384 7.50235 12.7684 7.19995 12.0004 7.19995C11.2324 7.19995 10.6168 7.50235 10.2004 7.97515C9.7924 8.43715 9.6004 9.03115 9.6004 9.59995C9.6004 9.75908 9.66361 9.91169 9.77614 10.0242C9.88866 10.1367 10.0413 10.1999 10.2004 10.1999C10.3595 10.1999 10.5121 10.1367 10.6247 10.0242C10.7372 9.91169 10.8004 9.75908 10.8004 9.59995C10.8004 9.29395 10.9072 8.98795 11.1004 8.76835ZM12.8404 16.2155C12.8404 15.9928 12.7519 15.7791 12.5944 15.6216C12.4368 15.464 12.2232 15.3755 12.0004 15.3755C11.7776 15.3755 11.564 15.464 11.4064 15.6216C11.2489 15.7791 11.1604 15.9928 11.1604 16.2155C11.1604 16.4383 11.2489 16.652 11.4064 16.8095C11.564 16.967 11.7776 17.0555 12.0004 17.0555C12.2232 17.0555 12.4368 16.967 12.5944 16.8095C12.7519 16.652 12.8404 16.4383 12.8404 16.2155Z" fill="#052C3C"/>
</svg>
