<svg width="38" height="38" viewBox="0 0 38 38" fill="none" xmlns="http://www.w3.org/2000/svg">
<circle cx="19" cy="19" r="19" fill="#D32710"/>
<path fill-rule="evenodd" clip-rule="evenodd" d="M18.8278 7.11756C19.3504 6.9608 19.9024 6.92837 20.4397 7.02287C20.977 7.11736 21.4848 7.33616 21.9225 7.66179C22.3603 7.98743 22.7158 8.41088 22.9608 8.89836C23.2058 9.38583 23.3334 9.92383 23.3335 10.4694V27.5307C23.3334 28.0763 23.2058 28.6143 22.9608 29.1018C22.7158 29.5892 22.3603 30.0127 21.9225 30.3383C21.4848 30.664 20.977 30.8828 20.4397 30.9773C19.9024 31.0718 19.3504 31.0393 18.8278 30.8826L11.8278 28.7826C11.1069 28.5663 10.475 28.1234 10.0257 27.5197C9.57634 26.9159 9.33362 26.1833 9.3335 25.4307V12.5694C9.33362 11.8168 9.57634 11.0842 10.0257 10.4805C10.475 9.87668 11.1069 9.43382 11.8278 9.21756L18.8278 7.11756ZM24.5002 9.66673C24.5002 9.35731 24.6231 9.06056 24.8419 8.84177C25.0607 8.62298 25.3574 8.50006 25.6668 8.50006H29.1668C30.0951 8.50006 30.9853 8.86881 31.6417 9.52519C32.2981 10.1816 32.6668 11.0718 32.6668 12.0001V13.1667C32.6668 13.4762 32.5439 13.7729 32.3251 13.9917C32.1063 14.2105 31.8096 14.3334 31.5002 14.3334C31.1907 14.3334 30.894 14.2105 30.6752 13.9917C30.4564 13.7729 30.3335 13.4762 30.3335 13.1667V12.0001C30.3335 11.6906 30.2106 11.3939 29.9918 11.1751C29.773 10.9563 29.4762 10.8334 29.1668 10.8334H25.6668C25.3574 10.8334 25.0607 10.7105 24.8419 10.4917C24.6231 10.2729 24.5002 9.97615 24.5002 9.66673ZM31.5002 23.6667C31.8096 23.6667 32.1063 23.7896 32.3251 24.0084C32.5439 24.2272 32.6668 24.524 32.6668 24.8334V26.0001C32.6668 26.9283 32.2981 27.8186 31.6417 28.4749C30.9853 29.1313 30.0951 29.5001 29.1668 29.5001H25.6668C25.3574 29.5001 25.0607 29.3771 24.8419 29.1584C24.6231 28.9396 24.5002 28.6428 24.5002 28.3334C24.5002 28.024 24.6231 27.7272 24.8419 27.5084C25.0607 27.2896 25.3574 27.1667 25.6668 27.1667H29.1668C29.4762 27.1667 29.773 27.0438 29.9918 26.825C30.2106 26.6062 30.3335 26.3095 30.3335 26.0001V24.8334C30.3335 24.524 30.4564 24.2272 30.6752 24.0084C30.894 23.7896 31.1907 23.6667 31.5002 23.6667ZM17.5002 17.8334C17.1907 17.8334 16.894 17.9563 16.6752 18.1751C16.4564 18.3939 16.3335 18.6906 16.3335 19.0001C16.3335 19.3095 16.4564 19.6062 16.6752 19.825C16.894 20.0438 17.1907 20.1667 17.5002 20.1667H17.5013C17.8108 20.1667 18.1075 20.0438 18.3263 19.825C18.5451 19.6062 18.668 19.3095 18.668 19.0001C18.668 18.6906 18.5451 18.3939 18.3263 18.1751C18.1075 17.9563 17.8108 17.8334 17.5013 17.8334H17.5002Z" fill="white"/>
<path d="M25.667 19.0001H31.5003H25.667ZM31.5003 19.0001L29.167 16.6667L31.5003 19.0001ZM31.5003 19.0001L29.167 21.3334L31.5003 19.0001Z" fill="white"/>
<path d="M25.667 19.0001H31.5003M31.5003 19.0001L29.167 16.6667M31.5003 19.0001L29.167 21.3334" stroke="white" stroke-width="2" stroke-linecap="round" stroke-linejoin="round"/>
</svg>
