<svg width="38" height="38" viewBox="0 0 38 38" fill="none" xmlns="http://www.w3.org/2000/svg">
<circle cx="19" cy="19" r="19" fill="#7475E9"/>
<path d="M29.1661 25.0846C26.5943 22.1961 23.0038 21.55 19.1919 21.55C15.38 21.55 11.7893 22.195 9.2174 25.0847C8.85676 25.4899 8.69189 26.0099 8.69189 26.5186C8.69189 27.794 9.72585 28.8279 11.0013 28.8279H27.3826C28.658 28.8279 29.6919 27.7941 29.6919 26.5187C29.6919 26.01 29.5269 25.4898 29.1661 25.0846Z" fill="white" stroke="#FAFAFA"/>
<path d="M19.192 18.3815C21.9003 18.3815 24.092 16.1768 24.092 13.4619C24.092 10.7469 21.9003 8.54224 19.192 8.54224C16.4837 8.54224 14.292 10.7469 14.292 13.4619C14.292 16.1768 16.4837 18.3815 19.192 18.3815Z" fill="white" stroke="#FAFAFA"/>
</svg>
