<svg width="24" height="24" viewBox="0 0 24 24" fill="none" xmlns="http://www.w3.org/2000/svg">
<path fill-rule="evenodd" clip-rule="evenodd" d="M20 7.5C20 5.98134 18.8072 4.84874 17.4259 4.14943C15.9913 3.42321 14.0717 3 12 3C9.92825 3 8.00868 3.42321 6.57416 4.14943C5.19281 4.84874 4 5.98134 4 7.5V16.5C4 18.0187 5.19281 19.1512 6.57416 19.8506C8.00868 20.5768 9.92825 21 12 21C14.0717 21 15.9913 20.5768 17.4259 19.8506C18.8072 19.1512 20 18.0187 20 16.5V7.5ZM5.89326 13.9376C6.13524 13.5052 6.67767 13.3532 7.10481 13.5981C8.243 14.251 9.98933 14.7 12.0001 14.7C14.0108 14.7 15.7571 14.251 16.8953 13.5981C17.3224 13.3532 17.8649 13.5052 18.1068 13.9376C18.3488 14.3701 18.1988 14.9192 17.7716 15.1643C16.3037 16.0063 14.2372 16.5 12.0001 16.5C9.76292 16.5 7.69636 16.0063 6.22852 15.1643C5.80139 14.9192 5.65128 14.3701 5.89326 13.9376ZM7.10474 9.09814C6.6776 8.85314 6.13517 9.00512 5.89319 9.4376C5.65122 9.87008 5.80132 10.4193 6.22846 10.6643C7.69629 11.5063 9.76285 12 12 12C14.2372 12 16.3036 11.5063 17.7715 10.6643C18.1987 10.4193 18.3487 9.87008 18.1068 9.4376C17.8648 9.00512 17.3224 8.85314 16.8952 9.09814C15.7571 9.751 14.0107 10.2 12 10.2C9.98926 10.2 8.24292 9.751 7.10474 9.09814Z" fill="#8A8A8A"/>
</svg>
