<svg width="81" height="96" viewBox="0 0 81 96" fill="none" xmlns="http://www.w3.org/2000/svg">
<g clip-path="url(#clip0_106_28711)">
<path d="M29.3 58.6H50.73C50.98 58.6 51.22 58.62 51.46 58.65V36.47C51.25 36.47 51.04 36.45 50.83 36.45H50.79H29.4C25.3 36.45 22.01 32.99 22.27 28.83C22.52 25.03 25.84 22.16 29.64 22.16H59.58C70.69 22.16 79.69 13.15 79.69 2.05V0H29.3C13.12 0 0 13.12 0 29.3C0 45.48 13.12 58.6 29.3 58.6Z" fill="url(#paint0_linear_106_28711)"/>
<path d="M51.46 72.81C51.14 72.85 50.81 72.88 50.48 72.88H20.54C9.42999 72.88 0.429993 81.89 0.429993 92.99V95.03H50.83C51.04 95.03 51.25 95.02 51.46 95.01V72.8V72.81Z" fill="url(#paint1_linear_106_28711)"/>
<path d="M59.85 37.8701V93.6201C71.62 89.8201 80.13 78.7801 80.13 65.7401C80.13 52.7101 71.62 41.6701 59.85 37.8601V37.8701Z" fill="url(#paint2_linear_106_28711)"/>
<path style="mix-blend-mode:multiply" d="M0 29.3C0 31.97 0.36 34.54 1.03 37C1.72 28.55 8.83 22.62 16.14 19.5C25.68 15.42 36.41 16.99 46.43 15.06C52.77 13.84 59 11.93 64.89 9.27002C70.14 6.90002 75.44 3.95002 79.7 0.0100155H29.3C13.12 1.54785e-05 0 13.12 0 29.3Z" fill="url(#paint3_linear_106_28711)"/>
<path style="mix-blend-mode:multiply" d="M20.54 72.8901C9.42999 72.8901 0.429993 81.9001 0.429993 93.0001V95.0401C0.429993 95.0401 12.13 83.9301 25.95 83.9301C39.77 83.9301 49.41 80.7501 51.47 72.8201C51.15 72.8601 50.82 72.8901 50.49 72.8901H20.55H20.54Z" fill="url(#paint4_linear_106_28711)"/>
<path style="mix-blend-mode:multiply" d="M73.09 84.7901C73.21 67.3401 59.85 37.8701 59.85 37.8701V93.6201C65.05 91.9401 69.61 88.8401 73.09 84.7901Z" fill="url(#paint5_linear_106_28711)"/>
</g>
<defs>
<linearGradient id="paint0_linear_106_28711" x1="58.74" y1="56.64" x2="28.45" y2="-5.24" gradientUnits="userSpaceOnUse">
<stop stop-color="#57BFE2"/>
<stop offset="1" stop-color="#9FDFDB"/>
</linearGradient>
<linearGradient id="paint1_linear_106_28711" x1="0.429993" y1="83.93" x2="51.46" y2="83.93" gradientUnits="userSpaceOnUse">
<stop stop-color="#57BFE2"/>
<stop offset="1" stop-color="#9FDFDB"/>
</linearGradient>
<linearGradient id="paint2_linear_106_28711" x1="59.85" y1="65.7401" x2="80.13" y2="65.7401" gradientUnits="userSpaceOnUse">
<stop stop-color="#8246E0"/>
<stop offset="1" stop-color="#A96BE0"/>
</linearGradient>
<linearGradient id="paint3_linear_106_28711" x1="40" y1="17.19" x2="33.84" y2="-4.76998" gradientUnits="userSpaceOnUse">
<stop stop-color="#57BFE2"/>
<stop offset="1" stop-color="#9FDFDB" stop-opacity="0"/>
</linearGradient>
<linearGradient id="paint4_linear_106_28711" x1="26.43" y1="85.6301" x2="22.24" y2="70.9701" gradientUnits="userSpaceOnUse">
<stop stop-color="#57BFE2"/>
<stop offset="1" stop-color="#9FDFDB" stop-opacity="0"/>
</linearGradient>
<linearGradient id="paint5_linear_106_28711" x1="72.57" y1="61.8301" x2="62.71" y2="64.8701" gradientUnits="userSpaceOnUse">
<stop stop-color="#8246E0"/>
<stop offset="1" stop-color="#A96BE0" stop-opacity="0"/>
</linearGradient>
<clipPath id="clip0_106_28711">
<rect width="80.13" height="95.04" fill="white"/>
</clipPath>
</defs>
</svg>
