<svg width="263" height="80" viewBox="0 0 263 80" fill="none" xmlns="http://www.w3.org/2000/svg">
<path d="M99.696 77.872L92.912 69.744C91.0347 70.2133 89.1147 70.448 87.152 70.448C82.9707 70.448 79.1307 69.4667 75.632 67.504C72.1333 65.5413 69.36 62.832 67.312 59.376C65.264 55.8773 64.24 51.9307 64.24 47.536C64.24 43.184 65.264 39.28 67.312 35.824C69.36 32.3253 72.1333 29.5947 75.632 27.632C79.1307 25.6693 82.9707 24.688 87.152 24.688C91.376 24.688 95.216 25.6693 98.672 27.632C102.171 29.5947 104.923 32.3253 106.928 35.824C108.976 39.28 110 43.184 110 47.536C110 51.504 109.147 55.1307 107.44 58.416C105.776 61.6587 103.493 64.304 100.592 66.352L110.832 77.872H99.696ZM73.456 47.536C73.456 50.5227 74.032 53.1467 75.184 55.408C76.336 57.6693 77.936 59.4187 79.984 60.656C82.0747 61.8507 84.464 62.448 87.152 62.448C89.84 62.448 92.208 61.8507 94.256 60.656C96.304 59.4187 97.904 57.6693 99.056 55.408C100.208 53.1467 100.784 50.5227 100.784 47.536C100.784 44.5493 100.208 41.9467 99.056 39.728C97.904 37.4667 96.304 35.7387 94.256 34.544C92.208 33.3493 89.84 32.752 87.152 32.752C84.464 32.752 82.0747 33.3493 79.984 34.544C77.936 35.7387 76.336 37.4667 75.184 39.728C74.032 41.9467 73.456 44.5493 73.456 47.536ZM125.751 62.896H140.471V70H116.791V25.328H125.751V62.896ZM181.686 25.328L166.582 54.448V70H157.622V54.448L142.454 25.328H152.566L162.166 45.744L171.702 25.328H181.686ZM196.006 62.448H216.102V70H185.638V63.088L205.606 32.88H185.638V25.328H216.102V32.24L196.006 62.448ZM232.689 32.56V43.76H247.729V50.864H232.689V62.704H249.649V70H223.729V25.264H249.649V32.56H232.689Z" fill="white"/>
<path d="M20.8209 53.6418H36.0493C36.227 53.6418 36.3975 53.656 36.568 53.6773V37.916C36.4188 37.916 36.2696 37.9018 36.1204 37.9018H36.0919H20.892C17.9785 37.9018 15.6406 35.4431 15.8253 32.4869C16.003 29.7866 18.3622 27.7471 21.0625 27.7471H42.3382C50.2331 27.7471 56.6286 21.3445 56.6286 13.4568V12H20.8209C9.32322 12 0 21.3232 0 32.8209C0 44.3186 9.32322 53.6418 20.8209 53.6418Z" fill="url(#paint0_linear_106_28723)"/>
<path d="M36.568 63.7467C36.3406 63.7752 36.1061 63.7965 35.8716 63.7965H14.5959C6.70104 63.7965 0.305542 70.1991 0.305542 78.0869V79.5365H36.1203C36.2696 79.5365 36.4188 79.5294 36.568 79.5223V63.7396V63.7467Z" fill="url(#paint1_linear_106_28723)"/>
<path d="M42.5301 38.9109V78.5275C50.894 75.8272 56.9413 67.982 56.9413 58.7156C56.9413 49.4564 50.894 41.6112 42.5301 38.9038V38.9109Z" fill="url(#paint2_linear_106_28723)"/>
<path style="mix-blend-mode:multiply" d="M0 32.821C0 34.7183 0.25582 36.5446 0.731929 38.2927C1.22225 32.288 6.2747 28.0741 11.4693 25.857C18.2485 22.9577 25.8734 24.0734 32.9937 22.7019C37.4989 21.835 41.9261 20.4777 46.1116 18.5875C49.8423 16.9033 53.6085 14.807 56.6357 12.0072H20.8209C9.32322 12.0001 0 21.3233 0 32.821Z" fill="url(#paint3_linear_106_28723)"/>
<path style="mix-blend-mode:multiply" d="M14.5959 63.7964C6.70104 63.7964 0.305542 70.1991 0.305542 78.0868V79.5365C0.305542 79.5365 8.61969 71.6416 18.4403 71.6416C28.261 71.6416 35.1113 69.3819 36.5751 63.7467C36.3477 63.7751 36.1132 63.7964 35.8787 63.7964H14.603H14.5959Z" fill="url(#paint4_linear_106_28723)"/>
<path style="mix-blend-mode:multiply" d="M51.9386 72.2529C52.0239 59.8527 42.5301 38.911 42.5301 38.911V78.5276C46.2253 77.3338 49.4657 75.1309 51.9386 72.2529Z" fill="url(#paint5_linear_106_28723)"/>
<defs>
<linearGradient id="paint0_linear_106_28723" x1="41.7413" y1="52.249" x2="20.2169" y2="8.2764" gradientUnits="userSpaceOnUse">
<stop stop-color="#57BFE2"/>
<stop offset="1" stop-color="#9FDFDB"/>
</linearGradient>
<linearGradient id="paint1_linear_106_28723" x1="0.305542" y1="71.6416" x2="36.568" y2="71.6416" gradientUnits="userSpaceOnUse">
<stop stop-color="#57BFE2"/>
<stop offset="1" stop-color="#9FDFDB"/>
</linearGradient>
<linearGradient id="paint2_linear_106_28723" x1="42.5301" y1="58.7228" x2="56.9413" y2="58.7228" gradientUnits="userSpaceOnUse">
<stop stop-color="#8246E0"/>
<stop offset="1" stop-color="#A96BE0"/>
</linearGradient>
<linearGradient id="paint3_linear_106_28723" x1="28.4244" y1="24.2155" x2="24.0471" y2="8.61049" gradientUnits="userSpaceOnUse">
<stop stop-color="#57BFE2"/>
<stop offset="1" stop-color="#9FDFDB" stop-opacity="0"/>
</linearGradient>
<linearGradient id="paint4_linear_106_28723" x1="18.7814" y1="72.8496" x2="15.804" y2="62.4321" gradientUnits="userSpaceOnUse">
<stop stop-color="#57BFE2"/>
<stop offset="1" stop-color="#9FDFDB" stop-opacity="0"/>
</linearGradient>
<linearGradient id="paint5_linear_106_28723" x1="51.5691" y1="55.9373" x2="44.5624" y2="58.0975" gradientUnits="userSpaceOnUse">
<stop stop-color="#8246E0"/>
<stop offset="1" stop-color="#A96BE0" stop-opacity="0"/>
</linearGradient>
</defs>
</svg>
