<?xml version="1.0" encoding="UTF-8"?>
<svg xmlns="http://www.w3.org/2000/svg" xmlns:xlink="http://www.w3.org/1999/xlink" viewBox="0 0 80.13 131.92">
  <defs>
    <style>
      .cls-1 {
        fill: url(#linear-gradient-2);
      }

      .cls-2 {
        fill: url(#linear-gradient-4);
      }

      .cls-2, .cls-3, .cls-4 {
        mix-blend-mode: multiply;
      }

      .cls-5 {
        isolation: isolate;
      }

      .cls-3 {
        fill: url(#linear-gradient-6);
      }

      .cls-4 {
        fill: url(#linear-gradient-5);
      }

      .cls-6 {
        fill: #fff;
        font-family: Poppins-SemiBold, Poppins;
        font-size: 21px;
        font-weight: 600;
      }

      .cls-7 {
        fill: url(#linear-gradient-3);
      }

      .cls-8 {
        fill: url(#linear-gradient);
      }
    </style>
    <linearGradient id="linear-gradient" x1="58.74" y1="56.64" x2="28.45" y2="-5.24" gradientUnits="userSpaceOnUse">
      <stop offset="0" stop-color="#57bfe2"/>
      <stop offset="1" stop-color="#9fdfdb"/>
    </linearGradient>
    <linearGradient id="linear-gradient-2" x1=".43" y1="83.93" x2="51.46" y2="83.93" xlink:href="#linear-gradient"/>
    <linearGradient id="linear-gradient-3" x1="59.85" y1="65.74" x2="80.13" y2="65.74" gradientUnits="userSpaceOnUse">
      <stop offset="0" stop-color="#8246e0"/>
      <stop offset="1" stop-color="#a96be0"/>
    </linearGradient>
    <linearGradient id="linear-gradient-4" x1="40" y1="17.19" x2="33.84" y2="-4.77" gradientUnits="userSpaceOnUse">
      <stop offset="0" stop-color="#57bfe2"/>
      <stop offset="1" stop-color="#9fdfdb" stop-opacity="0"/>
    </linearGradient>
    <linearGradient id="linear-gradient-5" x1="26.43" y1="85.63" x2="22.24" y2="70.97" xlink:href="#linear-gradient-4"/>
    <linearGradient id="linear-gradient-6" x1="72.57" y1="61.83" x2="62.71" y2="64.87" gradientUnits="userSpaceOnUse">
      <stop offset="0" stop-color="#8246e0"/>
      <stop offset="1" stop-color="#a96be0" stop-opacity="0"/>
    </linearGradient>
  </defs>
  <g class="cls-5">
    <g id="Layer_2" data-name="Layer 2">
      <g id="OBJECTS">
        <text class="cls-6" transform="translate(1.07 119.47)"><tspan x="0" y="0">SQLYZE</tspan></text>
        <g>
          <path class="cls-8" d="m29.3,58.6h21.43,0c.25,0,.49.02.73.05v-22.18c-.21,0-.42-.02-.63-.02h-.04s-21.39,0-21.39,0c-4.1,0-7.39-3.46-7.13-7.62.25-3.8,3.57-6.67,7.37-6.67h29.94c11.11,0,20.11-9.01,20.11-20.11V0H29.3C13.12,0,0,13.12,0,29.3h0c0,16.18,13.12,29.3,29.3,29.3Z"/>
          <path class="cls-1" d="m51.46,72.81c-.32.04-.65.07-.98.07h-29.94c-11.11,0-20.11,9.01-20.11,20.11v2.04h50.4c.21,0,.42-.01.63-.02v-22.21Z"/>
          <path class="cls-7" d="m59.85,37.87v55.75c11.77-3.8,20.28-14.84,20.28-27.88h0c0-13.03-8.51-24.07-20.28-27.88Z"/>
          <path class="cls-2" d="m0,29.3h0c0,2.67.36,5.24,1.03,7.7.69-8.45,7.8-14.38,15.11-17.5,9.54-4.08,20.27-2.51,30.29-4.44,6.34-1.22,12.57-3.13,18.46-5.79,5.25-2.37,10.55-5.32,14.81-9.26H29.3C13.12,0,0,13.12,0,29.3Z"/>
          <path class="cls-4" d="m20.54,72.89c-11.11,0-20.11,9.01-20.11,20.11v2.04s11.7-11.11,25.52-11.11,23.46-3.18,25.52-11.11c-.32.04-.65.07-.98.07h-29.94Z"/>
          <path class="cls-3" d="m73.09,84.79c.12-17.45-13.24-46.92-13.24-46.92v55.75c5.2-1.68,9.76-4.78,13.24-8.83Z"/>
        </g>
      </g>
    </g>
  </g>
</svg>